<svg width="377" height="437" viewBox="0 0 377 437" fill="none" xmlns="http://www.w3.org/2000/svg">
<g clip-path="url(#clip0_517_46422)">
<path d="M269.051 427.87L293.101 356.29L360.491 372.17" stroke="#159FD8" stroke-width="10" stroke-miterlimit="10"/>
<path d="M8.25977 377.34L88.8698 361.14L114.51 428.86" stroke="#159FD8" stroke-width="10" stroke-miterlimit="10"/>
<path d="M295 163.4C295 221.07 248.25 267.82 190.59 267.82C132.93 267.82 86.1699 221.07 86.1699 163.4C86.1699 105.73 132.92 58.99 190.59 58.99C248.26 58.99 295 105.73 295 163.4Z" stroke="#231F20" stroke-width="10" stroke-miterlimit="10"/>
<path d="M190.409 5C103.029 5 32.1895 75.84 32.1895 163.22C32.1895 250.6 103.029 321.44 190.409 321.44C277.789 321.44 348.619 250.6 348.619 163.22C348.619 75.84 277.789 5 190.409 5ZM190.589 267.82C132.919 267.82 86.1695 221.07 86.1695 163.4C86.1695 105.73 132.919 58.99 190.589 58.99C248.259 58.99 294.999 105.73 294.999 163.4C294.999 221.07 248.249 267.82 190.589 267.82Z" fill="#D1D3D4" stroke="#231F20" stroke-width="10" stroke-miterlimit="10"/>
<path d="M295 163.4C295 221.07 248.25 267.82 190.59 267.82C132.93 267.82 86.1699 221.07 86.1699 163.4C86.1699 105.73 132.92 58.99 190.59 58.99C248.26 58.99 295 105.73 295 163.4Z" stroke="#231F20" stroke-width="10" stroke-miterlimit="10"/>
<path d="M68.0003 267.82L9.82031 370.81L92.8603 353.02L119.55 424.19L178.83 321.44" stroke="#231F20" stroke-width="10" stroke-miterlimit="10"/>
<path d="M202.949 321.44L263.389 424.19L288.599 348.57L365.709 367.84L305.489 267.82" stroke="#231F20" stroke-width="10" stroke-miterlimit="10"/>
<path d="M212.869 143.12C213.459 129.26 202.229 118.07 189.609 118.4C176.969 118.74 167.999 130.5 167.799 140.94C167.569 153.15 179.259 161.3 180.879 162.02C191.719 166.85 198.629 163.57 207.049 170.74C212.239 175.16 216.009 182.71 215.049 190.37C213.719 200.92 203.729 209.05 193.969 210C181.419 211.22 168.109 200.69 165.619 184.56" stroke="#231F20" stroke-width="20" stroke-miterlimit="10"/>
<path d="M191.719 232.33L191.879 213.66" stroke="#231F20" stroke-width="20" stroke-miterlimit="10"/>
<path d="M191.879 97.67L191.719 116.34" stroke="#231F20" stroke-width="20" stroke-miterlimit="10"/>
</g>
<defs>
<clipPath id="clip0_517_46422">
<rect width="376.23" height="436.21" fill="white"/>
</clipPath>
</defs>
</svg>
