<svg width="444" height="442" viewBox="0 0 444 442" fill="none" xmlns="http://www.w3.org/2000/svg">
<g clip-path="url(#clip0_571_26079)">
<path d="M335.869 11.78V53.62" stroke="#159FD8" stroke-width="10" stroke-miterlimit="10"/>
<path d="M115.75 11.78V53.62" stroke="#159FD8" stroke-width="10" stroke-miterlimit="10"/>
<path d="M438.689 86.54V417.25C438.689 427.9 430.049 436.54 419.399 436.54H43.6895" stroke="#159FD8" stroke-width="10" stroke-miterlimit="10"/>
<path d="M431.911 115.04H5.46094" stroke="black" stroke-width="10.86" stroke-miterlimit="10"/>
<path d="M27.6409 57.65H409.741C421.981 57.65 431.921 67.59 431.921 79.83V410C431.921 420.53 423.371 429.08 412.841 429.08H24.5409C14.0109 429.08 5.46094 420.53 5.46094 410V79.83C5.46094 67.59 15.4009 57.65 27.6409 57.65Z" stroke="black" stroke-width="10.92" stroke-miterlimit="10"/>
<path d="M109.029 0V98.64" stroke="black" stroke-width="10" stroke-miterlimit="10"/>
<path d="M328.35 0V98.64" stroke="black" stroke-width="10" stroke-miterlimit="10"/>
<path d="M218.199 383.61C256.199 348.43 294.209 313.26 332.209 278.08C356.829 246.4 351.829 200.3 321.069 174.67C290.219 148.96 243.799 152.48 217.129 182.62C188.829 155.15 148.799 149.33 123.269 165.12C89.8295 185.8 78.7895 245.06 115.849 287.62C149.969 319.61 184.079 351.61 218.199 383.6V383.61Z" stroke="#159FD8" stroke-width="12.05" stroke-miterlimit="10"/>
<path d="M303.45 274.66H236.67L225.12 254.62L204.91 299.02L188.42 224.83L170.27 280.03L154.6 254.62L142.23 276.82H79.5195" stroke="#159FD8" stroke-width="10.2" stroke-linejoin="round"/>
</g>
<defs>
<clipPath id="clip0_571_26079">
<rect width="443.69" height="441.54" fill="white"/>
</clipPath>
</defs>
</svg>
