<svg width="490" height="498" viewBox="0 0 490 498" fill="none" xmlns="http://www.w3.org/2000/svg">
<g clip-path="url(#clip0_1280_86328)">
<path d="M157.19 56.4404L117.44 96.2004" stroke="#D1D3D4" stroke-width="9.65" stroke-miterlimit="10"/>
<path d="M332.75 236L293 275.76" stroke="#D1D3D4" stroke-width="9.65" stroke-miterlimit="10"/>
<path d="M220.05 119.3L183.34 156.01" stroke="#D1D3D4" stroke-width="9.65" stroke-miterlimit="10"/>
<path d="M395.61 298.859L358.9 335.569" stroke="#D1D3D4" stroke-width="9.65" stroke-miterlimit="10"/>
<path d="M197.08 96.3301L175.45 117.96" stroke="#D1D3D4" stroke-width="9.65" stroke-miterlimit="10"/>
<path d="M372.64 275.89L351.01 297.52" stroke="#D1D3D4" stroke-width="9.65" stroke-miterlimit="10"/>
<path d="M176.57 75.8203L154.43 97.9603" stroke="#D1D3D4" stroke-width="9.65" stroke-miterlimit="10"/>
<path d="M352.13 255.38L329.99 277.52" stroke="#D1D3D4" stroke-width="9.65" stroke-miterlimit="10"/>
<path d="M312.48 204.909L305.66 211.729L430.36 336.429L332.9 433.889L208.2 309.189L201.38 316.009L329.49 444.119L332.9 447.539L444.01 336.429L312.48 204.909Z" fill="#231F20"/>
<path d="M140.7 241.69L18.5 119.49L115.96 22.0296L236.54 142.62L243.37 135.79L115.96 8.38965L4.85999 119.49L133.88 248.51L140.7 241.69Z" fill="#231F20"/>
<path d="M26.5 453L126.5 401.5C132.17 398.46 137.37 394.6 141.92 390.05L436.45 95.0348C446.86 84.5448 446.5 67.5148 435.66 57.4648L403.79 27.9548C393.35 18.2848 377.09 18.7548 367.22 29.0148L71.84 336.075C66.57 341.545 62.3 347.895 59.22 354.835L21 446.5L26.5 453Z" fill="#00A2DD"/>
<path d="M17.5 427L60 335L66 356L93.5 361L97.5 385.5L123 388.5L30 439.5L17.5 427Z" fill="white"/>
<path d="M397.5 116L329 50.0002C336.167 42.5002 353.6 24.3002 366 11.5002C378.4 -1.29984 392.167 4.8335 397.5 9.50016C401.167 12.5002 412.9 22.7002 430.5 39.5002C448.1 56.3002 441.833 72.5002 436.5 78.5002L397.5 116Z" fill="#D1D3D4"/>
<path d="M65 356.5L63 324.5L329 50.5L398 116L126 388.5L96.5 386L94.5 359.5L65 356.5Z" fill="white"/>
<path d="M6.92004 451.81L117.35 392.69C123.02 389.65 128.22 385.79 132.77 381.24L434.37 79.0299C444.78 68.5399 444.42 51.5099 433.58 41.4599L401.71 11.9499C391.27 2.27988 375.01 2.74988 365.14 13.0099L69.76 320.07C64.49 325.54 60.22 331.89 57.14 338.83L6.92004 451.81Z" stroke="black" stroke-width="10" stroke-linejoin="bevel"/>
<path d="M125.38 387.6L97.35 386.41C96.16 386.34 95.2201 385.34 95.2201 384.14V359.59L66.85 357.67C65.54 357.58 64.52 356.49 64.52 355.18L63.3 327.93" stroke="black" stroke-width="10" stroke-linejoin="bevel"/>
<path d="M18.8301 425.78L32.4201 439.33" stroke="black" stroke-width="9.92" stroke-linejoin="bevel"/>
<path d="M16.2799 430.74L22.7799 434.34L25.9999 438.39L23.7699 441.36L17.8999 442.96L13.6899 441.11L14.8499 436.32L16.2799 430.74Z" fill="black"/>
<path d="M92.1899 360.9L362.57 84.9697" stroke="#010101" stroke-width="10" stroke-linejoin="bevel"/>
<path d="M333.2 52.96L395.61 112.96" stroke="#010101" stroke-width="10" stroke-linejoin="bevel"/>
</g>
<defs>
<clipPath id="clip0_1280_86328">
<rect width="490" height="498" fill="white"/>
</clipPath>
</defs>
</svg>
