<svg width="460" height="246" viewBox="0 0 460 246" fill="none" xmlns="http://www.w3.org/2000/svg">
<g clip-path="url(#clip0_1280_86416)">
<path fill-rule="evenodd" clip-rule="evenodd" d="M64.2591 196.5H62V45L80.6199 41.4773L99.8953 37.4479L112.358 29.7627C114.076 28.4174 115.739 26.989 117.34 25.48C130.6 12.97 148.14 6 166.38 6H207.35C213.224 6 220.005 7.5766 225.947 9.26943L228.5 9L231.483 9.66736C238.703 7.26034 246.327 6 254.08 6H295.05C313.29 6 330.83 12.97 344.09 25.48C350.755 31.7629 358.496 36.6484 366.861 39.9554L376 42L399.5 44.5V198L340.529 199.697C339.169 205.517 336.234 211.044 331.72 215.6L328.89 218.46C315.85 231.62 294.59 231.67 281.49 218.57L274.74 225.19C256.6 242.97 227.52 242.82 209.56 224.86C188.88 244.21 156.94 244.82 135.53 226.29L113.2 196.68H63.96L64.2591 196.5Z" fill="white"/>
<path d="M63.96 196.68H113.2L135.53 226.29C156.94 244.82 188.88 244.21 209.56 224.86C227.52 242.82 256.6 242.97 274.74 225.19L281.49 218.57C294.59 231.67 315.85 231.62 328.89 218.46L331.72 215.6C344.68 202.52 344.63 181.43 331.61 168.41L248.84 85.6396" stroke="black" stroke-width="10" stroke-linejoin="bevel"/>
<path d="M261.5 75.5L249.5 87.0003L247 87.5002C223 103.5 223.74 121 205.5 121L187 126C181.5 123.5 169 119.5 168 118L158 102C154.371 110.037 160.029 104.616 162.479 113C164.105 118.562 167.071 123.818 171.381 128.26C185.681 142.99 209.261 143.17 223.781 128.65L269 82.5L261.5 75.5Z" fill="#00A2DD"/>
<path d="M397.47 44.96H393.13C374.9 44.96 357.36 37.99 344.09 25.48C330.83 12.97 313.29 6 295.05 6H254.08C235.13 6 216.95 13.53 203.55 26.93L166.34 64.14C152.13 78.35 151.96 101.34 165.95 115.76C180.25 130.49 203.83 130.67 218.35 116.15L262.66 71.84" stroke="black" stroke-width="10" stroke-linejoin="bevel"/>
<path d="M63.96 44.96H68.3C86.53 44.96 104.07 37.99 117.34 25.48C130.6 12.97 148.14 6 166.38 6H207.35C214.46 6 222.9 8.31 229.57 10.34" stroke="black" stroke-width="10" stroke-linejoin="bevel"/>
<path d="M397.47 198.45H341.43" stroke="black" stroke-width="10" stroke-miterlimit="10"/>
<path d="M0 28.71H66.2V207.68C66.2 214.24 60.87 219.57 54.31 219.57H0V28.71Z" fill="white"/>
<path d="M459.9 219.57H405.59C399.03 219.57 393.7 214.24 393.7 207.68V28.7103H459.9V219.57Z" fill="#D1D3D4"/>
<path d="M5 33.71H61.2V207.68C61.2 211.479 58.1086 214.57 54.31 214.57H5V33.71Z" stroke="black" stroke-width="10"/>
<path d="M454.9 214.57H405.59C401.791 214.57 398.7 211.479 398.7 207.68V33.7103H454.9V214.57Z" stroke="black" stroke-width="10"/>
<circle cx="32.5" cy="187.5" r="10.5" fill="#D9D9D9"/>
</g>
<defs>
<clipPath id="clip0_1280_86416">
<rect width="459.9" height="245.79" fill="white"/>
</clipPath>
</defs>
</svg>
