<svg xmlns="http://www.w3.org/2000/svg" xml:space="preserve" style="fill-rule:evenodd;clip-rule:evenodd;stroke-linejoin:round;stroke-miterlimit:2" viewBox="0 0 2552 618"><path d="M0-82.264c-9.117-28.553-33.692-46.26-61.106-46.26-49.707 0-74.839 42.256-74.839 87.377 0 45.177 22.267 87.433 70.809 87.433 41.699 0 59.437-29.718 70.309-55.989l59.41 31.414c-19.432 42.286-52.572 88.546-130.862 88.546-88.516 0-142.779-65.11-142.779-151.404 0-86.238 54.263-151.374 147.952-151.374 70.253 0 104.531 38.835 122.238 82.261L0-82.264Z" style="fill-rule:nonzero" transform="translate(992.232 363.604)"/><path d="M0 0c0 86.264-54.298 151.404-147.956 151.404-93.716 0-147.983-65.14-147.983-151.404s54.267-151.404 147.983-151.404C-54.298-151.404 0-86.264 0 0m-222.822 0c0 45.151 25.158 87.433 74.866 87.433 49.68 0 74.842-42.282 74.842-87.433 0-45.121-25.162-87.407-74.842-87.407-49.708 0-74.866 42.286-74.866 87.407" style="fill-rule:nonzero" transform="translate(1367.03 322.465)"/><path d="M0 191.995c0 29.692 6.868 42.256 10.842 48.568h-73.7c-4.56-6.868-6.838-18.876-6.838-26.271-26.858 21.685-58.271 33.109-94.241 33.109-54.881 0-98.306-34.834-98.306-90.824 0-56.575 45.147-81.707 87.989-90.298l29.136-5.699c25.158-5.143 57.711-10.842 75.422-17.124v-8.564c0-28.579-24.576-36.587-54.85-36.587-40.591 0-53.711 12.012-53.711 43.425l-69.697-2.861c0-67.974 59.994-94.275 123.408-94.275C-62.275-55.406 0-42.808 0 39.452v152.543Zm-69.696-95.997c-9.147 4.59-20.572 8.007-33.17 10.286l-38.279 8.007c-26.244 5.143-47.955 12.568-47.955 39.978 0 21.741 19.989 36 45.148 36 32.526 0 74.256-15.981 74.256-53.124V95.998Z" style="fill-rule:nonzero" transform="translate(1656.69 226.467)"/><path d="M0-94.888v-50.294h-62.271v-97.076l-69.727 38.196v58.88h-42.286v50.294h42.286V77.644c0 43.978 19.433 69.726 76.592 69.726 21.684 0 38.838-3.451 55.406-6.868V83.369c-10.316 1.143-21.158 3.421-30.857 3.421-26.858 0-31.414-12.567-31.414-35.417V-94.888H0Z" style="fill-rule:nonzero" transform="translate(1865.21 323.092)"/><path d="M0 92.55c-6.838 9.703-28.553 41.147-83.403 41.147-37.696 0-73.7-27.996-74.839-70.839H55.406c0-103.418-42.256-167.972-138.809-167.972-93.685 0-147.983 65.14-147.983 151.404 0 86.268 54.298 151.374 147.983 151.374 75.251 0 116.629-34.336 139.131-66.275L0 92.55ZM-83.403-47.981c46.846 0 65.692 41.729 65.692 57.128h-140.531c7.421-30.858 34.278-57.128 74.839-57.128" style="fill-rule:nonzero" transform="translate(2118.62 276.186)"/><path d="M0 18.468C-17.972-4.707-51.229-13.881-83.547-20.019c-13.764-3.213-26.214-4.586-38.721-7.099-.496-.061-.965-.061-1.461-.148-24.984-4.208-29.836-6.777-34.774-9.672-8.212-4.561-13.007-11.603-11.894-19.52 1.695-12.481 17.298-22.706 35.973-24.432l-.03-.087c5.904-.673 16.803-2.248 32.319.674 39.042 5.903 54.649 31.762 60.318 40.091l53.537-39.1c-1.756-2.569-3.682-5.173-5.673-7.742-20.689-26.741-55.141-53.011-112.213-56.607-.265-.026-.583-.056-.878-.087-3.3-.204-6.747-.261-10.198-.291-.818 0-1.579-.087-2.396-.087-.117 0-.205.026-.291.026-.175 0-.322-.026-.5-.026-44.825 0-87.577 15.868-108.296 49.825-8.243 13.472-13.094 29.688-13.094 49.033 0 17.768 4.825 31.387 12.802 41.995 10.021 13.442 25.246 22.006 42.256 28.053 10.169 3.187 35.448 9.09 75.482 16.542 41.027 7.625 49.004 18.963 49.299 28.375.027.117.027.261.027.408v.261c0 .848-.027 1.669-.144 2.513-1.783 12.772-18.324 23.263-38.078 25.018l.03.114c-6.286.674-17.798 2.282-34.222-.73-41.351-6.017-60.402-30.188-66.423-38.718l-54.18 37.726a161.321 161.321 0 0 0 6.021 7.921c21.919 27.349 58.389 54.237 118.821 57.919.291.026.613.057.904.087 3.538.204 7.16.261 10.812.291.908 0 1.695.087 2.573.087.088 0 .174-.03.292-.03.174 0 .352.03.526.03 47.486 0 92.754-16.219 114.699-50.963 8.708-13.794 13.851-30.392 13.851-50.177C13.529 43.278 8.417 29.34 0 18.468" style="fill-rule:nonzero" transform="translate(2449.02 311.282)"/><path d="M0-287.952v82.294h206.421V0h82.321v-287.952H0Z" style="fill:#ee3035;fill-rule:nonzero" transform="translate(329.802 287.952)"/><path d="M0-288.069V0h288.595v-82.321H82.29v-205.748H0Z" style="fill:#75bb43;fill-rule:nonzero" transform="translate(0 617.214)"/><path d="M0-288.038V0h82.29v-205.748h206.305v-82.29H0Z" style="fill:#00a2de;fill-rule:nonzero" transform="translate(0 288.041)"/><path d="M0-288.185V-82.32h-206.346V0H82.321v-288.185H0Z" style="fill:#fec325;fill-rule:nonzero" transform="translate(536.212 617.213)"/><path d="M0-74.926c6.282 0 12.42 1.608 18.411 4.852 5.991 3.212 10.664 7.829 13.998 13.85 3.361 6.021 5.026 12.273 5.026 18.789 0 6.46-1.635 12.655-4.939 18.616-3.304 5.964-7.921 10.581-13.851 13.881C12.681-1.635 6.486 0 0 0c-6.486 0-12.711-1.635-18.645-4.938-5.93-3.3-10.578-7.917-13.881-13.881-3.3-5.961-4.965-12.156-4.965-18.616 0-6.516 1.665-12.768 5.025-18.789 3.361-6.021 8.034-10.638 14.055-13.85C-12.447-73.318-6.282-74.926 0-74.926m0 6.225c-5.26 0-10.373 1.344-15.372 4.031-4.995 2.69-8.882 6.546-11.69 11.572-2.804 5.029-4.234 10.229-4.234 15.663 0 5.408 1.4 10.581 4.147 15.52 2.778 4.939 6.634 8.795 11.603 11.572C-10.577-7.599-5.404-6.195 0-6.195c5.377 0 10.577-1.404 15.546-4.148 4.939-2.777 8.795-6.633 11.542-11.572 2.778-4.939 4.121-10.112 4.121-15.52 0-5.434-1.373-10.634-4.178-15.663-2.808-5.026-6.69-8.882-11.689-11.572C10.346-67.357 5.23-68.701 0-68.701m-16.454 51.986v-40.326H-2.6c4.734 0 8.182.378 10.286 1.109 2.134.76 3.8 2.047 5.056 3.886 1.256 1.87 1.9 3.83 1.9 5.934 0 2.952-1.053 5.491-3.156 7.686-2.105 2.191-4.882 3.417-8.36 3.682 1.434.583 2.573 1.313 3.421 2.131 1.635 1.578 3.591 4.238 5.96 7.981l4.909 7.917H9.468l-3.564-6.369C3.096-28.083.817-31.209-.904-32.466c-1.2-.934-2.926-1.404-5.204-1.404h-3.826v17.155h-6.52Zm6.52-22.706h7.887c3.773 0 6.342-.557 7.716-1.696 1.374-1.109 2.074-2.6 2.074-4.469 0-1.169-.322-2.252-.992-3.186-.673-.965-1.578-1.666-2.747-2.105-1.2-.465-3.361-.7-6.547-.7h-7.391v12.156Z" style="fill-rule:nonzero" transform="translate(2513.75 473.084)"/></svg>