<svg viewBox="0 0 132 335" fill="none" xmlns="http://www.w3.org/2000/svg">
<path d="M27 134.7L19.3 175.7H12.1L6.09998 176.4L6 168.9L3.70001 168L2.20001 162.7L3.20001 153.3L5.59998 114.6L7.70001 83.2L10.8 77L15.4 73.3L19.8 71.7L32 69.7L44.4 68C44.4 68 47.6 77.1 54.3 75.5C61 73.9 62.9 68 62.9 68L87.4 68.9C87.4 68.9 97.8 68 103.3 82.6C108.8 97.2 115.5 117.9 115.5 117.9L115.4 122.3L112 127.5L102.4 139L96.1 146.3L92.9 153.1L91.1 155.6L88.4 155.1L84.8 152.7L82.7 148.5L81.2 143.9L80.9 140.5L81 137.3L84.6 131.4L93 121.2L93.9 118.5L93 116.8L87.8 105.1L84 96.9L84.2 111.3L85.1 119.3L84.8 122.8L83.5 125.1L82.2 126.4" fill="var(--illustration-color)"/>
<path d="M43 318.2V326H1.29999V320.1C1.29999 320.1 4.00002 315.5 9.90002 312.1C15.8 308.7 43 318.2 43 318.2Z" fill="white"/>
<path d="M91.5 310V318.8L129.5 334.1L130.9 327.5C130.9 327.5 132.6 320.6 124.6 314.3C116.6 308 91.5 310 91.5 310Z" fill="white"/>
<path d="M43 322.2V305.7C43 305.7 43.1 300 39.2 302.7C35.2 305.3 31.5 307.4 31.5 307.4L26.7 307.6L23.2 305.3L23.4 303.3L22.1 301.7L20.4 302L19.5 304L17.2 306.5L11.9 311.1L8.5 313.4C8.5 313.4 9.90002 316.1 9.90002 318.2C9.90002 320.3 9.90002 322.6 9.90002 322.6L43 322.2Z" fill="var(--illustration-color-dark)"/>
<path d="M91.4 314.2V299.6C91.4 299.6 93.1 297.5 96.9 300.7C100.6 303.9 107.7 302.7 107.7 302.7L111.3 303C111.3 303 111.8 298.3 114.2 298.7C116.5 299.1 116.6 304.4 116.6 304.4L118.5 308.6L124.1 314.1L127 316C127 316 123.4 316.5 121.2 327.1L91.4 314.2Z" fill="var(--illustration-color-dark)"/>
<path d="M28.3 133.9L29.2 141.6C29.2 141.6 40.9 146.7 55.3 146.2C69.7 145.7 79.3 141.1 79.3 141.1L79.9 132.4" fill="white"/>
<path d="M27 134.2L15.7 197C15.7 197 20.5 194.5 34.1 196.8C47.6 199.1 53.7 199.1 54.3 202L57.8 179.7L59.7 202.6C59.7 202.6 65.2 199 77.6 195.6C90 192.3 94.7 193.7 94.7 193.7L87.5 154.5C87.5 154.5 83.1 152.7 81.9 146.2C80.7 139.7 82.1 135.5 82.1 135.5L82.2 133.7L79.6 133.9L79.2 141.3C79.2 141.3 61.3 146.2 55.2 146.2C49.1 146.2 28.9 141.6 28.9 141.6L28.2 134.2H27Z" fill="#D4D4D4"/>
<path d="M20.8 293.7L42.9 293L51.3 199.8C51.3 199.8 38.3 195.7 23.3 196.1L20.8 293.7Z" fill="#F1CBBC"/>
<path d="M65.1 199.2L89.3 291.2L111.4 284.8L91.8 193.5C91.7 193.5 70.4 194.7 65.1 199.2Z" fill="#F1CBBC"/>
<path d="M6.90002 177.1L5.90002 191.8L11 213.2L13 214.1L14.7 213.2L14.3 208.7L11.2 194.7L12.4 192.3L13.6 196.3L14.7 204.8L16.6 206.1L18.6 204.9L18.4 201.2L18.1 199.7L15.6 197.6L19.3 175.5C19.3 175.7 10.7 175.3 6.90002 177.1Z" fill="#F1CBBC"/>
<path d="M44.4 68C44.4 68 47.8 76.9 54.3 75.5C60.8 74.1 62.9 68 62.9 68L60.9 57.2C60.9 57.2 65.7 54.5 67.5 47.1L68.3 39.6L65.9 41L64.6 43.5L62.9 42.6L62.2 39.8L62.4 35.9L61.7 34.9L59.5 35.7H55.6L54.1 35.5L52.4 39.8L48.7 42.7L48.2 45L44.2 46.6L42.1 44.7L40.3 44.2L38 45C38 45 42.1 53.9 45.2 55L44.4 68Z" fill="#F1CBBC"/>
<path d="M61.5 35.7L56.3 35.9L54.3 35.7L53.2 38.9L50.4 41.9L48.5 45.1L45.3 46.5L43.5 46.2L42.1 44.3L38.7 44.5L36.1 44.4L35.3 42.6L34.6 42.1L31.8 42.8L30.6 40.3L31.2 37.3V35.5L28.3 34.2L25.9 33.3L26.9 30.3L26.5 29.3L24.3 28.5L23.3 27.6L24.1 25.4L23.3 23.4L22.5 20.9V18.2L24.7 16.5L25.1 14.4L25.7 13L27.5 11.5L29.7 9.90001L29.9 7.7L31.9 6.90001L34.5 6.30001L36.7 5.80001L36.1 3.80001L36.5 2.30001L38.3 2.2L40.6 3.10001L42.6 4.30001L42.8 2.40001L44.3 1.10001L47.5 1.7L49.5 3.80001L50.7 2.80001L53.8 2.60001L55.4 4.00001L56.6 5.90001L58.5 5.7L60.7 5.10001L62.4 4.90001L63.7 5.80001L65.5 5.60001L67.7 6.50001L69.1 7.80001L72.6 8.7L73.8 9.40001L72.5 11.8V13L75.4 13.6L77.3 19L78.8 21.9L80 23L78.8 24.3L80.2 25.7L79.3 27.5L79.6 29.1V30.3L77.8 30.9L78.1 32.8L76.8 34.7L74.9 37.5L74 39.6L72.5 40.8L69.2 40.5L67.6 40.3L65.8 42L64.8 43.6L62.8 42.9V39L62.6 36.1L61.5 35.7Z" fill="#A4714E"/>
<path d="M91.5 299.6L89.3 291.2L111.4 284.8L114.3 298.6C114.3 298.6 111.4 299.4 111.4 302.9H101.2L97.9 301.4L95.1 298.8L92.5 298.9L91.5 299.6Z" fill="white"/>
<path d="M41.9 302.5L42.9 293L20.8 293.7V301.5C20.8 301.5 23.7 302 23.2 305.4L26 307.1L28.6 307.5L32.7 306.7L35.3 305.3L39.3 302.7L41.9 302.5Z" fill="white"/>
<path d="M23.3 201.6V196C23.3 196 16.8 196.1 15.8 196.9C14.7 197.7 20.9 202.6 23.3 201.6Z" fill="#BABABA"/>
<path d="M50.8 204.1L51.3 199.8C51.3 199.8 54.6 200.8 54.4 202.5C54.2 204.1 50.8 204.1 50.8 204.1Z" fill="#BABABA"/>
<path d="M65.1 199.2C65.1 199.2 59.6 201.5 59.8 202.7C60 203.9 66 203.3 66 203.3L65.1 199.2Z" fill="#BABABA"/>
<path d="M91.7 193.5L92.6 197.1C92.6 197.1 94.8 196.3 94.7 194C94.7 191.6 94.3 193.9 94.3 193.9L91.7 193.5Z" fill="#BABABA"/>
<path d="M25.4 127L25.5 133.7H82.2L82.4 125.8L75.9 126.6L25.4 127Z" fill="var(--illustration-color)"/>
<path d="M27 134.2L15.8 196.6C15.8 196.6 15 200.2 22.9 201.6" stroke="#252525" stroke-width="1.6" stroke-miterlimit="10" stroke-linejoin="round"/>
<path d="M51.3 204.1C51.3 204.1 54.1 204.7 54.4 202.3C54.7 199.9 58.1 178.1 58.1 178.1L59.8 202.5C59.8 202.5 59.9 204.2 65.9 203.5" stroke="#252525" stroke-width="1.6" stroke-miterlimit="10" stroke-linejoin="round"/>
<path d="M92.8 197.2C92.8 197.2 95.5 197 94.6 192.4C93.6 187.4 87.6 154.9 87.6 154.9" stroke="#252525" stroke-width="1.6" stroke-miterlimit="10" stroke-linejoin="round"/>
<path d="M59.8 202.5C59.8 202.5 60.5 199.6 77.1 195.7C93.7 191.8 94.8 194.4 94.8 194.4" stroke="#252525" stroke-width="1.6" stroke-miterlimit="10" stroke-linejoin="round"/>
<path d="M15.8 196.9C15.8 196.9 16.1 194.9 35.9 196.9C35.9 196.9 53.8 198.2 54.4 202.3" stroke="#252525" stroke-width="1.6" stroke-miterlimit="10" stroke-linejoin="round"/>
<path d="M76.2 150.5C76.2 150.5 77.6 157.2 83.4 159.3" stroke="#252525" stroke-width="1.6" stroke-miterlimit="10" stroke-linejoin="round"/>
<path d="M21.8 102.7C21.9 108.3 20.4 111.9 20.4 119.6C20.4 127.3 26.5 126.8 26.5 126.8H75.7C85.3 126.8 85.9 123.9 85 116.1C84.8 114.5 84.7 112.9 84.6 111.3L83.7 94.9C83.7 94.9 90.9 114.7 93.7 117.6C96.5 120.5 81.3 132.6 81.1 138.6C80.8 144.6 83.5 154.8 89.5 155.1C95.5 155.4 92.1 150 98.2 143.8C102.4 139.4 110 130.3 114.1 125.2C115.9 123 116.4 120 115.5 117.3L102.8 80.7C100.4 73.8 94.0001 69.1 86.8001 68.9L62.8 68.1C62.8 68.1 61.7 75.6 54 75.6C46.3 75.6 44.7 68.1 44.7 68.1L20.4 71.7C13.2 72.8 7.69999 78.7 7.29999 86L3.79999 144.3C3.79999 147.1 3.59999 149.9 3.29999 152.7C2.69999 157.8 1.89999 166.7 3.79999 168.2C6.39999 170.3 18.3 167.3 21 168.2" stroke="#252525" stroke-width="1.6" stroke-miterlimit="10" stroke-linejoin="round"/>
<path d="M6 169.3L6.29999 175.9C6.29999 176.3 6.6 176.5 7 176.5C8.6 176.2 13 175.4 15.8 175.4C19.4 175.4 19.6 175.9 19.6 175.9" stroke="#252525" stroke-width="1.6" stroke-miterlimit="10" stroke-linejoin="round"/>
<path d="M25.4 127V133.3C25.4 133.6 25.6 133.8 25.9 133.8H81.8C82.1 133.8 82.3 133.6 82.3 133.3V125.8" stroke="#252525" stroke-width="1.6" stroke-miterlimit="10" stroke-linejoin="round"/>
<path d="M79.8 133.9L79.2 141.3C79.2 141.3 66.5 145.6 54.9 146.2L53.8 146.1V133.9" stroke="#252525" stroke-width="1.6" stroke-miterlimit="10" stroke-linejoin="round"/>
<path d="M28.3 134.2L29 141.6C29 141.6 41.8 146.1 53.9 146.1" stroke="#252525" stroke-width="1.6" stroke-miterlimit="10" stroke-linejoin="round"/>
<path d="M81.8 133.9L81.9 135.9" stroke="#252525" stroke-width="1.6" stroke-miterlimit="10" stroke-linejoin="round"/>
<path d="M50.9 137.7C51.5075 137.7 52 137.208 52 136.6C52 135.992 51.5075 135.5 50.9 135.5C50.2925 135.5 49.8 135.992 49.8 136.6C49.8 137.208 50.2925 137.7 50.9 137.7Z" fill="#252525"/>
<path d="M39.5 69.1C39.5 69.1 42.6 80.4 54.3 80.7C62.2 80.9 66.8 72.4 67.4 68.5" stroke="#252525" stroke-width="1.6" stroke-miterlimit="10" stroke-linejoin="round"/>
<path d="M23.4 196.4L20.8 301.7" stroke="#252525" stroke-width="1.6" stroke-miterlimit="10" stroke-linejoin="round"/>
<path d="M42 302.4L51.3 199.7" stroke="#252525" stroke-width="1.6" stroke-miterlimit="10" stroke-linejoin="round"/>
<path d="M25 244.6C25 244.6 28.6 244.5 28.7 241.7" stroke="#252525" stroke-width="1.6" stroke-miterlimit="10" stroke-linejoin="round"/>
<path d="M65.1 199.7L91.5 299.6" stroke="#252525" stroke-width="1.6" stroke-miterlimit="10" stroke-linejoin="round"/>
<path d="M91.9 193.5L114.2 298.8" stroke="#252525" stroke-width="1.6" stroke-miterlimit="10" stroke-linejoin="round"/>
<path d="M89.3 291.4L111 284.9" stroke="#252525" stroke-width="1.6" stroke-miterlimit="10" stroke-linejoin="round"/>
<path d="M21 293.8L42.9 293.1" stroke="#252525" stroke-width="1.6" stroke-miterlimit="10" stroke-linejoin="round"/>
<path d="M19.6 304.7C19.6 304.7 19.3 301.6 21.6 301.8C23.9 301.9 23.2 305.6 23.2 305.6" stroke="#252525" stroke-width="1.6" stroke-miterlimit="10" stroke-linejoin="round"/>
<path d="M43 322.2L1.30002 322.9C1.30002 322.9 0.500003 317.7 8.1 313.6C15.7 309.6 18.9 302.7 22.1 304.7C25.2 306.7 24.9 307.3 29.6 307.4C34.3 307.5 38.7 302.1 41.2 302.3C41.2 302.3 43 301.8 43 305.6C43 309.5 43 322.2 43 322.2Z" stroke="#252525" stroke-width="1.6" stroke-miterlimit="10" stroke-linejoin="round"/>
<path d="M8.09998 313.6C8.09998 313.6 9.90002 314 9.90002 317.4C9.90002 320.8 9.90002 322.7 9.90002 322.7" stroke="#252525" stroke-width="1.6" stroke-miterlimit="10" stroke-linejoin="round"/>
<path d="M25.4 320.1C26.118 320.1 26.7 319.518 26.7 318.8C26.7 318.082 26.118 317.5 25.4 317.5C24.6821 317.5 24.1 318.082 24.1 318.8C24.1 319.518 24.6821 320.1 25.4 320.1Z" stroke="#252525" stroke-width="1.6" stroke-miterlimit="10" stroke-linejoin="round"/>
<path d="M31.8 320.1C32.518 320.1 33.1 319.518 33.1 318.8C33.1 318.082 32.518 317.5 31.8 317.5C31.082 317.5 30.5 318.082 30.5 318.8C30.5 319.518 31.082 320.1 31.8 320.1Z" stroke="#252525" stroke-width="1.6" stroke-miterlimit="10" stroke-linejoin="round"/>
<path d="M103.8 316.9C104.518 316.9 105.1 316.318 105.1 315.6C105.1 314.882 104.518 314.3 103.8 314.3C103.082 314.3 102.5 314.882 102.5 315.6C102.5 316.318 103.082 316.9 103.8 316.9Z" stroke="#252525" stroke-width="1.6" stroke-miterlimit="10" stroke-linejoin="round"/>
<path d="M109.7 319.3C110.418 319.3 111 318.718 111 318C111 317.282 110.418 316.7 109.7 316.7C108.982 316.7 108.4 317.282 108.4 318C108.4 318.718 108.982 319.3 109.7 319.3Z" stroke="#252525" stroke-width="1.6" stroke-miterlimit="10" stroke-linejoin="round"/>
<path d="M11.7 311.6L13.4 313.6" stroke="#252525" stroke-width="1.6" stroke-miterlimit="10" stroke-linejoin="round"/>
<path d="M14.7 309.1L16.5 311.2" stroke="#252525" stroke-width="1.6" stroke-miterlimit="10" stroke-linejoin="round"/>
<path d="M114.9 308.7L117.2 307.2" stroke="#252525" stroke-width="1.6" stroke-miterlimit="10" stroke-linejoin="round"/>
<path d="M117.4 312.4L119.4 310.6" stroke="#252525" stroke-width="1.6" stroke-miterlimit="10" stroke-linejoin="round"/>
<path d="M120.9 315.3L122.6 313.2" stroke="#252525" stroke-width="1.6" stroke-miterlimit="10" stroke-linejoin="round"/>
<path d="M18.2 306.1L20 308.1" stroke="#252525" stroke-width="1.6" stroke-miterlimit="10" stroke-linejoin="round"/>
<path d="M91.5 314.8V300.9C91.5 300.9 91 298.4 94.2 298.9C97.4 299.3 96.6 303.6 104.1 303.1C111.6 302.6 115.8 303.6 116.7 305.1C117.6 306.6 118.3 310.7 124.6 314.4C131.8 318.7 131.4 326.7 130.3 330.8L91.5 314.8Z" stroke="#252525" stroke-width="1.6" stroke-miterlimit="10" stroke-linejoin="round"/>
<path d="M121.2 327C121.2 327 123.7 315.9 127 316.1" stroke="#252525" stroke-width="1.6" stroke-miterlimit="10" stroke-linejoin="round"/>
<path d="M111.4 303C111.4 303 111 299.1 113.9 298.8C116.8 298.5 116.5 304.8 116.5 304.8" stroke="#252525" stroke-width="1.6" stroke-miterlimit="10" stroke-linejoin="round"/>
<path d="M94 235C94 235 94.4 238.8 97.7 238.9" stroke="#252525" stroke-width="1.6" stroke-miterlimit="10" stroke-linejoin="round"/>
<path d="M44.6 68L45.5 55.3" stroke="#252525" stroke-width="1.6" stroke-miterlimit="10" stroke-linejoin="round"/>
<path d="M38.3 44.8C39.4 47.8 41 51.5 43.4 53.6C48.8 58.2 55.3 58.8 60.3 57.5C64.1 56.5 68.3 51.9 68.2 40.3" stroke="#252525" stroke-width="1.6" stroke-miterlimit="10" stroke-linejoin="round"/>
<path d="M58 39C58 39 58.1 42.2 59.2 43.3C59.2 43.3 59.2 44.6 57.4 44.8" stroke="#252525" stroke-width="1.6" stroke-miterlimit="10" stroke-linejoin="round"/>
<path d="M52.3 47.6C52.3 47.6 52.6 48.6 54.4 48.9C56.2 49.2 58.7 48.9 58.7 48.9" stroke="#252525" stroke-width="1.6" stroke-miterlimit="10" stroke-linejoin="round"/>
<path d="M75.6999 35.8C78.2999 33 78.7 33.2 77.5 30.8C77.5 30.8 80.4 31.4 79.6 28.6C78.8 25.8 81.1 26.5 79.1 25.1C77.1 23.8 81.2 24.7 79 22.3C76.8 19.8 77.2 18.3 76.4 15.7C75.7 13.1 74.6 13.4 73.1 13.1C71.5 12.8 71.9999 11.9 73.1999 10.5C74.2999 9.10001 72 8.40001 69.5 7.90001C67 7.50001 66.9 4.90001 64.5 5.80001C62.1 6.80001 63.3 3.00001 56.6 6.20001C56.6 6.20001 54.9 1.70001 51.9 2.30001C48.9 2.90001 49.7 4.20001 49.7 4.20001C49.7 4.20001 46.9 0.400008 44.3 1.00001C41.7 1.60001 42.6 4.30001 42.6 4.30001C42.6 4.30001 37.2 0.500005 36.3 2.7C35.5 4.9 38 6.10001 35.1 6.20001C32.3 6.30001 30.1 5.80001 29.4 9.30001C28.8 12.8 24.9 11.2 24.9 14.7C24.8 18.2 21.7 16.7 22.3 20.5C22.9 24.3 24.3 23.8 23.4 27.1C22.5 30.4 28.3 27.2 26.2 31.5C24.1 35.8 32.8 33.7 31 36.9C29.2 40.1 31.1 45.2 35.3 41.2C35.3 41.2 34.4 46 39.3 44.4C44.2 42.8 41.5 47.6 46 46.2C50.5 44.8 47.1 43.4 51 41.1C54.8 38.8 52.2 34.4 56 35.8C59.8 37.1 62.6 33.2 62.5 37.1C62.4 41 61.7 42.6 64.1 43.1C66.5 43.6 64.7 39.7 68.6 39.8C68.6 39.8 73.1 41.7 73.9 39.5C74.7 37.3 75.6999 35.8 75.6999 35.8Z" stroke="#252525" stroke-width="1.6" stroke-miterlimit="10" stroke-linejoin="round"/>
<path d="M62.7 68L61 57.2" stroke="#252525" stroke-width="1.6" stroke-miterlimit="10" stroke-linejoin="round"/>
<path d="M7.00002 176.5L6.09999 190.9C5.99999 192.2 6.10004 193.5 6.40004 194.7L10.4 211.8C10.4 211.8 10.8 214.8 13.5 214.1C13.5 214.1 15.4 214 14.8 211.2C14.3 208.8 12.1 198.9 11.4 195.9C11.2 195.1 11.2 194.3 11.5 193.5C11.7 192.9 11.9 192.4 12.4 192.4C13.4 192.4 14.7 204.1 14.7 204.1C14.7 204.1 15 206.5 16.6 206.3C18.2 206.1 18.7 205.3 18.5 203.2C18.3 201.1 18.2 200.1 18.2 200.1" stroke="#252525" stroke-width="1.6" stroke-miterlimit="10" stroke-linejoin="round"/>
<path d="M1.29999 322.9V326H43V321.1" stroke="#252525" stroke-width="1.6" stroke-miterlimit="10" stroke-linejoin="round"/>
<path d="M91.5 314.8V318.9L129.5 334.2L130.2 330.7" stroke="#252525" stroke-width="1.6" stroke-miterlimit="10" stroke-linejoin="round"/>
<path d="M28.3 133.9L29.2 141.6C29.2 141.6 42.9 146.2 55 146.2" stroke="#252525" stroke-width="1.6" stroke-miterlimit="10" stroke-linejoin="round"/>
</svg>
