<svg viewBox="0 0 128 321" fill="none" xmlns="http://www.w3.org/2000/svg">
<path d="M81.9 149L121.1 114.5C128.8 108.8 128.2 97 119.9 92.1L82.2 63.5C77.8 60.8 72.8 59.3 67.6 59.3H61.7L22.8 62.1L16.6 63.1C9.19998 65.9 4.40005 72.9 4.30005 80.8L1.69995 169.7L20 170.3L21.5 128.4L22 90.4L26.5 111H70.1L75.4 83.3L105.3 104.3L78.8 129.9" fill="white"/>
<path d="M78.9 240.7C80.5 209 82.1 171.2 82.1 155.7C82.1 126.3 70 111 70 111H26.4C18.1 130.8 18.9 158.7 18.9 158.7L23.7 214.1C24.2 219.8 26.7001 225.2 30.8001 229.3L50.5 248.8L49.8001 293H76.2L77.2 274.5L84.3001 282.1L102.3 265L78.9 240.7Z" fill="var(--illustration-color)"/>
<path d="M69.3 300.7H75.1L75.3 320.2H51.6L51.7 300.7H56.3C56.3 300.7 58 297.2 63 297.4C67.8 297.5 69.3 300.7 69.3 300.7Z" fill="white"/>
<path d="M106.9 269.2L123.8 282.4L98.6 318.7L93.1 314.9C90 312.8 88.9 308.7 90.5 305.4C90.5 305.4 90.5 305.3 90.6 305.3C92.9 300.5 92.7 294.8 91 291.1C89.3 287.4 91.9 286.5 93.1 286.6C94.2 286.8 99.3 289.2 102.6 284.6C105.9 280 103.3 277.3 102.9 273.9C102.4 270.6 103.9 266.9 106.9 269.2Z" fill="white"/>
<path d="M119.6 281.8L114.1 288.8C114.1 288.8 108.7 283.9 110.2 280.1C111.7 276.3 113.2 274.5 113.2 274.5L120.5 280.4L119.6 281.8Z" fill="var(--illustration-color-dark)"/>
<path d="M93.5 285.6L102.9 273.1L104.3 280.5L102.2 285.6L97.4 287.3L92.8 286.9L93.5 285.6Z" fill="var(--illustration-color-dark)"/>
<path d="M51.6 303.9L51.7 300.3L56.7 300.7L54.5 303.9H51.6Z" fill="var(--illustration-color-dark)"/>
<path d="M69.4 301.3L72 304.8L75.3 305.1V300L69.4 301.3Z" fill="var(--illustration-color-dark)"/>
<path d="M33.1 21.7L42 13.5L49.9 10.8L60.6 12.5C60.6 12.5 67.4 34.4 55.1 43.9L52.1 45.8L41.9 45.3L39.1 43.7L35.3 40.1L33.1 21.7Z" fill="#B55A0E"/>
<path d="M51.7 293.1V300.7H56.3C56.3 300.7 58.5 297.3 63.2 297.6C67.9 297.9 69.2 300.7 69.2 300.7H74.9V293.1H51.7Z" fill="#B55A0E"/>
<path d="M86.4 280.9L93.3 286.3L102.7 274.1V270.9L104.1 268.8L103.6 267.6L101.2 266.1L86.4 280.9Z" fill="#B55A0E"/>
<path d="M4 169.6L15 170.3L16.4 175.1V182L15.6 183.9L17.8 198.2L18.9 205.1L17.9 206.6L16.5 206.8L15.8 209.3L13 209.8L11.7 209L8.80005 209.3L2.69995 185.6L4 169.6Z" fill="#B55A0E"/>
<path d="M33.1 68.9C36.3 75.3 46 79.4 52.4 76.7C60.9 73.1 63.9 63.3 61.3 58.6C58.7 53.8 57.8 41.9 57.8 41.9C57.8 41.9 55.8 46.2 49.1 46.5C42.4 46.8 35.3 40.1 35.3 40.1C35.3 40.1 32.1 27.8 33.5 22.4C34.8 17 42.2 11.3 49.9 10.7C57.6 10.1 61 13.1 61 13.1C61 13.1 54.6 1.1 47.5 0.999997C40.4 0.899997 33.9 3.6 31.5 8.4C29 13.1 25.8 17.9 26.5 29.1C27.2 40.3 26.7 51 25.2 54.5C23.7 58 23.3 65.3 14.1 76.7C14.1 76.7 15.5 78 18.7 76.6C21.9 75.2 27.1 73.4 30.3 74.6L33.1 68.9Z" fill="white"/>
<path d="M60.3001 29.3C58.4001 30.2 56.2 29.9 55.1 28.1C54 26.3 54.5001 24 56.3001 22.9C56.3001 22.9 58.7001 21.3 62.4001 23.3C62.4001 23.3 62.8001 28.1 60.3001 29.3Z" fill="#0F0F0F"/>
<path d="M45.6 29.7C47.7 29.9 49.6 28.7 50 26.6C50.4 24.5 49 22.6 46.9 22.2C46.9 22.2 43.8 21.3 41 24.4C40.9 24.4 41.4 29.2 45.6 29.7Z" fill="#0F0F0F"/>
<path d="M4.00005 169.6L3.10003 184.1C3.00003 185.5 3.10005 186.9 3.50005 188.3L7.8001 206.7C7.8001 206.7 8.2 209.9 11.2 209.2C11.2 209.2 13.3 209.1 12.6 206.1C12 203.5 9.70008 192.9 8.90008 189.6C8.70008 188.8 8.70005 187.9 9.00005 187C9.20005 186.4 9.50005 185.8 10.0001 185.8C11.0001 185.8 13.7 198 13.7 198C13.7 198 14.0001 200.6 15.8001 200.3C17.6001 200 18.1001 199.2 17.9001 196.9C17.7001 194.6 15.9001 183.2 15.9001 183.2C15.9001 183.2 17.2001 180.7 16.8001 176.5C16.4001 172.3 15.3001 170.2 15.3001 170.2" stroke="#252525" stroke-width="1.6" stroke-miterlimit="10" stroke-linejoin="round"/>
<path d="M74.8001 315.8H51.8001C51.8001 315.8 49.7001 303 62.9001 303C63.0001 303 74.8001 302.8 74.8001 315.8Z" stroke="#252525" stroke-width="1.6" stroke-miterlimit="10" stroke-linejoin="round"/>
<path d="M51.7 304.4C51.7 304.4 54.9 304.6 56.4 301.1C56.7 300.4 57.2 299.8 57.9 299.2C60.6 297 64.4 296.9 67.3 298.8C68.3 299.4 69.1 300.2 69.4 301.2C69.4 301.2 70.8 304.8 75 304.8" stroke="#252525" stroke-width="1.6" stroke-miterlimit="10" stroke-linejoin="round"/>
<path d="M69.3 300.7H75L75.3 320.1H51.6L51.7 300.7H56.3" stroke="#252525" stroke-width="1.6" stroke-miterlimit="10" stroke-linejoin="round"/>
<path d="M106.9 269.2L123.8 282.4L98.6 318.7L93.1 314.9C90 312.8 88.9 308.7 90.5 305.4C90.5 305.4 90.5 305.3 90.6 305.3C92.9 300.5 92.7 294.8 91 291.1C89.3 287.4 91.9 286.5 93.1 286.6C94.2 286.8 99.3 289.2 102.6 284.6C105.9 280 103.3 277.3 102.9 273.9C102.4 270.6 103.9 266.9 106.9 269.2Z" stroke="#252525" stroke-width="1.6" stroke-miterlimit="10" stroke-linejoin="round"/>
<path d="M120.8 280.1L95.5 316.5" stroke="#252525" stroke-width="1.6" stroke-miterlimit="10" stroke-linejoin="round"/>
<path d="M102.9 273.9L93.1 286.5" stroke="#252525" stroke-width="1.6" stroke-miterlimit="10" stroke-linejoin="round"/>
<path d="M113.2 274.1C113.2 274.1 105.7 282.3 114.2 289.5" stroke="#252525" stroke-width="1.6" stroke-miterlimit="10" stroke-linejoin="round"/>
<path d="M95.3 293.8C96.0732 293.8 96.7 293.173 96.7 292.4C96.7 291.627 96.0732 291 95.3 291C94.5269 291 93.9 291.627 93.9 292.4C93.9 293.173 94.5269 293.8 95.3 293.8Z" stroke="#252525" stroke-width="1.6" stroke-miterlimit="10" stroke-linejoin="round"/>
<path d="M95.6 300.4C96.3732 300.4 97 299.773 97 299C97 298.227 96.3732 297.6 95.6 297.6C94.8268 297.6 94.2 298.227 94.2 299C94.2 299.773 94.8268 300.4 95.6 300.4Z" stroke="#252525" stroke-width="1.6" stroke-miterlimit="10" stroke-linejoin="round"/>
<path d="M77.1 275.1C76.5 285.7 76.1 293 76.1 293H49.7L50.4 248.7" stroke="#252525" stroke-width="1.6" stroke-miterlimit="10" stroke-linejoin="round"/>
<path d="M51.4 148.2L52.1999 210.9C52.1999 212.2 52.6999 213.4 53.5999 214.3L102.2 265.1L84.5999 282.7L30.8 229.4C26.7 225.3 24.1999 220 23.6999 214.2L18.9 158.8C18.9 158.8 18 130.9 26.4 111.1H70C70 111.1 82.0999 126.5 82.0999 155.8C82.0999 171.2 80.4 209 78.9 240.8" stroke="#252525" stroke-width="1.6" stroke-miterlimit="10" stroke-linejoin="round"/>
<path d="M61.6 59.2H67.5C72.7 59.2 77.7 60.7 82.1 63.4L119.8 92C128.1 96.9 128.7 108.6 121 114.4L81.8 148.9" stroke="#252525" stroke-width="1.6" stroke-miterlimit="10" stroke-linejoin="round"/>
<path d="M70.1 111L75.3 83.3L105.2 104.3L78.7 129.9" stroke="#252525" stroke-width="1.6" stroke-miterlimit="10" stroke-linejoin="round"/>
<path d="M50.7 2.09998C50.7 2.09998 40.4 2.99998 35.2 13.1C33 17.4 32.4 22.2 33.2 27C34.3 33.2 36 46 35 57.1C33.6 72.5 30.2 74.7 30.2 74.7C30.2 74.7 23.2 74.2 19.4 76.3C15.6 78.4 13.6 77.3 13.6 77.3C13.6 77.3 20.5 68.7 22.7 62.2" stroke="#252525" stroke-width="1.6" stroke-miterlimit="10" stroke-linejoin="round"/>
<path d="M34.9 39.5C34.9 39.5 36.2 41.8 39.8 44.2C43.4 46.6 48.6 46.5 48.6 46.5C48.6 46.5 57.4 46.6 60.6 36.5C61.7 33 62.4 28.9 62.5 24.7V24C62.6 -2.90001 37.6 -4.8 30 10.9C26.9 17.2 26.8 21.7 26.5 26.3L26.6 39.5C27 53.1 22.8 62 22.8 62" stroke="#252525" stroke-width="1.6" stroke-miterlimit="10" stroke-linejoin="round"/>
<path d="M52.3 27.7C52.3 27.7 52.4 29.7 53.5 31.7C53.5 31.7 52.5 34.2 49.8 32.4" stroke="#252525" stroke-width="1.6" stroke-miterlimit="10" stroke-linejoin="round"/>
<path d="M45.4 36.5C45.4 36.5 48 38.2 51.7 37.8" stroke="#252525" stroke-width="1.6" stroke-miterlimit="10" stroke-linejoin="round"/>
<path d="M104.6 268.6L101.6 265.7" stroke="#252525" stroke-width="1.6" stroke-miterlimit="10" stroke-linejoin="round"/>
<path d="M92.8 286L86.9 280.9" stroke="#252525" stroke-width="1.6" stroke-miterlimit="10" stroke-linejoin="round"/>
<path d="M51.7 293.1V300.7" stroke="#252525" stroke-width="1.6" stroke-miterlimit="10" stroke-linejoin="round"/>
<path d="M75 293.1V300.7" stroke="#252525" stroke-width="1.6" stroke-miterlimit="10" stroke-linejoin="round"/>
<path d="M20 170.3L1.69995 169.7L4.30005 80.8C4.30005 72.9 9.19998 65.9 16.6 63.1L22.8 62.1" stroke="#252525" stroke-width="1.6" stroke-miterlimit="10" stroke-linejoin="round"/>
<path d="M26.5 111L21.9 90.4L21.4 128.4" stroke="#252525" stroke-width="1.6" stroke-miterlimit="10" stroke-linejoin="round"/>
<path d="M12 208.8C12 208.8 12.8 210.2 14.9 209.7C16.9 209.3 16.6 206.7 16.1 204.2L15.3 200.4" stroke="#252525" stroke-width="1.6" stroke-miterlimit="10" stroke-linejoin="round"/>
<path d="M16.5 206.8L17.9 206.6C17.9 206.6 19.2 206.3 18.8 204.1C18.5 202.5 17.6 199.1 17.6 199.1" stroke="#252525" stroke-width="1.6" stroke-miterlimit="10" stroke-linejoin="round"/>
<path d="M33.1 21.7C33.1 21.7 39.3 11.3 51.3 10.8C58.5 10.5 61 13.6 61 13.6" stroke="#252525" stroke-width="1.6" stroke-miterlimit="10" stroke-linejoin="round"/>
<path d="M57.8 41.8C57.8 41.8 58.7 53.7 61.3 58.5C63.9 63.3 60.9 73 52.4 76.6C46 79.3 36.2 75.2 33.1 68.8" stroke="#252525" stroke-width="1.6" stroke-miterlimit="10" stroke-linejoin="round"/>
<path d="M34.9 59.7C34.9 59.7 38.9 66.1 48.6 66.5" stroke="#252525" stroke-width="1.6" stroke-miterlimit="10" stroke-linejoin="round"/>
<path d="M60.3001 29.3C58.4001 30.2 56.2 29.9 55.1 28.1C54 26.3 54.5001 24 56.3001 22.9C56.3001 22.9 58.7001 21.3 62.4001 23.3C62.4001 23.3 62.8001 28.1 60.3001 29.3Z" stroke="#252525" stroke-width="1.6" stroke-miterlimit="10" stroke-linecap="round" stroke-linejoin="round"/>
<path d="M54.2 25.5C54.2 25.5 53.9 24.8 52.1 25C50.6 25.2 49.9 26.1 49.9 26.1" stroke="#252525" stroke-width="1.6" stroke-miterlimit="10" stroke-linecap="round" stroke-linejoin="round"/>
<path d="M33.8 25.1L40.6 24.7" stroke="#252525" stroke-width="1.6" stroke-miterlimit="10" stroke-linecap="round" stroke-linejoin="round"/>
<path d="M45.6 29.7C47.7 29.9 49.6 28.7 50 26.6C50.4 24.5 49 22.6 46.9 22.2C46.9 22.2 43.8 21.3 41 24.4C40.9 24.4 41.4 29.2 45.6 29.7Z" stroke="#252525" stroke-width="1.6" stroke-miterlimit="10" stroke-linecap="round" stroke-linejoin="round"/>
</svg>
