<svg viewBox="0 0 149 334" fill="none" xmlns="http://www.w3.org/2000/svg">
<path d="M62.9 126.4L24 212.1L23.4 216.9L25.3 228.4L36.2 290.3L65.4 282.3L54 221.1L54.9 217.1L85 162.8L85.7 167.8V177.1L85.8 292H114.9V284.5L118.6 191.1L119.4 168.9L119.5 155L119.2 148L114.9 126.8L113.8 126.1L62.9 126.4Z" fill="#D4D4D4"/>
<path d="M146.6 114.7L128.2 72.9L122.8 67.4L116.2 64.7L98 63.5L96.4 60.9L95.9 56L92.6 55.4L78.9 56.3L77.1 58.3L78 61.9L77.3 64.1L58.6 68.6L53 73.7L50.5 79.1L50.1 88.8L50.5 120.2L50.1 119L49.9 128.2L30.9 110.7L19.7 121.8L25.1 127.2C25.1 127.2 24.7 129.5 26.5 131.1C28.4 132.7 33.2 136.5 33.2 136.5C33.2 136.5 38.8 141.1 41.7 144C44.6 146.9 49.2 152.3 50.8 151.9C51 151.9 51.2 151.4 51.4 150.7L62.7 126H113.8L114.3 117.6C114.3 117.6 116 116.5 116.1 113.1C116.3 109.7 115.9 102.9 115.9 102.9L116.9 96.9L126.5 118.1L125.7 120.8L105.2 133.9C105.2 133.9 108 148.7 110.3 150.9L117.2 146.8L119.2 147.4L125.9 142.3L145.4 128.2L147.9 121.1L146.6 114.7Z" fill="var(--illustration-color-dark)"/>
<path d="M88.3 292.2V304.4L85.1 309.3C85.1 309.3 83.1 318.3 83.2 324.3H106.7L110.9 322.8L112.6 321.9V292.3H88.3V292.2Z" fill="#676769"/>
<path d="M109.7 292.6L109.4 307.7L110.1 313.7L110.9 315L112.2 313.6V296.1L112.6 292.2L109.7 292.6Z" fill="#424244"/>
<path d="M78.9 56.3V50.5L75.1 51.1L72.1 50L66.6 42.5L64.1 34.9L62.5 26.6L62.9 18.9L76.1 11.9L88.5 15.7L93.3 23.5L95.9 26.9L97.6 28.9L98 32.6L97.3 34.5L96.2 35.8L93.8 36.6L94.6 55.9L78.9 56.3Z" fill="#B8623D"/>
<path d="M60.3 19.1L63.8 18.8L66.2 20L71.9 18.5L75.7 16.3L80.5 15.6L85 18.2L87.1 22.5L89 25.6L93.5 26.3L95.8 26.1C95.8 26.1 97.6 13.3 93.7 8.7C89.8 4.1 84.7 0.899996 78.3 1.2C71.8 1.7 61.3 4.9 60.3 19.1Z" fill="#452003"/>
<path d="M65.5 39.2C65.5 39.2 69.3 51.4 75.1 51.1C80.9 50.8 91 46.9 91 39.2C91 31.5 92.3 26.4 92.3 26.4L89.4 26.2C89.4 26.2 87.7 29.7 86.3 33.5C84.9 37.3 83 37.6 78.9 36.8C74.8 36 69.9 35.6 65.5 39.2Z" fill="#452003"/>
<path d="M60.6 29.7C60.6 29.7 62.1 35.5 65.4 34.4C68.6 33.3 68.5 30.6 68.5 30.6C68.5 30.6 68.4 27.1 64.6 27.4C60.8 27.7 60.6 29.7 60.6 29.7Z" fill="#E7E7E7"/>
<path d="M72.1 28.1C72.1 28.1 72 33.6 76.6 32.5C81.2 31.4 80.1 26.5 80.1 26.5C80.1 26.5 77.6 25 75.8 25.3C74.2 25.5 72.1 28.1 72.1 28.1Z" fill="#E7E7E7"/>
<path d="M65.9 283.7L72.4 303.4L25.6 329.2C25.6 329.2 19.2 320.2 28.1 309.6C37 299 37.8 295.8 37.4 290.2L65.4 282.4L65.9 283.7Z" fill="#676769"/>
<path d="M44.9 288.3L47.6 294.7L47.3 302L47.2 306.2L48.6 308.3L51.5 307.9L59.9 303.5L60.9 300.6L59.9 297.3L58.1 294.4L57 289.1V284.6L44.9 288.3Z" fill="#424244"/>
<path d="M83.2 324.2V328.2L108.2 328L112.6 326.2V321.8L106.6 324.2H83.2Z" fill="#424244"/>
<path d="M25.7 329.1L27.4 332.7L73.7 307.1L72.4 303.4L25.7 329.1Z" fill="#424244"/>
<path d="M68.3 41.5C68.3 41.5 69.6 45.7 73.3 44.5C76.9 43.3 78.9 39.8 78.9 39.8C78.9 39.8 75.7 38 73 38.8C70.3 39.6 68.3 41.5 68.3 41.5Z" fill="#B8623D"/>
<path d="M63 23.8L60.5 22.8L59.3 20.1L62.5 18.5L63.3 19.4L63 23.8Z" fill="#2B1605"/>
<path d="M19.7 121.8L30.9 110.7L29.3 109.2L23.6 95.6C23.6 95.6 23.2 93.6 21.2 94.3C19.2 95 19.7 96.7 20.4 98.1C21.1 99.5 21.2 100.4 21.2 100.4L11.4 89.9C11.4 89.9 9.80001 88.8 8.20001 91.2L7.6 91.5C7.6 91.5 5.39998 90.3 4.29998 91.7C3.29998 93.1 4.29998 94.9 4.29998 94.9C4.29998 94.9 3.1 94.8 2.6 95.6C2.1 96.4 1.7 97.4 2.6 98.4C3.5 99.4 4.5 100.5 4.5 100.5C4.5 100.5 2.8 100.1 2 101.1C1.2 102.1 0.999997 103 2.5 104.7C4 106.2 19.7 121.8 19.7 121.8Z" fill="#B8623D"/>
<path d="M5.1 100.9C3.6 99.7 2.29998 100.9 2.29998 100.9C0.599984 102.5 2.20001 104.2 2.20001 104.2L25.1 127.3" stroke="#252525" stroke-width="1.6" stroke-miterlimit="10" stroke-linecap="round" stroke-linejoin="round"/>
<path d="M10.6 107.1L2.29999 97.9C2.29999 97.9 1.5 96.5 2.5 95.6C3.4 94.7 4.5 94.9 4.5 94.9" stroke="#252525" stroke-width="1.6" stroke-miterlimit="10" stroke-linecap="round" stroke-linejoin="round"/>
<path d="M13.5 103.9L4.20003 94.3C4.20003 94.3 3.10001 92.9 4.50001 91.6C5.80001 90.3 7.40002 91 8.10002 91.7C8.80002 92.4 17.3 102.1 17.3 102.1" stroke="#252525" stroke-width="1.6" stroke-miterlimit="10" stroke-linecap="round" stroke-linejoin="round"/>
<path d="M19.7 101.5C19.7 101.5 13 102.9 9.89999 108.1" stroke="#252525" stroke-width="1.6" stroke-miterlimit="10" stroke-linecap="round" stroke-linejoin="round"/>
<path d="M21.9 101.1L11.9 90.1C11.5 89.6 10.9 89.4 10.3 89.4C9.9 89.4 9.50002 89.6 9.10002 89.9C8.00002 91 8.3 91.8 8.3 91.8" stroke="#252525" stroke-width="1.6" stroke-miterlimit="10" stroke-linecap="round" stroke-linejoin="round"/>
<path d="M22 110.1C22 110.1 20.3 106 21.9 101.1L19.8 97.1C19.8 97.1 19.1 95.1 20.7 94.4C22.3 93.7 23 94.5 23.4 95.2C23.8 95.9 29.3 109.2 29.3 109.2L50.1 128.4V82.8C50.1 75.8 54.9 69.7 61.7 68L77.4 64.2C77.4 64.2 79.5 69.8 87.4 69.4C95.3 69 98 63.6 98 63.6L113.8 64.5C120.7 64.9 126.8 69.1 129.6 75.5L147 115.6C149.3 120.9 147.5 127.2 142.7 130.4L127.9 140.9C126.7 141.8 125.6 142.7 124.5 143.7C122.7 145.5 118.7 149.3 117.2 146.7L109.5 131" stroke="#252525" stroke-width="1.6" stroke-miterlimit="10" stroke-linecap="round" stroke-linejoin="round"/>
<path d="M85 162.8L55.3 216.1C54.1 218.1 53.7 220.4 54.1 222.6L65.4 282.7L36.1 290.3L23.5 218.3C23 215.6 23.4 212.7 24.7 210.2L62.8 126H113.9L115 127.4" stroke="#252525" stroke-width="1.6" stroke-miterlimit="10" stroke-linecap="round" stroke-linejoin="round"/>
<path d="M82.9 157.2C82.9 157.2 85.8 159.8 85.8 170C85.8 180.2 85.8 292.1 85.8 292.1H114.9C114.9 292.1 115.2 289.1 114.9 285.4C114.6 281.6 119.4 173.1 119.4 173.1C119.4 170.3 119.9 152.6 119.2 147.6" stroke="#252525" stroke-width="1.6" stroke-miterlimit="10" stroke-linecap="round" stroke-linejoin="round"/>
<path d="M62.9 126.1V119.5" stroke="#252525" stroke-width="1.6" stroke-miterlimit="10" stroke-linecap="round" stroke-linejoin="round"/>
<path d="M114 126.1L114.3 117.7" stroke="#252525" stroke-width="1.6" stroke-miterlimit="10" stroke-linecap="round" stroke-linejoin="round"/>
<path d="M59.8 92C59.8 92 60.2 93.2 60.1 100.6C60 108.1 57.3 119.6 62.4 118.8C67.5 117.9 82.4 118.5 92.3 119.1C102.2 119.7 113.9 119.9 115.5 116.1C117.1 112.3 116.1 108.9 116.1 104.8C116.1 100.7 117.1 96.3 117.1 96.3" stroke="#252525" stroke-width="1.6" stroke-miterlimit="10" stroke-linecap="round" stroke-linejoin="round"/>
<path d="M114.2 92C114.2 92 116 93.4 117.6 97.5C119.7 102.9 124.5 113 126.4 117.3C126.9 118.5 126.5 119.9 125.4 120.6L105.3 133.7" stroke="#252525" stroke-width="1.6" stroke-miterlimit="10" stroke-linecap="round" stroke-linejoin="round"/>
<path d="M104.5 132.5C104.5 132.5 107.5 147.3 111.6 152.9L109.1 155.9C109.1 155.9 104 149.1 101.4 133.1L104.5 132.5Z" stroke="#252525" stroke-width="1.6" stroke-miterlimit="10" stroke-linecap="round" stroke-linejoin="round"/>
<path d="M117.2 146.6L110.5 151.2" stroke="#252525" stroke-width="1.6" stroke-miterlimit="10" stroke-linecap="round" stroke-linejoin="round"/>
<path d="M77.3 64.1C77.3 64.1 78.2 62.7 77.7 60.5C77.2 58.4 76.2 55.9 81.3 55.9C86.4 55.9 91.8 55.4 91.8 55.4C91.8 55.4 96 54.7 96 58C96 58 95.9 63.3 97.9 63.5" stroke="#252525" stroke-width="1.6" stroke-miterlimit="10" stroke-linecap="round" stroke-linejoin="round"/>
<path d="M63.1 27.5C62.9 25.1 62.9 22.4 63.1 19.4" stroke="#252525" stroke-width="1.6" stroke-miterlimit="10" stroke-linecap="round" stroke-linejoin="round"/>
<path d="M91.9 27.4C91.9 27.4 90.7 35.2 91 38.4C91.3 41.6 90.5 46.2 84.3 48.5C78.1 50.9 74.8 52.6 71.2 49.1C68.9 46.8 65.8 42.5 64.1 34.9" stroke="#252525" stroke-width="1.6" stroke-miterlimit="10" stroke-linecap="round" stroke-linejoin="round"/>
<path d="M62.4 23.8C62.4 23.8 59.5 23.3 59.8 20.9C60.1 18.4 63 18.7 64.4 19.5C65.8 20.3 69.2 20.4 73.9 17.2C78.6 14 85.5 16.7 86.5 21.3C87.5 25.9 90.6 27.1 93.8 26.9C93.8 26.9 97.9 25.9 97.9 31.5C97.9 37.1 93.8 36.7 93.8 36.7L94.7 55.9" stroke="#252525" stroke-width="1.6" stroke-miterlimit="10" stroke-linecap="round" stroke-linejoin="round"/>
<path d="M95.8 26.3C95.8 26.3 98 13.8 92.6 7.69998C87.2 1.59998 75.5 -1.70002 67.8 4.59998C59.7 11.3 59.8 20.8 59.8 20.8" stroke="#252525" stroke-width="1.6" stroke-miterlimit="10" stroke-linecap="round" stroke-linejoin="round"/>
<path d="M64 34.4C65.9 34.7 67.8 33.9 68.4 32C69 30.1 67.9 28.2 66 27.6C66 27.6 63.4 26.7 60.6 29.5C60.6 29.5 61.4 34 64 34.4Z" stroke="#252525" stroke-width="1.6" stroke-miterlimit="10" stroke-linecap="round" stroke-linejoin="round"/>
<path d="M68.2 28.7C68.2 28.7 68.3 28 69.9 27.7C71.3 27.5 72.2 28.1 72.2 28.1" stroke="#252525" stroke-width="1.6" stroke-miterlimit="10" stroke-linecap="round" stroke-linejoin="round"/>
<path d="M91.9 26.6L80.1 26.4" stroke="#252525" stroke-width="1.6" stroke-miterlimit="10" stroke-linecap="round" stroke-linejoin="round"/>
<path d="M89.5 26.6C89.5 26.6 87.7 27.5 86.8 31.9C85.9 36.3 84.3 37.8 79.6 36.9C74.9 36 70.7 35.3 65.6 39.2" stroke="#252525" stroke-width="1.6" stroke-miterlimit="10" stroke-linecap="round" stroke-linejoin="round"/>
<path d="M78.9 39.9C78.9 39.9 76.9 38.4 73.2 39C69.5 39.5 68.2 41.3 68.2 41.3C68.2 41.3 69.4 45.7 73.6 44.6C77.7 43.4 78.9 39.9 78.9 39.9Z" stroke="#252525" stroke-width="1.6" stroke-miterlimit="10" stroke-linecap="round" stroke-linejoin="round"/>
<path d="M71.3 42C71.3 42 73.5 42.1 75.1 41.1" stroke="#252525" stroke-width="1.6" stroke-miterlimit="10" stroke-linecap="round" stroke-linejoin="round"/>
<path d="M78.9 55.9V50.5" stroke="#252525" stroke-width="1.6" stroke-miterlimit="10" stroke-linecap="round" stroke-linejoin="round"/>
<path d="M37.5 290.4C37.5 290.4 38.5 298.3 31.3 306C24.1 313.7 20.3 318.9 27.4 332.7L73.7 307.1L65.6 282.8" stroke="#252525" stroke-width="1.6" stroke-miterlimit="10" stroke-linecap="round" stroke-linejoin="round"/>
<path d="M26.3 329.1L72.4 303.4" stroke="#252525" stroke-width="1.6" stroke-miterlimit="10" stroke-linecap="round" stroke-linejoin="round"/>
<path d="M45.3 288.6C45.3 288.6 48.6 294.9 47.7 299.8C46.8 304.8 46.6 310 51.7 307.8C56.7 305.6 59.9 303.6 59.9 303.6C59.9 303.6 62.5 301.9 59.4 296.7C56.4 291.5 56.9 285.5 56.9 285.5" stroke="#252525" stroke-width="1.6" stroke-miterlimit="10" stroke-linecap="round" stroke-linejoin="round"/>
<path d="M88.3 292C88.3 292 88.6 304.6 87.6 305.7C85.4 308.2 83.2 309.1 83.2 328.2H105.7C105.7 328.2 109.2 328.5 112.3 326.2V292.5" stroke="#252525" stroke-width="1.6" stroke-miterlimit="10" stroke-linecap="round" stroke-linejoin="round"/>
<path d="M83.6 324.2H105.1C105.1 324.2 108.6 324.4 112.3 321.8" stroke="#252525" stroke-width="1.6" stroke-miterlimit="10" stroke-linecap="round" stroke-linejoin="round"/>
<path d="M87.6 305.7C87.6 305.7 90.3 303.4 95.6 303.4C104.2 303.4 105.9 308.3 105.9 308.3" stroke="#252525" stroke-width="1.6" stroke-miterlimit="10" stroke-linecap="round" stroke-linejoin="round"/>
<path d="M71.0999 36.6C68.7999 36.6 69.2 35.2 69.2 35.2C69.2 35.2 70.3 34.3 70.2 32.3" stroke="#252525" stroke-width="1.6" stroke-miterlimit="10" stroke-linecap="round" stroke-linejoin="round"/>
<path d="M77.2 32.3C75.4 33 73.3 32.4 72.5 30.6C71.7 28.8 72.4 26.7 74.2 25.9C74.2 25.9 76.8 24.3 80.1 26.4C80.1 26.4 80.8 30.8 77.2 32.3Z" stroke="#252525" stroke-width="1.6" stroke-miterlimit="10" stroke-linecap="round" stroke-linejoin="round"/>
<path d="M19.7 121.8L30.7 110.7" stroke="#252525" stroke-width="1.6" stroke-miterlimit="10" stroke-linecap="round" stroke-linejoin="round"/>
<path d="M36.7 116L25.2 127.3C25.2 127.3 24.6 129.4 26.8 131.3C29 133.2 37.2 139.4 39.4 141.6L47.9 150.1C48.8 151 49.8 151.6 50.9 151.9" stroke="#252525" stroke-width="1.6" stroke-miterlimit="10" stroke-linecap="round" stroke-linejoin="round"/>
<path d="M109.7 292.6C109.7 292.6 108.6 314.9 110.9 314.7C112.6 314.6 112.3 311.3 112.3 311.3" stroke="#252525" stroke-width="1.6" stroke-miterlimit="10" stroke-linecap="round" stroke-linejoin="round"/>
</svg>
