<svg viewBox="0 0 8 13" fill="none" xmlns="http://www.w3.org/2000/svg">
<path d="M0.766602 12.567C0.599935 12.4003 0.516602 12.203 0.516602 11.975C0.516602 11.747 0.599935 11.5499 0.766602 11.3837L5.64993 6.50033L0.749935 1.60033C0.594379 1.44477 0.516602 1.25033 0.516602 1.01699C0.516602 0.783659 0.599935 0.583659 0.766602 0.416992C0.933268 0.250326 1.1306 0.166992 1.3586 0.166992C1.5866 0.166992 1.78371 0.250326 1.94993 0.416992L7.54994 6.03366C7.6166 6.10033 7.66393 6.17255 7.69193 6.25033C7.71993 6.3281 7.73371 6.41144 7.73327 6.50033C7.73327 6.58921 7.71927 6.67255 7.69127 6.75033C7.66327 6.8281 7.61616 6.90033 7.54994 6.96699L1.93327 12.5837C1.77771 12.7392 1.58593 12.817 1.35793 12.817C1.12993 12.817 0.932824 12.7337 0.766602 12.567Z" fill="currentColor"/>
</svg>
