<svg width="8" height="13" viewBox="0 0 8 13" fill="none" xmlns="http://www.w3.org/2000/svg">
<path d="M7.23242 12.567C7.39909 12.4003 7.48242 12.203 7.48242 11.975C7.48242 11.747 7.39909 11.5499 7.23242 11.3837L2.34909 6.50033L7.24909 1.60033C7.40464 1.44477 7.48242 1.25033 7.48242 1.01699C7.48242 0.783659 7.39909 0.583659 7.23242 0.416992C7.06576 0.250326 6.86842 0.166992 6.64042 0.166992C6.41242 0.166992 6.21531 0.250326 6.04909 0.416992L0.449084 6.03366C0.382424 6.10033 0.335094 6.17255 0.307094 6.25033C0.279094 6.3281 0.265314 6.41144 0.265754 6.50033C0.265754 6.58921 0.279754 6.67255 0.307754 6.75033C0.335754 6.8281 0.382864 6.90033 0.449084 6.96699L6.06575 12.5837C6.22131 12.7392 6.41309 12.817 6.64109 12.817C6.86909 12.817 7.0662 12.7337 7.23242 12.567Z" fill="currentColor"/>
</svg>
