<svg xmlns="http://www.w3.org/2000/svg" fill="none" viewBox="0 0 19 19">
  <path fill="currentColor" d="M6.554 1.874h6.406a4.426 4.426 0 0 1 4.423 4.423v6.406a4.423 4.423 0 0 1-4.423 4.423H6.554a4.426 4.426 0 0 1-4.423-4.423V6.297a4.423 4.423 0 0 1 4.423-4.423Zm-.152 1.525a2.745 2.745 0 0 0-2.746 2.746v6.71a2.744 2.744 0 0 0 2.746 2.746h6.71a2.745 2.745 0 0 0 2.746-2.745V6.145a2.744 2.744 0 0 0-2.745-2.746H6.402Zm7.359 1.144a.953.953 0 1 1 0 1.907.953.953 0 0 1 0-1.907ZM9.757 5.687a3.813 3.813 0 1 1 0 7.626 3.813 3.813 0 0 1 0-7.626Zm0 1.525a2.288 2.288 0 1 0 0 4.576 2.288 2.288 0 0 0 0-4.576Z"/>
</svg>
