<svg xmlns="http://www.w3.org/2000/svg" fill="none" viewBox="0 0 10 10" height="10" width="10"><path stroke="currentColor" stroke-linecap="round" stroke-linejoin="round" d="M7.024 9.207a1 1 0 0 1-.707.293H3.683a1 1 0 0 1-.707-.293L.793 7.024A1 1 0 0 1 .5 6.317V3.683a1 1 0 0 1 .293-.707L2.976.793A1 1 0 0 1 3.683.5h2.634a1 1 0 0 1 .707.293l2.183 2.183a1 1 0 0 1 .293.707v2.634a1 1 0 0 1-.293.707L7.024 9.207Z"></path><path stroke="#currentColor" stroke-linecap="round" stroke-linejoin="round" d="M5 2.688v2.5"></path><path stroke="#currentColor" stroke-linecap="round" stroke-linejoin="round" d="M5 7.313a.25.25 0 0 1 0-.5"></path><path stroke="#currentColor" stroke-linecap="round" stroke-linejoin="round" d="M5 7.313a.25.25 0 0 0 0-.5"></path></svg>