<svg xmlns="http://www.w3.org/2000/svg" fill="none" viewBox="0 0 20 19">
  <path fill="currentColor" d="M17.946 4.924a6.533 6.533 0 0 1-1.876.527 3.278 3.278 0 0 0 1.434-1.815 6.59 6.59 0 0 1-2.075.8C14.828 3.78 13.982 3.4 13.02 3.4a3.268 3.268 0 0 0-3.256 3.272c0 .26.03.51.084.747a9.3 9.3 0 0 1-6.741-3.416 3.237 3.237 0 0 0-.443 1.64A3.22 3.22 0 0 0 4.12 8.355a3.236 3.236 0 0 1-1.487-.381v.023a3.274 3.274 0 0 0 2.623 3.21c-.48.132-.984.15-1.472.054a3.264 3.264 0 0 0 3.05 2.272 6.498 6.498 0 0 1-4.064 1.404c-.26 0-.519-.016-.778-.046a9.262 9.262 0 0 0 5.018 1.472c6.01 0 9.312-4.988 9.312-9.312 0-.145 0-.282-.008-.427a6.537 6.537 0 0 0 1.632-1.7Z"/>
</svg>
