<svg xmlns="http://www.w3.org/2000/svg" fill="none" viewBox="0 0 19 19">
  <path fill="currentColor" d="M17.202 6.007c-.068 1.487-1.106 3.524-3.111 6.117-2.074 2.714-3.829 4.049-5.278 4.049-.877 0-1.632-.824-2.25-2.478-.419-1.495-.8-3.005-1.227-4.515-.458-1.648-.946-2.471-1.48-2.471-.106 0-.503.244-1.19.724l-.716-.93a154.5 154.5 0 0 0 2.227-1.99c1.006-.87 1.761-1.328 2.257-1.373 1.19-.122 1.922.701 2.196 2.44.298 1.884.504 3.05.618 3.508.328 1.556.71 2.319 1.129 2.319.32 0 .8-.489 1.441-1.503.64-1.006.984-1.777 1.03-2.31.091-.87-.252-1.305-1.03-1.305-.366 0-.74.084-1.128.252.747-2.463 2.18-3.66 4.293-3.592 1.571.046 2.31 1.068 2.22 3.058Z"/>
</svg>
