<svg width="431" height="351" viewBox="0 0 431 351" fill="none" xmlns="http://www.w3.org/2000/svg">
<g clip-path="url(#clip0_1280_86377)">
<path d="M411.74 5.12988H35.62C18.78 5.12988 5.12 17.8899 5.12 33.6299V332.5" stroke="#159FD8" stroke-width="10.26" stroke-miterlimit="10"/>
<path d="M33.7201 15.3H404.58C415.92 15.3 425.13 24.51 425.13 35.85V327.72C425.13 337.47 417.21 345.39 407.46 345.39H30.8501C21.1001 345.39 13.1801 337.47 13.1801 327.72V35.84C13.1801 24.5 22.3901 15.29 33.7301 15.29L33.7201 15.3Z" stroke="black" stroke-width="10" stroke-miterlimit="10"/>
<path d="M58.61 64.17C63.2934 64.17 67.09 60.3733 67.09 55.69C67.09 51.0066 63.2934 47.21 58.61 47.21C53.9266 47.21 50.13 51.0066 50.13 55.69C50.13 60.3733 53.9266 64.17 58.61 64.17Z" fill="#159FD8"/>
<path d="M82.22 64.17C86.9034 64.17 90.7 60.3733 90.7 55.69C90.7 51.0066 86.9034 47.21 82.22 47.21C77.5366 47.21 73.74 51.0066 73.74 55.69C73.74 60.3733 77.5366 64.17 82.22 64.17Z" fill="#159FD8"/>
<path d="M105.13 64.17C109.813 64.17 113.61 60.3733 113.61 55.69C113.61 51.0066 109.813 47.21 105.13 47.21C100.447 47.21 96.65 51.0066 96.65 55.69C96.65 60.3733 100.447 64.17 105.13 64.17Z" fill="#159FD8"/>
<path d="M421.28 102.64H17.65" stroke="black" stroke-width="10" stroke-miterlimit="10"/>
<path d="M50.13 171.14H180.13" stroke="#D1D3D4" stroke-width="10" stroke-miterlimit="10"/>
<path d="M50.13 190.34H180.13" stroke="#D1D3D4" stroke-width="10" stroke-miterlimit="10"/>
<path d="M50.13 209.53H180.13" stroke="#D1D3D4" stroke-width="10" stroke-miterlimit="10"/>
<path d="M390.13 168.82H250.13V309.44H390.13V168.82Z" fill="#D1D3D4"/>
<path d="M198.92 210.635L191.92 217.636L206.062 231.778L213.062 224.778L198.92 210.635Z" fill="#159FD8"/>
<path d="M206.06 203.49L184.84 224.71L174.2 192.92L206.06 203.49Z" fill="#159FD8"/>
<path d="M180.13 248.82H49.63V309.96H180.13V248.82Z" fill="#D1D3D4"/>
</g>
<defs>
<clipPath id="clip0_1280_86377">
<rect width="430.13" height="350.38" fill="white"/>
</clipPath>
</defs>
</svg>
