<svg width="500" height="500" viewBox="0 0 500 500" fill="none" xmlns="http://www.w3.org/2000/svg">
<path d="M460 110V380H30V110H460ZM470 100H20V390H470V100Z" fill="#231F20"/>
<path d="M475 110V395H30" stroke="#159FD8" stroke-width="10" stroke-miterlimit="10"/>
<path d="M217.79 177.82L282.21 242.24L217.79 306.67V177.82Z" fill="#231F20"/>
<path d="M60 360.15H40V370H60V360.15Z" fill="#F1F2F2"/>
<path d="M60 340.08H40V349.93H60V340.08Z" fill="#F1F2F2"/>
<path d="M60 320H40V329.85H60V320Z" fill="#F1F2F2"/>
<path d="M60 300.08H40V309.93H60V300.08Z" fill="#F1F2F2"/>
<path d="M60 280.08H40V289.93H60V280.08Z" fill="#F1F2F2"/>
<path d="M60 260.08H40V269.93H60V260.08Z" fill="#F1F2F2"/>
<path d="M60 240.08H40V249.93H60V240.08Z" fill="#F1F2F2"/>
<path d="M60 220.08H40V229.93H60V220.08Z" fill="#F1F2F2"/>
<path d="M60 200.08H40V209.93H60V200.08Z" fill="#F1F2F2"/>
<path d="M60 180.08H40V189.93H60V180.08Z" fill="#F1F2F2"/>
<path d="M60 160.08H40V169.93H60V160.08Z" fill="#F1F2F2"/>
<path d="M60 140.08H40V149.93H60V140.08Z" fill="#F1F2F2"/>
<path d="M60 120.08H40V129.93H60V120.08Z" fill="#F1F2F2"/>
<path d="M450 360.15H430V370H450V360.15Z" fill="#F1F2F2"/>
<path d="M450 340.08H430V349.93H450V340.08Z" fill="#F1F2F2"/>
<path d="M450 320H430V329.85H450V320Z" fill="#F1F2F2"/>
<path d="M450 300.08H430V309.93H450V300.08Z" fill="#F1F2F2"/>
<path d="M450 280.08H430V289.93H450V280.08Z" fill="#F1F2F2"/>
<path d="M450 260.08H430V269.93H450V260.08Z" fill="#F1F2F2"/>
<path d="M450 240.08H430V249.93H450V240.08Z" fill="#F1F2F2"/>
<path d="M450 220.08H430V229.93H450V220.08Z" fill="#F1F2F2"/>
<path d="M450 200.08H430V209.93H450V200.08Z" fill="#F1F2F2"/>
<path d="M450 180.08H430V189.93H450V180.08Z" fill="#F1F2F2"/>
<path d="M450 160.08H430V169.93H450V160.08Z" fill="#F1F2F2"/>
<path d="M450 140.08H430V149.93H450V140.08Z" fill="#F1F2F2"/>
<path d="M450 120.08H430V129.93H450V120.08Z" fill="#F1F2F2"/>
</svg>
