<svg width="500" height="500" viewBox="0 0 500 500" fill="none" xmlns="http://www.w3.org/2000/svg">
<path d="M430.09 140H260V350H430.09V140Z" fill="#F1F2F2"/>
<path d="M210.09 230H59.9102V350H210.09V230Z" fill="#F1F2F2"/>
<path d="M460 110V380H30V110H460ZM470 100H20V390H470V100Z" fill="#231F20"/>
<path d="M45 130C47.7614 130 50 127.761 50 125C50 122.239 47.7614 120 45 120C42.2386 120 40 122.239 40 125C40 127.761 42.2386 130 45 130Z" fill="#159FD8"/>
<path d="M65 130C67.7614 130 70 127.761 70 125C70 122.239 67.7614 120 65 120C62.2386 120 60 122.239 60 125C60 127.761 62.2386 130 65 130Z" fill="#159FD8"/>
<path d="M85 130C87.7614 130 90 127.761 90 125C90 122.239 87.7614 120 85 120C82.2386 120 80 122.239 80 125C80 127.761 82.2386 130 85 130Z" fill="#159FD8"/>
<path d="M475 110V395H30" stroke="#159FD8" stroke-width="10" stroke-miterlimit="10"/>
<path d="M60 215H210" stroke="#F1F2F2" stroke-width="10.35" stroke-miterlimit="10"/>
<path d="M60 195H210" stroke="#F1F2F2" stroke-width="10.35" stroke-miterlimit="10"/>
<path d="M60 175H210" stroke="#F1F2F2" stroke-width="10.35" stroke-miterlimit="10"/>
<path d="M60 155H210" stroke="#F1F2F2" stroke-width="10.35" stroke-miterlimit="10"/>
<path d="M345.09 219.98V270.02" stroke="#159FD8" stroke-width="10" stroke-miterlimit="10"/>
<path d="M370.04 244.98H320.04" stroke="#159FD8" stroke-width="10" stroke-miterlimit="10"/>
<path d="M135.04 264.98V315.02" stroke="#159FD8" stroke-width="10" stroke-miterlimit="10"/>
<path d="M160 289.98H110" stroke="#159FD8" stroke-width="10" stroke-miterlimit="10"/>
</svg>
