<svg xmlns="http://www.w3.org/2000/svg" viewBox="0 0 1272 440">
  <style>
    .st1{fill:var(--illustration-color)}.st8{fill:#fff}.st10{fill:#d4d4d4}.st14{fill:none;stroke:#252525;stroke-width:1.6;stroke-linejoin:round;stroke-miterlimit:10}.st16{fill:#b55a0e}.st17{fill:#676769}.st20{fill:#ff9e7b}.st24{fill:none;stroke:#252525;stroke-width:1.6;stroke-linecap:round;stroke-linejoin:round;stroke-miterlimit:10}.st27{fill:#424244}.st28{fill:#b8623d}.st37{fill:var(--illustration-color-dark)}
  </style>
  <g>
    <path d="m979 213.7-7.7 41h-7.2l-6 .7-.1-7.5-2.3-.9-1.5-5.3 1-9.4 2.4-38.7 2.1-31.4 3.1-6.2 4.6-3.7 4.4-1.6 12.2-2 12.4-1.7s3.2 9.1 9.9 7.5 8.6-7.5 8.6-7.5l24.5.9s10.4-.9 15.9 13.7 12.2 35.3 12.2 35.3l-.1 4.4-3.4 5.2-9.6 11.5-6.3 7.3-3.2 6.8-1.8 2.5-2.7-.5-3.6-2.4-2.1-4.2-1.5-4.6-.3-3.4.1-3.2 3.6-5.9 8.4-10.2.9-2.7-.9-1.7-5.2-11.7-3.8-8.2.2 14.4.9 8-.3 3.5-1.3 2.3-1.3 1.3" class="st1"/>
    <g>
      <path d="M995 397.2v7.8h-41.7v-5.9s2.7-4.6 8.6-8c5.9-3.4 33.1 6.1 33.1 6.1m48.5-8.2v8.8l38 15.3 1.4-6.6s1.7-6.9-6.3-13.2c-8-6.3-33.1-4.3-33.1-4.3" class="st8"/>
    </g>
    <path d="M995 401.2v-16.5s.1-5.7-3.8-3c-4 2.6-7.7 4.7-7.7 4.7l-4.8.2-3.5-2.3.2-2-1.3-1.6-1.7.3-.9 2-2.3 2.5-5.3 4.6-3.4 2.3s1.4 2.7 1.4 4.8v4.4l33.1-.4zm48.4-8v-14.6s1.7-2.1 5.5 1.1c3.7 3.2 10.8 2 10.8 2l3.6.3s.5-4.7 2.9-4.3c2.3.4 2.4 5.7 2.4 5.7l1.9 4.2 5.6 5.5 2.9 1.9s-3.6.5-5.8 11.1l-29.8-12.9z" class="st37"/>
    <path d="m980.3 212.9.9 7.7s11.7 5.1 26.1 4.6c14.4-.5 24-5.1 24-5.1l.6-8.7" class="st8"/>
    <path d="M979 213.2 967.7 276s4.8-2.5 18.4-.2c13.5 2.3 19.6 2.3 20.2 5.2l3.5-22.3 1.9 22.9s5.5-3.6 17.9-7c12.4-3.3 17.1-1.9 17.1-1.9l-7.2-39.2s-4.4-1.8-5.6-8.3c-1.2-6.5.2-10.7.2-10.7l.1-1.8-2.6.2-.4 7.4s-17.9 4.9-24 4.9-26.3-4.6-26.3-4.6l-.7-7.4H979z" class="st10"/>
    <path fill="#f1cbbc" d="m972.8 372.7 22.1-.7 8.4-93.2s-13-4.1-28-3.7l-2.5 97.6zm44.3-94.5 24.2 92 22.1-6.4-19.6-91.3c-.1 0-21.4 1.2-26.7 5.7zm-58.2-22.1-1 14.7 5.1 21.4 2 .9 1.7-.9-.4-4.5-3.1-14 1.2-2.4 1.2 4 1.1 8.5 1.9 1.3 2-1.2-.2-3.7-.3-1.5-2.5-2.1 3.7-22.1c0 .2-8.6-.2-12.4 1.6zM996.4 147s3.4 8.9 9.9 7.5c6.5-1.4 8.6-7.5 8.6-7.5l-2-10.8s4.8-2.7 6.6-10.1l.8-7.5-2.4 1.4-1.3 2.5-1.7-.9-.7-2.8.2-3.9-.7-1-2.2.8h-3.9l-1.5-.2-1.7 4.3-3.7 2.9-.5 2.3-4 1.6-2.1-1.9-1.8-.5-2.3.8s4.1 8.9 7.2 10l-.8 13z"/>
    <path fill="#a4714e" d="m1013.5 114.7-5.2.2-2-.2-1.1 3.2-2.8 3-1.9 3.2-3.2 1.4-1.8-.3-1.4-1.9-3.4.2-2.6-.1-.8-1.8-.7-.5-2.8.7-1.2-2.5.6-3v-1.8l-2.9-1.3-2.4-.9 1-3-.4-1-2.2-.8-1-.9.8-2.2-.8-2-.8-2.5v-2.7l2.2-1.7.4-2.1.6-1.4 1.8-1.5 2.2-1.6.2-2.2 2-.8 2.6-.6 2.2-.5-.6-2 .4-1.5 1.8-.1 2.3.9 2 1.2.2-1.9 1.5-1.3 3.2.6 2 2.1 1.2-1 3.1-.2 1.6 1.4 1.2 1.9 1.9-.2 2.2-.6 1.7-.2 1.3.9 1.8-.2 2.2.9 1.4 1.3 3.5.9 1.2.7-1.3 2.4V92l2.9.6 1.9 5.4 1.5 2.9 1.2 1.1-1.2 1.3 1.4 1.4-.9 1.8.3 1.6v1.2l-1.8.6.3 1.9-1.3 1.9-1.9 2.8-.9 2.1-1.5 1.2-3.3-.3-1.6-.2-1.8 1.7-1 1.6-2-.7V118l-.2-2.9z"/>
    <path d="m1043.5 378.6-2.2-8.4 22.1-6.4 2.9 13.8s-2.9.8-2.9 4.3h-10.2l-3.3-1.5-2.8-2.6-2.6.1-1 .7zm-49.6 2.9 1-9.5-22.1.7v7.8s2.9.5 2.4 3.9l2.8 1.7 2.6.4 4.1-.8 2.6-1.4 4-2.6 2.6-.2z" class="st8"/>
    <g>
      <path fill="#bababa" d="M975.3 280.6V275s-6.5.1-7.5.9c-1.1.8 5.1 5.7 7.5 4.7zm27.5 2.5.5-4.3s3.3 1 3.1 2.7c-.2 1.6-3.6 1.6-3.6 1.6zm14.3-4.9s-5.5 2.3-5.3 3.5c.2 1.2 6.2.6 6.2.6l-.9-4.1zm26.6-5.7.9 3.6s2.2-.8 2.1-3.1c0-2.4-.4-.1-.4-.1l-2.6-.4z"/>
    </g>
    <path d="m977.4 206 .1 6.7h56.7l.2-7.9-6.5.8z" class="st1"/>
    <path d="m979 213.2-11.2 62.4s-.8 3.6 7.1 5m28.4 2.5s2.8.6 3.1-1.8c.3-2.4 3.7-24.2 3.7-24.2l1.7 24.4s.1 1.7 6.1 1m26.9-6.3s2.7-.2 1.8-4.8c-1-5-7-37.5-7-37.5" class="st14"/>
    <path d="M1011.8 281.5s.7-2.9 17.3-6.8 17.7-1.3 17.7-1.3m-79 2.5s.3-2 20.1 0c0 0 17.9 1.3 18.5 5.4m21.8-51.8s1.4 6.7 7.2 8.8" class="st14"/>
    <path d="M973.8 181.7c.1 5.6-1.4 9.2-1.4 16.9s6.1 7.2 6.1 7.2h49.2c9.6 0 10.2-2.9 9.3-10.7-.2-1.6-.3-3.2-.4-4.8l-.9-16.4s7.2 19.8 10 22.7c2.8 2.9-12.4 15-12.6 21-.3 6 2.4 16.2 8.4 16.5s2.6-5.1 8.7-11.3c4.2-4.4 11.8-13.5 15.9-18.6 1.8-2.2 2.3-5.2 1.4-7.9l-12.7-36.6c-2.4-6.9-8.8-11.6-16-11.8l-24-.8s-1.1 7.5-8.8 7.5c-7.7 0-9.3-7.5-9.3-7.5l-24.3 3.6c-7.2 1.1-12.7 7-13.1 14.3l-3.5 58.3c0 2.8-.2 5.6-.5 8.4-.6 5.1-1.4 14 .5 15.5 2.6 2.1 14.5-.9 17.2 0m-15 1.1.3 6.6c0 .4.3.6.7.6 1.6-.3 6-1.1 8.8-1.1 3.6 0 3.8.5 3.8.5" class="st14"/>
    <path d="M977.4 206v6.3c0 .3.2.5.5.5h55.9c.3 0 .5-.2.5-.5v-7.5m-2.5 8.1-.6 7.4s-12.7 4.3-24.3 4.9l-1.1-.1v-12.2" class="st14"/>
    <path d="m980.3 213.2.7 7.4s12.8 4.5 24.9 4.5m27.9-12.2.1 2" class="st14"/>
    <circle cx="1002.9" cy="215.6" r="1.1" fill="#252525"/>
    <path d="M991.5 148.1s3.1 11.3 14.8 11.6c7.9.2 12.5-8.3 13.1-12.2m-44 127.9-2.6 105.3m21.2.7 9.3-102.7M977 323.6s3.6-.1 3.7-2.9m36.4-42 26.4 99.9m.4-106.1 22.3 105.3m-24.9-7.4 21.7-6.5m-90 8.9 21.9-.7m-23.3 11.6s-.3-3.1 2-2.9c2.3.1 1.6 3.8 1.6 3.8" class="st14"/>
    <path d="m995 401.2-41.7.7s-.8-5.2 6.8-9.3c7.6-4 10.8-10.9 14-8.9 3.1 2 2.8 2.6 7.5 2.7 4.7.1 9.1-5.3 11.6-5.1 0 0 1.8-.5 1.8 3.3v16.6" class="st14"/>
    <path d="M960.1 392.6s1.8.4 1.8 3.8v5.3" class="st14"/>
    <circle cx="977.4" cy="397.8" r="1.3" class="st14"/>
    <circle cx="983.8" cy="397.8" r="1.3" class="st14"/>
    <circle cx="1055.8" cy="394.6" r="1.3" class="st14"/>
    <circle cx="1061.7" cy="397" r="1.3" class="st14"/>
    <path d="m963.7 390.6 1.7 2m1.3-4.5 1.8 2.1m98.4-2.5 2.3-1.5m.2 5.2 2-1.8m1.5 4.7 1.7-2.1m-104.4-7.1 1.8 2m71.5 6.7v-13.9s-.5-2.5 2.7-2c3.2.4 2.4 4.7 9.9 4.2s11.7.5 12.6 2 1.6 5.6 7.9 9.3c7.2 4.3 6.8 12.3 5.7 16.4l-38.8-16z" class="st14"/>
    <path d="M1073.2 406s2.5-11.1 5.8-10.9m-15.6-13.1s-.4-3.9 2.5-4.2c2.9-.3 2.6 6 2.6 6M1046 314s.4 3.8 3.7 3.9M996.6 147l.9-12.7m-7.2-10.5c1.1 3 2.7 6.7 5.1 8.8 5.4 4.6 11.9 5.2 16.9 3.9 3.8-1 8-5.6 7.9-17.2" class="st14"/>
    <path d="M1010 118s.1 3.2 1.2 4.3c0 0 0 1.3-1.8 1.5m-5.1 2.8s.3 1 2.1 1.3c1.8.3 4.3 0 4.3 0" class="st14"/>
    <path d="M1027.7 114.8c2.6-2.8 3-2.6 1.8-5 0 0 2.9.6 2.1-2.2s1.5-2.1-.5-3.5c-2-1.3 2.1-.4-.1-2.8-2.2-2.5-1.8-4-2.6-6.6-.7-2.6-1.8-2.3-3.3-2.6-1.6-.3-1.1-1.2.1-2.6 1.1-1.4-1.2-2.1-3.7-2.6-2.5-.4-2.6-3-5-2.1-2.4 1-1.2-2.8-7.9.4 0 0-1.7-4.5-4.7-3.9s-2.2 1.9-2.2 1.9-2.8-3.8-5.4-3.2-1.7 3.3-1.7 3.3-5.4-3.8-6.3-1.6c-.8 2.2 1.7 3.4-1.2 3.5-2.8.1-5-.4-5.7 3.1-.6 3.5-4.5 1.9-4.5 5.4-.1 3.5-3.2 2-2.6 5.8.6 3.8 2 3.3 1.1 6.6-.9 3.3 4.9.1 2.8 4.4-2.1 4.3 6.6 2.2 4.8 5.4s.1 8.3 4.3 4.3c0 0-.9 4.8 4 3.2 4.9-1.6 2.2 3.2 6.7 1.8 4.5-1.4 1.1-2.8 5-5.1 3.8-2.3 1.2-6.7 5-5.3 3.8 1.3 6.6-2.6 6.5 1.3-.1 3.9-.8 5.5 1.6 6s.6-3.4 4.5-3.3c0 0 4.5 1.9 5.3-.3s1.8-3.7 1.8-3.7zm-13 32.2-1.7-10.8m-54 119.3-.9 14.4c-.1 1.3 0 2.6.3 3.8l4 17.1s.4 3 3.1 2.3c0 0 1.9-.1 1.3-2.9-.5-2.4-2.7-12.3-3.4-15.3-.2-.8-.2-1.6.1-2.4.2-.6.4-1.1.9-1.1 1 0 2.3 11.7 2.3 11.7s.3 2.4 1.9 2.2c1.6-.2 2.1-1 1.9-3.1-.2-2.1-.3-3.1-.3-3.1m-16.9 122.8v3.1H995v-4.9m48.5-6.3v4.1l38 15.3.7-3.5M980.3 212.9l.9 7.7s13.7 4.6 25.8 4.6" class="st14"/>
  </g>
  <g>
    <path d="M715.2 236.3v-50.5c0-16.4-11.8-29.7-26.3-29.7s-26.3 13.3-26.3 29.7v61.1h8.6"/>
    <path d="m728.1 285.9-14-52.9c-1.9-8-9.7-13.1-17.8-11.6-8.9 1.6-14.6 10.4-12.3 19.1l11.5 45.4" class="st8"/>
    <path d="M721.7 285.9 708 233.8s-2.9-8.4-10.9-6.2-6.5 11.3-6.5 11.3l12.3 46.8m-20.4-108s-.4 10.5-12.5 13.6c0 0 2.3 19.2 18.3 16l.7 16.7s9.3-5 13.9-2.6l-4.7-18.3s3.8-4.6 5.9-10.2l2.9 1.2 2.4-1.6 1.3-2.6-.6-3.3-1.9-2-2.7.3c.1.1-14.5 5.5-23-7.2zm1.1 60-23.3 18.1-8.6-19.5-.7-18-1.3-1.2-2.1.1-1.1 4.2-6.4-13.3-3.7.3-2.8-.9-2.3.9-.4 2.7-1.9.4-1 1.8.8 3.2-2.7.5-1 2.5 25.9 55 2.9 2.6 4.2.7 3.7-1.8 26.3-19.6z" class="st16"/>
    <path d="M654.5 296.3h-24.6c-8.5 0-15.2 7.2-14.5 15.7l3.2 52.5h25.1" class="st8"/>
    <path d="m643.8 360.7 2.6 8.4 22-7.5-12.9-37.5h-5.7l1-4.7h-10l2.7 43zm-22.9 3.8c.3 3.7-3 8.9-12 8.9-12.1 0-11 15.7-11 15.7h30.4s-3.2-7.9 2.3-12.3 7.9-3.8 11.2-3.5l1.1-8.8h-22z" class="st8"/>
    <path d="m650.8 388.7 23.2-6.2-7.5-20.1-17.1 5.6s1.2 5.2-3.1 7.1c0 0 4.1 2.3 4.4 6.2s.1 7.4.1 7.4z" class="st8"/>
    <path d="m641.8 372.9 13.7-82.7c.4-2.4 2.5-4.2 5-4.2h81.1v38.1h-91.7" class="st17"/>
    <path d="m728.1 285.9-14-52.9c-1.9-8-9.7-13.1-17.8-11.6-8.9 1.6-14.6 10.4-12.3 19.1l11.5 45.4" class="st14"/>
    <path d="M721.7 285.9 708.3 234c-1.3-4.8-6.2-7.8-11-6.5-4.8 1.3-7.8 6.2-6.5 11l12.3 47.6" class="st14"/>
    <circle cx="735.1" cy="343.3" r="48.4" fill="none" stroke="#252525" stroke-linejoin="round" stroke-miterlimit="10" stroke-width="9.708"/>
    <circle cx="639.4" cy="384.8" r="11.9" fill="none" stroke="#252525" stroke-linejoin="round" stroke-miterlimit="10" stroke-width="4.854"/>
    <path d="M735.2 292.2v102.6m-51.3-51.3h102.6M699 379.8l72.5-72.6m-72.5 0 72.5 72.6m-181.4 9.3h38.2m13.5-16.2 13.7-82.7c.4-2.4 2.5-4.2 5-4.2h81.1v38.1h-91.7" class="st14"/>
    <path d="M654.5 296.3h-24.6c-8.5 0-15.2 7.2-14.5 15.7l3.2 52.5h25.1" class="st14"/>
    <path d="M650.8 319.4h-10l2.7 43m-45.6 26.7s-1.1-15.7 11-15.7c9 0 12.3-5.2 12-8.9m-22.4 21.3h29m16.3-25.1 2.6 8.4 22-7.5-12.9-37.5m11 38.3 7.5 20.2-23.2 6.1m21.9-9.1-21.4 5.6" class="st14"/>
    <path d="M649.4 368s1.2 5.2-3.1 7.1m-16.8-157.2c-1.2-1.8-3-1.1-3-1.1-2.4 1-1.3 3.4-1.3 3.4l25.4 53.5c1.8 4.1 7.1 5.4 10.6 2.7l26.8-20" class="st14"/>
    <path d="m633.1 226.5-5.3-12.9s-.3-1.8 1-2.4c1.3-.6 2.4 0 2.4 0m6.1 13-6.3-13.6s-.6-1.9 1.3-2.8c1.9-.9 3.3.4 3.8 1.5.4 1 5.9 14.5 5.9 14.5" class="st14"/>
    <path d="M644.8 224s-7.6-1-12.8 3.4m15.3-3-6.6-15.4c-.3-.6-.8-1.1-1.5-1.3-.4-.1-.9-.1-1.5.1-1.6.7-1.6 1.7-1.6 1.7" class="st14"/>
    <path d="M644 234s-.3-5 3.2-9.6l-.7-5s0-2.3 1.9-2.5c1.9-.2 2.4 1 2.5 1.8.2.8.7 17.5.7 17.5l1.8 4.5 6.7 15.1 23.3-18.1m6-13.3-.9-16.9M703 222l-4.8-19m-11-38.5c14.7 2.8 17.6 13.4 17.8 20.9.6-.5 1.3-.7 2-.7 2.1 0 3.8 2.1 3.8 4.7s-1.7 4.8-3.7 4.8c-1.1 0-2-.6-2.7-1.5v.2s-4.2 18.9-24.2 13.7c-14.9-3.9-15.2-46.3 7-42.1z" class="st14"/>
    <path d="M682.6 164.8s4.5 23.2-12.5 26.6" class="st14"/>
    <path d="M705 185.3s-17.4 4.3-22.3-8.3m3 15s-3 1.6-4.3-1.2c0 0 2.9-2.4 2.4-5.3m9.4 8.7s-2.6 4.8-8.5 5.1" class="st14"/>
    <path d="M715.2 236.3v-50.5c0-16.4-11.8-29.7-26.3-29.7s-26.3 13.3-26.3 29.7v61.1h8.6" class="st14"/>
  </g>
  <g>
    <path d="m856.2 374.7 44.6 31.2 5.5-8s3.5-5.2-3.3-12.1c-6.8-6.9-5.2-17.5-5.2-17.5l-1.8-2.2-2.9.5-3.9 2.5-4.2.5-3.9-1.9-3.5-3.9-.5-6-1.1-4.3-2.3-2.7h-2.4l-15.1 23.9zm-38.9-9.4 1 40.6 27 .2-.2-40.8z" class="st8"/>
    <path d="M870.3 378.7c6.8-12-5.3-18.3-5.3-18.3l-6.3 10.1 11.6 8.2zm10.7 7.6c13.4 5.3 17.5-4.2 24.1 1.5 0 0 4 6.2 1.1 10-2.8 3.8-3.1 4.3-3.1 4.3L881 386.3zm-35.7 15.6h-26.9s-.1-14.5 13.7-14.5c.1 0 13.2-.3 13.2 14.5z" class="st1"/>
    <path d="M821.7 212.3s-12.6 12.2-21.1 63.8c0 0 48.4 10.4 88-12.6l-18.9-27.6-7.1-23.6h-40.9z" class="st10"/>
    <path d="m815.1 278.1 30.1-.4-.1 87.2h-27.8zm43.7-3.1 22 27.9-5.9 33.1 26.2 8.1 9.1-42.3-.7-6.8-20.8-31.6c-.1.1-18 9.8-29.9 11.6z" class="st20"/>
    <path d="m815.3 176.7 6.2 34.9 41 .7 6-35.9 21.3 21.4-23.8 26.6 3.7 11.4 3 5.1 35.4-36.1 2.6-5.3.2-5.8-2.9-5.7-30.5-31.4-6.1-3.7-16.5-2.9s-2.2 5.2-9.8 5.6c-7.7.4-8.2-5.6-8.2-5.6l-16.4 2.1-6.6 1.3-5.7 4.4-32.7 31.4-2.5 5.1.8 6 2.4 4.1 33.2 33.9 6.3-16.7-21.1-24.1 20.7-20.8z" class="st17"/>
    <path d="m874.4 336-3.4 16.8 7.4 17.3h13.5l3.8-4.6 4.9-21.6z" class="st8"/>
    <path d="M828.5 119.8c1.1 13.5 7.5 19.1 12.2 19.7 8.9 1.3 17-3.8 19.4-15.4 0 0 3.5 2.4 4.7-4.6 1.2-6.9-4-5-4-5s4.1-18.7-9.4-22.8c0 0-19.6-7-22.5 15.8-.4 2.9-.5 5.6-.6 8.1" class="st20"/>
    <path fill="#f1d8b4" d="M861.7 110.3s-3.6 1.7-4.1-3.1c-.4-3.5-3.6-6.3-10.4-4.1-3.9 1.3-8.5.5-10.5-.6-5.7-3-7.6 3.9-7.6 3.9s1.6-16 15.8-15.6c0 0 10.3-9.7 18.5-3.6 8.3 6.1 6.5 9.6 6.7 15.9.2 6.3-1.4 7.7 6.2 13 7.7 5.4 3.5 21.5 3.5 21.5l-1.6 5.8 1.5 7.6 5.8 8.6 1.3 6.3-2.8-2.6-9.8-9.2-5.4-2.1-14-2.2L853 136s7.2-6.3 7-11.5c0 0 4.5.7 4.7-5.2.1-6-3.9-4.8-3.9-4.8l.9-4.2z"/>
    <ellipse cx="847.8" cy="118" class="st10" rx="5.3" ry="3.2" transform="matrix(.9997 -.02507 .02507 .9997 -2.69 21.292)"/>
    <ellipse cx="832.1" cy="117.3" class="st10" rx="3.2" ry="5.3" transform="rotate(-83.31 832.121 117.28)"/>
    <path d="m836.7 150.1 1.3-11.5 15.5-2.1.5 13.8-1.3 3.1-4.2 2.4-6.1-.3-3.1-.9-2.8-4.5z" class="st20"/>
    <path fill="none" stroke="#252525" stroke-linejoin="bevel" stroke-miterlimit="10" stroke-width="1.6" d="M845.8 90.7c-.5 0-.9-.6-.6-1 .5-.8 1.7-1.5 4.4-1 10.4 2 7.6 6.6 7.6 6.6s-1.1-2.1-6.3-3.6c-2.7-.8-4.2-1-5.1-1z"/>
    <path d="m862.5 212.3 6.1-35.9 21.1 21.2-23.5 26.8" class="st14"/>
    <path d="m873.1 241 33.5-34.7c5.2-5.4 5.7-12.8 1-18.6l-28.1-28.9c-3.2-3.9-7.7-6.4-12.7-6.9l-12.3-1.6-1.2-13.8" class="st14"/>
    <path d="M828.5 119.8c1.1 13.5 7.5 19.1 12.2 19.7 8.9 1.3 17-3.8 19.4-15.4 0 0 3.5 2.4 4.7-4.6 1.2-6.9-4-5-4-5s4.1-18.7-9.4-22.8c0 0-19.6-7-22.5 15.8-.3 2.5-.5 5.3-.6 7.4" class="st14"/>
    <path d="M829.1 106.5s1.9-6.9 7.6-3.9c1.9 1 6.6 1.8 10.5.6 6.8-2.3 10 .6 10.4 4.1.5 4.8 4.1 3.1 4.1 3.1" class="st14"/>
    <path d="M847.9 88.5s9-7.5 17.9.6c9.9 9-1.3 19.2 8.6 26 9.4 6.4 7.5 18.6 5 23.7-2.7 5.4-.4 13.2 3.1 16.6 0 0 4.6 4.2 4.1 10.8m-16.4 185.9-14 22.4 44.6 31.4 4.8-6.8c2.6-3.8 2.2-8.9-1.1-12.1l-.1-.1c-4.7-4.5-6.9-11.3-6.5-16.3.4-5-3-5-4.3-4.3-1.3.7-6.1 5.7-11.9 1.7-5.7-3.9-3.9-8.2-4.8-12.3-1-3.9-4.2-7.6-6.7-3.6" class="st14"/>
    <path d="m859.5 275 20.6 26.5c.6.7.8 1.7.6 2.6l-9.2 46.6m-56.4-72.5 3.2 127.9h27.1l-.3-24.2.1-104.2" class="st14"/>
    <path d="m895.5 366.1 14.3-62.3c1-4.5.1-9.1-2.5-12.9L869.6 236l-7.1-23.6h-40.8m23.6 189.5h-26.9s-.1-14.5 13.7-14.5c.1 0 13.2-.3 13.2 14.5z" class="st14"/>
    <path d="M817.6 388s5.1-.3 6.7-4.2c.3-.8 1-1.5 1.7-2.1 3-2.5 7.4-2.6 10.7-.5 1.1.7 1.8 1.6 2.3 2.7 0 0 1.6 4.1 6.3 4.1m13.4-17.5 44.7 31.6M865 360.5s12.1 6.3 5.3 18.3" class="st14"/>
    <circle cx="893.4" cy="373.3" r="1.7" class="st14"/>
    <circle cx="894.3" cy="379.3" r="1.7" class="st14"/>
    <path d="M821.7 212.3s-12.6 12.2-21.1 63.8c0 0 48.4 10.4 88-12.6M867.8 222l11.6 13.3m-12.3-7.7 3-2.6m-1.4 7.9 4.6-4.2m-1.8 9.2 5.1-5.1" class="st14"/>
    <path d="m821.6 212.3-6-35.9-21.2 21.2 21.4 24.3" class="st14"/>
    <path d="m809.1 238.9-31.5-32.7c-5.2-5.4-7-12.1-1-18.6l30.9-29.3c4.2-4.5 8.3-6 13.2-6.5l16.1-1.6 1.2-11.7m-24.2 80.4-11.6 13.4m11.6-6.5-2.9-2.7m1.1 6.9-4.6-4.2m2.7 9-5.1-5.1" class="st14"/>
    <path d="M836.7 150.1s0 5.7 8.5 5.7 9.1-5.5 9.1-5.5" class="st14"/>
    <path d="M833 150.3s0 8.5 11.7 9.1c11.5.6 13.1-8.3 13.1-8.3M881 386.3c13.4 5.3 17.5-4.2 24.1 1.5" class="st14"/>
    <ellipse cx="847.8" cy="118.4" class="st14" rx="5.3" ry="3.4" transform="rotate(-1.68 847.787 118.416) scale(1.00003)"/>
    <ellipse cx="832.1" cy="117.7" class="st14" rx="3.4" ry="5.3" transform="rotate(-82.184 832.087 117.706)"/>
    <path d="M852.8 117.9h2.5l5.7-4.4m-23.7 4.9s.7-1 2.6-.9c1.9.1 2.7 1.1 2.7 1.1m-3.5 2.9s-.7 2.4-1.7 3.8c0 0 .7 1.8 3.7 1.3m-1.8 5.3s3.3.8 5.8-.5 2.8-2.7 2.8-2.7m27 207.3 26.2 8.1m-83.8 20.8h27.8" class="st14"/>
  </g>
  <g>
    <path d="m1186.9 235 39.2-34.5c7.7-5.7 7.1-17.5-1.2-22.4l-37.7-28.6c-4.4-2.7-9.4-4.2-14.6-4.2h-5.9l-38.9 2.8-6.2 1c-7.4 2.8-12.2 9.8-12.3 17.7l-2.6 88.9 18.3.6 1.5-41.9.5-38 4.5 20.6h43.6l5.3-27.7 29.9 21-26.5 25.6" class="st8"/>
    <path d="M1183.9 326.7c1.6-31.7 3.2-69.5 3.2-85 0-29.4-12.1-44.7-12.1-44.7h-43.6c-8.3 19.8-7.5 47.7-7.5 47.7l4.8 55.4c.5 5.7 3 11.1 7.1 15.2l19.7 19.5-.7 44.2h26.4l1-18.5 7.1 7.6 18-17.1-23.4-24.3z" class="st1"/>
    <path d="M1174.3 386.7h5.8l.2 19.5h-23.7l.1-19.5h4.6s1.7-3.5 6.7-3.3c4.8.1 6.3 3.3 6.3 3.3zm37.6-31.5 16.9 13.2-25.2 36.3-5.5-3.8c-3.1-2.1-4.2-6.2-2.6-9.5 0 0 0-.1.1-.1 2.3-4.8 2.1-10.5.4-14.2-1.7-3.7.9-4.6 2.1-4.5 1.1.2 6.2 2.6 9.5-2s.7-7.3.3-10.7c-.5-3.3 1-7 4-4.7" class="st8"/>
    <g>
      <path d="m1224.6 367.8-5.5 7s-5.4-4.9-3.9-8.7c1.5-3.8 3-5.6 3-5.6l7.3 5.9-.9 1.4m-26.1 3.8 9.4-12.5 1.4 7.4-2.1 5.1-4.8 1.7-4.6-.4zm-41.9 18.3.1-3.6 5 .4-2.2 3.2zm17.8-2.6 2.6 3.5 3.3.3V386l-5.9 1.3" class="st37"/>
    </g>
    <path d="m1138.1 107.7 8.9-8.2 7.9-2.7 10.7 1.7s6.8 21.9-5.5 31.4l-3 1.9-10.2-.5-2.8-1.6-3.8-3.6-2.2-18.4zm18.6 271.4v7.6h4.6s2.2-3.4 6.9-3.1c4.7.3 6 3.1 6 3.1h5.7v-7.6h-23.2zm34.7-12.2 6.9 5.4 9.4-12.2v-3.2l1.4-2.1-.5-1.2-2.4-1.5zM1109 255.6l11 .7 1.4 4.8v6.9l-.8 1.9 2.2 14.3 1.1 6.9-1 1.5-1.4.2-.7 2.5-2.8.5-1.3-.8-2.9.3-6.1-23.7z" class="st16"/>
    <path d="M1138.1 154.9c3.2 6.4 12.9 10.5 19.3 7.8 8.5-3.6 11.5-13.4 8.9-18.1-2.6-4.8-3.5-16.7-3.5-16.7s-2 4.3-8.7 4.6c-6.7.3-13.8-6.4-13.8-6.4s-3.2-12.3-1.8-17.7c1.3-5.4 8.7-11.1 16.4-11.7s11.1 2.4 11.1 2.4-6.4-12-13.5-12.1c-7.1-.1-13.6 2.6-16 7.4-2.5 4.7-5.7 9.5-5 20.7.7 11.2.2 21.9-1.3 25.4s-1.9 10.8-11.1 22.2c0 0 1.4 1.3 4.6-.1s8.4-3.2 11.6-2l2.8-5.7z" class="st8"/>
    <path fill="#0f0f0f" d="M1165.3 115.3c-1.9.9-4.1.6-5.2-1.2-1.1-1.8-.6-4.1 1.2-5.2 0 0 2.4-1.6 6.1.4 0 0 .4 4.8-2.1 6zm-14.7.4c2.1.2 4-1 4.4-3.1.4-2.1-1-4-3.1-4.4 0 0-3.1-.9-5.9 2.2-.1 0 .4 4.8 4.6 5.3z"/>
    <path d="m1109 255.6-.9 14.5c-.1 1.4 0 2.8.4 4.2l4.3 18.4s.4 3.2 3.4 2.5c0 0 2.1-.1 1.4-3.1-.6-2.6-2.9-13.2-3.7-16.5-.2-.8-.2-1.7.1-2.6.2-.6.5-1.2 1-1.2 1 0 3.7 12.2 3.7 12.2s.3 2.6 2.1 2.3c1.8-.3 2.3-1.1 2.1-3.4-.2-2.3-2-13.7-2-13.7s1.3-2.5.9-6.7-1.5-6.3-1.5-6.3m59.5 145.6h-23s-2.1-12.8 11.1-12.8c.1 0 11.9-.2 11.9 12.8z" class="st14"/>
    <path d="M1156.7 390.4s3.2.2 4.7-3.3c.3-.7.8-1.3 1.5-1.9 2.7-2.2 6.5-2.3 9.4-.4 1 .6 1.8 1.4 2.1 2.4 0 0 1.4 3.6 5.6 3.6" class="st14"/>
    <path d="M1174.3 386.7h5.7l.3 19.4h-23.7l.1-19.4h4.6m50.6-31.5 16.9 13.2-25.2 36.3-5.5-3.8c-3.1-2.1-4.2-6.2-2.6-9.5 0 0 0-.1.1-.1 2.3-4.8 2.1-10.5.4-14.2-1.7-3.7.9-4.6 2.1-4.5 1.1.2 6.2 2.6 9.5-2s.7-7.3.3-10.7c-.5-3.3 1-7 4-4.7m13.9 10.9-25.3 36.4m7.4-42.6-9.8 12.6" class="st14"/>
    <path d="M1218.2 360.1s-7.5 8.2 1 15.4" class="st14"/>
    <circle cx="1200.3" cy="378.4" r="1.4" class="st14"/>
    <circle cx="1200.6" cy="385" r="1.4" class="st14"/>
    <path d="M1182.1 361.1c-.6 10.6-1 17.9-1 17.9h-26.4l.7-44.3" class="st14"/>
    <path d="m1156.4 234.2.8 62.7c0 1.3.5 2.5 1.4 3.4l48.6 50.8-17.6 17.6-53.8-53.3c-4.1-4.1-6.6-9.4-7.1-15.2l-4.8-55.4s-.9-27.9 7.5-47.7h43.6s12.1 15.4 12.1 44.7c0 15.4-1.7 53.2-3.2 85" class="st14"/>
    <path d="M1166.6 145.2h5.9c5.2 0 10.2 1.5 14.6 4.2l37.7 28.6c8.3 4.9 8.9 16.6 1.2 22.4l-39.2 34.5" class="st14"/>
    <path d="m1175.1 197 5.2-27.7 29.9 21-26.5 25.6m-28-127.8s-10.3.9-15.5 11c-2.2 4.3-2.8 9.1-2 13.9 1.1 6.2 2.8 19 1.8 30.1-1.4 15.4-4.8 17.6-4.8 17.6s-7-.5-10.8 1.6-5.8 1-5.8 1 6.9-8.6 9.1-15.1" class="st14"/>
    <path d="M1139.9 125.5s1.3 2.3 4.9 4.7c3.6 2.4 8.8 2.3 8.8 2.3s8.8.1 12-10c1.1-3.5 1.8-7.6 1.9-11.8v-.7c.1-26.9-24.9-28.8-32.5-13.1-3.1 6.3-3.2 10.8-3.5 15.4l.1 13.2c.4 13.6-3.8 22.5-3.8 22.5" class="st14"/>
    <path d="M1157.3 113.7s.1 2 1.2 4c0 0-1 2.5-3.7.7m-4.4 4.1s2.6 1.7 6.3 1.3m52.9 230.8-3-2.9m-8.8 20.3-5.9-5.1m-35.2 12.2v7.6m23.3-7.6v7.6m-55-130.4-18.3-.6 2.6-88.9c0-7.9 4.9-14.9 12.3-17.7l6.2-1" class="st14"/>
    <path d="m1131.5 197-4.6-20.6-.5 38m-9.4 80.4s.8 1.4 2.9.9c2-.4 1.7-3 1.2-5.5l-.8-3.8" class="st14"/>
    <path d="m1121.5 292.8 1.4-.2s1.3-.3.9-2.5c-.3-1.6-1.2-5-1.2-5m15.5-177.4s6.2-10.4 18.2-10.9c7.2-.3 9.7 2.8 9.7 2.8m-3.2 28.2s.9 11.9 3.5 16.7c2.6 4.8-.4 14.5-8.9 18.1-6.4 2.7-16.2-1.4-19.3-7.8" class="st14"/>
    <path d="M1139.9 145.7s4 6.4 13.7 6.8" class="st14"/>
    <path d="M1165.3 115.3c-1.9.9-4.1.6-5.2-1.2-1.1-1.8-.6-4.1 1.2-5.2 0 0 2.4-1.6 6.1.4 0 0 .4 4.8-2.1 6zm-6.1-3.8s-.3-.7-2.1-.5c-1.5.2-2.2 1.1-2.2 1.1m-16.1-1 6.8-.4" class="st24"/>
    <path d="M1150.6 115.7c2.1.2 4-1 4.4-3.1.4-2.1-1-4-3.1-4.4 0 0-3.1-.9-5.9 2.2-.1 0 .4 4.8 4.6 5.3z" class="st24"/>
  </g>
  <g>
    <path d="M505.9 203.4 467 289.1l-.6 4.8 1.9 11.5 10.9 61.9 29.2-8-11.4-61.2.9-4 30.1-54.3.7 5v9.3l.1 114.9h29.1v-7.5l3.7-93.4.8-22.2.1-13.9-.3-7-4.3-21.2-1.1-.7z" class="st10"/>
    <path d="m589.6 191.7-18.4-41.8-5.4-5.5-6.6-2.7-18.2-1.2-1.6-2.6-.5-4.9-3.3-.6-13.7.9-1.8 2 .9 3.6-.7 2.2-18.7 4.5-5.6 5.1-2.5 5.4-.4 9.7.4 31.4-.4-1.2-.2 9.2-19-17.5-11.2 11.1 5.4 5.4s-.4 2.3 1.4 3.9c1.9 1.6 6.7 5.4 6.7 5.4s5.6 4.6 8.5 7.5c2.9 2.9 7.5 8.3 9.1 7.9.2 0 .4-.5.6-1.2l11.3-24.7h51.1l.5-8.4s1.7-1.1 1.8-4.5c.2-3.4-.2-10.2-.2-10.2l1-6 9.6 21.2-.8 2.7-20.5 13.1s2.8 14.8 5.1 17l6.9-4.1 2 .6 6.7-5.1 19.5-14.1 2.5-7.1-1.3-6.4z" class="st37"/>
    <path d="M531.3 369.2v12.2l-3.2 4.9s-2 9-1.9 15h23.5l4.2-1.5 1.7-.9v-29.6h-24.3z" class="st17"/>
    <path d="m552.7 369.6-.3 15.1.7 6 .8 1.3 1.3-1.4v-17.5l.4-3.9z" class="st27"/>
    <path d="M521.9 133.3v-5.8l-3.8.6-3-1.1-5.5-7.5-2.5-7.6-1.6-8.3.4-7.7 13.2-7 12.4 3.8 4.8 7.8 2.6 3.4 1.7 2 .4 3.7-.7 1.9-1.1 1.3-2.4.8.8 19.3-15.7.4" class="st28"/>
    <path fill="#452003" d="m503.3 96.1 3.5-.3 2.4 1.2 5.7-1.5 3.8-2.2 4.8-.7 4.5 2.6 2.1 4.3 1.9 3.1 4.5.7 2.3-.2s1.8-12.8-2.1-17.4c-3.9-4.6-9-7.8-15.4-7.5-6.5.5-17 3.7-18 17.9zm5.2 20.1s3.8 12.2 9.6 11.9c5.8-.3 15.9-4.2 15.9-11.9s1.3-12.8 1.3-12.8l-2.9-.2s-1.7 3.5-3.1 7.3-3.3 4.1-7.4 3.3c-4.1-.8-9-1.2-13.4 2.4z"/>
    <path fill="#e7e7e7" d="M503.6 106.7s1.5 5.8 4.8 4.7c3.2-1.1 3.1-3.8 3.1-3.8s-.1-3.5-3.9-3.2c-3.8.3-4 2.3-4 2.3zm11.5-1.6s-.1 5.5 4.5 4.4c4.6-1.1 3.5-6 3.5-6s-2.5-1.5-4.3-1.2c-1.6.2-3.7 2.8-3.7 2.8z"/>
    <path d="m508.9 360.7 6.5 19.7-46.8 25.8s-6.4-9 2.5-19.6c8.9-10.6 9.7-13.8 9.3-19.4l28-7.8.5 1.3z" class="st17"/>
    <path d="m487.9 365.3 2.7 6.4-.3 7.3-.1 4.2 1.4 2.1 2.9-.4 8.4-4.4 1-2.9-1-3.3-1.8-2.9-1.1-5.3v-4.5zm38.3 35.9v4l25-.2 4.4-1.8v-4.4l-6 2.4zm-57.5 4.9 1.7 3.6 46.3-25.6-1.3-3.7z" class="st27"/>
    <path d="M511.3 118.5s1.3 4.2 5 3c3.6-1.2 5.6-4.7 5.6-4.7s-3.2-1.8-5.9-1-4.7 2.7-4.7 2.7z" class="st28"/>
    <path fill="#2b1605" d="m506 100.8-2.5-1-1.2-2.7 3.2-1.6.8.9z"/>
    <path d="m462.7 198.8 11.2-11.1-1.6-1.5-5.7-13.6s-.4-2-2.4-1.3-1.5 2.4-.8 3.8.8 2.3.8 2.3l-9.8-10.5s-1.6-1.1-3.2 1.3l-.6.3s-2.2-1.2-3.3.2c-1 1.4 0 3.2 0 3.2s-1.2-.1-1.7.7c-.5.8-.9 1.8 0 2.8.9 1 1.9 2.1 1.9 2.1s-1.7-.4-2.5.6-1 1.9.5 3.6c1.5 1.5 17.2 17.1 17.2 17.1z" class="st28"/>
    <path d="M448.1 177.9c-1.5-1.2-2.8 0-2.8 0-1.7 1.6-.1 3.3-.1 3.3l22.9 23.1" class="st24"/>
    <path d="m453.6 184.1-8.3-9.2s-.8-1.4.2-2.3c.9-.9 2-.7 2-.7m9 9-9.3-9.6s-1.1-1.4.3-2.7c1.3-1.3 2.9-.6 3.6.1.7.7 9.2 10.4 9.2 10.4" class="st24"/>
    <path d="M462.7 178.5s-6.7 1.4-9.8 6.6m12-7-10-11c-.4-.5-1-.7-1.6-.7-.4 0-.8.2-1.2.5-1.1 1.1-.8 1.9-.8 1.9" class="st24"/>
    <path d="M465 187.1s-1.7-4.1-.1-9l-2.1-4s-.7-2 .9-2.7c1.6-.7 2.3.1 2.7.8.4.7 5.9 14 5.9 14l20.8 19.2v-45.6c0-7 4.8-13.1 11.6-14.8l15.7-3.8s2.1 5.6 10 5.2c7.9-.4 10.6-5.8 10.6-5.8l15.8.9c6.9.4 13 4.6 15.8 11l17.4 40.1c2.3 5.3.5 11.6-4.3 14.8l-14.8 10.5c-1.2.9-2.3 1.8-3.4 2.8-1.8 1.8-5.8 5.6-7.3 3l-7.7-15.7" class="st24"/>
    <path d="m528 239.8-29.7 53.3c-1.2 2-1.6 4.3-1.2 6.5l11.3 60.1-29.3 7.6-12.6-72c-.5-2.7-.1-5.6 1.2-8.1l38.1-84.2h51.1l1.1 1.4" class="st24"/>
    <path d="M525.9 234.2s2.9 2.6 2.9 12.8v122.1h29.1s.3-3 0-6.7c-.3-3.8 4.5-112.3 4.5-112.3 0-2.8.5-20.5-.2-25.5m-56.3-21.5v-6.6m51.1 6.6.3-8.4M502.8 169s.4 1.2.3 8.6c-.1 7.5-2.8 19 2.3 18.2 5.1-.9 20-.3 29.9.3s21.6.8 23.2-3c1.6-3.8.6-7.2.6-11.3 0-4.1 1-8.5 1-8.5" class="st24"/>
    <path d="M557.2 169s1.8 1.4 3.4 5.5c2.1 5.4 6.9 15.5 8.8 19.8.5 1.2.1 2.6-1 3.3l-20.1 13.1m-.8-1.2s3 14.8 7.1 20.4l-2.5 3s-5.1-6.8-7.7-22.8l3.1-.6zm12.7 14.1-6.7 4.6m-33.2-87.1s.9-1.4.4-3.6c-.5-2.1-1.5-4.6 3.6-4.6s10.5-.5 10.5-.5 4.2-.7 4.2 2.6c0 0-.1 5.3 1.9 5.5m-34.8-36c-.2-2.4-.2-5.1 0-8.1m28.8 8s-1.2 7.8-.9 11c.3 3.2-.5 7.8-6.7 10.1-6.2 2.4-9.5 4.1-13.1.6-2.3-2.3-5.4-6.6-7.1-14.2" class="st24"/>
    <path d="M505.4 100.8s-2.9-.5-2.6-2.9c.3-2.5 3.2-2.2 4.6-1.4 1.4.8 4.8.9 9.5-2.3s11.6-.5 12.6 4.1 4.1 5.8 7.3 5.6c0 0 4.1-1 4.1 4.6s-4.1 5.2-4.1 5.2l.9 19.2" class="st24"/>
    <path d="M538.8 103.3s2.2-12.5-3.2-18.6c-5.4-6.1-17.1-9.4-24.8-3.1-8.1 6.7-8 16.2-8 16.2m4.2 13.6c1.9.3 3.8-.5 4.4-2.4.6-1.9-.5-3.8-2.4-4.4 0 0-2.6-.9-5.4 1.9 0 0 .8 4.5 3.4 4.9zm4.2-5.7s.1-.7 1.7-1c1.4-.2 2.3.4 2.3.4m19.7-1.5-11.8-.2m9.4.2s-1.8.9-2.7 5.3c-.9 4.4-2.5 5.9-7.2 5s-8.9-1.6-14 2.3m13.3.7s-2-1.5-5.7-.9c-3.7.5-5 2.3-5 2.3s1.2 4.4 5.4 3.3c4.1-1.2 5.3-4.7 5.3-4.7z" class="st24"/>
    <path d="M514.3 119s2.2.1 3.8-.9m3.8 14.8v-5.4m-41.4 239.9s1 7.9-6.2 15.6-11 12.9-3.9 26.7l46.3-25.6-8.1-24.3m-39.3 46.3 46.1-25.7" class="st24"/>
    <path d="M488.3 365.6s3.3 6.3 2.4 11.2c-.9 5-1.1 10.2 4 8 5-2.2 8.2-4.2 8.2-4.2s2.6-1.7-.5-6.9c-3-5.2-2.5-11.2-2.5-11.2m31.4 6.5s.3 12.6-.7 13.7c-2.2 2.5-4.4 3.4-4.4 22.5h22.5s3.5.3 6.6-2v-33.7" class="st24"/>
    <path d="M526.6 401.2h21.5s3.5.2 7.2-2.4m-24.7-16.1s2.7-2.3 8-2.3c8.6 0 10.3 4.9 10.3 4.9m-34.8-271.7c-2.3 0-1.9-1.4-1.9-1.4s1.1-.9 1-2.9m7 0c-1.8.7-3.9.1-4.7-1.7s-.1-3.9 1.7-4.7c0 0 2.6-1.6 5.9.5 0 0 .7 4.4-2.9 5.9zm-57.5 89.5 11-11.1m6 5.3-11.5 11.3s-.6 2.1 1.6 4 10.4 8.1 12.6 10.3l8.5 8.5c.9.9 1.9 1.5 3 1.8m58.8 140.7s-1.1 22.3 1.2 22.1c1.7-.1 1.4-3.4 1.4-3.4" class="st24"/>
  </g>
</svg>