<?xml version="1.0" encoding="utf-8"?>
<!-- Generator: Adobe Illustrator 27.5.0, SVG Export Plug-In . SVG Version: 6.00 Build 0)  -->
<svg version="1.1" xmlns="http://www.w3.org/2000/svg" xmlns:xlink="http://www.w3.org/1999/xlink" x="0px" y="0px"
	 viewBox="0 0 1272 440" style="enable-background:new 0 0 1272 440;" xml:space="preserve">
<style type="text/css">
	.st0{fill: var(--illustration-color-light);}
	.st1{fill: var(--illustration-color);}
	.st2{fill:#00A3E3;}
	.st3{fill:#0058CA;}
	.st4{fill:#50C722;}
	.st5{fill:#007F00;}
	.st6{fill:#FFC100;}
	.st7{fill:#FFA500;}
	.st8{fill:#FFFFFF;}
	.st9{fill:#006300;}
	.st10{fill:#D4D4D4;}
	.st11{fill:#F1CBBC;}
	.st12{fill:#A4714E;}
	.st13{fill:#BABABA;}
	.st14{fill:none;stroke:#252525;stroke-width:1.6;stroke-linejoin:round;stroke-miterlimit:10;}
	.st15{fill:#252525;}
	.st16{fill:#B55A0E;}
	.st17{fill:#676769;}
	.st18{fill:none;stroke:#252525;stroke-width:9.7084;stroke-linejoin:round;stroke-miterlimit:10;}
	.st19{fill:none;stroke:#252525;stroke-width:4.8542;stroke-linejoin:round;stroke-miterlimit:10;}
	.st20{fill:#FF9E7B;}
	.st21{fill:#F1D8B4;}
	.st22{fill:none;stroke:#252525;stroke-width:1.6;stroke-linejoin:bevel;stroke-miterlimit:10;}
	.st23{fill:#0F0F0F;}
	.st24{fill:none;stroke:#252525;stroke-width:1.6;stroke-linecap:round;stroke-linejoin:round;stroke-miterlimit:10;}
	.st25{fill:none;stroke:#252525;stroke-width:1.1283;stroke-linejoin:round;stroke-miterlimit:10;}
	.st26{fill:none;stroke:#252525;stroke-width:1.1283;stroke-linecap:round;stroke-linejoin:round;stroke-miterlimit:10;}
	.st27{fill:#424244;}
	.st28{fill:#B8623D;}
	.st29{fill:#452003;}
	.st30{fill:#E7E7E7;}
	.st31{fill:#2B1605;}
	.st32{fill:none;stroke:#252525;stroke-width:1.1303;stroke-linecap:round;stroke-linejoin:round;stroke-miterlimit:10;}
	.st33{fill:#FF8C00;}
	.st34{fill:#003EA0;}
	.st35{fill:none;stroke:#252525;stroke-width:1.1275;stroke-linejoin:bevel;stroke-miterlimit:10;}
	.st36{fill:none;stroke:#252525;stroke-width:1.1275;stroke-linejoin:round;stroke-miterlimit:10;}
	.st37{fill:var(--illustration-color-dark);}
	.st38{fill:none;stroke:#252525;stroke-width:1.1043;stroke-linejoin:round;stroke-miterlimit:10;}
	.st39{fill:none;stroke:#252525;stroke-width:1.1043;stroke-linecap:round;stroke-linejoin:round;stroke-miterlimit:10;}
	.st40{fill:none;stroke:#252525;stroke-width:1.1567;stroke-linejoin:round;stroke-miterlimit:10;}
	.st41{fill:none;stroke:#252525;stroke-width:1.1206;stroke-linejoin:round;stroke-miterlimit:10;}
	.st42{fill:none;stroke:#252525;stroke-width:6.7239;stroke-linejoin:round;stroke-miterlimit:10;}
	.st43{fill:none;stroke:#252525;stroke-width:3.3619;stroke-linejoin:round;stroke-miterlimit:10;}
</style>
<g id="Layer_2">
	<rect x="0" class="st0" width="1272" height="440"/>
	<rect x="-13.8" y="372.9" class="st1" width="1299.3" height="89.4"/>
</g>
<g id="Layer_1">
	<g>
		<path class="st1" d="M979,213.7l-7.7,41h-7.2l-6,0.7l-0.1-7.5l-2.3-0.9l-1.5-5.3l1-9.4l2.4-38.7l2.1-31.4l3.1-6.2l4.6-3.7l4.4-1.6
			l12.2-2l12.4-1.7c0,0,3.2,9.1,9.9,7.5s8.6-7.5,8.6-7.5l24.5,0.9c0,0,10.4-0.9,15.9,13.7s12.2,35.3,12.2,35.3l-0.1,4.4l-3.4,5.2
			l-9.6,11.5l-6.3,7.3l-3.2,6.8l-1.8,2.5l-2.7-0.5l-3.6-2.4l-2.1-4.2l-1.5-4.6l-0.3-3.4l0.1-3.2l3.6-5.9l8.4-10.2l0.9-2.7l-0.9-1.7
			l-5.2-11.7l-3.8-8.2l0.2,14.4l0.9,8l-0.3,3.5l-1.3,2.3l-1.3,1.3"/>
		<g>
			<path class="st8" d="M995,397.2l0,7.8h-41.7v-5.9c0,0,2.7-4.6,8.6-8C967.8,387.7,995,397.2,995,397.2"/>
			<path class="st8" d="M1043.5,389l0,8.8l38,15.3l1.4-6.6c0,0,1.7-6.9-6.3-13.2C1068.6,387,1043.5,389,1043.5,389"/>
		</g>
		<path class="st37" d="M995,401.2v-16.5c0,0,0.1-5.7-3.8-3c-4,2.6-7.7,4.7-7.7,4.7l-4.8,0.2l-3.5-2.3l0.2-2l-1.3-1.6l-1.7,0.3
			l-0.9,2l-2.3,2.5l-5.3,4.6l-3.4,2.3c0,0,1.4,2.7,1.4,4.8s0,4.4,0,4.4L995,401.2z"/>
		<path class="st37" d="M1043.4,393.2l0-14.6c0,0,1.7-2.1,5.5,1.1c3.7,3.2,10.8,2,10.8,2l3.6,0.3c0,0,0.5-4.7,2.9-4.3
			c2.3,0.4,2.4,5.7,2.4,5.7l1.9,4.2l5.6,5.5l2.9,1.9c0,0-3.6,0.5-5.8,11.1L1043.4,393.2z"/>
		<path class="st8" d="M980.3,212.9l0.9,7.7c0,0,11.7,5.1,26.1,4.6c14.4-0.5,24-5.1,24-5.1l0.6-8.7"/>
		<path class="st10" d="M979,213.2l-11.3,62.8c0,0,4.8-2.5,18.4-0.2c13.5,2.3,19.6,2.3,20.2,5.2l3.5-22.3l1.9,22.9
			c0,0,5.5-3.6,17.9-7c12.4-3.3,17.1-1.9,17.1-1.9l-7.2-39.2c0,0-4.4-1.8-5.6-8.3c-1.2-6.5,0.2-10.7,0.2-10.7l0.1-1.8l-2.6,0.2
			l-0.4,7.4c0,0-17.9,4.9-24,4.9s-26.3-4.6-26.3-4.6l-0.7-7.4H979z"/>
		<path class="st11" d="M972.8,372.7l22.1-0.7l8.4-93.2c0,0-13-4.1-28-3.7L972.8,372.7z"/>
		<path class="st11" d="M1017.1,278.2l24.2,92l22.1-6.4l-19.6-91.3C1043.7,272.5,1022.4,273.7,1017.1,278.2z"/>
		<path class="st11" d="M958.9,256.1l-1,14.7l5.1,21.4l2,0.9l1.7-0.9l-0.4-4.5l-3.1-14l1.2-2.4l1.2,4l1.1,8.5l1.9,1.3l2-1.2
			l-0.2-3.7l-0.3-1.5l-2.5-2.1l3.7-22.1C971.3,254.7,962.7,254.3,958.9,256.1z"/>
		<path class="st11" d="M996.4,147c0,0,3.4,8.9,9.9,7.5c6.5-1.4,8.6-7.5,8.6-7.5l-2-10.8c0,0,4.8-2.7,6.6-10.1l0.8-7.5l-2.4,1.4
			l-1.3,2.5l-1.7-0.9l-0.7-2.8l0.2-3.9l-0.7-1l-2.2,0.8l-3.9,0l-1.5-0.2l-1.7,4.3l-3.7,2.9l-0.5,2.3l-4,1.6l-2.1-1.9l-1.8-0.5
			l-2.3,0.8c0,0,4.1,8.9,7.2,10L996.4,147z"/>
		<polygon class="st12" points="1013.5,114.7 1008.3,114.9 1006.3,114.7 1005.2,117.9 1002.4,120.9 1000.5,124.1 997.3,125.5 
			995.5,125.2 994.1,123.3 990.7,123.5 988.1,123.4 987.3,121.6 986.6,121.1 983.8,121.8 982.6,119.3 983.2,116.3 983.2,114.5 
			980.3,113.2 977.9,112.3 978.9,109.3 978.5,108.3 976.3,107.5 975.3,106.6 976.1,104.4 975.3,102.4 974.5,99.9 974.5,97.2 
			976.7,95.5 977.1,93.4 977.7,92 979.5,90.5 981.7,88.9 981.9,86.7 983.9,85.9 986.5,85.3 988.7,84.8 988.1,82.8 988.5,81.3 
			990.3,81.2 992.6,82.1 994.6,83.3 994.8,81.4 996.3,80.1 999.5,80.7 1001.5,82.8 1002.7,81.8 1005.8,81.6 1007.4,83 1008.6,84.9 
			1010.5,84.7 1012.7,84.1 1014.4,83.9 1015.7,84.8 1017.5,84.6 1019.7,85.5 1021.1,86.8 1024.6,87.7 1025.8,88.4 1024.5,90.8 
			1024.5,92 1027.4,92.6 1029.3,98 1030.8,100.9 1032,102 1030.8,103.3 1032.2,104.7 1031.3,106.5 1031.6,108.1 1031.6,109.3 
			1029.8,109.9 1030.1,111.8 1028.8,113.7 1026.9,116.5 1026,118.6 1024.5,119.8 1021.2,119.5 1019.6,119.3 1017.8,121 
			1016.8,122.6 1014.8,121.9 1014.8,118 1014.6,115.1 		"/>
		<path class="st8" d="M1043.5,378.6l-2.2-8.4l22.1-6.4l2.9,13.8c0,0-2.9,0.8-2.9,4.3h-10.2l-3.3-1.5l-2.8-2.6l-2.6,0.1
			L1043.5,378.6z"/>
		<path class="st8" d="M993.9,381.5l1-9.5l-22.1,0.7v7.8c0,0,2.9,0.5,2.4,3.9l2.8,1.7l2.6,0.4l4.1-0.8l2.6-1.4l4-2.6L993.9,381.5z"
			/>
		<g>
			<path class="st13" d="M975.3,280.6V275c0,0-6.5,0.1-7.5,0.9C966.7,276.7,972.9,281.6,975.3,280.6z"/>
			<path class="st13" d="M1002.8,283.1l0.5-4.3c0,0,3.3,1,3.1,2.7C1006.2,283.1,1002.8,283.1,1002.8,283.1z"/>
			<path class="st13" d="M1017.1,278.2c0,0-5.5,2.3-5.3,3.5c0.2,1.2,6.2,0.6,6.2,0.6L1017.1,278.2z"/>
			<path class="st13" d="M1043.7,272.5l0.9,3.6c0,0,2.2-0.8,2.1-3.1c0-2.4-0.4-0.1-0.4-0.1L1043.7,272.5z"/>
		</g>
		<polygon class="st1" points="977.4,206 977.5,212.7 1034.2,212.7 1034.4,204.8 1027.9,205.6 		"/>
		<path class="st14" d="M979,213.2l-11.2,62.4c0,0-0.8,3.6,7.1,5"/>
		<path class="st14" d="M1003.3,283.1c0,0,2.8,0.6,3.1-1.8c0.3-2.4,3.7-24.2,3.7-24.2l1.7,24.4c0,0,0.1,1.7,6.1,1"/>
		<path class="st14" d="M1044.8,276.2c0,0,2.7-0.2,1.8-4.8c-1-5-7-37.5-7-37.5"/>
		<path class="st14" d="M1011.8,281.5c0,0,0.7-2.9,17.3-6.8c16.6-3.9,17.7-1.3,17.7-1.3"/>
		<path class="st14" d="M967.8,275.9c0,0,0.3-2,20.1,0c0,0,17.9,1.3,18.5,5.4"/>
		<path class="st14" d="M1028.2,229.5c0,0,1.4,6.7,7.2,8.8"/>
		<path class="st14" d="M973.8,181.7c0.1,5.6-1.4,9.2-1.4,16.9s6.1,7.2,6.1,7.2h49.2c9.6,0,10.2-2.9,9.3-10.7
			c-0.2-1.6-0.3-3.2-0.4-4.8l-0.9-16.4c0,0,7.2,19.8,10,22.7c2.8,2.9-12.4,15-12.6,21c-0.3,6,2.4,16.2,8.4,16.5s2.6-5.1,8.7-11.3
			c4.2-4.4,11.8-13.5,15.9-18.6c1.8-2.2,2.3-5.2,1.4-7.9l-12.7-36.6c-2.4-6.9-8.8-11.6-16-11.8l-24-0.8c0,0-1.1,7.5-8.8,7.5
			c-7.7,0-9.3-7.5-9.3-7.5l-24.3,3.6c-7.2,1.1-12.7,7-13.1,14.3l-3.5,58.3c0,2.8-0.2,5.6-0.5,8.4c-0.6,5.1-1.4,14,0.5,15.5
			c2.6,2.1,14.5-0.9,17.2,0"/>
		<path class="st14" d="M958,248.3l0.3,6.6c0,0.4,0.3,0.6,0.7,0.6c1.6-0.3,6-1.1,8.8-1.1c3.6,0,3.8,0.5,3.8,0.5"/>
		<path class="st14" d="M977.4,206v6.3c0,0.3,0.2,0.5,0.5,0.5h55.9c0.3,0,0.5-0.2,0.5-0.5v-7.5"/>
		<path class="st14" d="M1031.8,212.9l-0.6,7.4c0,0-12.7,4.3-24.3,4.9l-1.1-0.1v-12.2"/>
		<path class="st14" d="M980.3,213.2l0.7,7.4c0,0,12.8,4.5,24.9,4.5"/>
		<line class="st14" x1="1033.8" y1="212.9" x2="1033.9" y2="214.9"/>
		<circle class="st15" cx="1002.9" cy="215.6" r="1.1"/>
		<path class="st14" d="M991.5,148.1c0,0,3.1,11.3,14.8,11.6c7.9,0.2,12.5-8.3,13.1-12.2"/>
		<line class="st14" x1="975.4" y1="275.4" x2="972.8" y2="380.7"/>
		<line class="st14" x1="994" y1="381.4" x2="1003.3" y2="278.7"/>
		<path class="st14" d="M977,323.6c0,0,3.6-0.1,3.7-2.9"/>
		<line class="st14" x1="1017.1" y1="278.7" x2="1043.5" y2="378.6"/>
		<line class="st14" x1="1043.9" y1="272.5" x2="1066.2" y2="377.8"/>
		<line class="st14" x1="1041.3" y1="370.4" x2="1063" y2="363.9"/>
		<line class="st14" x1="973" y1="372.8" x2="994.9" y2="372.1"/>
		<path class="st14" d="M971.6,383.7c0,0-0.3-3.1,2-2.9c2.3,0.1,1.6,3.8,1.6,3.8"/>
		<path class="st14" d="M995,401.2l-41.7,0.7c0,0-0.8-5.2,6.8-9.3c7.6-4,10.8-10.9,14-8.9c3.1,2,2.8,2.6,7.5,2.7
			c4.7,0.1,9.1-5.3,11.6-5.1c0,0,1.8-0.5,1.8,3.3C995,388.5,995,401.2,995,401.2"/>
		<path class="st14" d="M960.1,392.6c0,0,1.8,0.4,1.8,3.8c0,3.4,0,5.3,0,5.3"/>
		<circle class="st14" cx="977.4" cy="397.8" r="1.3"/>
		<circle class="st14" cx="983.8" cy="397.8" r="1.3"/>
		<circle class="st14" cx="1055.8" cy="394.6" r="1.3"/>
		<circle class="st14" cx="1061.7" cy="397" r="1.3"/>
		<line class="st14" x1="963.7" y1="390.6" x2="965.4" y2="392.6"/>
		<line class="st14" x1="966.7" y1="388.1" x2="968.5" y2="390.2"/>
		<line class="st14" x1="1066.9" y1="387.7" x2="1069.2" y2="386.2"/>
		<line class="st14" x1="1069.4" y1="391.4" x2="1071.4" y2="389.6"/>
		<line class="st14" x1="1072.9" y1="394.3" x2="1074.6" y2="392.2"/>
		<line class="st14" x1="970.2" y1="385.1" x2="972" y2="387.1"/>
		<path class="st14" d="M1043.5,393.8v-13.9c0,0-0.5-2.5,2.7-2c3.2,0.4,2.4,4.7,9.9,4.2s11.7,0.5,12.6,2s1.6,5.6,7.9,9.3
			c7.2,4.3,6.8,12.3,5.7,16.4L1043.5,393.8z"/>
		<path class="st14" d="M1073.2,406c0,0,2.5-11.1,5.8-10.9"/>
		<path class="st14" d="M1063.4,382c0,0-0.4-3.9,2.5-4.2c2.9-0.3,2.6,6,2.6,6"/>
		<path class="st14" d="M1046,314c0,0,0.4,3.8,3.7,3.9"/>
		<line class="st14" x1="996.6" y1="147" x2="997.5" y2="134.3"/>
		<path class="st14" d="M990.3,123.8c1.1,3,2.7,6.7,5.1,8.8c5.4,4.6,11.9,5.2,16.9,3.9c3.8-1,8-5.6,7.9-17.2"/>
		<path class="st14" d="M1010,118c0,0,0.1,3.2,1.2,4.3c0,0,0,1.3-1.8,1.5"/>
		<path class="st14" d="M1004.3,126.6c0,0,0.3,1,2.1,1.3c1.8,0.3,4.3,0,4.3,0"/>
		<path class="st14" d="M1027.7,114.8c2.6-2.8,3-2.6,1.8-5c0,0,2.9,0.6,2.1-2.2s1.5-2.1-0.5-3.5c-2-1.3,2.1-0.4-0.1-2.8
			c-2.2-2.5-1.8-4-2.6-6.6c-0.7-2.6-1.8-2.3-3.3-2.6c-1.6-0.3-1.1-1.2,0.1-2.6c1.1-1.4-1.2-2.1-3.7-2.6c-2.5-0.4-2.6-3-5-2.1
			c-2.4,1-1.2-2.8-7.9,0.4c0,0-1.7-4.5-4.7-3.9s-2.2,1.9-2.2,1.9s-2.8-3.8-5.4-3.2s-1.7,3.3-1.7,3.3s-5.4-3.8-6.3-1.6
			c-0.8,2.2,1.7,3.4-1.2,3.5c-2.8,0.1-5-0.4-5.7,3.1c-0.6,3.5-4.5,1.9-4.5,5.4c-0.1,3.5-3.2,2-2.6,5.8c0.6,3.8,2,3.3,1.1,6.6
			c-0.9,3.3,4.9,0.1,2.8,4.4c-2.1,4.3,6.6,2.2,4.8,5.4s0.1,8.3,4.3,4.3c0,0-0.9,4.8,4,3.2c4.9-1.6,2.2,3.2,6.7,1.8
			c4.5-1.4,1.1-2.8,5-5.1c3.8-2.3,1.2-6.7,5-5.3c3.8,1.3,6.6-2.6,6.5,1.3c-0.1,3.9-0.8,5.5,1.6,6s0.6-3.4,4.5-3.3
			c0,0,4.5,1.9,5.3-0.3S1027.7,114.8,1027.7,114.8z"/>
		<line class="st14" x1="1014.7" y1="147" x2="1013" y2="136.2"/>
		<path class="st14" d="M959,255.5l-0.9,14.4c-0.1,1.3,0,2.6,0.3,3.8l4,17.1c0,0,0.4,3,3.1,2.3c0,0,1.9-0.1,1.3-2.9
			c-0.5-2.4-2.7-12.3-3.4-15.3c-0.2-0.8-0.2-1.6,0.1-2.4c0.2-0.6,0.4-1.1,0.9-1.1c1,0,2.3,11.7,2.3,11.7s0.3,2.4,1.9,2.2
			c1.6-0.2,2.1-1,1.9-3.1c-0.2-2.1-0.3-3.1-0.3-3.1"/>
		<polyline class="st14" points="953.3,401.9 953.3,405 995,405 995,400.1 		"/>
		<polyline class="st14" points="1043.5,393.8 1043.5,397.9 1081.5,413.2 1082.2,409.7 		"/>
		<path class="st14" d="M980.3,212.9l0.9,7.7c0,0,13.7,4.6,25.8,4.6"/>
	</g>
	<g>
		<path d="M715.2,236.3v-50.5c0-16.4-11.8-29.7-26.3-29.7s-26.3,13.3-26.3,29.7v61.1h8.6"/>
		<path class="st8" d="M728.1,285.9l-14-52.9c-1.9-8-9.7-13.1-17.8-11.6l0,0c-8.9,1.6-14.6,10.4-12.3,19.1l11.5,45.4"/>
		<path class="st16" d="M721.7,285.9l-13.7-52.1c0,0-2.9-8.4-10.9-6.2c-8,2.2-6.5,11.3-6.5,11.3l12.3,46.8"/>
		<path class="st16" d="M682.5,177.7c0,0-0.4,10.5-12.5,13.6c0,0,2.3,19.2,18.3,16l0.7,16.7c0,0,9.3-5,13.9-2.6l-4.7-18.3
			c0,0,3.8-4.6,5.9-10.2l2.9,1.2l2.4-1.6l1.3-2.6l-0.6-3.3l-1.9-2l-2.7,0.3C705.6,185,691,190.4,682.5,177.7z"/>
		<polygon class="st16" points="683.6,237.7 660.3,255.8 651.7,236.3 651,218.3 649.7,217.1 647.6,217.2 646.5,221.4 640.1,208.1 
			636.4,208.4 633.6,207.5 631.3,208.4 630.9,211.1 629,211.5 628,213.3 628.8,216.5 626.1,217 625.1,219.5 651,274.5 653.9,277.1 
			658.1,277.8 661.8,276 688.1,256.4 		"/>
		<path class="st8" d="M654.5,296.3h-24.6c-8.5,0-15.2,7.2-14.5,15.7l3.2,52.5h25.1"/>
		<polygon class="st8" points="643.8,360.7 646.4,369.1 668.4,361.6 655.5,324.1 649.8,324.1 650.8,319.4 640.8,319.4 643.5,362.4 
					"/>
		<path class="st8" d="M620.9,364.5c0.3,3.7-3,8.9-12,8.9c-12.1,0-11,15.7-11,15.7h30.4c0,0-3.2-7.9,2.3-12.3
			c5.5-4.4,7.9-3.8,11.2-3.5l1.1-8.8L620.9,364.5z"/>
		<path class="st8" d="M650.8,388.7l23.2-6.2l-7.5-20.1l-17.1,5.6c0,0,1.2,5.2-3.1,7.1c0,0,4.1,2.3,4.4,6.2S650.8,388.7,650.8,388.7
			z"/>
		<path class="st17" d="M641.8,372.9l13.7-82.7c0.4-2.4,2.5-4.2,5-4.2h81.1v38.1h-91.7"/>
		<path class="st14" d="M728.1,285.9l-14-52.9c-1.9-8-9.7-13.1-17.8-11.6l0,0c-8.9,1.6-14.6,10.4-12.3,19.1l11.5,45.4"/>
		<path class="st14" d="M721.7,285.9L708.3,234c-1.3-4.8-6.2-7.8-11-6.5c-4.8,1.3-7.8,6.2-6.5,11l12.3,47.6"/>
		<circle class="st18" cx="735.1" cy="343.3" r="48.4"/>
		<circle class="st19" cx="639.4" cy="384.8" r="11.9"/>
		<line class="st14" x1="735.2" y1="292.2" x2="735.2" y2="394.8"/>
		<line class="st14" x1="683.9" y1="343.5" x2="786.5" y2="343.5"/>
		<line class="st14" x1="699" y1="379.8" x2="771.5" y2="307.2"/>
		<line class="st14" x1="699" y1="307.2" x2="771.5" y2="379.8"/>
		<line class="st14" x1="590.1" y1="389.1" x2="628.3" y2="389.1"/>
		<path class="st14" d="M641.8,372.9l13.7-82.7c0.4-2.4,2.5-4.2,5-4.2h81.1v38.1h-91.7"/>
		<path class="st14" d="M654.5,296.3h-24.6c-8.5,0-15.2,7.2-14.5,15.7l3.2,52.5h25.1"/>
		<polyline class="st14" points="650.8,319.4 640.8,319.4 643.5,362.4 		"/>
		<path class="st14" d="M597.9,389.1c0,0-1.1-15.7,11-15.7c9,0,12.3-5.2,12-8.9"/>
		<line class="st14" x1="598.5" y1="385.8" x2="627.5" y2="385.8"/>
		<polyline class="st14" points="643.8,360.7 646.4,369.1 668.4,361.6 655.5,324.1 		"/>
		<polyline class="st14" points="666.5,362.4 674,382.6 650.8,388.7 		"/>
		<line class="st14" x1="672.7" y1="379.6" x2="651.3" y2="385.2"/>
		<path class="st14" d="M649.4,368c0,0,1.2,5.2-3.1,7.1"/>
		<path class="st14" d="M629.5,217.9c-1.2-1.8-3-1.1-3-1.1c-2.4,1-1.3,3.4-1.3,3.4l25.4,53.5c1.8,4.1,7.1,5.4,10.6,2.7l26.8-20"/>
		<path class="st14" d="M633.1,226.5l-5.3-12.9c0,0-0.3-1.8,1-2.4c1.3-0.6,2.4,0,2.4,0"/>
		<path class="st14" d="M637.3,224.2l-6.3-13.6c0,0-0.6-1.9,1.3-2.8c1.9-0.9,3.3,0.4,3.8,1.5c0.4,1,5.9,14.5,5.9,14.5"/>
		<path class="st14" d="M644.8,224c0,0-7.6-1-12.8,3.4"/>
		<path class="st14" d="M647.3,224.4l-6.6-15.4c-0.3-0.6-0.8-1.1-1.5-1.3c-0.4-0.1-0.9-0.1-1.5,0.1c-1.6,0.7-1.6,1.7-1.6,1.7"/>
		<path class="st14" d="M644,234c0,0-0.3-5,3.2-9.6l-0.7-5c0,0,0-2.3,1.9-2.5c1.9-0.2,2.4,1,2.5,1.8c0.2,0.8,0.7,17.5,0.7,17.5
			l1.8,4.5l6.7,15.1l23.3-18.1"/>
		<line class="st14" x1="689.4" y1="224.4" x2="688.5" y2="207.5"/>
		<line class="st14" x1="703" y1="222" x2="698.2" y2="203"/>
		<path class="st14" d="M687.2,164.5c14.7,2.8,17.6,13.4,17.8,20.9c0.6-0.5,1.3-0.7,2-0.7c2.1,0,3.8,2.1,3.8,4.7
			c0,2.6-1.7,4.8-3.7,4.8c-1.1,0-2-0.6-2.7-1.5c0,0.1,0,0.2,0,0.2s-4.2,18.9-24.2,13.7C665.3,202.7,665,160.3,687.2,164.5z"/>
		<path class="st14" d="M682.6,164.8c0,0,4.5,23.2-12.5,26.6"/>
		<path class="st14" d="M705,185.3c0,0-17.4,4.3-22.3-8.3"/>
		<path class="st14" d="M685.7,192c0,0-3,1.6-4.3-1.2c0,0,2.9-2.4,2.4-5.3"/>
		<path class="st14" d="M693.2,194.2c0,0-2.6,4.8-8.5,5.1"/>
		<path class="st14" d="M715.2,236.3v-50.5c0-16.4-11.8-29.7-26.3-29.7s-26.3,13.3-26.3,29.7v61.1h8.6"/>
	</g>
	<g>
		<path class="st8" d="M856.2,374.7l44.6,31.2l5.5-8c0,0,3.5-5.2-3.3-12.1c-6.8-6.9-5.2-17.5-5.2-17.5l-1.8-2.2l-2.9,0.5l-3.9,2.5
			l-4.2,0.5l-3.9-1.9l-3.5-3.9l-0.5-6l-1.1-4.3l-2.3-2.7h-2.4L856.2,374.7z"/>
		<polygon class="st8" points="817.3,365.3 818.3,405.9 845.3,406.1 845.1,365.3 		"/>
		<path class="st1" d="M870.3,378.7c6.8-12-5.3-18.3-5.3-18.3l-6.3,10.1L870.3,378.7z"/>
		<path class="st1" d="M881,386.3c13.4,5.3,17.5-4.2,24.1,1.5c0,0,4,6.2,1.1,10c-2.8,3.8-3.1,4.3-3.1,4.3L881,386.3z"/>
		<path class="st1" d="M845.3,401.9h-26.9c0,0-0.1-14.5,13.7-14.5C832.2,387.4,845.3,387.1,845.3,401.9z"/>
		<path class="st10" d="M821.7,212.3c0,0-12.6,12.2-21.1,63.8c0,0,48.4,10.4,88-12.6l-18.9-27.6l-7.1-23.6H821.7z"/>
		<polygon class="st20" points="815.1,278.1 845.2,277.7 845.1,364.9 817.3,364.9 		"/>
		<path class="st20" d="M858.8,275l22,27.9l-5.9,33.1l26.2,8.1l9.1-42.3l-0.7-6.8l-20.8-31.6C888.6,263.5,870.7,273.2,858.8,275z"/>
		<path class="st17" d="M815.3,176.7l6.2,34.9l41,0.7l6-35.9l21.3,21.4l-23.8,26.6l3.7,11.4l3,5.1l35.4-36.1l2.6-5.3l0.2-5.8
			l-2.9-5.7l-30.5-31.4l-6.1-3.7l-16.5-2.9c0,0-2.2,5.2-9.8,5.6c-7.7,0.4-8.2-5.6-8.2-5.6l-16.4,2.1l-6.6,1.3l-5.7,4.4l-32.7,31.4
			l-2.5,5.1l0.8,6l2.4,4.1l33.2,33.9l6.3-16.7l-21.1-24.1L815.3,176.7z"/>
		<polygon class="st8" points="874.4,336 871,352.8 878.4,370.1 891.9,370.1 895.7,365.5 900.6,343.9 		"/>
		<path class="st20" d="M828.5,119.8c1.1,13.5,7.5,19.1,12.2,19.7c8.9,1.3,17-3.8,19.4-15.4c0,0,3.5,2.4,4.7-4.6c1.2-6.9-4-5-4-5
			s4.1-18.7-9.4-22.8c0,0-19.6-7-22.5,15.8c-0.4,2.9-0.5,5.6-0.6,8.1"/>
		<path class="st21" d="M861.7,110.3c0,0-3.6,1.7-4.1-3.1c-0.4-3.5-3.6-6.3-10.4-4.1c-3.9,1.3-8.5,0.5-10.5-0.6
			c-5.7-3-7.6,3.9-7.6,3.9s1.6-16,15.8-15.6c0,0,10.3-9.7,18.5-3.6c8.3,6.1,6.5,9.6,6.7,15.9c0.2,6.3-1.4,7.7,6.2,13
			c7.7,5.4,3.5,21.5,3.5,21.5l-1.6,5.8l1.5,7.6l5.8,8.6l1.3,6.3l-2.8-2.6l-9.8-9.2l-5.4-2.1l-14-2.2L853,136c0,0,7.2-6.3,7-11.5
			c0,0,4.5,0.7,4.7-5.2c0.1-6-3.9-4.8-3.9-4.8L861.7,110.3z"/>
		
			<ellipse transform="matrix(0.9997 -2.506934e-02 2.506934e-02 0.9997 -2.6906 21.2917)" class="st10" cx="847.8" cy="118" rx="5.3" ry="3.2"/>
		
			<ellipse transform="matrix(0.1165 -0.9932 0.9932 0.1165 618.6968 930.0794)" class="st10" cx="832.1" cy="117.3" rx="3.2" ry="5.3"/>
		<polygon class="st20" points="836.7,150.1 838,138.6 853.5,136.5 854,150.3 852.7,153.4 848.5,155.8 842.4,155.5 839.3,154.6 
			836.5,150.1 		"/>
		<path class="st22" d="M845.8,90.7c-0.5,0-0.9-0.6-0.6-1c0.5-0.8,1.7-1.5,4.4-1c10.4,2,7.6,6.6,7.6,6.6s-1.1-2.1-6.3-3.6
			C848.2,90.9,846.7,90.7,845.8,90.7z"/>
		<polyline class="st14" points="862.5,212.3 868.6,176.4 889.7,197.6 866.2,224.4 		"/>
		<path class="st14" d="M873.1,241l33.5-34.7c5.2-5.4,5.7-12.8,1-18.6l-28.1-28.9c-3.2-3.9-7.7-6.4-12.7-6.9l-12.3-1.6l-1.2-13.8"/>
		<path class="st14" d="M828.5,119.8c1.1,13.5,7.5,19.1,12.2,19.7c8.9,1.3,17-3.8,19.4-15.4c0,0,3.5,2.4,4.7-4.6c1.2-6.9-4-5-4-5
			s4.1-18.7-9.4-22.8c0,0-19.6-7-22.5,15.8c-0.3,2.5-0.5,5.3-0.6,7.4"/>
		<path class="st14" d="M829.1,106.5c0,0,1.9-6.9,7.6-3.9c1.9,1,6.6,1.8,10.5,0.6c6.8-2.3,10,0.6,10.4,4.1c0.5,4.8,4.1,3.1,4.1,3.1"
			/>
		<path class="st14" d="M847.9,88.5c0,0,9-7.5,17.9,0.6c9.9,9-1.3,19.2,8.6,26c9.4,6.4,7.5,18.6,5,23.7c-2.7,5.4-0.4,13.2,3.1,16.6
			c0,0,4.6,4.2,4.1,10.8"/>
		<path class="st14" d="M870.2,352.1l-14,22.4l44.6,31.4l4.8-6.8c2.6-3.8,2.2-8.9-1.1-12.1c0,0-0.1-0.1-0.1-0.1
			c-4.7-4.5-6.9-11.3-6.5-16.3c0.4-5-3-5-4.3-4.3c-1.3,0.7-6.1,5.7-11.9,1.7c-5.7-3.9-3.9-8.2-4.8-12.3
			C875.9,351.8,872.7,348.1,870.2,352.1"/>
		<path class="st14" d="M859.5,275l20.6,26.5c0.6,0.7,0.8,1.7,0.6,2.6l-9.2,46.6"/>
		<polyline class="st14" points="815.1,278.2 818.3,406.1 845.4,406.1 845.1,381.9 845.2,277.7 		"/>
		<path class="st14" d="M895.5,366.1l14.3-62.3c1-4.5,0.1-9.1-2.5-12.9l-37.7-54.9l-7.1-23.6h-40.8"/>
		<path class="st14" d="M845.3,401.9h-26.9c0,0-0.1-14.5,13.7-14.5C832.2,387.4,845.3,387.1,845.3,401.9z"/>
		<path class="st14" d="M817.6,388c0,0,5.1-0.3,6.7-4.2c0.3-0.8,1-1.5,1.7-2.1c3-2.5,7.4-2.6,10.7-0.5c1.1,0.7,1.8,1.6,2.3,2.7
			c0,0,1.6,4.1,6.3,4.1"/>
		<line class="st14" x1="858.7" y1="370.5" x2="903.4" y2="402.1"/>
		<path class="st14" d="M865,360.5c0,0,12.1,6.3,5.3,18.3"/>
		<circle class="st14" cx="893.4" cy="373.3" r="1.7"/>
		<circle class="st14" cx="894.3" cy="379.3" r="1.7"/>
		<path class="st14" d="M821.7,212.3c0,0-12.6,12.2-21.1,63.8c0,0,48.4,10.4,88-12.6"/>
		<line class="st14" x1="867.8" y1="222" x2="879.4" y2="235.3"/>
		<line class="st14" x1="867.1" y1="227.6" x2="870.1" y2="225"/>
		<line class="st14" x1="868.7" y1="232.9" x2="873.3" y2="228.7"/>
		<line class="st14" x1="871.5" y1="237.9" x2="876.6" y2="232.8"/>
		<polyline class="st14" points="821.6,212.3 815.6,176.4 794.4,197.6 815.8,221.9 		"/>
		<path class="st14" d="M809.1,238.9l-31.5-32.7c-5.2-5.4-7-12.1-1-18.6l30.9-29.3c4.2-4.5,8.3-6,13.2-6.5l16.1-1.6l1.2-11.7"/>
		<line class="st14" x1="813.8" y1="218.9" x2="802.2" y2="232.3"/>
		<line class="st14" x1="813.8" y1="225.8" x2="810.9" y2="223.1"/>
		<line class="st14" x1="812" y1="230" x2="807.4" y2="225.8"/>
		<line class="st14" x1="810.1" y1="234.8" x2="805" y2="229.7"/>
		<path class="st14" d="M836.7,150.1c0,0,0,5.7,8.5,5.7s9.1-5.5,9.1-5.5"/>
		<path class="st14" d="M833,150.3c0,0,0,8.5,11.7,9.1c11.5,0.6,13.1-8.3,13.1-8.3"/>
		<path class="st14" d="M881,386.3c13.4,5.3,17.5-4.2,24.1,1.5"/>
		
			<ellipse transform="matrix(0.9996 -2.935775e-02 2.935775e-02 0.9996 -3.1118 24.9393)" class="st14" cx="847.8" cy="118.4" rx="5.3" ry="3.4"/>
		
			<ellipse transform="matrix(0.136 -0.9907 0.9907 0.136 602.3115 926.0461)" class="st14" cx="832.1" cy="117.7" rx="3.4" ry="5.3"/>
		<polyline class="st14" points="852.8,117.9 855.3,117.9 861,113.5 		"/>
		<path class="st14" d="M837.3,118.4c0,0,0.7-1,2.6-0.9c1.9,0.1,2.7,1.1,2.7,1.1"/>
		<path class="st14" d="M839.1,121.5c0,0-0.7,2.4-1.7,3.8c0,0,0.7,1.8,3.7,1.3"/>
		<path class="st14" d="M839.3,131.9c0,0,3.3,0.8,5.8-0.5s2.8-2.7,2.8-2.7"/>
		<line class="st14" x1="874.9" y1="336" x2="901.1" y2="344.1"/>
		<line class="st14" x1="817.3" y1="364.9" x2="845.1" y2="364.9"/>
	</g>
	<g>
		<path class="st8" d="M1186.9,235l39.2-34.5c7.7-5.7,7.1-17.5-1.2-22.4l-37.7-28.6c-4.4-2.7-9.4-4.2-14.6-4.2h-5.9l-38.9,2.8
			l-6.2,1c-7.4,2.8-12.2,9.8-12.3,17.7l-2.6,88.9l18.3,0.6l1.5-41.9l0.5-38l4.5,20.6h43.6l5.3-27.7l29.9,21l-26.5,25.6"/>
		<path class="st1" d="M1183.9,326.7c1.6-31.7,3.2-69.5,3.2-85c0-29.4-12.1-44.7-12.1-44.7h-43.6c-8.3,19.8-7.5,47.7-7.5,47.7
			l4.8,55.4c0.5,5.7,3,11.1,7.1,15.2l19.7,19.5l-0.7,44.2h26.4l1-18.5l7.1,7.6l18-17.1L1183.9,326.7z"/>
		<path class="st8" d="M1174.3,386.7h5.8l0.2,19.5l-23.7,0l0.1-19.5h4.6c0,0,1.7-3.5,6.7-3.3
			C1172.8,383.5,1174.3,386.7,1174.3,386.7z"/>
		<path class="st8" d="M1211.9,355.2l16.9,13.2l-25.2,36.3l-5.5-3.8c-3.1-2.1-4.2-6.2-2.6-9.5c0,0,0-0.1,0.1-0.1
			c2.3-4.8,2.1-10.5,0.4-14.2c-1.7-3.7,0.9-4.6,2.1-4.5c1.1,0.2,6.2,2.6,9.5-2c3.3-4.6,0.7-7.3,0.3-10.7
			C1207.4,356.6,1208.9,352.9,1211.9,355.2"/>
		<g>
			<path class="st37" d="M1224.6,367.8l-5.5,7c0,0-5.4-4.9-3.9-8.7c1.5-3.8,3-5.6,3-5.6l7.3,5.9L1224.6,367.8"/>
			<polygon class="st37" points="1198.5,371.6 1207.9,359.1 1209.3,366.5 1207.2,371.6 1202.4,373.3 1197.8,372.9 			"/>
			<polygon class="st37" points="1156.6,389.9 1156.7,386.3 1161.7,386.7 1159.5,389.9 			"/>
			<polyline class="st37" points="1174.4,387.3 1177,390.8 1180.3,391.1 1180.3,386 1174.4,387.3 			"/>
		</g>
		<path class="st16" d="M1138.1,107.7l8.9-8.2l7.9-2.7l10.7,1.7c0,0,6.8,21.9-5.5,31.4l-3,1.9l-10.2-0.5l-2.8-1.6l-3.8-3.6
			L1138.1,107.7z"/>
		<path class="st16" d="M1156.7,379.1v7.6h4.6c0,0,2.2-3.4,6.9-3.1c4.7,0.3,6,3.1,6,3.1h5.7v-7.6H1156.7z"/>
		<polygon class="st16" points="1191.4,366.9 1198.3,372.3 1207.7,360.1 1207.7,356.9 1209.1,354.8 1208.6,353.6 1206.2,352.1 		"/>
		<polygon class="st16" points="1109,255.6 1120,256.3 1121.4,261.1 1121.4,268 1120.6,269.9 1122.8,284.2 1123.9,291.1 
			1122.9,292.6 1121.5,292.8 1120.8,295.3 1118,295.8 1116.7,295 1113.8,295.3 1107.7,271.6 		"/>
		<path class="st8" d="M1138.1,154.9c3.2,6.4,12.9,10.5,19.3,7.8c8.5-3.6,11.5-13.4,8.9-18.1c-2.6-4.8-3.5-16.7-3.5-16.7
			s-2,4.3-8.7,4.6c-6.7,0.3-13.8-6.4-13.8-6.4s-3.2-12.3-1.8-17.7c1.3-5.4,8.7-11.1,16.4-11.7s11.1,2.4,11.1,2.4s-6.4-12-13.5-12.1
			c-7.1-0.1-13.6,2.6-16,7.4c-2.5,4.7-5.7,9.5-5,20.7c0.7,11.2,0.2,21.9-1.3,25.4s-1.9,10.8-11.1,22.2c0,0,1.4,1.3,4.6-0.1
			s8.4-3.2,11.6-2L1138.1,154.9z"/>
		<path class="st23" d="M1165.3,115.3c-1.9,0.9-4.1,0.6-5.2-1.2c-1.1-1.8-0.6-4.1,1.2-5.2c0,0,2.4-1.6,6.1,0.4
			C1167.4,109.3,1167.8,114.1,1165.3,115.3z"/>
		<path class="st23" d="M1150.6,115.7c2.1,0.2,4-1,4.4-3.1c0.4-2.1-1-4-3.1-4.4c0,0-3.1-0.9-5.9,2.2
			C1145.9,110.4,1146.4,115.2,1150.6,115.7z"/>
		<path class="st14" d="M1109,255.6l-0.9,14.5c-0.1,1.4,0,2.8,0.4,4.2l4.3,18.4c0,0,0.4,3.2,3.4,2.5c0,0,2.1-0.1,1.4-3.1
			c-0.6-2.6-2.9-13.2-3.7-16.5c-0.2-0.8-0.2-1.7,0.1-2.6c0.2-0.6,0.5-1.2,1-1.2c1,0,3.7,12.2,3.7,12.2s0.3,2.6,2.1,2.3
			c1.8-0.3,2.3-1.1,2.1-3.4c-0.2-2.3-2-13.7-2-13.7l0,0c0,0,1.3-2.5,0.9-6.7c-0.4-4.2-1.5-6.3-1.5-6.3"/>
		<path class="st14" d="M1179.8,401.8l-23,0c0,0-2.1-12.8,11.1-12.8C1168,389,1179.8,388.8,1179.8,401.8z"/>
		<path class="st14" d="M1156.7,390.4c0,0,3.2,0.2,4.7-3.3c0.3-0.7,0.8-1.3,1.5-1.9c2.7-2.2,6.5-2.3,9.4-0.4c1,0.6,1.8,1.4,2.1,2.4
			c0,0,1.4,3.6,5.6,3.6"/>
		<polyline class="st14" points="1174.3,386.7 1180,386.7 1180.3,406.1 1156.6,406.1 1156.7,386.7 1161.3,386.7 		"/>
		<path class="st14" d="M1211.9,355.2l16.9,13.2l-25.2,36.3l-5.5-3.8c-3.1-2.1-4.2-6.2-2.6-9.5c0,0,0-0.1,0.1-0.1
			c2.3-4.8,2.1-10.5,0.4-14.2c-1.7-3.7,0.9-4.6,2.1-4.5c1.1,0.2,6.2,2.6,9.5-2c3.3-4.6,0.7-7.3,0.3-10.7
			C1207.4,356.6,1208.9,352.9,1211.9,355.2"/>
		<line class="st14" x1="1225.8" y1="366.1" x2="1200.5" y2="402.5"/>
		<line class="st14" x1="1207.9" y1="359.9" x2="1198.1" y2="372.5"/>
		<path class="st14" d="M1218.2,360.1c0,0-7.5,8.2,1,15.4"/>
		<circle class="st14" cx="1200.3" cy="378.4" r="1.4"/>
		<circle class="st14" cx="1200.6" cy="385" r="1.4"/>
		<path class="st14" d="M1182.1,361.1c-0.6,10.6-1,17.9-1,17.9h-26.4l0.7-44.3"/>
		<path class="st14" d="M1156.4,234.2l0.8,62.7c0,1.3,0.5,2.5,1.4,3.4l48.6,50.8l-17.6,17.6l-53.8-53.3c-4.1-4.1-6.6-9.4-7.1-15.2
			l-4.8-55.4c0,0-0.9-27.9,7.5-47.7h43.6c0,0,12.1,15.4,12.1,44.7c0,15.4-1.7,53.2-3.2,85"/>
		<path class="st14" d="M1166.6,145.2h5.9c5.2,0,10.2,1.5,14.6,4.2l37.7,28.6c8.3,4.9,8.9,16.6,1.2,22.4l-39.2,34.5"/>
		<polyline class="st14" points="1175.1,197 1180.3,169.3 1210.2,190.3 1183.7,215.9 		"/>
		<path class="st14" d="M1155.7,88.1c0,0-10.3,0.9-15.5,11c-2.2,4.3-2.8,9.1-2,13.9c1.1,6.2,2.8,19,1.8,30.1
			c-1.4,15.4-4.8,17.6-4.8,17.6s-7-0.5-10.8,1.6s-5.8,1-5.8,1s6.9-8.6,9.1-15.1"/>
		<path class="st14" d="M1139.9,125.5c0,0,1.3,2.3,4.9,4.7c3.6,2.4,8.8,2.3,8.8,2.3s8.8,0.1,12-10c1.1-3.5,1.8-7.6,1.9-11.8l0-0.7
			c0.1-26.9-24.9-28.8-32.5-13.1c-3.1,6.3-3.2,10.8-3.5,15.4l0.1,13.2c0.4,13.6-3.8,22.5-3.8,22.5"/>
		<path class="st14" d="M1157.3,113.7c0,0,0.1,2,1.2,4c0,0-1,2.5-3.7,0.7"/>
		<path class="st14" d="M1150.4,122.5c0,0,2.6,1.7,6.3,1.3"/>
		<line class="st14" x1="1209.6" y1="354.6" x2="1206.6" y2="351.7"/>
		<line class="st14" x1="1197.8" y1="372" x2="1191.9" y2="366.9"/>
		<line class="st14" x1="1156.7" y1="379.1" x2="1156.7" y2="386.7"/>
		<line class="st14" x1="1180" y1="379.1" x2="1180" y2="386.7"/>
		<path class="st14" d="M1125,256.3l-18.3-0.6l2.6-88.9c0-7.9,4.9-14.9,12.3-17.7l6.2-1"/>
		<polyline class="st14" points="1131.5,197 1126.9,176.4 1126.4,214.4 		"/>
		<path class="st14" d="M1117,294.8c0,0,0.8,1.4,2.9,0.9c2-0.4,1.7-3,1.2-5.5l-0.8-3.8"/>
		<path class="st14" d="M1121.5,292.8l1.4-0.2c0,0,1.3-0.3,0.9-2.5c-0.3-1.6-1.2-5-1.2-5"/>
		<path class="st14" d="M1138.1,107.7c0,0,6.2-10.4,18.2-10.9c7.2-0.3,9.7,2.8,9.7,2.8"/>
		<path class="st14" d="M1162.8,127.8c0,0,0.9,11.9,3.5,16.7c2.6,4.8-0.4,14.5-8.9,18.1c-6.4,2.7-16.2-1.4-19.3-7.8"/>
		<path class="st14" d="M1139.9,145.7c0,0,4,6.4,13.7,6.8"/>
		<path class="st24" d="M1165.3,115.3c-1.9,0.9-4.1,0.6-5.2-1.2c-1.1-1.8-0.6-4.1,1.2-5.2c0,0,2.4-1.6,6.1,0.4
			C1167.4,109.3,1167.8,114.1,1165.3,115.3z"/>
		<path class="st24" d="M1159.2,111.5c0,0-0.3-0.7-2.1-0.5c-1.5,0.2-2.2,1.1-2.2,1.1"/>
		<line class="st24" x1="1138.8" y1="111.1" x2="1145.6" y2="110.7"/>
		<path class="st24" d="M1150.6,115.7c2.1,0.2,4-1,4.4-3.1c0.4-2.1-1-4-3.1-4.4c0,0-3.1-0.9-5.9,2.2
			C1145.9,110.4,1146.4,115.2,1150.6,115.7z"/>
	</g>
	<g>
		<polygon class="st10" points="505.9,203.4 467,289.1 466.4,293.9 468.3,305.4 479.2,367.3 508.4,359.3 497,298.1 497.9,294.1 
			528,239.8 528.7,244.8 528.7,254.1 528.8,369 557.9,369 557.9,361.5 561.6,268.1 562.4,245.9 562.5,232 562.2,225 557.9,203.8 
			556.8,203.1 		"/>
		<path class="st37" d="M589.6,191.7l-18.4-41.8l-5.4-5.5l-6.6-2.7l-18.2-1.2l-1.6-2.6l-0.5-4.9l-3.3-0.6l-13.7,0.9l-1.8,2l0.9,3.6
			l-0.7,2.2l-18.7,4.5l-5.6,5.1l-2.5,5.4l-0.4,9.7l0.4,31.4l-0.4-1.2l-0.2,9.2l-19-17.5l-11.2,11.1l5.4,5.4c0,0-0.4,2.3,1.4,3.9
			c1.9,1.6,6.7,5.4,6.7,5.4s5.6,4.6,8.5,7.5c2.9,2.9,7.5,8.3,9.1,7.9c0.2,0,0.4-0.5,0.6-1.2l11.3-24.7h51.1l0.5-8.4
			c0,0,1.7-1.1,1.8-4.5c0.2-3.4-0.2-10.2-0.2-10.2l1-6l9.6,21.2l-0.8,2.7l-20.5,13.1c0,0,2.8,14.8,5.1,17l6.9-4.1l2,0.6l6.7-5.1
			l19.5-14.1l2.5-7.1L589.6,191.7z"/>
		<path class="st17" d="M531.3,369.2v12.2l-3.2,4.9c0,0-2,9-1.9,15h23.5l4.2-1.5l1.7-0.9v-29.6H531.3z"/>
		<polygon class="st27" points="552.7,369.6 552.4,384.7 553.1,390.7 553.9,392 555.2,390.6 555.2,373.1 555.6,369.2 		"/>
		<polyline class="st28" points="521.9,133.3 521.9,127.5 518.1,128.1 515.1,127 509.6,119.5 507.1,111.9 505.5,103.6 505.9,95.9 
			519.1,88.9 531.5,92.7 536.3,100.5 538.9,103.9 540.6,105.9 541,109.6 540.3,111.5 539.2,112.8 536.8,113.6 537.6,132.9 
			521.9,133.3 		"/>
		<path class="st29" d="M503.3,96.1l3.5-0.3l2.4,1.2l5.7-1.5l3.8-2.2l4.8-0.7l4.5,2.6l2.1,4.3l1.9,3.1l4.5,0.7l2.3-0.2
			c0,0,1.8-12.8-2.1-17.4c-3.9-4.6-9-7.8-15.4-7.5C514.8,78.7,504.3,81.9,503.3,96.1z"/>
		<path class="st29" d="M508.5,116.2c0,0,3.8,12.2,9.6,11.9c5.8-0.3,15.9-4.2,15.9-11.9s1.3-12.8,1.3-12.8l-2.9-0.2
			c0,0-1.7,3.5-3.1,7.3s-3.3,4.1-7.4,3.3C517.8,113,512.9,112.6,508.5,116.2z"/>
		<path class="st30" d="M503.6,106.7c0,0,1.5,5.8,4.8,4.7c3.2-1.1,3.1-3.8,3.1-3.8s-0.1-3.5-3.9-3.2
			C503.8,104.7,503.6,106.7,503.6,106.7z"/>
		<path class="st30" d="M515.1,105.1c0,0-0.1,5.5,4.5,4.4c4.6-1.1,3.5-6,3.5-6s-2.5-1.5-4.3-1.2
			C517.2,102.5,515.1,105.1,515.1,105.1z"/>
		<path class="st17" d="M508.9,360.7l6.5,19.7l-46.8,25.8c0,0-6.4-9,2.5-19.6c8.9-10.6,9.7-13.8,9.3-19.4l28-7.8L508.9,360.7z"/>
		<polygon class="st27" points="487.9,365.3 490.6,371.7 490.3,379 490.2,383.2 491.6,385.3 494.5,384.9 502.9,380.5 503.9,377.6 
			502.9,374.3 501.1,371.4 500,366.1 500,361.6 		"/>
		<polygon class="st27" points="526.2,401.2 526.2,405.2 551.2,405 555.6,403.2 555.6,398.8 549.6,401.2 		"/>
		<polygon class="st27" points="468.7,406.1 470.4,409.7 516.7,384.1 515.4,380.4 		"/>
		<path class="st28" d="M511.3,118.5c0,0,1.3,4.2,5,3c3.6-1.2,5.6-4.7,5.6-4.7s-3.2-1.8-5.9-1C513.3,116.6,511.3,118.5,511.3,118.5z
			"/>
		<polygon class="st31" points="506,100.8 503.5,99.8 502.3,97.1 505.5,95.5 506.3,96.4 		"/>
		<path class="st28" d="M462.7,198.8l11.2-11.1l-1.6-1.5l-5.7-13.6c0,0-0.4-2-2.4-1.3s-1.5,2.4-0.8,3.8c0.7,1.4,0.8,2.3,0.8,2.3
			l-9.8-10.5c0,0-1.6-1.1-3.2,1.3l-0.6,0.3c0,0-2.2-1.2-3.3,0.2c-1,1.4,0,3.2,0,3.2s-1.2-0.1-1.7,0.7c-0.5,0.8-0.9,1.8,0,2.8
			c0.9,1,1.9,2.1,1.9,2.1s-1.7-0.4-2.5,0.6c-0.8,1-1,1.9,0.5,3.6C447,183.2,462.7,198.8,462.7,198.8z"/>
		<path class="st24" d="M448.1,177.9c-1.5-1.2-2.8,0-2.8,0c-1.7,1.6-0.1,3.3-0.1,3.3l22.9,23.1"/>
		<path class="st24" d="M453.6,184.1l-8.3-9.2c0,0-0.8-1.4,0.2-2.3c0.9-0.9,2-0.7,2-0.7"/>
		<path class="st24" d="M456.5,180.9l-9.3-9.6c0,0-1.1-1.4,0.3-2.7c1.3-1.3,2.9-0.6,3.6,0.1c0.7,0.7,9.2,10.4,9.2,10.4"/>
		<path class="st24" d="M462.7,178.5c0,0-6.7,1.4-9.8,6.6"/>
		<path class="st24" d="M464.9,178.1l-10-11c-0.4-0.5-1-0.7-1.6-0.7c-0.4,0-0.8,0.2-1.2,0.5c-1.1,1.1-0.8,1.9-0.8,1.9"/>
		<path class="st24" d="M465,187.1c0,0-1.7-4.1-0.1-9l-2.1-4c0,0-0.7-2,0.9-2.7c1.6-0.7,2.3,0.1,2.7,0.8c0.4,0.7,5.9,14,5.9,14
			l20.8,19.2v-45.6c0-7,4.8-13.1,11.6-14.8l15.7-3.8c0,0,2.1,5.6,10,5.2c7.9-0.4,10.6-5.8,10.6-5.8l15.8,0.9c6.9,0.4,13,4.6,15.8,11
			l17.4,40.1c2.3,5.3,0.5,11.6-4.3,14.8l-14.8,10.5c-1.2,0.9-2.3,1.8-3.4,2.8c-1.8,1.8-5.8,5.6-7.3,3l-7.7-15.7"/>
		<path class="st24" d="M528,239.8l-29.7,53.3c-1.2,2-1.6,4.3-1.2,6.5l11.3,60.1l-29.3,7.6l-12.6-72c-0.5-2.7-0.1-5.6,1.2-8.1
			l38.1-84.2h51.1l1.1,1.4"/>
		<path class="st24" d="M525.9,234.2c0,0,2.9,2.6,2.9,12.8s0,122.1,0,122.1h29.1c0,0,0.3-3,0-6.7c-0.3-3.8,4.5-112.3,4.5-112.3
			c0-2.8,0.5-20.5-0.2-25.5"/>
		<line class="st24" x1="505.9" y1="203.1" x2="505.9" y2="196.5"/>
		<line class="st24" x1="557" y1="203.1" x2="557.3" y2="194.7"/>
		<path class="st24" d="M502.8,169c0,0,0.4,1.2,0.3,8.6c-0.1,7.5-2.8,19,2.3,18.2c5.1-0.9,20-0.3,29.9,0.3s21.6,0.8,23.2-3
			c1.6-3.8,0.6-7.2,0.6-11.3c0-4.1,1-8.5,1-8.5"/>
		<path class="st24" d="M557.2,169c0,0,1.8,1.4,3.4,5.5c2.1,5.4,6.9,15.5,8.8,19.8c0.5,1.2,0.1,2.6-1,3.3l-20.1,13.1"/>
		<path class="st24" d="M547.5,209.5c0,0,3,14.8,7.1,20.4l-2.5,3c0,0-5.1-6.8-7.7-22.8L547.5,209.5z"/>
		<line class="st24" x1="560.2" y1="223.6" x2="553.5" y2="228.2"/>
		<path class="st24" d="M520.3,141.1c0,0,0.9-1.4,0.4-3.6c-0.5-2.1-1.5-4.6,3.6-4.6c5.1,0,10.5-0.5,10.5-0.5s4.2-0.7,4.2,2.6
			c0,0-0.1,5.3,1.9,5.5"/>
		<path class="st24" d="M506.1,104.5c-0.2-2.4-0.2-5.1,0-8.1"/>
		<path class="st24" d="M534.9,104.4c0,0-1.2,7.8-0.9,11c0.3,3.2-0.5,7.8-6.7,10.1c-6.2,2.4-9.5,4.1-13.1,0.6
			c-2.3-2.3-5.4-6.6-7.1-14.2"/>
		<path class="st24" d="M505.4,100.8c0,0-2.9-0.5-2.6-2.9c0.3-2.5,3.2-2.2,4.6-1.4c1.4,0.8,4.8,0.9,9.5-2.3s11.6-0.5,12.6,4.1
			c1,4.6,4.1,5.8,7.3,5.6c0,0,4.1-1,4.1,4.6c0,5.6-4.1,5.2-4.1,5.2l0.9,19.2"/>
		<path class="st24" d="M538.8,103.3c0,0,2.2-12.5-3.2-18.6c-5.4-6.1-17.1-9.4-24.8-3.1c-8.1,6.7-8,16.2-8,16.2"/>
		<path class="st24" d="M507,111.4c1.9,0.3,3.8-0.5,4.4-2.4c0.6-1.9-0.5-3.8-2.4-4.4c0,0-2.6-0.9-5.4,1.9
			C503.6,106.5,504.4,111,507,111.4z"/>
		<path class="st24" d="M511.2,105.7c0,0,0.1-0.7,1.7-1c1.4-0.2,2.3,0.4,2.3,0.4"/>
		<line class="st24" x1="534.9" y1="103.6" x2="523.1" y2="103.4"/>
		<path class="st24" d="M532.5,103.6c0,0-1.8,0.9-2.7,5.3c-0.9,4.4-2.5,5.9-7.2,5s-8.9-1.6-14,2.3"/>
		<path class="st24" d="M521.9,116.9c0,0-2-1.5-5.7-0.9c-3.7,0.5-5,2.3-5,2.3s1.2,4.4,5.4,3.3C520.7,120.4,521.9,116.9,521.9,116.9z
			"/>
		<path class="st24" d="M514.3,119c0,0,2.2,0.1,3.8-0.9"/>
		<line class="st24" x1="521.9" y1="132.9" x2="521.9" y2="127.5"/>
		<path class="st24" d="M480.5,367.4c0,0,1,7.9-6.2,15.6s-11,12.9-3.9,26.7l46.3-25.6l-8.1-24.3"/>
		<line class="st24" x1="469.3" y1="406.1" x2="515.4" y2="380.4"/>
		<path class="st24" d="M488.3,365.6c0,0,3.3,6.3,2.4,11.2c-0.9,5-1.1,10.2,4,8c5-2.2,8.2-4.2,8.2-4.2s2.6-1.7-0.5-6.9
			c-3-5.2-2.5-11.2-2.5-11.2"/>
		<path class="st24" d="M531.3,369c0,0,0.3,12.6-0.7,13.7c-2.2,2.5-4.4,3.4-4.4,22.5h22.5c0,0,3.5,0.3,6.6-2v-33.7"/>
		<path class="st24" d="M526.6,401.2h21.5c0,0,3.5,0.2,7.2-2.4"/>
		<path class="st24" d="M530.6,382.7c0,0,2.7-2.3,8-2.3c8.6,0,10.3,4.9,10.3,4.9"/>
		<path class="st24" d="M514.1,113.6c-2.3,0-1.9-1.4-1.9-1.4s1.1-0.9,1-2.9"/>
		<path class="st24" d="M520.2,109.3c-1.8,0.7-3.9,0.1-4.7-1.7s-0.1-3.9,1.7-4.7c0,0,2.6-1.6,5.9,0.5
			C523.1,103.4,523.8,107.8,520.2,109.3z"/>
		<line class="st24" x1="462.7" y1="198.8" x2="473.7" y2="187.7"/>
		<path class="st24" d="M479.7,193l-11.5,11.3c0,0-0.6,2.1,1.6,4s10.4,8.1,12.6,10.3l8.5,8.5c0.9,0.9,1.9,1.5,3,1.8"/>
		<path class="st24" d="M552.7,369.6c0,0-1.1,22.3,1.2,22.1c1.7-0.1,1.4-3.4,1.4-3.4"/>
	</g>
</g>
</svg>
