<?xml version="1.0" encoding="UTF-8"?><svg id="uuid-7795bafc-df0f-4abe-9560-3a9743ad9c02" xmlns="http://www.w3.org/2000/svg" viewBox="0 0 349.18 459.41"><path d="m261.96,236.83l-7.07-7.07c20.19-20.19,31.31-47.04,31.31-75.59s-11.12-55.4-31.31-75.59l7.07-7.07c22.08,22.08,34.24,51.44,34.24,82.67s-12.16,60.59-34.24,82.67Z" fill="#159fd8"/><path d="m222.96,195.49l-7.07-7.07c9.15-9.14,14.19-21.3,14.19-34.24s-5.04-25.1-14.19-34.25l7.07-7.07c11.04,11.04,17.12,25.71,17.12,41.32s-6.08,30.28-17.12,41.31Z" fill="#159fd8"/><path d="m298.33,276.92l-7.07-7.07c30.9-30.89,47.92-71.97,47.92-115.67s-17.02-84.77-47.92-115.67l7.07-7.07c32.79,32.79,50.84,76.38,50.84,122.74s-18.06,89.95-50.84,122.74Z" fill="#159fd8"/><path d="m123.2,459.41c-33.94,0-65.22-11.4-88.07-32.09C12.48,406.81,0,379.1,0,349.28V110.13c0-29.82,12.48-57.53,35.13-78.04C57.98,11.4,89.26,0,123.2,0c45.42,0,80.17,17.34,103.26,51.55l-8.29,5.6c-21.42-31.73-52.49-47.15-94.98-47.15-31.46,0-60.35,10.48-81.36,29.5-20.53,18.59-31.84,43.67-31.84,70.63v239.15c0,26.96,11.31,52.04,31.84,70.63,21.01,19.02,49.9,29.5,81.36,29.5s58.49-10.01,78.04-28.94c18.55-17.97,28.76-42.94,28.76-70.31v-92.9h10v92.9c0,30.1-11.29,57.62-31.8,77.49-21.45,20.78-50.84,31.76-85,31.76Z"/><path d="m100,342.8v-115.75l-2.07-2.07,2.07-2.07v-115.74l64.94,64.94-52.87,52.87,52.87,52.87-64.94,64.95Zm10-105.75v81.61l40.8-40.81-40.8-40.8Zm0-105.74v81.6l40.8-40.8-40.8-40.8Z"/><rect x="73.56" y="161.16" width="10" height="74.77" transform="translate(-117.38 113.71) rotate(-45)"/><rect x="41.18" y="247.76" width="74.77" height="10" transform="translate(-155.72 129.6) rotate(-45)"/></svg>