<svg width="434" height="456" viewBox="0 0 434 456" fill="none" xmlns="http://www.w3.org/2000/svg">
<g clip-path="url(#clip0_575_20996)">
<path d="M386.57 121.04V337.94" stroke="#159FD8" stroke-width="10" stroke-miterlimit="10"/>
<path d="M85.9902 450.84H335.99" stroke="#159FD8" stroke-width="10.31" stroke-miterlimit="10" stroke-linecap="round"/>
<path d="M421.88 131.54L217.21 5.87012L11.5703 131.84" stroke="#159FD8" stroke-width="10" stroke-miterlimit="10"/>
<path d="M338.8 282.4V434.15C338.8 437.86 335.77 440.89 332.06 440.89H87.7898C85.8798 440.89 84.3398 439.34 84.3398 437.45V282.41C84.3398 278.68 87.3598 275.66 91.0898 275.66H332.06C335.78 275.66 338.8 278.68 338.8 282.4Z" fill="#D1D3D4" stroke="black" stroke-width="10" stroke-miterlimit="10"/>
<path d="M195.199 372.06L209.899 347.17" stroke="black" stroke-width="10" stroke-miterlimit="10" stroke-linecap="square"/>
<path d="M215.01 372.06L229.71 347.17" stroke="black" stroke-width="10" stroke-miterlimit="10" stroke-linecap="square"/>
<path d="M210.99 215.96C237.18 215.96 258.41 194.729 258.41 168.54C258.41 142.351 237.18 121.12 210.99 121.12C184.801 121.12 163.57 142.351 163.57 168.54C163.57 194.729 184.801 215.96 210.99 215.96Z" stroke="black" stroke-width="10" stroke-miterlimit="10"/>
<path d="M426.881 142.56L216.881 13.54L6.88086 142.56" stroke="black" stroke-width="10" stroke-miterlimit="10" stroke-linecap="square"/>
<path d="M41.8809 343.54V121.63" stroke="black" stroke-width="10" stroke-miterlimit="10"/>
<path d="M381.571 111.23V343.54H338.801" stroke="black" stroke-width="10" stroke-miterlimit="10"/>
<path d="M306.71 271.99C306.71 253.52 291.74 238.54 273.26 238.54H147.46C128.99 238.54 114.01 253.51 114.01 271.99" stroke="black" stroke-width="9.92" stroke-miterlimit="10"/>
<path d="M41.8809 337.94H84.3409" stroke="black" stroke-width="10" stroke-miterlimit="10"/>
</g>
<defs>
<clipPath id="clip0_575_20996">
<rect width="433.76" height="456" fill="white"/>
</clipPath>
</defs>
</svg>
