<?xml version="1.0" encoding="UTF-8"?><svg id="uuid-7c73ad9d-f5ee-44dc-b86d-0533cb75de4d" xmlns="http://www.w3.org/2000/svg" viewBox="0 0 500 500"><line x1="425" y1="142.5" x2="425" y2="359.4" fill="none" stroke="#159fd8" stroke-miterlimit="10" stroke-width="10"/><line x1="124.41" y1="472.3" x2="374.41" y2="472.3" fill="none" stroke="#159fd8" stroke-linecap="round" stroke-miterlimit="10" stroke-width="10.31"/><polyline points="460.31 153 255.64 27.32 50 153.3" fill="none" stroke="#159fd8" stroke-miterlimit="10" stroke-width="10"/><path d="M377.23,303.85v151.75c0,3.71-3.03,6.74-6.74,6.74H126.22c-1.91,0-3.45-1.55-3.45-3.44v-155.04c0-3.73,3.02-6.75,6.75-6.75h240.97c3.72,0,6.74,3.02,6.74,6.74Z" fill="#d1d3d4" stroke="#000" stroke-miterlimit="10" stroke-width="10"/><line x1="233.63" y1="393.52" x2="248.33" y2="368.63" fill="none" stroke="#000" stroke-linecap="square" stroke-miterlimit="10" stroke-width="10"/><line x1="253.44" y1="393.52" x2="268.14" y2="368.63" fill="none" stroke="#000" stroke-linecap="square" stroke-miterlimit="10" stroke-width="10"/><circle cx="249.41" cy="190" r="47.42" fill="none" stroke="#000" stroke-miterlimit="10" stroke-width="10"/><polyline points="465.31 164.02 255.31 35 45.31 164.02" fill="none" stroke="#000" stroke-linecap="square" stroke-miterlimit="10" stroke-width="10"/><line x1="80.31" y1="365" x2="80.31" y2="143.09" fill="none" stroke="#000" stroke-miterlimit="10" stroke-width="10"/><polyline points="420 132.69 420 365 377.23 365" fill="none" stroke="#000" stroke-miterlimit="10" stroke-width="10"/><path d="M345.14,293.45c0-18.47-14.97-33.45-33.45-33.45h-125.8c-18.47,0-33.45,14.97-33.45,33.45" fill="none" stroke="#000" stroke-miterlimit="10" stroke-width="9.92"/><line x1="80.31" y1="359.4" x2="122.77" y2="359.4" fill="none" stroke="#000" stroke-miterlimit="10" stroke-width="10"/></svg>