<?xml version="1.0" encoding="UTF-8"?><svg id="uuid-326dda55-8acd-4f11-96d4-b2122561520e" xmlns="http://www.w3.org/2000/svg" viewBox="0 0 500 500"><line x1="367.19" y1="41.74" x2="367.19" y2="83.58" fill="none" stroke="#159fd8" stroke-miterlimit="10" stroke-width="10"/><line x1="147.07" y1="41.74" x2="147.07" y2="83.58" fill="none" stroke="#159fd8" stroke-miterlimit="10" stroke-width="10"/><path d="M470,116.49V447.2c0,10.65-8.64,19.29-19.29,19.29H75" fill="none" stroke="#159fd8" stroke-miterlimit="10" stroke-width="10"/><line x1="463.23" y1="145" x2="36.77" y2="145" fill="none" stroke="#000" stroke-miterlimit="10" stroke-width="10.86"/><path d="M58.95,87.61H441.05c12.24,0,22.18,9.94,22.18,22.18V439.95c0,10.53-8.55,19.08-19.08,19.08H55.85c-10.53,0-19.08-8.55-19.08-19.08V109.79c0-12.24,9.94-22.18,22.18-22.18Z" fill="none" stroke="#000" stroke-miterlimit="10" stroke-width="10.92"/><line x1="140.34" y1="29.96" x2="140.34" y2="128.6" fill="none" stroke="#000" stroke-miterlimit="10" stroke-width="10"/><line x1="359.66" y1="29.96" x2="359.66" y2="128.6" fill="none" stroke="#000" stroke-miterlimit="10" stroke-width="10"/><path d="M249.51,414.85c38-35.18,76.01-70.35,114.01-105.53,24.62-31.68,19.62-77.78-11.14-103.41-30.85-25.71-77.27-22.19-103.94,7.95-28.3-27.47-68.33-33.29-93.86-17.5-33.44,20.68-44.48,79.94-7.42,122.5,34.12,31.99,68.23,63.99,102.35,95.98Z" fill="none" stroke="#159fd8" stroke-miterlimit="10" stroke-width="12.05"/><polyline points="334.76 305.9 267.98 305.9 256.43 285.86 236.23 330.27 219.73 256.07 201.59 311.27 185.92 285.86 173.55 308.07 110.84 308.07" fill="none" stroke="#159fd8" stroke-linejoin="round" stroke-width="10.2"/></svg>