<?xml version="1.0" encoding="UTF-8"?><svg id="uuid-4ed6d541-d4c9-4ce7-9d93-900f4f6d911b" xmlns="http://www.w3.org/2000/svg" viewBox="0 0 510.01 500"><path d="M299.67,428.06c95-12.24,190-65.91,179.96-100.89-1.73-6.03-5.3-15.02-12.77-20.24-10.7-7.47-24.4-4.89-33.33-2.81-42.1,9.8-93.77,33.61-105.26,38.94" fill="none" stroke="#159fd8" stroke-miterlimit="10" stroke-width="8"/><path d="M35.01,249.09h48.72c3.86,0,7,3.14,7,7v163.8H35.01V249.09h0Z" fill="#d1d3d4" stroke="#231f20" stroke-miterlimit="10" stroke-width="10"/><path d="M90.84,276.42c.19,40.86,.37,81.71,.56,122.57,11.4-1.16,25.16-1.45,40.55,.56,26.38,3.45,47.82,12.4,63.44,21.03,11.65,6.44,36.34,8.7,49.63,9.41,16.55,.88,25.61,2.22,49.11-.64,93.69-11.42,188.66-62.12,184.96-95.02-.7-6.23-5.3-15.02-12.77-20.24-10.7-7.47-24.4-4.89-33.33-2.81-42.1,9.8-105.7,39.09-117.19,44.42h-108.31" fill="none" stroke="#231f20" stroke-miterlimit="10" stroke-width="10"/><path d="M90.84,276.42c7.49-4.34,25.31-13.35,40.55-16.31,22.77-4.42,40.57-.37,44.43,.56,17.31,4.18,19.47,12.3,47.77,26.99,7.25,3.77,13.72,6.72,18.86,8.93,3.58,1.53,7.43,2.32,11.32,2.32h55.78c10.74,0,20.67,6.31,24.69,16.27,.15,.38,.3,.77,.44,1.16,3.4,9.67,.42,25.64-15.56,37.82" fill="none" stroke="#231f20" stroke-miterlimit="10" stroke-width="10"/><path d="M235.21,50c.86,0,1.72,0,2.59,0,.18,.06,.37,.17,.55,.17,6.05,.18,11.89,1.38,17.5,3.65,10.26,4.15,18.42,10.97,24.98,19.79,1.29,1.74,2.47,3.57,3.74,5.42,.21-.33,.41-.62,.6-.93,4.61-7.36,10.35-13.67,17.53-18.61,7.62-5.24,16.01-8.39,25.25-9.15,1.05-.09,2.09-.22,3.13-.34,.8,0,1.6,0,2.4,0,.18,.06,.37,.17,.55,.17,3.98,.12,7.9,.67,11.76,1.66,21.63,5.56,36.6,24.2,37.55,46.88,.29,6.99-.16,13.96-1.25,20.88-1.45,9.2-4.4,17.87-9.15,25.9-4.32,7.31-9.75,13.73-15.67,19.77-8.59,8.76-17.89,16.73-27.15,24.75-13.7,11.87-27.38,23.76-40.6,36.17-1.66,1.55-3.31,3.11-4.99,4.69-.25-.23-.45-.41-.66-.6-11.43-10.34-22.82-20.74-34.32-31.01-9.09-8.12-18.37-16.02-27.46-24.13-6.71-5.98-13.1-12.31-18.77-19.31-6.71-8.29-11.79-17.43-14.57-27.79-2.04-7.59-2.88-15.34-3.09-23.17,0-1.92,0-3.83,0-5.75,.37-2.99,.54-6.01,1.14-8.95,4.62-22.65,23.63-38.96,47.57-39.99,.28-.01,.55-.12,.83-.18Z" fill="none" stroke="#000" stroke-miterlimit="10" stroke-width="10"/></svg>