<?xml version="1.0" encoding="UTF-8"?><svg id="uuid-120de21e-60b1-44ce-b35c-2f8c86cf7991" xmlns="http://www.w3.org/2000/svg" viewBox="0 0 500 500"><line x1="266.11" y1="30.97" x2="266.11" y2="197.75" fill="none" stroke="#159fd8" stroke-miterlimit="10" stroke-width="10"/><path d="M357.87,401.52c23.13-13.88,51.91-6.83,62.94,15.91,11.14,22.96,3.62,49.7-21.98,59" fill="none" stroke="#159fd8" stroke-linecap="round" stroke-miterlimit="10" stroke-width="5"/><path d="M194.65,407.93c23.69,25.78,12.89,56.73-15.34,67.75" fill="none" stroke="#159fd8" stroke-linecap="round" stroke-miterlimit="10" stroke-width="10"/><path d="M271,192.55V25.67s89.98,1.92,130.46,52.91c40.49,50.99,49.49,124.47,49.49,124.47h-179.95v-10.5Z" fill="none" stroke="#231f20" stroke-miterlimit="10" stroke-width="10"/><path d="M88.05,203.05H450.95s-15.28,175.59-170.95,176.95c-155.96,1.36-172.45-107.97-191.95-176.95Z" fill="none" stroke="#231f20" stroke-miterlimit="10" stroke-width="10"/><path d="M45,136.35s29.42-8.47,40,13.65,1.64,49.1,1.64,49.1" fill="none" stroke="#231f20" stroke-linecap="round" stroke-miterlimit="10" stroke-width="10"/><circle cx="382.88" cy="437.63" r="36.46" fill="#d1d3d4" stroke="#231f20" stroke-miterlimit="10" stroke-width="10"/><circle cx="165.03" cy="437.63" r="36.46" fill="#d1d3d4" stroke="#231f20" stroke-miterlimit="10" stroke-width="10"/><polyline points="184.87 407.08 243.02 378.94 298.98 378.94 360.98 408.53" fill="none" stroke="#231f20" stroke-miterlimit="10" stroke-width="10"/></svg>