<?xml version="1.0" encoding="UTF-8"?><svg xmlns="http://www.w3.org/2000/svg" id="uuid-df1ac9e1-b18b-4283-a660-0a0f6b6ffd32" viewBox="0 0 500 500"><polyline points="193.77 449.71 249.16 417.26 309.68 449.16" fill="none" stroke="#159fd8" stroke-miterlimit="10" stroke-width="10"/><polyline points="190.14 308.87 190.14 443.68 249.01 409.25 314.54 443.68 314.54 310.31" fill="none" stroke="#231f20" stroke-miterlimit="10" stroke-width="10"/><circle cx="250.61" cy="196.7" r="78.45" fill="none" stroke="#231f20" stroke-miterlimit="10" stroke-width="12.4"/><path d="M385.75,151.04l-37.52-27.26-14.14-44.17h-46.38l-37.4-27.43-37.52,27.26-46.38-.21-14.33,44.11-37.64,27.09,14.33,44.11-14.53,44.05,37.52,27.26,14.14,44.17h46.38l37.4,27.43,37.52-27.26,46.38.21,14.33-44.11,37.64-27.09-14.33-44.11,14.53-44.05h0ZM250,275.15c-43.33,0-78.45-35.12-78.45-78.45s35.12-78.45,78.45-78.45,78.45,35.12,78.45,78.45-35.12,78.45-78.45,78.45Z" fill="#d1d3d4" stroke="#231f20" stroke-miterlimit="10" stroke-width="10"/><circle cx="250.18" cy="172.72" r="25.7" transform="translate(39.6 392) rotate(-80.78)" fill="none" stroke="#231f20" stroke-miterlimit="10" stroke-width="10"/><path d="M306.18,251.9v-7.51c0-12.12-9.82-21.94-21.94-21.94h-65.64c-13.48,0-24.42,10.93-24.42,24.42v4.89" fill="none" stroke="#231f20" stroke-miterlimit="10" stroke-width="10"/></svg>