<?xml version="1.0" encoding="UTF-8"?><svg id="uuid-2327ab4f-b1bb-4b1b-92c8-17075183703f" xmlns="http://www.w3.org/2000/svg" viewBox="0 0 460 290"><path d="m0,5h460" fill="none" stroke="#f1f2f2" stroke-miterlimit="10" stroke-width="10"/><path d="m0,45h460" fill="none" stroke="#f1f2f2" stroke-miterlimit="10" stroke-width="10"/><path d="m0,85h460" fill="none" stroke="#f1f2f2" stroke-miterlimit="10" stroke-width="10"/><path d="m0,125h460" fill="none" stroke="#f1f2f2" stroke-miterlimit="10" stroke-width="10"/><path d="m0,165h460" fill="none" stroke="#f1f2f2" stroke-miterlimit="10" stroke-width="10"/><path d="m0,205h460" fill="none" stroke="#f1f2f2" stroke-miterlimit="10" stroke-width="10"/><path d="m0,245h460" fill="none" stroke="#f1f2f2" stroke-miterlimit="10" stroke-width="10"/><path d="m0,285h460" fill="none" stroke="#f1f2f2" stroke-miterlimit="10" stroke-width="10"/><path d="m30,270l130-130,70,70L410.22,29.78" fill="none" stroke="#159fd8" stroke-miterlimit="10" stroke-width="10"/><path d="m380,25h35v35" fill="none" stroke="#159fd8" stroke-miterlimit="10" stroke-width="10"/><path d="m301.41,193c27.61,0,50-22.39,50-50s-22.39-50-50-50-50,22.39-50,50,22.39,50,50,50Z" fill="none" stroke="#231f20" stroke-miterlimit="10" stroke-width="10"/><path d="m333.23,174.82l35.36,35.36" fill="none" stroke="#231f20" stroke-miterlimit="10" stroke-width="10"/></svg>