<?xml version="1.0" encoding="UTF-8"?><svg id="uuid-f6eecab2-01df-47fd-bc13-518fd3173788" xmlns="http://www.w3.org/2000/svg" xmlns:xlink="http://www.w3.org/1999/xlink" viewBox="0 0 430.14 350.39"><defs><clipPath id="uuid-08c3d64c-d92f-4c63-8346-cc20c709cd31"><rect x=".01" y="0" width="430.13" height="350.38" fill="none"/></clipPath></defs><g clip-path="url(#uuid-08c3d64c-d92f-4c63-8346-cc20c709cd31)" fill="none"><path d="m411.75,5.13H35.63c-16.84,0-30.5,12.76-30.5,28.5v298.87" fill="none" stroke="#159fd8" stroke-miterlimit="10" stroke-width="10.26"/><path d="m33.73,15.3h370.86c11.34,0,20.55,9.21,20.55,20.55v291.87c0,9.75-7.92,17.67-17.67,17.67H30.86c-9.75,0-17.67-7.92-17.67-17.67V35.84c0-11.34,9.21-20.55,20.55-20.55h0Z" fill="none" stroke="#000" stroke-miterlimit="10" stroke-width="10"/><path d="m58.62,64.17c4.68,0,8.48-3.8,8.48-8.48s-3.8-8.48-8.48-8.48-8.48,3.8-8.48,8.48,3.8,8.48,8.48,8.48Z" fill="#159fd8"/><path d="m82.23,64.17c4.68,0,8.48-3.8,8.48-8.48s-3.8-8.48-8.48-8.48-8.48,3.8-8.48,8.48,3.8,8.48,8.48,8.48Z" fill="#159fd8"/><path d="m105.14,64.17c4.68,0,8.48-3.8,8.48-8.48s-3.8-8.48-8.48-8.48-8.48,3.8-8.48,8.48,3.8,8.48,8.48,8.48Z" fill="#159fd8"/><path d="m421.29,102.64H17.66" fill="none" stroke="#000" stroke-miterlimit="10" stroke-width="10"/><path d="m50.14,171.14h130" fill="none" stroke="#d1d3d4" stroke-miterlimit="10" stroke-width="10"/><path d="m50.14,190.34h130" fill="none" stroke="#d1d3d4" stroke-miterlimit="10" stroke-width="10"/><path d="m50.14,209.53h130" fill="none" stroke="#d1d3d4" stroke-miterlimit="10" stroke-width="10"/><path d="m390.14,168.82h-140v140.62h140v-140.62Z" fill="#d1d3d4"/><path d="m198.93,210.64l-7,7,14.14,14.14,7-7-14.14-14.14Z" fill="#159fd8"/><path d="m206.07,203.49l-21.22,21.22-10.64-31.79,31.86,10.57Z" fill="#159fd8"/><path d="m180.14,248.82H49.64v61.14h130.5v-61.14Z" fill="#d1d3d4"/></g></svg>