<?xml version="1.0" encoding="UTF-8"?><svg id="uuid-25ae138d-59a2-4505-a0c3-1f68e3e0d077" xmlns="http://www.w3.org/2000/svg" viewBox="0 0 459.53 312.41"><path d="m32.76,287.06c0-11.24,19.94-41.68,19.94-41.68,0,0,19.94,30.44,19.94,41.68s-8.93,20.35-19.94,20.35-19.94-9.11-19.94-20.35h0Z" fill="none" stroke="#f1f2f2" stroke-miterlimit="10" stroke-width="10"/><path d="m171.36,219l-42.74,42.74" fill="none" stroke="#f1f2f2" stroke-linecap="square" stroke-miterlimit="10" stroke-width="10"/><path d="m149.99,210.15v60.44" fill="none" stroke="#f1f2f2" stroke-linecap="square" stroke-miterlimit="10" stroke-width="10"/><path d="m180.21,240.37h-60.44" fill="none" stroke="#f1f2f2" stroke-linecap="square" stroke-miterlimit="10" stroke-width="10"/><path d="m171.36,261.74l-42.74-42.74" fill="none" stroke="#f1f2f2" stroke-linecap="square" stroke-miterlimit="10" stroke-width="10"/><path d="m254.3,145h42.1c10.15,0,18.37-8.23,18.37-18.37s-8.23-18.37-18.37-18.37c-5.39,0-10.24,2.32-13.6,6.02" fill="none" stroke="#000" stroke-linecap="square" stroke-miterlimit="10" stroke-width="10"/><path d="m234.74,175h90.75c10.15,0,18.37,8.23,18.37,18.37s-8.23,18.37-18.37,18.37c-5.39,0-10.24-2.32-13.6-6.02" fill="none" stroke="#000" stroke-linecap="square" stroke-miterlimit="10" stroke-width="10"/><path d="m237.23,77.5c-12.06-28.28-38.62-48.88-70.33-52.52-.16-.02-.33-.04-.49-.05-.92-.1-1.85-.19-2.77-.26-.34-.03-.68-.04-1.02-.07-.79-.05-1.57-.1-2.36-.13-.81-.03-1.63-.04-2.44-.05-.32,0-.64-.02-.97-.02h-.14c-.32,0-.64.02-.97.02-.82.01-1.63.02-2.44.05-.79.03-1.58.08-2.36.13-.34.02-.68.04-1.02.07-.93.07-1.85.16-2.77.26-.16.02-.33.03-.49.05-36.67,4.21-66.46,31.11-74.89,66.33l-1.67.09c-37,.74-65.1,30.97-65.1,68.15,0,5.14.57,10.55,1.65,15.36h198.81" fill="none" stroke="#f1f2f2" stroke-miterlimit="10" stroke-width="10"/><path d="m305.18,255.29c55.15,0,99.85-44.7,99.85-99.85s-44.7-99.85-99.85-99.85-99.85,44.7-99.85,99.85,44.7,99.85,99.85,99.85Z" fill="none" stroke="#159fd8" stroke-miterlimit="10" stroke-width="10"/><path d="m375.79,226.05l52.59,52.59" fill="none" stroke="#159fd8" stroke-miterlimit="10" stroke-width="30"/><path d="m392.92,66.61l21.22-21.21" fill="none" stroke="#f1f2f2" stroke-miterlimit="10" stroke-width="10"/><path d="m429.53,155h30" fill="none" stroke="#f1f2f2" stroke-miterlimit="10" stroke-width="10"/><path d="m304.53,0v30" fill="none" stroke="#f1f2f2" stroke-miterlimit="10" stroke-width="10"/></svg>