<?xml version="1.0" encoding="UTF-8"?><svg id="uuid-38d7ee46-3501-4926-9873-19c268dc6c90" xmlns="http://www.w3.org/2000/svg" viewBox="0 0 460 300"><path d="m440,10v270H10V10h430Zm10-10H0v290h450V0Z" fill="#231f20"/><path d="m455,10v285H10" fill="none" stroke="#159fd8" stroke-miterlimit="10" stroke-width="10"/><path d="m197.79,77.82l64.42,64.42-64.42,64.43V77.82Z" fill="#231f20"/><path d="m40,260.15h-20v9.85h20v-9.85Z" fill="#f1f2f2"/><path d="m40,240.08h-20v9.85h20v-9.85Z" fill="#f1f2f2"/><path d="m40,220h-20v9.85h20v-9.85Z" fill="#f1f2f2"/><path d="m40,200.08h-20v9.85h20v-9.85Z" fill="#f1f2f2"/><path d="m40,180.08h-20v9.85h20v-9.85Z" fill="#f1f2f2"/><path d="m40,160.08h-20v9.85h20v-9.85Z" fill="#f1f2f2"/><path d="m40,140.08h-20v9.85h20v-9.85Z" fill="#f1f2f2"/><path d="m40,120.08h-20v9.85h20v-9.85Z" fill="#f1f2f2"/><path d="m40,100.08h-20v9.85h20v-9.85Z" fill="#f1f2f2"/><path d="m40,80.08h-20v9.85h20v-9.85Z" fill="#f1f2f2"/><path d="m40,60.08h-20v9.85h20v-9.85Z" fill="#f1f2f2"/><path d="m40,40.08h-20v9.85h20v-9.85Z" fill="#f1f2f2"/><path d="m40,20.08h-20v9.85h20v-9.85Z" fill="#f1f2f2"/><path d="m430,260.15h-20v9.85h20v-9.85Z" fill="#f1f2f2"/><path d="m430,240.08h-20v9.85h20v-9.85Z" fill="#f1f2f2"/><path d="m430,220h-20v9.85h20v-9.85Z" fill="#f1f2f2"/><path d="m430,200.08h-20v9.85h20v-9.85Z" fill="#f1f2f2"/><path d="m430,180.08h-20v9.85h20v-9.85Z" fill="#f1f2f2"/><path d="m430,160.08h-20v9.85h20v-9.85Z" fill="#f1f2f2"/><path d="m430,140.08h-20v9.85h20v-9.85Z" fill="#f1f2f2"/><path d="m430,120.08h-20v9.85h20v-9.85Z" fill="#f1f2f2"/><path d="m430,100.08h-20v9.85h20v-9.85Z" fill="#f1f2f2"/><path d="m430,80.08h-20v9.85h20v-9.85Z" fill="#f1f2f2"/><path d="m430,60.08h-20v9.85h20v-9.85Z" fill="#f1f2f2"/><path d="m430,40.08h-20v9.85h20v-9.85Z" fill="#f1f2f2"/><path d="m430,20.08h-20v9.85h20v-9.85Z" fill="#f1f2f2"/></svg>