<?xml version="1.0" encoding="UTF-8"?><svg id="uuid-78fa8962-4bde-4465-999a-3a4ecf9fc7da" xmlns="http://www.w3.org/2000/svg" viewBox="0 0 260.05 460.19"><path d="m54.95,129.98c-23.49-9.8-39.99-32.98-39.99-60.02C14.96,34.06,44.06,4.96,79.96,4.96s65,29.1,65,65c0,26.92-16.37,50.02-39.7,59.89" fill="none" stroke="#00a2dd" stroke-miterlimit="10" stroke-width="9.92"/><path d="m255.09,330.16c0,69.07-55.99,125.07-125.07,125.07S4.96,399.23,4.96,330.16l.18-4.32v-30.13c0-8.61,4.17-16.69,11.19-21.68l38.63-27.45" fill="none" stroke="#000" stroke-miterlimit="10" stroke-width="9.92"/><path d="m54.96,330.27V99.96c0-13.75,11.25-25,25-25s25,11.25,25,25v127.63" fill="none" stroke="#000" stroke-miterlimit="10" stroke-width="9.92"/><path d="m104.96,309.96v-90c0-13.75,11.25-25,25-25s25,11.25,25,25v70" fill="none" stroke="#000" stroke-miterlimit="10" stroke-width="9.92"/><path d="m154.96,309.96v-70c0-13.75,11.25-25,25-25s25,11.25,25,25v70" fill="none" stroke="#000" stroke-miterlimit="10" stroke-width="9.92"/><path d="m204.96,306.85v-46.89c0-13.75,11.25-25,25-25s25,11.25,25,25v70" fill="none" stroke="#000" stroke-miterlimit="10" stroke-width="9.92"/></svg>