<?xml version="1.0" encoding="UTF-8"?>
<svg id="Design" xmlns="http://www.w3.org/2000/svg" viewBox="0 0 500 500">
  <defs>
    <style>
      .cls-1 {
        fill: #00a3e3;
      }

      .cls-2 {
        fill: #fff;
      }

      .cls-3 {
        fill: #d1d3d4;
        stroke-width: 9px;
      }

      .cls-3, .cls-4, .cls-5, .cls-6 {
        stroke-miterlimit: 10;
      }

      .cls-3, .cls-6 {
        stroke: #000;
      }

      .cls-4 {
        stroke-width: 10.09px;
      }

      .cls-4, .cls-5 {
        stroke: #00a2de;
      }

      .cls-4, .cls-5, .cls-6 {
        fill: none;
      }

      .cls-5 {
        stroke-width: 10.04px;
      }

      .cls-6 {
        stroke-width: 9.92px;
      }
    </style>
  </defs>
  <path class="cls-5" d="M237.25,457.21l95.04,18.74c23.55,4.64,48.12-13.33,52.76-36.88l6.54-32.75,.94-4.69"/>
  <path class="cls-4" d="M401.87,170.34l-3.28-22.23c-10.96-64.91-72.92-110.5-137.84-99.54"/>
  <path class="cls-6" d="M227.17,55.71h41.86c65.79,0,119.2,53.41,119.2,119.2v24.78H107.68v-24.49c0-65.95,53.54-119.48,119.48-119.48Z" transform="translate(-17.8 43.06) rotate(-9.58)"/>
  <path class="cls-6" d="M146.01,371.36h192.8c24.21,0,43.87,19.66,43.87,43.87v37.31H102.14v-37.31c0-24.21,19.66-43.87,43.87-43.87Z" transform="translate(400.54 863.02) rotate(-168.84)"/>
  <rect class="cls-3" x="106.33" y="285.31" width="302.07" height="52.11" rx="19.11" ry="19.11" transform="translate(24.06 -18.41) rotate(4.3)"/>
  <path class="cls-6" d="M111.27,261.09s19.12-28.61,56.25-9.5c37.13,19.11,42.15-8.45,75.91-14.56,33.76-6.11,37.85,13.19,63.38,11.71,25.53-1.48,33.82-26.83,73.08-20.96,27.56,4.12,33.75,15.29,33.75,15.29"/>
  <circle cx="165.77" cy="168.88" r="9.29"/>
  <circle cx="221.75" cy="157.82" r="9.29"/>
  <circle cx="282.81" cy="143.44" r="9.29"/>
  <circle cx="338.79" cy="133.26" r="9.29"/>
  <circle cx="186.13" cy="123.09" r="9.29"/>
  <circle cx="237.01" cy="104.18" r="9.29"/>
  <circle cx="296.26" cy="97.64" r="9.29"/>
  <path class="cls-1" d="M113.29,16.22c-32.85,0-59.48,26.63-59.48,59.48s26.63,59.48,59.48,59.48,59.48-26.63,59.48-59.48-26.63-59.48-59.48-59.48Z"/>
  <line class="cls-6" x1="382.04" y1="64.27" x2="417.67" y2="19.06"/>
  <line class="cls-6" x1="405.54" y1="95.47" x2="455.23" y2="66.44"/>
  <line class="cls-6" x1="421.47" y1="136.59" x2="478.82" y2="131.71"/>
  <g>
    <path class="cls-2" d="M93.73,93.53h-7.2l-10.53-23.39v23.39h-7.2V57.87h7.2l10.55,23.41v-23.41h7.17v35.65Z"/>
    <path class="cls-2" d="M117.21,78.1h-11.22v9.45h13.27v5.98h-20.47V57.87h20.42v6h-13.22v8.42h11.22v5.8Z"/>
    <path class="cls-2" d="M147.28,80.28l3.38-22.41h7.13l-6.34,35.65h-7.22l-4.16-21.01-4.11,21.01h-7.25l-6.37-35.65h7.17l3.35,22.38,4.19-22.38h6.05l4.19,22.41Z"/>
  </g>
</svg>