<svg width="500" height="500" viewBox="0 0 500 500" fill="none" xmlns="http://www.w3.org/2000/svg">
<path d="M173.15 462.08L188.46 415.25M62.26 381.26L102.12 352.31M20 250.71H69.27M62.53 120.2L102.35 149.21M173.58 39.5801L188.76 86.4501" stroke="#231F20" stroke-width="10" stroke-linejoin="round"/>
<path d="M249.08 20V480" stroke="#159FD8" stroke-width="10" stroke-linejoin="round"/>
<path d="M239.08 120.48C172.01 125.59 119.18 181.62 119.18 250C119.18 318.38 172.01 374.42 239.08 379.52" stroke="#231F20" stroke-width="10" stroke-linejoin="round"/>
<path d="M324.13 250C324.13 340 265.62 378.9 268.84 378.41C331.21 368.89 378.98 315.03 378.98 250C378.98 184.97 331.33 131.25 269.08 121.63C265.79 121.12 324.13 160 324.13 250V250Z" stroke="#231F20" stroke-width="10" stroke-miterlimit="10"/>
</svg>
