<?xml version="1.0" encoding="UTF-8"?>
<svg id="Design" xmlns="http://www.w3.org/2000/svg" viewBox="0 0 500 500">
  <defs>
    <style>
      .cls-1 {
        stroke-dasharray: 0 0 7.49 7.49;
      }

      .cls-1, .cls-2, .cls-3, .cls-4, .cls-5, .cls-6, .cls-7, .cls-8, .cls-9, .cls-10, .cls-11, .cls-12, .cls-13, .cls-14 {
        stroke-miterlimit: 10;
      }

      .cls-1, .cls-2, .cls-3, .cls-6, .cls-7, .cls-8, .cls-9, .cls-10, .cls-11, .cls-12, .cls-13, .cls-14 {
        fill: none;
      }

      .cls-1, .cls-2, .cls-3, .cls-6, .cls-7, .cls-8, .cls-9, .cls-10, .cls-14 {
        stroke: #fff;
      }

      .cls-2 {
        stroke-dasharray: 0 0 8.92 8.92;
      }

      .cls-15 {
        fill: #fff;
      }

      .cls-3 {
        stroke-dasharray: 0 0 9.14 9.14;
      }

      .cls-4, .cls-5 {
        fill: #d1d3d4;
      }

      .cls-4, .cls-5, .cls-11 {
        stroke-width: 9px;
      }

      .cls-4, .cls-12 {
        stroke: #000;
      }

      .cls-5 {
        stroke: #251f20;
      }

      .cls-6 {
        stroke-dasharray: 0 9;
      }

      .cls-7 {
        stroke-dasharray: 0 0 10.57 10.57;
      }

      .cls-9 {
        stroke-dasharray: 0 0 9.77 9.77;
      }

      .cls-10 {
        stroke-dasharray: 0 0 10.41 10.41;
      }

      .cls-11 {
        stroke: #00a3e3;
      }

      .cls-12 {
        stroke-width: 9.92px;
      }

      .cls-13 {
        stroke: #00a2de;
        stroke-width: 9.88px;
      }

      .cls-14 {
        stroke-dasharray: 0 0 8.31 8.31;
      }
    </style>
  </defs>
  <line class="cls-11" x1="85.71" y1="485.15" x2="414.29" y2="485.15"/>
  <path class="cls-5" d="M85.71,479.97H414.29l-54.76-109.52h-57.07c-18.96,23.24-37.68,38.33-52.45,38.33-11.49,0-28.89-15.09-47.63-38.33h-61.9l-54.76,109.52Z"/>
  <g>
    <line class="cls-8" x1="138.8" y1="453.36" x2="141.16" y2="449.53"/>
    <line class="cls-14" x1="145.53" y1="442.46" x2="169.55" y2="403.54"/>
    <polyline class="cls-8" points="171.73 400.01 174.1 396.18 177.39 399.25"/>
    <line class="cls-9" x1="184.53" y1="405.91" x2="223.81" y2="442.55"/>
    <polyline class="cls-8" points="227.38 445.88 230.67 448.95 232.84 445"/>
    <line class="cls-10" x1="237.84" y1="435.88" x2="245.34" y2="422.19"/>
    <polyline class="cls-8" points="247.84 417.63 250 413.68 254.24 415.18"/>
    <line class="cls-3" x1="262.87" y1="418.22" x2="293.06" y2="428.86"/>
    <polyline class="cls-8" points="297.37 430.38 301.61 431.87 304.94 428.84"/>
    <line class="cls-1" x1="310.47" y1="423.8" x2="329.83" y2="406.14"/>
    <polyline class="cls-8" points="332.6 403.62 335.92 400.59 338.27 404.43"/>
    <line class="cls-7" x1="343.77" y1="413.45" x2="363.04" y2="445.01"/>
    <polyline class="cls-8" points="365.79 449.52 368.14 453.36 363.88 451.89"/>
    <polyline class="cls-2" points="355.45 448.99 305.81 431.87 234.32 448.95 150.77 452.93"/>
    <line class="cls-8" x1="146.32" y1="453.15" x2="141.82" y2="453.36"/>
  </g>
  <polyline class="cls-6" points="174.1 396.18 250 406.2 335.92 400.59"/>
  <g>
    <path class="cls-12" d="M392.38,162.35c0,78.63-93.1,246.43-142.38,246.43-38.33,0-142.38-167.79-142.38-246.43S171.37,19.97,250,19.97s142.38,63.75,142.38,142.38Z"/>
    <path class="cls-13" d="M252,122.47c22.37,0,40.5,18.13,40.5,40.5"/>
    <circle class="cls-4" cx="250" cy="164.97" r="36.91"/>
  </g>
  <ellipse class="cls-15" cx="138.8" cy="453.36" rx="8.21" ry="4.41"/>
  <ellipse class="cls-15" cx="174.1" cy="396.18" rx="8.21" ry="4.41"/>
  <ellipse class="cls-15" cx="230.67" cy="448.95" rx="8.21" ry="4.41"/>
  <ellipse class="cls-15" cx="301.61" cy="431.87" rx="8.21" ry="4.41"/>
  <ellipse class="cls-15" cx="335.92" cy="400.59" rx="8.21" ry="4.41"/>
  <ellipse class="cls-15" cx="368.14" cy="453.36" rx="8.21" ry="4.41"/>
</svg>