<svg width="500" height="500" viewBox="0 0 500 500" fill="none" xmlns="http://www.w3.org/2000/svg">
<path d="M52.76 383.06C52.76 371.82 72.7 341.38 72.7 341.38C72.7 341.38 92.64 371.82 92.64 383.06C92.64 394.3 83.71 403.41 72.7 403.41C61.69 403.41 52.76 394.3 52.76 383.06V383.06Z" stroke="#F1F2F2" stroke-width="10" stroke-miterlimit="10"/>
<path d="M191.36 315L148.62 357.74" stroke="#F1F2F2" stroke-width="10" stroke-miterlimit="10" stroke-linecap="square"/>
<path d="M169.99 306.15V366.59" stroke="#F1F2F2" stroke-width="10" stroke-miterlimit="10" stroke-linecap="square"/>
<path d="M200.21 336.37H139.77" stroke="#F1F2F2" stroke-width="10" stroke-miterlimit="10" stroke-linecap="square"/>
<path d="M191.36 357.74L148.62 315" stroke="#F1F2F2" stroke-width="10" stroke-miterlimit="10" stroke-linecap="square"/>
<path d="M274.3 241H316.4C326.55 241 334.77 232.77 334.77 222.63C334.77 212.49 326.54 204.26 316.4 204.26C311.01 204.26 306.16 206.58 302.8 210.28" stroke="black" stroke-width="10" stroke-miterlimit="10" stroke-linecap="square"/>
<path d="M254.74 271H345.49C355.64 271 363.86 279.23 363.86 289.37C363.86 299.51 355.63 307.74 345.49 307.74C340.1 307.74 335.25 305.42 331.89 301.72" stroke="black" stroke-width="10" stroke-miterlimit="10" stroke-linecap="square"/>
<path d="M257.23 173.5C245.17 145.22 218.61 124.62 186.9 120.98C186.74 120.96 186.57 120.94 186.41 120.93C185.49 120.83 184.56 120.74 183.64 120.67C183.3 120.64 182.96 120.63 182.62 120.6C181.83 120.55 181.05 120.5 180.26 120.47C179.45 120.44 178.63 120.43 177.82 120.42C177.5 120.42 177.18 120.4 176.85 120.4C176.83 120.4 176.81 120.4 176.78 120.4C176.75 120.4 176.74 120.4 176.71 120.4C176.39 120.4 176.07 120.42 175.74 120.42C174.92 120.43 174.11 120.44 173.3 120.47C172.51 120.5 171.72 120.55 170.94 120.6C170.6 120.62 170.26 120.64 169.92 120.67C168.99 120.74 168.07 120.83 167.15 120.93C166.99 120.95 166.82 120.96 166.66 120.98C129.99 125.19 100.2 152.09 91.77 187.31L90.1 187.4C53.1 188.14 25 218.37 25 255.55C25 260.69 25.57 266.1 26.65 270.91H225.46" stroke="#F1F2F2" stroke-width="10" stroke-miterlimit="10"/>
<path d="M325.18 351.29C380.326 351.29 425.03 306.586 425.03 251.44C425.03 196.294 380.326 151.59 325.18 151.59C270.034 151.59 225.33 196.294 225.33 251.44C225.33 306.586 270.034 351.29 325.18 351.29Z" stroke="#159FD8" stroke-width="10" stroke-miterlimit="10"/>
<path d="M395.79 322.05L448.38 374.64" stroke="#159FD8" stroke-width="30" stroke-miterlimit="10"/>
<path d="M412.92 162.61L434.14 141.4" stroke="#F1F2F2" stroke-width="10" stroke-miterlimit="10"/>
<path d="M449.53 251H479.53" stroke="#F1F2F2" stroke-width="10" stroke-miterlimit="10"/>
<path d="M324.53 96V126" stroke="#F1F2F2" stroke-width="10" stroke-miterlimit="10"/>
</svg>
