<?xml version="1.0" encoding="UTF-8"?>
<svg id="Design" xmlns="http://www.w3.org/2000/svg" viewBox="0 0 500 500">
  <defs>
    <style>
      .cls-1 {
        fill: #00a3e3;
      }

      .cls-2 {
        fill: #fff;
      }

      .cls-3 {
        fill: #d1d3d4;
      }

      .cls-4 {
        stroke-width: 10.13px;
      }

      .cls-4, .cls-5 {
        stroke: #00a2de;
      }

      .cls-4, .cls-5, .cls-6 {
        fill: none;
        stroke-miterlimit: 10;
      }

      .cls-5 {
        stroke-width: 10.04px;
      }

      .cls-6 {
        stroke: #000;
        stroke-width: 9.92px;
      }
    </style>
  </defs>
  <path class="cls-3" d="M232.99,221.4h9.36c-42.74-12.29-72.96-50.17-75.02-93.41-2.22-46.63,28.78-89.82,75.02-103.23h-9.36c-54.3,0-98.32,44.02-98.32,98.32s44.02,98.32,98.32,98.32Z"/>
  <path class="cls-3" d="M118.83,266.62l108.41,2.18c-36.54,.13-63.22,8.42-78.98,14.76-18.18,7.32-26.23,13.8-32,20.57-12.77,15-15.19,32.4-15.75,40.88v130.17H58.3c0-80.48-8.11-139.87,16.33-182.05"/>
  <g>
    <path class="cls-4" d="M238.18,19.78c55.44,0,101.89,44.29,101.89,101.67,0,27.8-7.97,48.69-19.68,64.2"/>
    <path class="cls-5" d="M418.48,470.89v-127.68c-2.53-52.05-45.63-83-80.5-84.53"/>
  </g>
  <g>
    <circle class="cls-6" cx="236.18" cy="123.13" r="98.32"/>
    <path class="cls-6" d="M144.71,263.17h182.94c47.69,0,86.41,38.72,86.41,86.41v125.61H58.3v-125.61c0-47.69,38.72-86.41,86.41-86.41Z"/>
  </g>
  <g>
    <path class="cls-2" d="M402.14,306.13c-32.85,0-59.48,26.63-59.48,59.48s26.63,59.48,59.48,59.48,59.48-26.63,59.48-59.48-26.63-59.48-59.48-59.48Z"/>
    <path class="cls-1" d="M402.14,301.55c-37.35,0-67.63,30.28-67.63,67.63s30.28,67.63,67.63,67.63,67.63-30.28,67.63-67.63-30.28-67.63-67.63-67.63Zm-3.68,106.28l-37.78-29.92,11.3-14.27,23.51,18.62,35.32-44.59,14.27,11.3-46.62,58.86Z"/>
  </g>
</svg>