<svg width="500" height="500" viewBox="0 0 500 500" fill="none" xmlns="http://www.w3.org/2000/svg">
<path d="M20 110H480" stroke="#F1F2F2" stroke-width="10" stroke-miterlimit="10"/>
<path d="M20 150H480" stroke="#F1F2F2" stroke-width="10" stroke-miterlimit="10"/>
<path d="M20 190H480" stroke="#F1F2F2" stroke-width="10" stroke-miterlimit="10"/>
<path d="M20 230H480" stroke="#F1F2F2" stroke-width="10" stroke-miterlimit="10"/>
<path d="M20 270H480" stroke="#F1F2F2" stroke-width="10" stroke-miterlimit="10"/>
<path d="M20 310H480" stroke="#F1F2F2" stroke-width="10" stroke-miterlimit="10"/>
<path d="M20 350H480" stroke="#F1F2F2" stroke-width="10" stroke-miterlimit="10"/>
<path d="M20 390H480" stroke="#F1F2F2" stroke-width="10" stroke-miterlimit="10"/>
<path d="M50 375L180 245L250 315L430.22 134.78" stroke="#159FD8" stroke-width="10" stroke-miterlimit="10"/>
<path d="M400 130H435V165" stroke="#159FD8" stroke-width="10" stroke-miterlimit="10"/>
<path d="M321.41 298C349.024 298 371.41 275.614 371.41 248C371.41 220.386 349.024 198 321.41 198C293.796 198 271.41 220.386 271.41 248C271.41 275.614 293.796 298 321.41 298Z" stroke="#231F20" stroke-width="10" stroke-miterlimit="10"/>
<path d="M353.23 279.82L388.59 315.18" stroke="#231F20" stroke-width="10" stroke-miterlimit="10"/>
</svg>
