<svg xmlns="http://www.w3.org/2000/svg" id="Design" viewBox="0 0 500 500"><defs><style>.cls-1{stroke-width:9.5px;stroke:#251f20;stroke-miterlimit:10;fill:#d1d3d4}.cls-5{fill:#251f20}</style></defs><path fill="#00a2de" d="m461.51 431.34-356.99-.77v-8.76l350.8.4-.19-249.03h6.38v258.16Zm20.09-259.78-14.02 243.92"/><g><path fill="#d1d3d4" d="M66.33 347.94H24.9V93.56h353.12v46.14H68.41l-2.08 208.24z"/><path d="M97.63 377.29H54.25V122.91h353.13v41.78H97.31l.32 212.6z" class="cls-1"/><path stroke="#251f20" stroke-miterlimit="10" stroke-width="1.06" d="M455.54 425.45H93.11V161.78h362.43v263.67Zm-353.13-9.3h343.83V171.07H102.41v245.08Z"/></g><path d="M337.34 273.79H211.31v-8.97c0-34.49 28.06-62.56 62.56-62.56h1.18c34.35 0 62.29 27.94 62.29 62.29v9.24Zm-116.73-9.3h107.43c-.03-29.19-23.79-52.93-52.99-52.93h-1.18c-29.26 0-53.08 23.71-53.26 52.93Zm95.51 113.93H231.8c-11.5 0-20.86-9.36-20.86-20.85v-22.22h126.03v22.22c0 11.5-9.36 20.85-20.85 20.85Zm-95.88-33.78v12.92c0 6.37 5.18 11.56 11.56 11.56h84.32c6.37 0 11.56-5.18 11.56-11.56v-12.92H220.25Z" class="cls-5"/><rect width="125.69" height="21.68" x="211.23" y="304.03" class="cls-1" rx="7.01" ry="7.01"/><path d="M243.81 295.83c-3.57 0-7.73-1.09-12.81-4.15-11.2-6.72-17.48.51-18.16 1.36l-7.35-5.7c3.97-5.17 15.4-12.57 30.3-3.63 7.38 4.44 10.13 3.01 15.6.15 3.55-1.85 7.97-4.16 14.21-4.87 9.64-1.1 14.68 1.72 18.74 3.98 2.83 1.58 4.88 2.72 8.49 2.75h.09c3.24 0 5.8-1.32 9.02-3 5.39-2.79 12.09-6.27 23.54-3.78 13.19 2.87 16.61 8.85 17.16 10.02l-8.41 3.97s.03.09.13.24c-.02-.03-2.15-3.25-10.86-5.14-8.17-1.78-12.4.41-17.29 2.95-3.65 1.89-7.79 4.04-13.3 4.04h-.16c-5.98-.05-9.68-2.11-12.95-3.93-3.62-2.02-6.48-3.62-13.15-2.86-4.53.52-7.8 2.22-10.97 3.87-3.43 1.79-7.13 3.72-11.87 3.72Z" class="cls-5"/><g><circle cx="247.88" cy="246.79" r="3.87" class="cls-5"/><circle cx="265.51" cy="246.79" r="3.87" class="cls-5"/><circle cx="283.14" cy="246.79" r="3.87" class="cls-5"/><circle cx="300.77" cy="246.79" r="3.87" class="cls-5"/><circle cx="256.7" cy="229.27" r="3.87" class="cls-5"/><circle cx="274.33" cy="229.27" r="3.87" class="cls-5"/><circle cx="291.96" cy="229.27" r="3.87" class="cls-5"/></g></svg>