<?xml version="1.0" encoding="UTF-8"?><svg id="uuid-54f8d15f-895d-45d5-8fa4-499b20810166" xmlns="http://www.w3.org/2000/svg" viewBox="0 0 455.03 464.66"><path d="m248.98,207.17l-101.56-99.67c-.43-.42-.89-.8-1.34-1.19,3.57-8.63,5.55-18.08,5.55-28,0-40.49-32.82-73.31-73.31-73.31-9.39,0-18.36,1.79-26.62,5l35.68,35.02c11.44,11.23,11.61,29.6.39,41.04-5.68,5.79-13.2,8.69-20.71,8.69s-14.68-2.76-20.32-8.31L10.37,50.76c-3.45,8.51-5.37,17.8-5.37,27.55,0,40.49,32.82,73.31,73.31,73.31,9.32,0,18.22-1.76,26.41-4.92.64.77,1.31,1.51,2.04,2.22l89.3,87.64,20.46-10.68,33.98,37.5-10.64,16.16,103.18,101.26c-.85,3.81-1.31,7.76-1.31,11.82,0,29.9,24.24,54.15,54.15,54.15s54.15-24.24,54.15-54.15-24.24-54.15-54.15-54.15c-4.05,0-7.99.46-11.79,1.3l-112.88-110.78m124.67,189.21c-14.11,0-25.59-11.48-25.59-25.59s11.48-25.59,25.59-25.59,25.59,11.48,25.59,25.59-11.48,25.59-25.59,25.59Z" fill="#fff"/><path d="m248.98,207.17l-101.56-99.67c-.43-.42-.89-.8-1.34-1.19,3.57-8.63,5.55-18.08,5.55-28,0-40.49-32.82-73.31-73.31-73.31-9.39,0-18.36,1.79-26.62,5l35.68,35.02c11.44,11.23,11.61,29.6.39,41.04-5.68,5.79-13.2,8.69-20.71,8.69s-14.68-2.76-20.32-8.31L10.37,50.76c-3.45,8.51-5.37,17.8-5.37,27.55,0,40.49,32.82,73.31,73.31,73.31,9.32,0,18.22-1.76,26.41-4.92.64.77,1.31,1.51,2.04,2.22l89.3,87.64,20.46-10.68,33.98,37.5-10.64,16.16,103.18,101.26c-.85,3.81-1.31,7.76-1.31,11.82,0,29.9,24.24,54.15,54.15,54.15s54.15-24.24,54.15-54.15-24.24-54.15-54.15-54.15c-4.05,0-7.99.46-11.79,1.3l-112.88-110.78m124.67,189.21c-14.11,0-25.59-11.48-25.59-25.59s11.48-25.59,25.59-25.59,25.59,11.48,25.59,25.59-11.48,25.59-25.59,25.59Z" fill="none" stroke="#000" stroke-miterlimit="10" stroke-width="10"/><path d="m254.04,285.24l-6.83,10.38c4.3,14.37.78,30.58-10.57,41.93l-114.76,114.76c-4.37,4.37-9.45,7.57-14.88,9.62-15.02,5.68-32.63,2.47-44.72-9.62-16.46-16.46-17.93-17.93-17.93-17.93-16.46-16.46-16.46-43.14,0-59.6l114.76-114.76c10.55-10.55,25.29-14.32,38.86-11.35l12.27-6.4,25.76-17.77,32.5,37-14.46,23.75h0Z" fill="#159fd8"/><path d="m240.57,236.52l161.16-160.09v-13.22l30.69-19.43,10.58,11.22,10.58,11.22-26.58,39.78-12.11-.43-155.89,153.68" fill="#159fd8"/><path d="m239.86,279.55l-6.83,10.38c4.3,14.37.78,30.58-10.57,41.93l-114.76,114.76c-16.46,16.46-43.14,16.46-59.6,0l-17.93-17.93c-16.46-16.46-16.46-43.14,0-59.6l114.76-114.76c10.55-10.55,25.29-14.32,38.86-11.35l12.27-6.4,20.46-10.68,33.98,37.5-10.64,16.16h0Z" fill="#fff"/><path d="m226.4,230.83l161.16-160.09v-13.22l38.08-26.21,21.16,22.44-25.68,37.36-12.11-.43-164.18,162.88" fill="#fff"/><path d="m239.86,279.55l-6.83,10.38c4.3,14.37.78,30.58-10.57,41.93l-114.76,114.76c-16.46,16.46-43.14,16.46-59.6,0l-17.93-17.93c-16.46-16.46-16.46-43.14,0-59.6l114.76-114.76c10.55-10.55,25.29-14.32,38.86-11.35l12.27-6.4,20.46-10.68,33.98,37.5-10.64,16.16h0Z" fill="none" stroke="#000" stroke-miterlimit="10" stroke-width="10"/><path d="m226.4,230.83l161.16-160.09v-13.22l38.08-26.21,21.16,22.44-25.68,37.36-12.11-.43-164.18,162.88" fill="none" stroke="#000" stroke-miterlimit="10" stroke-width="10"/><path d="m204.22,256.94l15.24,14.64" fill="none" stroke="#159fd8" stroke-miterlimit="10" stroke-width="10"/><path d="m52.02,397.35l123.89-119.36" fill="none" stroke="#159fd8" stroke-miterlimit="10" stroke-width="10"/><path d="m76.3,422.52l123.88-119.36" fill="none" stroke="#159fd8" stroke-miterlimit="10" stroke-width="10"/></svg>