<svg width="82" height="98" viewBox="0 0 82 98" fill="none" xmlns="http://www.w3.org/2000/svg">
<path d="M15.5859 51.6929H19.3942C19.8947 51.6929 20.301 52.0992 20.301 52.5997V71.6462C20.301 72.1467 19.8947 72.553 19.3942 72.553H15.5859V51.6929Z" fill="#F4F4F4"/>
<path d="M66.4865 72.5511H62.6783C62.1778 72.5511 61.7715 72.1447 61.7715 71.6442V52.5977C61.7715 52.0972 62.1778 51.6909 62.6783 51.6909H66.4865V72.5511Z" fill="#F4F4F4"/>
<path d="M5.37461 49.9438H15.5858V74.2798H5.37461C3.01988 74.2798 1.1084 72.3683 1.1084 70.0135V54.2119C1.1084 51.8572 3.01988 49.9457 5.37461 49.9457V49.9438Z" stroke="white" stroke-width="1.84685" stroke-miterlimit="10"/>
<path d="M76.6995 74.2817H66.4883V49.9458H76.6995C79.0542 49.9458 80.9676 51.8573 80.9676 54.2139V70.0155C80.9676 72.3702 79.0561 74.2835 76.6995 74.2835V74.2817Z" stroke="white" stroke-width="1.84685" stroke-miterlimit="10"/>
<path d="M53.3184 83.0482H73.0538V74.2812" stroke="white" stroke-width="1.84685" stroke-miterlimit="10"/>
<path d="M49.817 87.0598C52.0325 87.0598 53.8284 85.2637 53.8284 83.0485C53.8284 80.833 52.0325 79.0371 49.817 79.0371C47.6015 79.0371 45.8057 80.833 45.8057 83.0485C45.8057 85.2637 47.6015 87.0598 49.817 87.0598Z" fill="white"/>
<path d="M9.1582 49.944V33.9614C9.1582 16.3591 23.4288 2.09033 41.0311 2.09033C58.6334 2.09033 72.9021 16.3591 72.9021 33.9614V50.1527" stroke="white" stroke-width="1.84685" stroke-miterlimit="10"/>
<path d="M66.4869 51.6927L66.4684 34.1273C66.4684 20.0784 55.0789 8.68896 41.03 8.68896C26.981 8.68896 15.5933 20.0784 15.5933 34.1273L15.5859 51.6927" stroke="white" stroke-width="1.84685" stroke-miterlimit="10"/>
</svg>
