<svg width="83" height="67" viewBox="0 0 83 67" fill="none" xmlns="http://www.w3.org/2000/svg">
<g clip-path="url(#clip0_1601_5754)">
<mask id="mask0_1601_5754" style="mask-type:luminance" maskUnits="userSpaceOnUse" x="0" y="0" width="83" height="67">
<path d="M82.4688 0H0.364258V66.8817H82.4688V0Z" fill="white"/>
</mask>
<g mask="url(#mask0_1601_5754)">
<path d="M78.9587 0.979004H7.16373C3.94926 0.979004 1.3418 3.41468 1.3418 6.41918V63.4685" stroke="white" stroke-width="1.95846" stroke-miterlimit="10"/>
<path d="M6.80062 2.92037H77.5915C79.7562 2.92037 81.5142 4.6784 81.5142 6.84301V62.5561C81.5142 64.4172 80.0024 65.929 78.1413 65.929H6.25279C4.39168 65.929 2.87988 64.4172 2.87988 62.5561V6.84111C2.87988 4.67649 4.63792 2.91846 6.80253 2.91846L6.80062 2.92037Z" stroke="white" stroke-width="1.90883" stroke-miterlimit="10"/>
<path d="M11.5523 12.2486C12.4463 12.2486 13.171 11.5239 13.171 10.6299C13.171 9.73594 12.4463 9.01123 11.5523 9.01123C10.6583 9.01123 9.93359 9.73594 9.93359 10.6299C9.93359 11.5239 10.6583 12.2486 11.5523 12.2486Z" fill="white"/>
<path d="M16.0591 12.2486C16.9531 12.2486 17.6778 11.5239 17.6778 10.6299C17.6778 9.73594 16.9531 9.01123 16.0591 9.01123C15.1651 9.01123 14.4404 9.73594 14.4404 10.6299C14.4404 11.5239 15.1651 12.2486 16.0591 12.2486Z" fill="white"/>
<path d="M20.4322 12.2486C21.3261 12.2486 22.0509 11.5239 22.0509 10.6299C22.0509 9.73594 21.3261 9.01123 20.4322 9.01123C19.5383 9.01123 18.8135 9.73594 18.8135 10.6299C18.8135 11.5239 19.5383 12.2486 20.4322 12.2486Z" fill="white"/>
<path d="M80.7796 19.5918H3.7334" stroke="white" stroke-width="1.90883" stroke-miterlimit="10"/>
<path d="M9.93359 32.6675H34.7484" stroke="#F4F4F4" stroke-width="1.90883" stroke-miterlimit="10"/>
<path d="M9.93359 36.3325H34.7484" stroke="#F4F4F4" stroke-width="1.90883" stroke-miterlimit="10"/>
<path d="M9.93359 39.9956H34.7484" stroke="#F4F4F4" stroke-width="1.90883" stroke-miterlimit="10"/>
<path d="M74.834 32.2246H48.1104V59.0666H74.834V32.2246Z" fill="#F4F4F4"/>
<path d="M38.3352 40.2065L36.999 41.5429L39.6985 44.2424L41.0347 42.9062L38.3352 40.2065Z" fill="white"/>
<path d="M39.6977 38.8428L35.6472 42.8934L33.6162 36.8252L39.6977 38.8428Z" fill="white"/>
<path d="M34.7481 47.4956H9.83789V59.1662H34.7481V47.4956Z" fill="#F4F4F4"/>
</g>
</g>
<defs>
<clipPath id="clip0_1601_5754">
<rect width="82.2707" height="67" fill="white" transform="translate(0.364258)"/>
</clipPath>
</defs>
</svg>
