<?xml version="1.0" encoding="UTF-8"?><svg id="uuid-88044774-8f3e-43a1-9c8e-3f54b2024405" xmlns="http://www.w3.org/2000/svg" xmlns:xlink="http://www.w3.org/1999/xlink" viewBox="0 0 459.9 245.79"><defs><clipPath id="uuid-ed32070c-fb2a-40da-abff-1f38613a87a6"><rect width="459.9" height="245.79" fill="none"/></clipPath></defs><g clip-path="url(#uuid-ed32070c-fb2a-40da-abff-1f38613a87a6)" fill="none"><path d="m63.96,196.68h49.24l22.33,29.61c21.41,18.53,53.35,17.92,74.03-1.43,17.96,17.96,47.04,18.11,65.18.33l6.75-6.62c13.1,13.1,34.36,13.05,47.4-.11l2.83-2.86c12.96-13.08,12.91-34.17-.11-47.19l-82.77-82.77" fill="none" stroke="#fff" stroke-linejoin="bevel" stroke-width="10"/><path d="m261.5,75.5l-12,11.5-2.5.5c-24,16-23.26,33.5-41.5,33.5l-18.5,5c-5.5-2.5-18-6.5-19-8l-10-16c-3.63,8.04,2.03,2.62,4.48,11,1.63,5.56,4.59,10.82,8.9,15.26,14.3,14.73,37.88,14.91,52.4.39l45.22-46.15s-7.5-7-7.5-7Z" fill="#00a2dd"/><path d="m397.47,44.96h-4.34c-18.23,0-35.77-6.97-49.04-19.48-13.26-12.51-30.8-19.48-49.04-19.48h-40.97c-18.95,0-37.13,7.53-50.53,20.93l-37.21,37.21c-14.21,14.21-14.38,37.2-.39,51.62,14.3,14.73,37.88,14.91,52.4.39l44.31-44.31" fill="none" stroke="#fff" stroke-linejoin="bevel" stroke-width="10"/><path d="m63.96,44.96h4.34c18.23,0,35.77-6.97,49.04-19.48,13.26-12.51,30.8-19.48,49.04-19.48h40.97c7.11,0,15.55,2.31,22.22,4.34" fill="none" stroke="#fff" stroke-linejoin="bevel" stroke-width="10"/><path d="m397.47,198.45h-56.04" fill="none" stroke="#fff" stroke-miterlimit="10" stroke-width="10"/><path d="m459.9,219.57h-54.31c-6.56,0-11.89-5.33-11.89-11.89V28.71h66.2v190.86h0Z" fill="#d1d3d4"/><path d="m5,33.71h56.2v173.97c0,3.8-3.09,6.89-6.89,6.89H5V33.71Z" fill="none" stroke="#fff" stroke-width="10"/><path d="m454.9,214.57h-49.31c-3.8,0-6.89-3.09-6.89-6.89V33.71h56.2v180.86Z" fill="none" stroke="#fff" stroke-width="10"/><circle cx="32.5" cy="187.5" r="10.5" fill="#d9d9d9"/></g></svg>