<?xml version="1.0" encoding="UTF-8"?><svg id="uuid-aaa082a4-499b-4d6f-b5ee-dcb2c95c2678" xmlns="http://www.w3.org/2000/svg" xmlns:xlink="http://www.w3.org/1999/xlink" viewBox="0 0 490 498"><defs><clipPath id="uuid-bf3c3ab4-59e5-4cf7-b70e-cb12f01281aa"><rect y="0" width="490" height="498" fill="none"/></clipPath></defs><g clip-path="url(#uuid-bf3c3ab4-59e5-4cf7-b70e-cb12f01281aa)" fill="none"><path d="m157.19,56.45l-39.75,39.76" fill="none" stroke="#d1d3d4" stroke-miterlimit="10" stroke-width="9.65"/><path d="m332.75,236l-39.75,39.76" fill="none" stroke="#d1d3d4" stroke-miterlimit="10" stroke-width="9.65"/><path d="m220.05,119.3l-36.71,36.71" fill="none" stroke="#d1d3d4" stroke-miterlimit="10" stroke-width="9.65"/><path d="m395.61,298.86l-36.71,36.71" fill="none" stroke="#d1d3d4" stroke-miterlimit="10" stroke-width="9.65"/><path d="m197.08,96.33l-21.63,21.63" fill="none" stroke="#d1d3d4" stroke-miterlimit="10" stroke-width="9.65"/><path d="m372.64,275.89l-21.63,21.63" fill="none" stroke="#d1d3d4" stroke-miterlimit="10" stroke-width="9.65"/><path d="m176.57,75.83l-22.14,22.14" fill="none" stroke="#d1d3d4" stroke-miterlimit="10" stroke-width="9.65"/><path d="m352.13,255.38l-22.14,22.14" fill="none" stroke="#d1d3d4" stroke-miterlimit="10" stroke-width="9.65"/><path d="m312.48,204.91l-6.82,6.82,124.7,124.7-97.46,97.46-124.7-124.7-6.82,6.82,128.11,128.11,3.41,3.42,111.11-111.11-131.53-131.52h0Z" fill="#fff"/><path d="m140.7,241.69L18.5,119.49,115.96,22.03l120.58,120.59,6.83-6.83L115.96,8.39,4.86,119.49l129.02,129.02,6.82-6.82h0Z" fill="#fff"/><path d="m26.5,453l100-51.5c5.67-3.04,10.87-6.9,15.42-11.45L436.45,95.04c10.41-10.49,10.05-27.52-.79-37.57l-31.87-29.51c-10.44-9.67-26.7-9.2-36.57,1.06L71.84,336.08c-5.27,5.47-9.54,11.82-12.62,18.76l-38.22,91.67,5.5,6.5h0Z" fill="#00a2dd"/><path d="m17.5,427l42.5-92,6,21,27.5,5,4,24.5,25.5,3-93,51-12.5-12.5Z" fill="#fff"/><path d="m397.5,116l-68.5-66c7.17-7.5,24.6-25.7,37-38.5,12.4-12.8,26.17-6.67,31.5-2,3.67,3,15.4,13.2,33,30s11.33,33,6,39l-39,37.5Z" fill="#d1d3d4"/><path d="m65,356.5l-2-32L329,50.5l69,65.5L126,388.5l-29.5-2.5-2-26.5-29.5-3Z" fill="#fff"/><path d="m6.92,451.81l110.43-59.12c5.67-3.04,10.87-6.9,15.42-11.45L434.37,79.03c10.41-10.49,10.05-27.52-.79-37.57l-31.87-29.51c-10.44-9.67-26.7-9.2-36.57,1.06L69.76,320.07c-5.27,5.47-9.54,11.82-12.62,18.76L6.92,451.81Z" fill="none" stroke="#fff" stroke-linejoin="bevel" stroke-width="10"/><path d="m125.38,387.6l-28.03-1.19c-1.19-.07-2.13-1.07-2.13-2.27v-24.55l-28.37-1.92c-1.31-.09-2.33-1.18-2.33-2.49l-1.22-27.25" fill="none" stroke="#fff" stroke-linejoin="bevel" stroke-width="10"/><path d="m18.83,425.78l13.59,13.55" fill="none" stroke="#fff" stroke-linejoin="bevel" stroke-width="9.92"/><path d="m16.28,430.74l6.5,3.6,3.22,4.05-2.23,2.97-5.87,1.6-4.21-1.85,1.16-4.79,1.43-5.58Z" fill="none"/><path d="m92.19,360.9L362.57,84.97" fill="none" stroke="#fff" stroke-linejoin="bevel" stroke-width="10"/><path d="m333.2,52.96l62.41,60" fill="none" stroke="#fff" stroke-linejoin="bevel" stroke-width="10"/></g></svg>