<?xml version="1.0" encoding="UTF-8"?><svg id="uuid-a4578b9d-7e00-44c8-95e0-309dfab0891c" xmlns="http://www.w3.org/2000/svg" viewBox="0 0 389.49 456.99"><path d="m77.06,67.03l190.48,109.62v38.3l39.05-22.01v-40.74L116.44,44.42" fill="#00a2dd"/><path d="m191.21,218.94L10.2,111.13,193.96,5.77l185.31,106.58-188.06,106.59h0Z" fill="none" stroke="#fff" stroke-miterlimit="10" stroke-width="10"/><path d="m191.21,218.94l-.08,232.33" fill="none" stroke="#fff" stroke-miterlimit="10" stroke-width="10"/><path d="m267.54,415.06v-56.15l39.05-20v54.72" fill="#00a2dd"/><path d="m5,111.13v234.51l186.13,105.63,193.36-106.09V112.35" fill="none" stroke="#fff" stroke-miterlimit="10" stroke-width="10"/><polygon points="97.05 198.69 29.23 156.76 29.23 169.5 97.05 211.43 97.05 198.69" fill="#d1d3d4"/><polygon points="97.05 218.77 29.23 176.84 29.23 189.58 97.05 231.51 97.05 218.77" fill="#d1d3d4"/><polygon points="97.05 238.85 29.23 196.92 29.23 209.66 97.05 251.59 97.05 238.85" fill="#d1d3d4"/></svg>