<svg width="72" height="73" viewBox="0 0 72 73" fill="none" xmlns="http://www.w3.org/2000/svg">
<g clip-path="url(#clip0_1601_5775)">
<path d="M37.6168 31.1507L22.6632 16.4753C22.5999 16.4135 22.5321 16.3575 22.4659 16.3001C22.9915 15.0294 23.2831 13.638 23.2831 12.1774C23.2831 6.21569 18.4507 1.3833 12.4889 1.3833C11.1064 1.3833 9.78563 1.64686 8.56943 2.1195L13.8229 7.27582C15.5073 8.92931 15.5324 11.6341 13.8804 13.3185C13.044 14.171 11.9368 14.598 10.831 14.598C9.72526 14.598 8.66956 14.1916 7.83913 13.3745L2.48403 8.12097C1.97606 9.37398 1.69336 10.7418 1.69336 12.1774C1.69336 18.1391 6.52575 22.9715 12.4875 22.9715C13.8597 22.9715 15.1702 22.7124 16.3761 22.2471C16.4703 22.3605 16.5689 22.4694 16.6764 22.574L29.8249 35.478L32.8374 33.9055L37.8406 39.427L36.274 41.8064L51.4661 56.7158C51.341 57.2768 51.2732 57.8584 51.2732 58.4562C51.2732 62.8586 54.8423 66.4292 59.2462 66.4292C63.6502 66.4292 67.2192 62.8601 67.2192 58.4562C67.2192 54.0523 63.6502 50.4832 59.2462 50.4832C58.6499 50.4832 58.0698 50.5509 57.5103 50.6746L40.8899 34.3634M59.2462 62.2226C57.1687 62.2226 55.4784 60.5323 55.4784 58.4547C55.4784 56.3772 57.1687 54.6869 59.2462 54.6869C61.3238 54.6869 63.0141 56.3772 63.0141 58.4547C63.0141 60.5323 61.3238 62.2226 59.2462 62.2226Z" fill="#1C1C1C"/>
<path d="M37.6168 31.1507L22.6632 16.4753C22.5999 16.4135 22.5321 16.3575 22.4659 16.3001C22.9915 15.0294 23.2831 13.638 23.2831 12.1774C23.2831 6.21569 18.4507 1.3833 12.4889 1.3833C11.1064 1.3833 9.78563 1.64686 8.56943 2.1195L13.8229 7.27582C15.5073 8.92931 15.5324 11.6341 13.8804 13.3185C13.044 14.171 11.9368 14.598 10.831 14.598C9.72526 14.598 8.66956 14.1916 7.83913 13.3745L2.48403 8.12097C1.97606 9.37398 1.69336 10.7418 1.69336 12.1774C1.69336 18.1391 6.52575 22.9715 12.4875 22.9715C13.8597 22.9715 15.1702 22.7124 16.3761 22.2471C16.4703 22.3605 16.5689 22.4694 16.6764 22.574L29.8249 35.478L32.8374 33.9055L37.8406 39.427L36.274 41.8064L51.4661 56.7158C51.341 57.2768 51.2732 57.8584 51.2732 58.4562C51.2732 62.8586 54.8423 66.4292 59.2462 66.4292C63.6502 66.4292 67.2192 62.8601 67.2192 58.4562C67.2192 54.0523 63.6502 50.4832 59.2462 50.4832C58.6499 50.4832 58.0698 50.5509 57.5103 50.6746L40.8899 34.3634M59.2462 62.2226C57.1687 62.2226 55.4784 60.5323 55.4784 58.4547C55.4784 56.3772 57.1687 54.6869 59.2462 54.6869C61.3238 54.6869 63.0141 56.3772 63.0141 58.4547C63.0141 60.5323 61.3238 62.2226 59.2462 62.2226Z" stroke="white" stroke-width="1.47239" stroke-miterlimit="10"/>
<path d="M38.3612 42.6461L37.3556 44.1744C37.9887 46.2903 37.4704 48.677 35.7993 50.3482L18.9021 67.2454C18.2592 67.8882 17.5104 68.3605 16.7119 68.6624C14.5003 69.4984 11.9073 69.0259 10.1266 67.2454C7.70306 64.8218 7.48661 64.6054 7.48661 64.6054C5.06306 62.1818 5.06306 58.2535 7.48661 55.8299L24.3838 38.9327C25.9372 37.3793 28.1075 36.8243 30.1055 37.2616L31.9121 36.3192L35.7058 33.7026L40.491 39.1505L38.3612 42.6476V42.6461Z" fill="white"/>
<path d="M36.3789 35.4723L60.108 11.9007V9.95415L64.626 7.09326L66.1838 8.74529L67.7416 10.3973L63.828 16.2546L62.0449 16.1913L39.0925 38.819" fill="white"/>
<path d="M36.2733 41.8081L35.2677 43.3364C35.9008 45.4522 35.3825 47.839 33.7114 49.5102L16.8142 66.4073C14.3906 68.8309 10.4623 68.8309 8.03872 66.4073L5.39872 63.7673C2.97517 61.3438 2.97517 57.4154 5.39872 54.9919L22.2959 38.0947C23.8493 36.5413 26.0196 35.9862 28.0176 36.4235L29.8242 35.4812L32.8368 33.9087L37.84 39.4302L36.2733 41.8096V41.8081Z" fill="#1C1C1C"/>
<path d="M34.292 34.6346L58.0211 11.063V9.11646L63.6279 5.25732L66.7435 8.56137L62.9624 14.0622L61.1794 13.9989L37.0056 37.9813" fill="#1C1C1C"/>
<path d="M36.2733 41.8081L35.2677 43.3364C35.9008 45.4522 35.3825 47.839 33.7114 49.5102L16.8142 66.4073C14.3906 68.8309 10.4623 68.8309 8.03872 66.4073L5.39872 63.7673C2.97517 61.3438 2.97517 57.4154 5.39872 54.9919L22.2959 38.0947C23.8493 36.5413 26.0196 35.9862 28.0176 36.4235L29.8242 35.4812L32.8368 33.9087L37.84 39.4302L36.2733 41.8096V41.8081Z" stroke="white" stroke-width="1.47239" stroke-miterlimit="10"/>
<path d="M34.292 34.6346L58.0211 11.063V9.11646L63.6279 5.25732L66.7435 8.56137L62.9624 14.0622L61.1794 13.9989L37.0056 37.9813" stroke="white" stroke-width="1.47239" stroke-miterlimit="10"/>
<path d="M31.0264 38.479L33.2703 40.6346" stroke="white" stroke-width="1.47239" stroke-miterlimit="10"/>
<path d="M8.61621 59.1526L26.8577 41.5781" stroke="white" stroke-width="1.47239" stroke-miterlimit="10"/>
<path d="M12.1914 62.8587L30.4314 45.2842" stroke="white" stroke-width="1.47239" stroke-miterlimit="10"/>
</g>
<defs>
<clipPath id="clip0_1601_5775">
<rect width="70.3804" height="72" fill="white" transform="translate(0.80957 0.5)"/>
</clipPath>
</defs>
</svg>
