<svg width="107" height="100" viewBox="0 0 107 100" fill="none" xmlns="http://www.w3.org/2000/svg">
<g clip-path="url(#clip0_1601_5734)">
<g clip-path="url(#clip1_1601_5734)">
<mask id="mask0_1601_5734" style="mask-type:luminance" maskUnits="userSpaceOnUse" x="0" y="21" width="108" height="58">
<path d="M107.269 21.5H0.707031V78.4513H107.269V21.5Z" fill="white"/>
</mask>
<g mask="url(#mask0_1601_5734)">
<path fill-rule="evenodd" clip-rule="evenodd" d="M15.5967 67.0299H15.0732V31.9262L19.3876 31.11L23.8539 30.1764L26.7416 28.3956C27.1396 28.0839 27.525 27.753 27.8959 27.4033C30.9684 24.5046 35.0325 22.8896 39.2589 22.8896H48.7519C50.1129 22.8896 51.6842 23.255 53.061 23.6472L53.6525 23.5848L54.3437 23.7394C56.0166 23.1817 57.7832 22.8896 59.5796 22.8896H69.0726C73.299 22.8896 77.3631 24.5046 80.4356 27.4033C81.9799 28.8591 83.7735 29.9911 85.7118 30.7574L87.8293 31.2311L93.2745 31.8104V67.3774L79.6104 67.7707C79.2953 69.1192 78.6153 70.3998 77.5693 71.4555L76.9136 72.1182C73.8921 75.1675 68.966 75.179 65.9307 72.1437L64.3667 73.6776C60.1635 77.7973 53.4254 77.7626 49.264 73.6011C44.4723 78.0846 37.0715 78.226 32.1107 73.9324L26.9367 67.0716H15.5274L15.5967 67.0299Z" fill="#1C1C1C"/>
<path d="M15.5273 67.0716H26.9366L32.1106 73.9325C37.0715 78.226 44.4722 78.0847 49.2639 73.6012C53.4254 77.7626 60.1634 77.7974 64.3666 73.6776L65.9306 72.1437C68.966 75.1791 73.8921 75.1675 76.9136 72.1182L77.5693 71.4556C80.5722 68.4248 80.5606 63.5381 77.5438 60.5213L58.3654 41.3428" stroke="white" stroke-width="2.31707" stroke-linejoin="bevel"/>
<path d="M61.2986 38.9932L58.5181 41.6579L57.9389 41.7737C52.3779 45.481 52.5493 49.5358 48.323 49.5358L44.0364 50.6944C42.762 50.1151 39.8657 49.1883 39.634 48.8407L37.3169 45.1334C36.476 46.9956 37.787 45.7396 38.3547 47.6822C38.7315 48.9709 39.4187 50.1888 40.4174 51.218C43.7308 54.6311 49.1944 54.6728 52.5588 51.3084L63.0364 40.6151L61.2986 38.9932Z" fill="white"/>
<path d="M92.8041 31.917H91.7985C87.5745 31.917 83.5104 30.302 80.4356 27.4033C77.3632 24.5046 73.299 22.8896 69.0727 22.8896H59.5796C55.1888 22.8896 50.9763 24.6344 47.8715 27.7393L39.2496 36.3611C35.9571 39.6537 35.9177 44.9806 39.1593 48.3218C42.4727 51.7349 47.9363 51.7766 51.3007 48.4122L61.5677 38.1453" stroke="white" stroke-width="2.31707" stroke-linejoin="bevel"/>
<path d="M15.5273 31.917H16.533C20.757 31.917 24.8211 30.302 27.8959 27.4033C30.9683 24.5046 35.0325 22.8896 39.2588 22.8896H48.7519C50.3993 22.8896 52.3549 23.4249 53.9004 23.8953" stroke="white" stroke-width="2.31707" stroke-linejoin="bevel"/>
<path d="M92.8032 67.4819H79.8184" stroke="white" stroke-width="2.31707" stroke-miterlimit="10"/>
<path d="M0.707031 28.1519H16.0461V69.6205C16.0461 71.1405 14.8111 72.3755 13.2911 72.3755H0.707031V28.1519Z" fill="#1C1C1C"/>
<path d="M107.27 72.3754H94.6857C93.1657 72.3754 91.9307 71.1404 91.9307 69.6204V28.1519H107.27V72.3754Z" fill="#F4F4F4"/>
<path d="M1.86523 29.3101H14.8872V69.6202C14.8872 70.5004 14.1709 71.2166 13.2907 71.2166H1.86523V29.3101Z" stroke="white" stroke-width="2.31707"/>
<path d="M106.111 71.2166H94.6853C93.8051 71.2166 93.0889 70.5004 93.0889 69.6201V29.3101H106.111V71.2166Z" stroke="white" stroke-width="2.31707"/>
<path d="M8.23761 67.3776C9.58128 67.3776 10.6705 66.2883 10.6705 64.9446C10.6705 63.601 9.58128 62.5117 8.23761 62.5117C6.89395 62.5117 5.80469 63.601 5.80469 64.9446C5.80469 66.2883 6.89395 67.3776 8.23761 67.3776Z" fill="#F4F4F4"/>
</g>
</g>
</g>
<defs>
<clipPath id="clip0_1601_5734">
<rect width="107" height="100" fill="white"/>
</clipPath>
<clipPath id="clip1_1601_5734">
<rect width="106.585" height="57" fill="white" transform="translate(0.707031 21.5)"/>
</clipPath>
</defs>
</svg>
