<svg width="70" height="81" viewBox="0 0 70 81" fill="none" xmlns="http://www.w3.org/2000/svg">
<g clip-path="url(#clip0_1601_5718)">
<mask id="mask0_1601_5718" style="mask-type:luminance" maskUnits="userSpaceOnUse" x="0" y="0" width="70" height="81">
<path d="M69.0466 0.5H0.864258V80.5H69.0466V0.5Z" fill="white"/>
</mask>
<g mask="url(#mask0_1601_5718)">
<path fill-rule="evenodd" clip-rule="evenodd" d="M2.65459 19.9551L2.64955 19.9521L34.8177 1.5083L67.2522 20.1627L68.1711 20.1657V60.9237L34.3223 79.4952L1.73926 61.0042V19.9521L2.65459 19.9551Z" fill="#1C1C1C"/>
<path d="M14.3535 12.2324L47.6981 31.4219V38.1265L54.534 34.2736V27.1418L21.2472 8.27441" fill="white"/>
<path d="M34.3362 38.8248L2.64941 19.9521L34.8176 1.5083L67.2571 20.1657L34.3362 38.8248Z" stroke="white" stroke-width="1.75055" stroke-miterlimit="10"/>
<path d="M34.3363 38.8247L34.3223 79.4952" stroke="white" stroke-width="1.75055" stroke-miterlimit="10"/>
<path d="M47.6982 73.1561V63.3268L54.5342 59.8257V69.4047" fill="white"/>
<path d="M19.0766 43.1499L5.50977 35.6313" stroke="#F4F4F4" stroke-width="1.81182" stroke-miterlimit="10"/>
<path d="M19.0766 39.8846L5.50977 32.3643" stroke="#F4F4F4" stroke-width="1.81182" stroke-miterlimit="10"/>
<path d="M19.0766 36.6204L5.50977 29.1001" stroke="#F4F4F4" stroke-width="1.81182" stroke-miterlimit="10"/>
<path d="M1.73926 19.9517V61.0037L34.3223 79.4948L68.1711 60.9232V20.1652" stroke="white" stroke-width="1.75055" stroke-miterlimit="10"/>
</g>
</g>
<defs>
<clipPath id="clip0_1601_5718">
<rect width="68.2716" height="80" fill="white" transform="translate(0.864258 0.499512)"/>
</clipPath>
</defs>
</svg>
