<svg width="82" height="84" viewBox="0 0 82 84" fill="none" xmlns="http://www.w3.org/2000/svg">
<g clip-path="url(#clip0_1601_5802)">
<mask id="mask0_1601_5802" style="mask-type:luminance" maskUnits="userSpaceOnUse" x="0" y="0" width="82" height="84">
<path d="M82 0.32959H0V83.6684H82V0.32959Z" fill="white"/>
</mask>
<g mask="url(#mask0_1601_5802)">
<path d="M26.3054 9.77539L19.6533 16.4291" stroke="#F4F4F4" stroke-width="1.6149" stroke-miterlimit="10"/>
<path d="M55.6852 39.8242L49.0332 46.4779" stroke="#F4F4F4" stroke-width="1.6149" stroke-miterlimit="10"/>
<path d="M36.8249 20.2949L30.6816 26.4382" stroke="#F4F4F4" stroke-width="1.6149" stroke-miterlimit="10"/>
<path d="M66.2039 50.3433L60.0605 56.4866" stroke="#F4F4F4" stroke-width="1.6149" stroke-miterlimit="10"/>
<path d="M32.981 16.4507L29.3613 20.0704" stroke="#F4F4F4" stroke-width="1.6149" stroke-miterlimit="10"/>
<path d="M62.3599 46.4995L58.7402 50.1192" stroke="#F4F4F4" stroke-width="1.6149" stroke-miterlimit="10"/>
<path d="M29.5488 13.0186L25.8438 16.7236" stroke="#F4F4F4" stroke-width="1.6149" stroke-miterlimit="10"/>
<path d="M58.9277 43.0674L55.2227 46.7724" stroke="#F4F4F4" stroke-width="1.6149" stroke-miterlimit="10"/>
<path d="M52.2924 34.6211L51.1511 35.7624L72.0193 56.6306L55.7097 72.9402L34.8415 52.072L33.7002 53.2133L55.139 74.6522L55.7097 75.2245L74.3036 56.6306L52.2924 34.6211Z" fill="white"/>
<path d="M23.5459 40.7765L3.09609 20.3267L19.4057 4.01698L39.5844 24.1974L40.7274 23.0544L19.4057 1.73438L0.813477 20.3267L22.4046 41.9178L23.5459 40.7765Z" fill="white"/>
<path d="M4.43506 76.1386L21.1698 67.5202C22.1186 67.0115 22.9888 66.3655 23.7502 65.6041L73.0389 16.2342C74.781 14.4787 74.7208 11.6288 72.9067 9.94699L67.5734 5.00858C65.8263 3.39034 63.1052 3.46899 61.4535 5.18597L12.0226 56.5716C11.1406 57.4869 10.4261 58.5496 9.91065 59.711L3.51465 75.0508L4.43506 76.1386Z" fill="white"/>
<path d="M2.92871 71.7875L10.041 56.3916L11.045 59.9059L15.6471 60.7426L16.3165 64.8426L20.5838 65.3447L5.02055 73.8794L2.92871 71.7875Z" fill="#1C1C1C"/>
<path d="M66.5209 19.7425L55.0576 8.6976C56.257 7.4425 59.1744 4.39678 61.2495 2.25474C63.3246 0.112693 65.6284 1.13909 66.5209 1.92004C67.1345 2.42209 69.098 4.12903 72.0433 6.94045C74.9886 9.75188 73.9399 12.4629 73.0474 13.467L66.5209 19.7425Z" fill="#F4F4F4"/>
<path d="M10.8777 59.9894L10.543 54.6343L55.0573 8.78125L66.6042 19.7425L21.0858 65.3445L16.1491 64.9261L15.8144 60.4915L10.8777 59.9894Z" fill="#1C1C1C"/>
<path d="M1.1582 75.9391L19.6383 66.0456C20.5872 65.5368 21.4574 64.8909 22.2188 64.1294L72.6906 13.5555C74.4327 11.8 74.3725 8.95012 72.5584 7.26828L67.2251 2.32988C65.478 0.711627 62.7569 0.790281 61.1052 2.50726L11.6743 53.8928C10.7924 54.8082 10.0778 55.8709 9.56236 57.0323L1.1582 75.9391Z" stroke="white" stroke-width="1.67347" stroke-linejoin="bevel"/>
<path d="M20.9817 65.1936L16.2909 64.9945C16.0918 64.9827 15.9345 64.8154 15.9345 64.6146V60.5062L11.1869 60.1849C10.9676 60.1698 10.7969 59.9874 10.7969 59.7682L10.5928 55.208" stroke="white" stroke-width="1.67347" stroke-linejoin="bevel"/>
<path d="M3.15137 71.583L5.42561 73.8506" stroke="white" stroke-width="1.66008" stroke-linejoin="bevel"/>
<path d="M2.72444 72.4131L3.8122 73.0155L4.35106 73.6933L3.97787 74.1903L2.99555 74.4581L2.29102 74.1485L2.48514 73.3469L2.72444 72.4131Z" fill="white"/>
<path d="M15.4277 60.7259L60.675 14.5498" stroke="white" stroke-width="1.67347" stroke-linejoin="bevel"/>
<path d="M55.7598 9.19287L66.2039 19.2337" stroke="white" stroke-width="1.67347" stroke-linejoin="bevel"/>
</g>
</g>
<defs>
<clipPath id="clip0_1601_5802">
<rect width="82" height="83.3388" fill="white" transform="translate(0 0.331055)"/>
</clipPath>
</defs>
</svg>
