<?xml version="1.0" encoding="UTF-8"?><svg id="uuid-e4b8344d-e871-4795-bf0d-cb1d936d1012" xmlns="http://www.w3.org/2000/svg" viewBox="0 0 442.39 456.22"><path d="m152.63,56.45l-39.75,39.76" fill="none" stroke="#d1d3d4" stroke-miterlimit="10" stroke-width="9.65"/><path d="m328.19,236l-39.75,39.76" fill="none" stroke="#d1d3d4" stroke-miterlimit="10" stroke-width="9.65"/><path d="m215.49,119.3l-36.71,36.71" fill="none" stroke="#d1d3d4" stroke-miterlimit="10" stroke-width="9.65"/><path d="m391.05,298.86l-36.71,36.71" fill="none" stroke="#d1d3d4" stroke-miterlimit="10" stroke-width="9.65"/><path d="m192.52,96.33l-21.63,21.63" fill="none" stroke="#d1d3d4" stroke-miterlimit="10" stroke-width="9.65"/><path d="m368.08,275.89l-21.63,21.63" fill="none" stroke="#d1d3d4" stroke-miterlimit="10" stroke-width="9.65"/><path d="m172.01,75.83l-22.14,22.14" fill="none" stroke="#d1d3d4" stroke-miterlimit="10" stroke-width="9.65"/><path d="m347.57,255.38l-22.14,22.14" fill="none" stroke="#d1d3d4" stroke-miterlimit="10" stroke-width="9.65"/><path d="m307.92,204.91l-6.82,6.82,124.7,124.7-97.46,97.46-124.7-124.7-6.82,6.82,128.11,128.11,3.41,3.42,111.11-111.11-131.53-131.52h0Z" fill="#fff"/><path d="m136.14,241.69L13.94,119.49,111.4,22.03l120.58,120.59,6.83-6.83L111.4,8.39.3,119.49l129.02,129.02,6.82-6.82h0Z" fill="#fff"/><path d="m21.94,453l100-51.5c5.67-3.04,10.87-6.9,15.42-11.45L431.89,95.04c10.41-10.49,10.05-27.52-.79-37.57l-31.87-29.51c-10.44-9.67,23.07,58.22,13.2,68.48L117.81,389.7c-5.27,5.47-51.11,22.38-54.19,29.32l-47.17,27.49,5.5,6.5h0Z" fill="#00a2dd"/><path d="m392.94,116l-68.5-66c7.17-7.5,24.6-25.7,37-38.5,12.4-12.8,26.17-6.67,31.5-2,3.67,3,15.4,13.2,33,30s11.33,33,6,39l-39,37.5Z" fill="#d1d3d4"/><path d="m2.36,451.81l110.43-59.12c5.67-3.04,10.87-6.9,15.42-11.45L429.81,79.03c10.41-10.49,10.05-27.52-.79-37.57l-31.87-29.51c-10.44-9.67-26.7-9.2-36.57,1.06L65.2,320.07c-5.27,5.47-9.54,11.82-12.62,18.76L2.36,451.81Z" fill="none" stroke="#fff" stroke-linejoin="bevel" stroke-width="10"/><path d="m120.82,387.6l-28.03-1.19c-1.19-.07-2.13-1.07-2.13-2.27v-24.55l-28.37-1.92c-1.31-.09-2.33-1.18-2.33-2.49l-1.22-27.25" fill="none" stroke="#fff" stroke-linejoin="bevel" stroke-width="10"/><path d="m14.27,425.78l13.59,13.55" fill="none" stroke="#fff" stroke-linejoin="bevel" stroke-width="9.92"/><path d="m11.72,430.74l6.5,3.6,3.22,4.05-2.23,2.97-5.87,1.6-4.21-1.85,1.16-4.79,1.43-5.58Z" fill="#fff"/><path d="m87.63,360.9L358.01,84.97" fill="none" stroke="#fff" stroke-linejoin="bevel" stroke-width="10"/><path d="m328.64,52.96l62.41,60" fill="none" stroke="#fff" stroke-linejoin="bevel" stroke-width="10"/></svg>