<?xml version="1.0" encoding="UTF-8"?><svg id="uuid-79d78520-f90b-453e-a3ce-a1fa65c5f8af" xmlns="http://www.w3.org/2000/svg" viewBox="0 0 460.64 290.09"><path d="m50,95.48h150" fill="none" stroke="#159fd8" stroke-miterlimit="10" stroke-width="10.35"/><path d="m50,75.48h150" fill="none" stroke="#159fd8" stroke-miterlimit="10" stroke-width="10.35"/><path d="m50,55.48h150" fill="none" stroke="#159fd8" stroke-miterlimit="10" stroke-width="10.35"/><path d="m50,135.48h150" fill="none" stroke="#159fd8" stroke-miterlimit="10" stroke-width="10.35"/><path d="m50,115.48h150" fill="none" stroke="#159fd8" stroke-miterlimit="10" stroke-width="10.35"/><path d="m314.98,159.76c27.53,0,49.84-22.31,49.84-49.84s-22.31-49.84-49.84-49.84-49.84,22.31-49.84,49.84,22.31,49.84,49.84,49.84Z" fill="#231f20"/><path d="m263.42,170.39h103.12c23.79,0,43.11,19.32,43.11,43.11v56.11h-189.34v-56.11c0-23.79,19.32-43.11,43.11-43.11Z" fill="#231f20"/><path d="m439.68,20.4v259.37H20.32V20.4h419.36Zm10.32-10.32H10v280.01h440V10.09h0Z" fill="#231f20"/><path d="m11.29,10.09H0v10.17h11.29v-10.17Z" fill="#231f20"/><path d="m11.29,279.91H0v10.18h11.29v-10.18Z" fill="#231f20"/><path d="m240.32,0h-20.64v10.17h20.64V0Z" fill="#231f20"/><path d="m460.64,279.91h-11.28v10.18h11.28v-10.18Z" fill="#231f20"/><path d="m460.64,10h-11.28v10.17h11.28v-10.17Z" fill="#231f20"/></svg>