<?xml version="1.0" encoding="UTF-8"?><svg id="uuid-be4e49e4-bf6d-4d7d-b7bb-1cd10b56e908" xmlns="http://www.w3.org/2000/svg" viewBox="0 0 500 500"><path d="M225.02,159.21s16.83-17.62,22.95-5.99c4.68,8.88,21.74,55.52,21.74,55.52l-44.68-49.52Z" fill="#d1d3d4"/><path d="M372.86,281.87s36.26-6.25,42.92,58.37c0,0,10.19-70.56-55.35-82.19" fill="#d1d3d4"/><g><path d="M258.74,133.42c11.42-7.23,27.34-5.02,37.25,5.84,24.31,45.41,48.62,90.82,72.92,136.23" fill="none" stroke="#00a2de" stroke-linejoin="bevel" stroke-width="10.05"/><path d="M302.96,422.2h154.88l-33.09-79.1s10.53-81.92-70-95.13l-6.26-3.28" fill="none" stroke="#00a2de" stroke-linejoin="bevel" stroke-width="9.22"/><line x1="75" y1="281.1" x2="79.58" y2="257.29" fill="none" stroke="#251f20" stroke-linejoin="bevel" stroke-width="8.97"/><line x1="52.75" y1="200" x2="64.26" y2="173.73" fill="none" stroke="#251f20" stroke-linejoin="bevel" stroke-width="8.97"/><line x1="128.57" y1="142.15" x2="146.68" y2="126.13" fill="none" stroke="#251f20" stroke-linejoin="bevel" stroke-width="8.97"/><line x1="252.64" y1="169.32" x2="271.24" y2="159.21" fill="none" stroke="#251f20" stroke-linejoin="bevel" stroke-width="8.97"/><path d="M222.07,160.04c1.38-1.9,3.01-3.66,4.89-5.23,4.09-3.41,8.85-5.49,13.76-6.28,0,0,6.46-.59,10.18,1.8" fill="none" stroke="#000" stroke-linejoin="bevel" stroke-width="8.97"/><path d="M327.34,306.88l-74.7-137.56c-4.64-8.55-3.58-18.67,1.88-25.99,2.02-2.7,4.64-5.02,7.81-6.74,11.71-6.36,26.37-2.02,32.73,9.69l74.7,137.56" fill="none" stroke="#000" stroke-linejoin="bevel" stroke-width="8.97"/><path d="M285.22,323.82L128.57,142.15c-10.58-12.27-9.21-30.8,3.06-41.38,12.27-10.58,30.8-9.21,41.38,3.06l119.16,138.3" fill="none" stroke="#000" stroke-linejoin="bevel" stroke-width="8.97"/><path d="M235.31,320.15l-157.52-38.21c-.95-.23-1.88-.51-2.78-.84-12.17-4.42-19.34-17.38-16.23-30.26,3.34-13.84,17.26-22.35,31.1-19.01l18.66,4.61" fill="none" stroke="#000" stroke-linejoin="bevel" stroke-width="8.97"/><path d="M188.13,211.21l-99.56-65.48c-14.98-9.89-35.15-5.77-45.04,9.22-9.89,14.98-5.77,35.15,9.22,45.04l215.53,142.31,31.13,76.38h152.75l-32.2-76.98s10.73-77.13-67.65-89.98" fill="none" stroke="#000" stroke-linejoin="bevel" stroke-width="8.97"/><line x1="320.5" y1="118.75" x2="352.73" y2="77.86" fill="none" stroke="#000" stroke-miterlimit="10" stroke-width="8.97"/><line x1="344.66" y1="153.22" x2="389.61" y2="126.95" fill="none" stroke="#000" stroke-miterlimit="10" stroke-width="8.97"/><line x1="367.14" y1="190.42" x2="419.01" y2="186" fill="none" stroke="#000" stroke-miterlimit="10" stroke-width="8.97"/></g></svg>