<?xml version="1.0" encoding="UTF-8"?><svg id="uuid-8de34e07-a9cc-4d51-a514-5ba7c1083204" xmlns="http://www.w3.org/2000/svg" viewBox="0 0 500 500"><line x1="85.71" y1="485.15" x2="414.29" y2="485.15" fill="none" stroke="#00a3e3" stroke-miterlimit="10" stroke-width="9"/><path d="M85.71,479.97H414.29l-54.76-109.52h-57.07c-18.96,23.24-37.68,38.33-52.45,38.33-11.49,0-28.89-15.09-47.63-38.33h-61.9l-54.76,109.52Z" fill="#d1d3d4" stroke="#251f20" stroke-miterlimit="10" stroke-width="9"/><g><line x1="138.8" y1="453.36" x2="141.16" y2="449.53" fill="none" stroke="#fff" stroke-miterlimit="10"/><line x1="145.53" y1="442.46" x2="169.55" y2="403.54" fill="none" stroke="#fff" stroke-dasharray="0 0 8.31 8.31" stroke-miterlimit="10"/><polyline points="171.73 400.01 174.1 396.18 177.39 399.25" fill="none" stroke="#fff" stroke-miterlimit="10"/><line x1="184.53" y1="405.91" x2="223.81" y2="442.55" fill="none" stroke="#fff" stroke-dasharray="0 0 9.77 9.77" stroke-miterlimit="10"/><polyline points="227.38 445.88 230.67 448.95 232.84 445" fill="none" stroke="#fff" stroke-miterlimit="10"/><line x1="237.84" y1="435.88" x2="245.34" y2="422.19" fill="none" stroke="#fff" stroke-dasharray="0 0 10.41 10.41" stroke-miterlimit="10"/><polyline points="247.84 417.63 250 413.68 254.24 415.18" fill="none" stroke="#fff" stroke-miterlimit="10"/><line x1="262.87" y1="418.22" x2="293.06" y2="428.86" fill="none" stroke="#fff" stroke-dasharray="0 0 9.14 9.14" stroke-miterlimit="10"/><polyline points="297.37 430.38 301.61 431.87 304.94 428.84" fill="none" stroke="#fff" stroke-miterlimit="10"/><line x1="310.47" y1="423.8" x2="329.83" y2="406.14" fill="none" stroke="#fff" stroke-dasharray="0 0 7.49 7.49" stroke-miterlimit="10"/><polyline points="332.6 403.62 335.92 400.59 338.27 404.43" fill="none" stroke="#fff" stroke-miterlimit="10"/><line x1="343.77" y1="413.45" x2="363.04" y2="445.01" fill="none" stroke="#fff" stroke-dasharray="0 0 10.57 10.57" stroke-miterlimit="10"/><polyline points="365.79 449.52 368.14 453.36 363.88 451.89" fill="none" stroke="#fff" stroke-miterlimit="10"/><polyline points="355.45 448.99 305.81 431.87 234.32 448.95 150.77 452.93" fill="none" stroke="#fff" stroke-dasharray="0 0 8.92 8.92" stroke-miterlimit="10"/><line x1="146.32" y1="453.15" x2="141.82" y2="453.36" fill="none" stroke="#fff" stroke-miterlimit="10"/></g><polyline points="174.1 396.18 250 406.2 335.92 400.59" fill="none" stroke="#fff" stroke-dasharray="0 9" stroke-miterlimit="10"/><g><path d="M392.38,162.35c0,78.63-93.1,246.43-142.38,246.43-38.33,0-142.38-167.79-142.38-246.43S171.37,19.97,250,19.97s142.38,63.75,142.38,142.38Z" fill="none" stroke="#000" stroke-miterlimit="10" stroke-width="9.92"/><path d="M252,122.47c22.37,0,40.5,18.13,40.5,40.5" fill="none" stroke="#00a2de" stroke-miterlimit="10" stroke-width="9.88"/><circle cx="250" cy="164.97" r="36.91" fill="#d1d3d4" stroke="#000" stroke-miterlimit="10" stroke-width="9"/></g><ellipse cx="138.8" cy="453.36" rx="8.21" ry="4.41" fill="#fff"/><ellipse cx="174.1" cy="396.18" rx="8.21" ry="4.41" fill="#fff"/><ellipse cx="230.67" cy="448.95" rx="8.21" ry="4.41" fill="#fff"/><ellipse cx="301.61" cy="431.87" rx="8.21" ry="4.41" fill="#fff"/><ellipse cx="335.92" cy="400.59" rx="8.21" ry="4.41" fill="#fff"/><ellipse cx="368.14" cy="453.36" rx="8.21" ry="4.41" fill="#fff"/></svg>