<?xml version="1.0" encoding="UTF-8"?><svg id="uuid-2c465e2e-4744-4e3e-a8f9-49ddb84bff4e" xmlns="http://www.w3.org/2000/svg" viewBox="0 0 500 500"><path d="M232.99,221.4h9.36c-42.74-12.29-72.96-50.17-75.02-93.41-2.22-46.63,28.78-89.82,75.02-103.23h-9.36c-54.3,0-98.32,44.02-98.32,98.32s44.02,98.32,98.32,98.32Z" fill="#d1d3d4"/><path d="M118.83,266.62l108.41,2.18c-36.54,.13-63.22,8.42-78.98,14.76-18.18,7.32-26.23,13.8-32,20.57-12.77,15-15.19,32.4-15.75,40.88v130.17H58.3c0-80.48-8.11-139.87,16.33-182.05" fill="#d1d3d4"/><g><path d="M238.18,19.78c55.44,0,101.89,44.29,101.89,101.67,0,27.8-7.97,48.69-19.68,64.2" fill="none" stroke="#00a2de" stroke-miterlimit="10" stroke-width="10.13"/><path d="M418.48,470.89v-127.68c-2.53-52.05-45.63-83-80.5-84.53" fill="none" stroke="#00a2de" stroke-miterlimit="10" stroke-width="10.04"/></g><g><circle cx="236.18" cy="123.13" r="98.32" fill="none" stroke="#000" stroke-miterlimit="10" stroke-width="9.92"/><path d="M144.71,263.17h182.94c47.69,0,86.41,38.72,86.41,86.41v125.61H58.3v-125.61c0-47.69,38.72-86.41,86.41-86.41Z" fill="none" stroke="#000" stroke-miterlimit="10" stroke-width="9.92"/></g><g><path d="M402.14,306.13c-32.85,0-59.48,26.63-59.48,59.48s26.63,59.48,59.48,59.48,59.48-26.63,59.48-59.48-26.63-59.48-59.48-59.48Z" fill="#fff"/><path d="M402.14,301.55c-37.35,0-67.63,30.28-67.63,67.63s30.28,67.63,67.63,67.63,67.63-30.28,67.63-67.63-30.28-67.63-67.63-67.63Zm-3.68,106.28l-37.78-29.92,11.3-14.27,23.51,18.62,35.32-44.59,14.27,11.3-46.62,58.86Z" fill="#00a3e3"/></g></svg>