<?xml version="1.0" encoding="UTF-8"?><svg id="uuid-8d65369a-bab6-42be-95d8-9133e9b77d8e" xmlns="http://www.w3.org/2000/svg" viewBox="0 0 500 500"><path d="M295.31,445.6c95-12.24,190-65.91,179.96-100.89-1.73-6.03-5.3-15.02-12.77-20.24-10.7-7.47-24.4-4.89-33.33-2.81-42.1,9.8-93.77,33.61-105.26,38.94" fill="none" stroke="#00a3e3" stroke-miterlimit="10" stroke-width="8"/><path d="M30.65,266.62h48.72c3.86,0,7,3.14,7,7v163.8H30.65v-170.8h0Z" fill="#d1d3d4" stroke="#231f20" stroke-miterlimit="10" stroke-width="10"/><path d="M86.48,293.96c.19,40.86,.37,81.71,.56,122.57,11.4-1.16,25.16-1.45,40.55,.56,26.38,3.45,47.82,12.4,63.44,21.03,11.65,6.44,36.34,8.7,49.63,9.41,16.55,.88,25.61,2.22,49.11-.64,93.69-11.42,188.66-62.12,184.96-95.02-.7-6.23-5.3-15.02-12.77-20.24-10.7-7.47-24.4-4.89-33.33-2.81-42.1,9.8-105.7,39.09-117.19,44.42h-108.31" fill="none" stroke="#231f20" stroke-miterlimit="10" stroke-width="10"/><path d="M86.48,293.96c7.49-4.34,25.31-13.35,40.55-16.31,22.77-4.42,40.57-.37,44.43,.56,17.31,4.18,19.47,12.3,47.77,26.99,7.25,3.77,13.72,6.72,18.86,8.93,3.58,1.53,7.43,2.32,11.32,2.32h55.78c10.74,0,20.67,6.31,24.69,16.27,.15,.38,.3,.77,.44,1.16,3.4,9.67,.42,25.64-15.56,37.82" fill="none" stroke="#231f20" stroke-miterlimit="10" stroke-width="10"/><path d="M417.95,148.08c0,57.67-46.75,104.42-104.41,104.42s-104.42-46.75-104.42-104.42,46.75-104.41,104.42-104.41,104.41,46.74,104.41,104.41Z" fill="none" stroke="#231f20" stroke-miterlimit="10" stroke-width="10"/><g><path d="M335.82,127.8c.59-13.86-10.64-25.05-23.26-24.72-12.64,.34-21.61,12.1-21.81,22.54-.23,12.21,11.46,20.36,13.08,21.08,10.84,4.83,17.75,1.55,26.17,8.72,5.19,4.42,8.96,11.97,8,19.63-1.33,10.55-11.32,18.68-21.08,19.63-12.55,1.22-25.86-9.31-28.35-25.44" fill="none" stroke="#231f20" stroke-miterlimit="10" stroke-width="20"/><line x1="314.67" y1="217.01" x2="314.83" y2="198.34" fill="none" stroke="#231f20" stroke-miterlimit="10" stroke-width="20"/><line x1="314.83" y1="82.35" x2="314.67" y2="101.02" fill="none" stroke="#231f20" stroke-miterlimit="10" stroke-width="20"/></g></svg>