<?xml version="1.0" encoding="UTF-8"?><svg id="uuid-a46b537c-f633-4a2c-aecb-c3486fdf2ad4" xmlns="http://www.w3.org/2000/svg" xmlns:xlink="http://www.w3.org/1999/xlink" viewBox="0 0 459.9 245.79"><defs><clipPath id="uuid-56c574bf-27d5-4b01-a6bd-00a87b699d45"><rect width="459.9" height="245.79" fill="none"/></clipPath></defs><g clip-path="url(#uuid-56c574bf-27d5-4b01-a6bd-00a87b699d45)" fill="none"><path d="m64.26,196.5h-2.26V45l18.62-3.52,19.28-4.03,12.46-7.69c1.72-1.35,3.38-2.77,4.98-4.28,13.26-12.51,30.8-19.48,49.04-19.48h40.97c5.87,0,12.65,1.58,18.6,3.27l2.55-.27,2.98.67c7.22-2.41,14.84-3.67,22.6-3.67h40.97c18.24,0,35.78,6.97,49.04,19.48,6.67,6.28,14.41,11.17,22.77,14.48l9.14,2.04,23.5,2.5v153.5l-58.97,1.7c-1.36,5.82-4.29,11.35-8.81,15.9l-2.83,2.86c-13.04,13.16-34.3,13.21-47.4.11l-6.75,6.62c-18.14,17.78-47.22,17.63-65.18-.33-20.68,19.35-52.62,19.96-74.03,1.43l-22.33-29.61h-49.24l.3-.18Z" fill="#fff" fill-rule="evenodd"/><path d="m63.96,196.68h49.24l22.33,29.61c21.41,18.53,53.35,17.92,74.03-1.43,17.96,17.96,47.04,18.11,65.18.33l6.75-6.62c13.1,13.1,34.36,13.05,47.4-.11l2.83-2.86c12.96-13.08,12.91-34.17-.11-47.19l-82.77-82.77" fill="none" stroke="#000" stroke-linejoin="bevel" stroke-width="10"/><path d="m261.5,75.5l-12,11.5-2.5.5c-24,16-23.26,33.5-41.5,33.5l-18.5,5c-5.5-2.5-18-6.5-19-8l-10-16c-3.63,8.04,2.03,2.62,4.48,11,1.63,5.56,4.59,10.82,8.9,15.26,14.3,14.73,37.88,14.91,52.4.39l45.22-46.15-7.5-7Z" fill="#00a2dd"/><path d="m397.47,44.96h-4.34c-18.23,0-35.77-6.97-49.04-19.48-13.26-12.51-30.8-19.48-49.04-19.48h-40.97c-18.95,0-37.13,7.53-50.53,20.93l-37.21,37.21c-14.21,14.21-14.38,37.2-.39,51.62,14.3,14.73,37.88,14.91,52.4.39l44.31-44.31" fill="none" stroke="#000" stroke-linejoin="bevel" stroke-width="10"/><path d="m63.96,44.96h4.34c18.23,0,35.77-6.97,49.04-19.48,13.26-12.51,30.8-19.48,49.04-19.48h40.97c7.11,0,15.55,2.31,22.22,4.34" fill="none" stroke="#000" stroke-linejoin="bevel" stroke-width="10"/><path d="m397.47,198.45h-56.04" fill="none" stroke="#000" stroke-miterlimit="10" stroke-width="10"/><path d="m0,28.71h66.2v178.97c0,6.56-5.33,11.89-11.89,11.89H0V28.71Z" fill="#fff"/><path d="m459.9,219.57h-54.31c-6.56,0-11.89-5.33-11.89-11.89V28.71h66.2v190.86Z" fill="#d1d3d4"/><path d="m5,33.71h56.2v173.97c0,3.8-3.09,6.89-6.89,6.89H5V33.71Z" fill="none" stroke="#000" stroke-width="10"/><path d="m454.9,214.57h-49.31c-3.8,0-6.89-3.09-6.89-6.89V33.71h56.2v180.86Z" fill="none" stroke="#000" stroke-width="10"/><circle cx="32.5" cy="187.5" r="10.5" fill="#d9d9d9"/></g></svg>