<svg width="478" height="489" viewBox="0 0 478 489" fill="none" xmlns="http://www.w3.org/2000/svg">
<path d="M249.98 208.17L148.42 108.5C147.99 108.08 147.53 107.7 147.08 107.31C150.65 98.68 152.63 89.23 152.63 79.31C152.63 38.82 119.81 6 79.32 6C69.93 6 60.96 7.79 52.7 11L88.38 46.02C99.82 57.25 99.99 75.62 88.77 87.06C83.09 92.85 75.57 95.75 68.06 95.75C60.55 95.75 53.38 92.99 47.74 87.44L11.37 51.76C7.92 60.27 6 69.56 6 79.31C6 119.8 38.82 152.62 79.31 152.62C88.63 152.62 97.53 150.86 105.72 147.7C106.36 148.47 107.03 149.21 107.76 149.92L197.06 237.56L217.52 226.88L251.5 264.38L240.86 280.54L344.04 381.8C343.19 385.61 342.73 389.56 342.73 393.62C342.73 423.52 366.97 447.77 396.88 447.77C426.79 447.77 451.03 423.53 451.03 393.62C451.03 363.71 426.79 339.47 396.88 339.47C392.83 339.47 388.89 339.93 385.09 340.77L272.21 229.99M396.88 419.2C382.77 419.2 371.29 407.72 371.29 393.61C371.29 379.5 382.77 368.02 396.88 368.02C410.99 368.02 422.47 379.5 422.47 393.61C422.47 407.72 410.99 419.2 396.88 419.2Z" fill="white"/>
<path d="M249.98 208.17L148.42 108.5C147.99 108.08 147.53 107.7 147.08 107.31C150.65 98.68 152.63 89.23 152.63 79.31C152.63 38.82 119.81 6 79.32 6C69.93 6 60.96 7.79 52.7 11L88.38 46.02C99.82 57.25 99.99 75.62 88.77 87.06C83.09 92.85 75.57 95.75 68.06 95.75C60.55 95.75 53.38 92.99 47.74 87.44L11.37 51.76C7.92 60.27 6 69.56 6 79.31C6 119.8 38.82 152.62 79.31 152.62C88.63 152.62 97.53 150.86 105.72 147.7C106.36 148.47 107.03 149.21 107.76 149.92L197.06 237.56L217.52 226.88L251.5 264.38L240.86 280.54L344.04 381.8C343.19 385.61 342.73 389.56 342.73 393.62C342.73 423.52 366.97 447.77 396.88 447.77C426.79 447.77 451.03 423.53 451.03 393.62C451.03 363.71 426.79 339.47 396.88 339.47C392.83 339.47 388.89 339.93 385.09 340.77L272.21 229.99M396.88 419.2C382.77 419.2 371.29 407.72 371.29 393.61C371.29 379.5 382.77 368.02 396.88 368.02C410.99 368.02 422.47 379.5 422.47 393.61C422.47 407.72 410.99 419.2 396.88 419.2Z" stroke="black" stroke-width="10" stroke-miterlimit="10"/>
<path d="M255.035 286.241L248.205 296.621C252.505 310.991 248.985 327.201 237.635 338.551L122.875 453.311C118.509 457.677 113.423 460.885 108 462.935C92.9793 468.613 75.3686 465.404 63.275 453.311C46.815 436.851 45.345 435.381 45.345 435.381C28.885 418.921 28.885 392.241 45.345 375.781L160.105 261.021C170.655 250.471 185.395 246.701 198.965 249.671L211.235 243.271L237 225.5L269.5 262.5L255.035 286.251V286.241Z" fill="#159FD8"/>
<path d="M241.575 237.52L402.735 77.4295V64.2095L433.42 44.7793L444 55.9993L454.58 67.2193L428 107L415.89 106.57L260.005 260.25" fill="#159FD8"/>
<path d="M240.86 280.55L234.03 290.93C238.33 305.3 234.81 321.51 223.46 332.86L108.7 447.62C92.24 464.08 65.56 464.08 49.1 447.62L31.17 429.69C14.71 413.23 14.71 386.55 31.17 370.09L145.93 255.33C156.48 244.78 171.22 241.01 184.79 243.98L197.06 237.58L217.52 226.9L251.5 264.4L240.86 280.56V280.55Z" fill="white"/>
<path d="M227.4 231.83L388.56 71.7396V58.5196L426.64 32.3096L447.8 54.7496L422.12 92.1096L410.01 91.6796L245.83 254.56" fill="white"/>
<path d="M240.86 280.55L234.03 290.93C238.33 305.3 234.81 321.51 223.46 332.86L108.7 447.62C92.24 464.08 65.56 464.08 49.1 447.62L31.17 429.69C14.71 413.23 14.71 386.55 31.17 370.09L145.93 255.33C156.48 244.78 171.22 241.01 184.79 243.98L197.06 237.58L217.52 226.9L251.5 264.4L240.86 280.56V280.55Z" stroke="black" stroke-width="10" stroke-miterlimit="10"/>
<path d="M227.4 231.83L388.56 71.7396V58.5196L426.64 32.3096L447.8 54.7496L422.12 92.1096L410.01 91.6796L245.83 254.56" stroke="black" stroke-width="10" stroke-miterlimit="10"/>
<path d="M205.22 257.94L220.46 272.58" stroke="#159FD8" stroke-width="10" stroke-miterlimit="10"/>
<path d="M53.02 398.35L176.91 278.99" stroke="#159FD8" stroke-width="10" stroke-miterlimit="10"/>
<path d="M77.3 423.52L201.18 304.16" stroke="#159FD8" stroke-width="10" stroke-miterlimit="10"/>
</svg>
