<svg width="390" height="457" viewBox="0 0 390 457" fill="none" xmlns="http://www.w3.org/2000/svg">
<g clip-path="url(#clip0_1280_78676)">
<path fill-rule="evenodd" clip-rule="evenodd" d="M10.2288 111.147L10.2 111.13L193.96 5.76953L379.241 112.333L384.49 112.35V345.18L191.13 451.27L5 345.64V111.13L10.2288 111.147Z" fill="white"/>
<path d="M77.06 67.0299L267.54 176.65V214.95L306.59 192.94V152.2L116.44 44.4199" fill="#00A2DD"/>
<path d="M191.21 218.94L10.2 111.13L193.96 5.76953L379.27 112.35L191.21 218.94Z" stroke="black" stroke-width="10" stroke-miterlimit="10"/>
<path d="M191.21 218.94L191.13 451.27" stroke="black" stroke-width="10" stroke-miterlimit="10"/>
<path d="M267.54 415.06V358.91L306.59 338.91V393.63" fill="#00A2DD"/>
<path d="M104.04 243.649L26.54 200.699" stroke="#D1D3D4" stroke-width="10.35" stroke-miterlimit="10"/>
<path d="M104.04 225L26.54 182.04" stroke="#D1D3D4" stroke-width="10.35" stroke-miterlimit="10"/>
<path d="M104.04 206.35L26.54 163.39" stroke="#D1D3D4" stroke-width="10.35" stroke-miterlimit="10"/>
<path d="M5 111.13V345.64L191.13 451.27L384.49 345.18V112.35" stroke="black" stroke-width="10" stroke-miterlimit="10"/>
</g>
<defs>
<clipPath id="clip0_1280_78676">
<rect width="389.49" height="457" fill="white"/>
</clipPath>
</defs>
</svg>
