<?xml version="1.0" encoding="UTF-8"?><svg id="uuid-ae0b5ea6-934a-4246-a856-5b8ac350de9f" xmlns="http://www.w3.org/2000/svg" viewBox="0 0 460.03 290.03"><path d="m410.09,79.91h-170.09v160.09h170.09V79.91Z" fill="#f1f2f2"/><path d="m190.08,79.91H39.96v80.09h150.12v-80.09Z" fill="#f1f2f2"/><path d="m40,235h150" fill="none" stroke="#f1f2f2" stroke-miterlimit="10" stroke-width="10.35"/><path d="m40,215h150" fill="none" stroke="#f1f2f2" stroke-miterlimit="10" stroke-width="10.35"/><path d="m40,195h150" fill="none" stroke="#f1f2f2" stroke-miterlimit="10" stroke-width="10.35"/><path d="m175.29,162.7l-7,7,14.14,14.14,7-7-14.14-14.14Z" fill="#159fd8"/><path d="m182.43,155.57l-21.22,21.21-10.64-31.78,31.86,10.57Z" fill="#159fd8"/><path d="m439.56,10.44v259.12H10.44V10.44h429.12Zm10.44-10.44H0v280h450V0Z" fill="#231f20"/><path d="m25,30c2.76,0,5-2.24,5-5s-2.24-5-5-5-5,2.24-5,5,2.24,5,5,5Z" fill="#159fd8"/><path d="m45,30c2.76,0,5-2.24,5-5s-2.24-5-5-5-5,2.24-5,5,2.24,5,5,5Z" fill="#159fd8"/><path d="m65,30c2.76,0,5-2.24,5-5s-2.24-5-5-5-5,2.24-5,5,2.24,5,5,5Z" fill="#159fd8"/><path d="m455,10v275H10" fill="none" stroke="#159fd8" stroke-miterlimit="10" stroke-width="10.06"/></svg>