<svg width="444" height="520" viewBox="0 0 444 520" fill="none" xmlns="http://www.w3.org/2000/svg">
<path d="M84.3899 274.58H105.01C107.72 274.58 109.92 276.78 109.92 279.49V382.62C109.92 385.33 107.72 387.53 105.01 387.53H84.3899V274.58Z" fill="#D1D3D4"/>
<path d="M360 387.52H339.38C336.67 387.52 334.47 385.32 334.47 382.61V279.48C334.47 276.77 336.67 274.57 339.38 274.57H360V387.52Z" fill="#D1D3D4"/>
<path d="M29.1 265.11H84.39V396.88H29.1C16.35 396.88 6 386.53 6 373.78V288.22C6 275.47 16.35 265.12 29.1 265.12V265.11Z" stroke="black" stroke-width="10" stroke-miterlimit="10"/>
<path d="M415.3 396.89H360.01V265.12H415.3C428.05 265.12 438.41 275.47 438.41 288.23V373.79C438.41 386.54 428.06 396.9 415.3 396.9V396.89Z" stroke="black" stroke-width="10" stroke-miterlimit="10"/>
<path d="M288.7 444.36H395.56V396.89" stroke="black" stroke-width="10" stroke-miterlimit="10"/>
<path d="M269.74 466.08C281.736 466.08 291.46 456.355 291.46 444.36C291.46 432.364 281.736 422.64 269.74 422.64C257.744 422.64 248.02 432.364 248.02 444.36C248.02 456.355 257.744 466.08 269.74 466.08Z" fill="#159FD8"/>
<path d="M49.5901 265.11V178.57C49.5901 83.26 126.86 6 222.17 6C317.48 6 394.74 83.26 394.74 178.57V266.24" stroke="black" stroke-width="10" stroke-miterlimit="10"/>
<path d="M360 274.58L359.9 179.47C359.9 103.4 298.23 41.7305 222.16 41.7305C146.09 41.7305 84.4299 103.4 84.4299 179.47L84.3899 274.58" stroke="black" stroke-width="10" stroke-miterlimit="10"/>
</svg>
