<?xml version="1.0" encoding="UTF-8"?><svg id="uuid-82a9d4fe-8e99-459e-860d-3d9ace262854" xmlns="http://www.w3.org/2000/svg" viewBox="0 0 451.38 299.39"><polyline points="381.59 47.95 446.38 126.19 446.38 263.42 404.14 263.42" fill="none" stroke="#159fd8" stroke-miterlimit="10" stroke-width="10"/><polyline points="337.21 46.78 337.21 127.03 437.04 127.03" fill="none" stroke="#fff" stroke-miterlimit="10" stroke-width="10"/><path d="m288.6,5v253.24h-110.57c0-19.95-16.19-36.14-36.15-36.14s-36.15,16.19-36.15,36.14h-55.89V5h238.75Z" fill="none" stroke="#fff" stroke-miterlimit="10" stroke-width="10"/><path d="m178.04,258.24c0,19.96-16.19,36.15-36.15,36.15s-36.15-16.19-36.15-36.15,16.19-36.14,36.15-36.14,36.15,16.19,36.15,36.14Z" fill="#d1d3d4" stroke="#fff" stroke-miterlimit="10" stroke-width="10"/><path d="m401.97,258.24c0,19.96-16.19,36.15-36.15,36.15s-36.14-16.19-36.14-36.15,16.18-36.14,36.14-36.14,36.15,16.19,36.15,36.14Z" fill="#d1d3d4" stroke="#fff" stroke-miterlimit="10" stroke-width="10"/><line x1="329.69" y1="258.24" x2="288.6" y2="258.24" fill="none" stroke="#fff" stroke-miterlimit="10" stroke-width="10"/><polyline points="401.97 258.24 441.24 258.24 441.24 127.78 437.04 122.66 437.03 122.66 374.73 46.78 337.21 46.78 288.6 46.78" fill="none" stroke="#fff" stroke-miterlimit="10" stroke-width="10"/><line y1="63.83" x2="174.75" y2="63.83" fill="none" stroke="#159fd8" stroke-miterlimit="10" stroke-width="10"/><line x1="23.61" y1="106.68" x2="223.57" y2="106.68" fill="none" stroke="#159fd8" stroke-miterlimit="10" stroke-width="10"/></svg>