<?xml version="1.0" encoding="UTF-8"?><svg id="uuid-491a0273-21db-4a08-b39c-3bdfe580df62" xmlns="http://www.w3.org/2000/svg" viewBox="0 0 442.41 465.08"><path d="m83.39,273.58h20.62c2.71,0,4.91,2.2,4.91,4.91v103.13c0,2.71-2.2,4.91-4.91,4.91h-20.62v-112.95Z" fill="#d1d3d4"/><path d="m359,386.52h-20.62c-2.71,0-4.91-2.2-4.91-4.91v-103.13c0-2.71,2.2-4.91,4.91-4.91h20.62v112.95Z" fill="#d1d3d4"/><path d="m28.1,264.11h55.29v131.77H28.1c-12.75,0-23.1-10.35-23.1-23.1v-85.56c0-12.75,10.35-23.1,23.1-23.1h0Z" fill="none" stroke="#000" stroke-miterlimit="10" stroke-width="10"/><path d="m414.3,395.89h-55.29v-131.77h55.29c12.75,0,23.11,10.35,23.11,23.11v85.56c0,12.75-10.35,23.11-23.11,23.11h0Z" fill="none" stroke="#000" stroke-miterlimit="10" stroke-width="10"/><path d="m287.7,443.36h106.86v-47.47" fill="none" stroke="#000" stroke-miterlimit="10" stroke-width="10"/><path d="m268.74,465.08c12,0,21.72-9.72,21.72-21.72s-9.72-21.72-21.72-21.72-21.72,9.72-21.72,21.72,9.72,21.72,21.72,21.72Z" fill="#159fd8"/><path d="m48.59,264.11v-86.54C48.59,82.26,125.86,5,221.17,5s172.57,77.26,172.57,172.57v87.67" fill="none" stroke="#000" stroke-miterlimit="10" stroke-width="10"/><path d="m359,273.58l-.1-95.11c0-76.07-61.67-137.74-137.74-137.74S83.43,102.4,83.43,178.47l-.04,95.11" fill="none" stroke="#000" stroke-miterlimit="10" stroke-width="10"/></svg>