<?xml version="1.0" encoding="UTF-8"?><svg id="uuid-3766c88e-bbe6-431b-893d-05d680af6fef" xmlns="http://www.w3.org/2000/svg" viewBox="0 0 460 300"><path d="m410.09,40h-170.09v210h170.09V40Z" fill="#f1f2f2"/><path d="m190.09,130H39.91v120h150.18v-120Z" fill="#f1f2f2"/><path d="m440,10v270H10V10h430Zm10-10H0v290h450V0Z" fill="#231f20"/><path d="m25,30c2.76,0,5-2.24,5-5s-2.24-5-5-5-5,2.24-5,5,2.24,5,5,5Z" fill="#159fd8"/><path d="m45,30c2.76,0,5-2.24,5-5s-2.24-5-5-5-5,2.24-5,5,2.24,5,5,5Z" fill="#159fd8"/><path d="m65,30c2.76,0,5-2.24,5-5s-2.24-5-5-5-5,2.24-5,5,2.24,5,5,5Z" fill="#159fd8"/><path d="m455,10v285H10" fill="none" stroke="#159fd8" stroke-miterlimit="10" stroke-width="10"/><path d="m40,115h150" fill="none" stroke="#f1f2f2" stroke-miterlimit="10" stroke-width="10.35"/><path d="m40,95h150" fill="none" stroke="#f1f2f2" stroke-miterlimit="10" stroke-width="10.35"/><path d="m40,75h150" fill="none" stroke="#f1f2f2" stroke-miterlimit="10" stroke-width="10.35"/><path d="m40,55h150" fill="none" stroke="#f1f2f2" stroke-miterlimit="10" stroke-width="10.35"/><path d="m325.09,119.98v50.04" fill="none" stroke="#159fd8" stroke-miterlimit="10" stroke-width="10"/><path d="m350.04,144.98h-50" fill="none" stroke="#159fd8" stroke-miterlimit="10" stroke-width="10"/><path d="m115.04,164.98v50.04" fill="none" stroke="#159fd8" stroke-miterlimit="10" stroke-width="10"/><path d="m140,189.98h-50" fill="none" stroke="#159fd8" stroke-miterlimit="10" stroke-width="10"/></svg>