<?xml version="1.0" encoding="utf-8"?>
<!-- Generator: Adobe Illustrator 27.6.1, SVG Export Plug-In . SVG Version: 6.00 Build 0)  -->
<svg version="1.1" id="AMPOL" xmlns="http://www.w3.org/2000/svg" xmlns:xlink="http://www.w3.org/1999/xlink" x="0px" y="0px"
	 viewBox="0 0 498.2 500" style="enable-background:new 0 0 498.2 500;" xml:space="preserve">
<style type="text/css">
	.st0{fill:#ED0C06;}
	.st1{fill:#18249C;}
</style>
<g>
	<path class="st0" d="M456,475.6v-53.3h-26.9v75.3h69.1v-21.9H456z M370.6,478.2c-12.4,0-20.2-7.6-20.2-18.5
		c0-10.8,7.8-18.1,20.2-18.1c12.3,0,20.1,7.3,20.1,18.1C390.7,470.5,382.8,478.2,370.6,478.2 M370.6,500c30,0,49-18.1,49-40.5
		c0-22.9-19-39.7-48.9-39.7c-30.2,0-49.1,16.8-49.1,39.7C321.6,481.8,340.5,500,370.6,500 M274.6,460.9h-14v-20.1h15.5
		c7.7,0,12,3.8,12,9.9C288.1,457,283.4,460.9,274.6,460.9 M285.8,422.2h-52v75.4h26.9V478h21c22.6,0,34.1-11.7,34.1-28.1
		C315.7,433.3,305.7,422.2,285.8,422.2 M221.7,497.5l-7.3-75.3h-40l-11.9,41.4l-11.5-41.4h-40.4l-7.3,75.3h26.6l3.8-51.5l14.3,51.5
		h27l15.3-51.8l4.4,51.8H221.7z M48.3,469.1l16.4-26.7v26.7H48.3z M50.9,422.3L0,497.5h30.9l7.5-12.3h26.3v12.3h26.4v-75.3
		L50.9,422.3z"/>
	<rect x="424.8" class="st1" width="73.4" height="348.9"/>
	<polygon class="st0" points="189,348.9 424.8,0 336.2,0 100.5,348.9 	"/>
</g>
</svg>
