<?xml version="1.0" encoding="utf-8"?>
<!-- Generator: Adobe Illustrator 27.6.1, SVG Export Plug-In . SVG Version: 6.00 Build 0)  -->
<svg version="1.1" id="Arby_x27_s" xmlns="http://www.w3.org/2000/svg" xmlns:xlink="http://www.w3.org/1999/xlink" x="0px" y="0px"
	 viewBox="0 0 584.3 500" style="enable-background:new 0 0 584.3 500;" xml:space="preserve">
<style type="text/css">
	.st0{fill:#D71921;}
</style>
<g transform="matrix(1.84147 0 0 1.84147 145.004 84.4747)">
	<path class="st0" d="M232.8,94.8C232.7,94.8,232.7,94.8,232.8,94.8c-3.2,0-5.8,2.6-5.8,5.8c0,3.2,2.6,5.8,5.8,5.8
		c3.2,0,5.8-2.6,5.8-5.8c0,0,0,0,0,0C238.5,97.4,235.9,94.8,232.8,94.8L232.8,94.8z M232.8,105.2
		C232.7,105.2,232.7,105.2,232.8,105.2c-2.6,0-4.7-2.1-4.7-4.6c0-2.5,2.1-4.6,4.6-4.6s4.6,2.1,4.6,4.6c0,0,0,0.1,0,0.2
		C237.4,103.2,235.3,105.3,232.8,105.2C232.8,105.3,232.8,105.3,232.8,105.2L232.8,105.2z"/>
	<path class="st0" d="M230.4,97.5h2.6c0.7,0,1.3,0.2,1.8,0.6c0.3,0.3,0.5,0.8,0.5,1.3c0,0.8-0.5,1.6-1.3,1.8l1.4,2.2h-1.5l-1.3-1.9
		h-1v1.9h-1.3V97.5z M232.9,100.4c0.6,0,1-0.4,1-0.8c0-0.6-0.4-0.8-1-0.8h-1.3v1.7L232.9,100.4z"/>
	<path class="st0" d="M222.4,114V97.2c0-1.5-0.8-1.8-2.2-1.8h-8c-0.9,0-1,0.5-1,1.6v2.6c0,0.8-0.5,0.7-1.5-0.3
		c-1-1-4.3-4.9-13.4-4.9c-9.7,0-13,3.2-15.8,6.2s-6.5,10.2-3,17.5s14.2,8.8,17.9,9.6c4.5,0.9,10.9,3.3,9,6.9
		c-1.9,3.6-8.1,2.6-11.6,1.5c-2.5-0.9-4.4-2.7-5.5-5.2c-0.4-1.1-1.5-1.9-2.7-1.8h-9c-1.6,0-2,0.8-2,2v16.5c0,1.1,0.2,1.9,1.4,1.9
		h9.1c1.2,0,1.4-0.5,1.4-1.4v-2.7c0-0.9,0.5-1.2,1.3-0.4c3.2,2.2,6.8,3.7,10.6,4.3c5.2,0.8,12,0.9,16.4-1.6c4.5-2.5,8-5.4,8.7-11.4
		c1.4-6.7-2.7-13.3-9.3-15.1c-7.8-2.7-15.1-4.3-17.9-5.7c-3-1.7-3.6-6.5,0.7-7.7c3.2-0.8,6.6-0.3,9.4,1.4c1.6,1.1,2.7,2.8,3.1,4.7
		c0.2,1.1,0.3,2.2,1.9,2.2h9.5c1.6,0,2.2-0.6,2.2-2.2 M179.3,88.6c0,0,10.1-23.6-5-23.6h-13c-0.1,0-0.1,0-0.2,0
		c-1.2,0-2.2,1-2.2,2.2c0,0.1,0,0.2,0,0.3c0,0.1,0,10.1,0,11.4c0,1.3-0.3,2.7,2.5,2.7h10C175.6,81.5,179,84.6,179.3,88.6 M172,95.1
		h-26.4c-1.5,0-1.6,0.6-1.6,2v10.4c0,1.1,0.4,1.7,1.7,1.7h2c0.9,0,1.9,0,1.4,1.5c-0.5,1.5-7.1,22.5-7.5,23.6c-0.5,1.1-3,1-3.4-0.2
		c-0.5-1.2-6-22.5-6.3-23.6c-0.3-1.1-0.2-1.1,0.8-1.1c1,0,2.7,0.2,2.7-1.3V96.8c0-1.3-0.1-1.7-1.6-1.7h-23.6c-2,0-1.8,1.1-1.8,2.2
		v10.4c0,1.3,0.5,1.7,1.6,1.7h2.4c0.9,0,1.6-0.2,2.2,1.4s10.9,31.7,12.2,35.5c1.3,3.8,4.9,3.4,7.2,3.4c2.3,0,3,0,2.7,1.2
		c-0.3,1.2-1.9,7-3.9,8.7c-2.2,1.5-5,1.8-7.5,0.8c-1.9-1-3.7-2.2-5.2-3.6c-0.5-0.4-1.1-0.3-1.7,0.5s-4.9,6.2-6.2,8
		c-1.2,1.8-1,1.9,0.2,2.9c5,4.6,11.6,7.1,18.4,6.8c12.2,0,16.7-10.1,18.8-15.6c2.1-5.6,16.9-46.2,17.4-48.1c0.5-1.9,1.1-1.9,2.2-1.9
		h3.1c1.2,0,1.5-0.5,1.5-1.8V96.8C173.8,95.5,173.4,95,172,95.1 M142.5,79.8c0-40.9-6.1-71.9-17.3-95.1
		c-9.6-19.4-22.5-30.6-35.5-30.6c-14.8,0-19.5,12.2-19.7,18.6c-0.2,5.6,2.9,11.8,5.9,17.8c2.4,4.7,4.6,9,4.3,11.8
		c0,0.8-0.6,3.1-2.2,3.1c-1.5,0-5.5-6.5-8.1-10.6C63.9-15,56.3-27.3,46.8-27.3c-3.1,0-14.1,1.7-25.8,23.3C11.1,14,5.2,39.5,1.3,79.6
		c0,0.6,0.5,1.8,1.6,1.8h12c1,0.1,1.8-0.6,2-1.6c2.7-23.2,4.3-37.7,7.4-50.3C31.8-0.7,42.6-9,45.5-9c3.6,0,7.2,5.9,11,12.2l1.6,2.9
		c4.9,8,10.8,16.5,20.3,16.5s16.7-9.7,17.2-18.4c0.4-9.4-3.7-16.5-6.7-21.6c-1.7-3-3.2-5.5-3.2-7.3c0,0,0-0.1,0-0.1
		c0-1.8,1.5-3.3,3.3-3.3c0.1,0,0.3,0,0.4,0c5.5,0,14.8,5.7,22.7,21.9c12.4,25.3,15.1,59.5,15.1,86.1c0.1,1,1,1.7,2,1.7h11.4
		C141.6,81.5,142.3,80.7,142.5,79.8 M-1.8,148.2v-10.6c-0.1-1.1-1-2-2.2-2H-7c-1.3,0-2.5-0.9-2.8-2.2l-21.5-57.6
		c-0.5-1.6-1.4-3.1-2.6-4.3c-2.1-2-6.8-2-6.8-2h-18.6c-0.9,0-1.7,0.7-1.8,1.7v10.5c0,0.9,0.5,1.9,2.2,1.9h4.6c1.5,0,1.5,1.1,0.8,2.3
		s-18.5,48-18.7,48.5c-0.7,1.4-1.6,1.2-1.6,1.2h-3.5c0,0,0,0-0.1,0c-0.8,0-1.4,0.6-1.4,1.4c0,0,0,0.1,0,0.1v10.7c0,0,0,0,0,0.1
		c0,1,0.8,1.8,1.8,1.8h0h26.5c1.7,0,1.7-0.4,1.7-1.6v-11c0-1.2-0.7-1.4-1.8-1.4h-4.7c-1.4,0-1.8-0.9-1.6-1.8c0-0.3,1.6-4.7,2.2-5.9
		c0.5-1.2,0.7-1.3,2.2-1.3h20.7c2.2,0,2.3,0.6,2.6,1.4c0.3,0.8,1.4,3.9,1.7,4.7c0.8,2.2,0,2.9-0.9,2.9h-4.8c0,0-0.1,0-0.1,0
		c-0.9,0-1.6,0.7-1.6,1.6c0,0,0,0,0,0.1v11.1c0,0.9,0.4,1.3,1.9,1.3h29.9C-2.4,149.7-1.8,149-1.8,148.2 M-35.5,114.6h-12
		c-1.8,0-1.6-1.1-1.3-1.8c0.3-0.7,5.4-16.2,5.8-17.2c0.4-1,1.3-1.6,1.9-0.2c0.6,1.4,6.1,16.5,6.5,17.3
		C-34.1,113.6-34.2,114.5-35.5,114.6 M45.8,71.3v11.3c0,0.8,0.4,1.1,1.5,1.1h2.2c1.5,0,1.6,0.4,1.6,2v47.7c0,2.2-0.2,2.2-1.7,2.2
		h-3.2c-1.6,0-1.9,0.5-1.9,2v10.2c0,1.5,0.6,1.9,2.2,1.9h18.3c1.6,0,1.8-0.6,1.8-1.7v-3.2c0-1.1,1.3-0.5,2,0.3s3.3,4.2,12.3,5
		c7.3,0.6,15.4-1.3,20.2-7.5c3.6-4.7,6.5-9.3,6.5-21.4s-5.6-19.8-11.4-23.2c-5.5-3.2-12-4.2-18.2-2.9c-3.3,1-6.3,2.6-8.8,4.9
		c-0.5,0.7-1.6,1.2-1.6,0V71.4c0-1.5-0.6-1.9-1.6-1.9H47.1c-1.4,0-1.5,0.5-1.5,1.7 M68.1,122.6c0-7.3,3.2-13.3,10.8-13.3
		s10.8,6.2,10.8,13.7s-4.7,12.3-11.1,12.3C72.2,135.4,68.2,129.9,68.1,122.6 M6.3,134.3c0,0,0.1,1.3-0.7,1.3h-3
		c-1.3,0-1.3,0.7-1.3,1.3v11.6c0,0-0.2,1.2,1.5,1.2h25.7c0,0,0.1,0,0.1,0c0.8,0,1.5-0.7,1.5-1.5c0-0.1,0-0.1,0-0.2v-11
		c0-1.2,0-1.5-1.5-1.5h-2.4c-1.1,0-1.8,0-1.8-1.1v-9c-0.1-3.2,1.1-6.3,3.5-8.5c2.8-2.7,6.4-4.3,10.2-4.8c2.4-0.2,4.8-0.1,7.2,0.2
		c1,0,1.6-0.4,1.6-1.2v-15c0-0.9-0.2-1.7-2.2-1.9C39.5,94.4,34.4,96,30,98.9c-3.2,2.5-5.7,5.7-7.4,9.4c-0.4,0.6-1.1,0.8-1.1-0.2V97
		c0-1.1-0.4-1.9-1.7-1.9h-17c-1.1,0-1.5,0-1.5,1.4v11.4v0c0,0.6,0.5,1.1,1.1,1.1h0h2.4c1.1,0,1.5,0.3,1.5,1.5L6.3,134.3z
		 M-29.6,186.3c-0.2,6.1,2.2,12,6.6,16.3c7.1,7.4,20.2,13.5,37.7,17.6c16.8,3.7,33.9,5.5,51,5.5h0.6c21.6,0,52.7-2.4,78.5-13.2
		c18.4-7.7,28.3-17.2,29.6-28.1c1-7.8-1.1-14.8-10.7-19.5c-0.5,0-1,0.2-1.3,0.7c-1.9,3.4-4.1,6.7-6.5,9.8c-0.5,0.7-0.4,1.6,0.2,2.2
		c1.8,1.1,2.9,3.1,2.9,5.2c0,1.7-0.7,3.3-1.9,4.5c-2.6,3-6.2,7.3-21.4,13.3c-12.5,5-34.6,10.8-68.6,11h-0.7
		c-39.6,0-69.5-9.5-78.5-19c-1.6-1.4-2.6-3.5-2.7-5.7c0.2-5.6,8.1-8.8,22.1-8.8h0.2c3.8,0,7.6,0.2,11.3,0.7c2.8,0.3,5.5,0.8,8.1,1.3
		c5.9,1.1,11.6,2.6,17.3,4.5c7.9,2.6,14.1,5.3,18.2,7.1c2.4,1,3.9,1.7,4.8,1.9c1.3,0.4,2.6,0.6,3.9,0.5c3.2-0.2,5.9-2.5,6.5-5.7
		c0.8-3-0.7-6.1-3.5-7.4c-13.4-6.2-27.4-11.1-41.7-14.4c-4.9-1.1-9.8-1.9-14.7-2.5c-3.7-0.5-7.4-0.7-11.1-0.7H6.8
		C-14.9,163.3-28.9,172.2-29.6,186.3"/>
</g>
</svg>
