<?xml version="1.0" encoding="utf-8"?>
<!-- Generator: Adobe Illustrator 27.6.1, SVG Export Plug-In . SVG Version: 6.00 Build 0)  -->
<svg version="1.1" id="Baskin_Robbins" xmlns="http://www.w3.org/2000/svg" xmlns:xlink="http://www.w3.org/1999/xlink" x="0px"
	 y="0px" viewBox="0 0 887.2 500.2" style="enable-background:new 0 0 887.2 500.2;" xml:space="preserve">
<style type="text/css">
	.st0{fill:#402021;}
	.st1{fill:#F05097;}
</style>
<g>
	<g>
		<path class="st0" d="M0.1,5.6C0,2.7,2.6-0.1,5.6,0.1H202c2.8,0,5.6-0.1,8.3,0c0.1,9.3,0,18.6,0,27.9c0,4.3,0.1,8.6,0,12.9
			c-15-0.1-29.9,5.1-41.7,14.3c-11.7,9.1-20.5,21.9-24.3,36.3c-4.5,16.5-2.5,34.6,5.5,49.7c5.6,10.7,14.1,19.8,24.4,26.2
			c6.6,4.1,13.9,7.1,21.5,8.8c4.8,1.1,9.7,1.5,14.6,1.6c0.1,5.3,0,10.5,0,15.8c0,5.6,0.1,11.1,0,16.7c-9.3,0-18.5,1.9-27,5.6
			c-12.7,5.5-23.6,14.9-31,26.6c-3.8,6.1-6.7,12.9-8.5,19.9c-4,16.2-1.8,33.8,6.1,48.5c6.5,12.2,16.8,22.4,29.1,28.7
			c9.6,4.9,20.4,7.6,31.2,7.5c0.1,11.3,0,22.6,0,33.8c0,2.3,0,4.7,0,7c-5.4,0.1-10.8,0-16.2,0H7.1c-1.2,0-2.4,0.1-3.5-0.3
			c-1.4-0.5-2.5-1.6-3.1-2.9c-0.6-1.2-0.5-2.7-0.5-4v-60.8c-0.1-2.2,1.4-4.3,3.4-5.1c1.2-0.5,2.6-0.4,3.9-0.4
			c5.2,0,10.4-0.1,15.4-1.4c3.3-0.9,6.5-2.4,8.9-4.8c2.5-2.4,4.2-5.5,5.3-8.8c1.5-4.2,2.2-8.6,2.7-13.1c1.3-11.5,1.3-23.1,1.7-34.7
			c0-5.3,0.2-10.5,0.2-15.8c0.1-7.8,0.2-15.6,0.2-23.5c-0.1-3.8,0.1-7.5,0.1-11.3c0-6.8,0-13.6,0-20.5c-0.1-11.2,0-22.3-0.3-33.5
			c0.1-5.6-0.2-11.2-0.2-16.8c-0.3-8.3-0.4-16.5-1.1-24.8c-0.5-4.6-1.1-9.2-2.3-13.6c-1.3-4.8-3.5-9.6-7.3-12.9
			c-3.7-3.2-8.6-4.6-13.4-5c-3.9-0.3-7.8-0.2-11.7-0.2c-2,0-3.9-1.3-4.8-3.1c-0.5-0.9-0.6-2-0.6-3.1C0.1,46.9,0.1,26.2,0.1,5.6
			L0.1,5.6z"/>
		<path class="st0" d="M598.5,0.1c2.6-0.1,5.3,0,7.9-0.1c24.2,0,48.5,0,72.7,0c5.5,0.1,11-0.1,16.4,0.1c18.6,0.5,37.2,3.8,54.5,10.7
			c14.3,5.6,27.6,13.6,38.9,24c10.9,10,19.8,22.4,25.1,36.3c3.2,8.3,5.2,17.1,5.8,26c0.3,6,0.2,12-0.6,17.9
			c-2.1,16.1-8.7,31.6-18.8,44.4c-9.2,11.6-21,21.1-34,28c-11.7,6.3-24.4,10.7-37.4,13.5c-0.4,0.1-0.9,0-1.1,0.4
			c8.4,1.3,16.7,3.5,24.6,6.8c7.2,3.1,14,7.1,20,12.2c5.1,4.3,9.6,9.3,13.4,14.7c4.3,6.2,7.8,12.9,10.5,20
			c3.4,8.7,5.8,17.7,7.5,26.9c0.9,4.9,1.5,9.8,2.8,14.7c0.9,3.9,2.2,7.6,3.9,11.2c1.7,3.4,4,6.7,7,9c5.6,4.3,13.7,4.5,19.7,0.9
			c3.9-2.3,7-6.1,8.3-10.5c0.1-0.4,0.7-0.3,1-0.3c1.3,0,2.7-0.1,4,0.1c1.7,3.2,2.8,6.8,3.6,10.3c1.9,9.5,1.1,19.4-1.7,28.6
			c-2.3,7.5-6,14.5-10.9,20.7c-4.6,5.9-10.2,11-16.4,15.2c-6.4,4.3-13.4,7.7-20.7,10.2c-8,2.8-16.3,4.5-24.7,5.5
			c-5.7,0.7-11.4,1.1-17.2,1.1c-2.2,0.2-4.4-0.1-6.6,0c-9.9-0.2-19.9-1.3-29.5-3.8c-8.2-2.1-16.2-5.2-23.4-9.6
			c-6.4-3.9-12.1-8.7-16.9-14.4c-5.1-5.9-9.1-12.6-12.3-19.7c-3.3-7.5-5.7-15.4-7.3-23.4c-2.1-10.4-3.2-20.9-3.6-31.5
			c-0.2-4.7-0.2-9.4-0.2-14.1c-0.2-5.2-0.5-10.4-1.3-15.6c-1.3-8.4-3.5-16.8-7.5-24.3c-3.6-7.1-8.7-13.4-14.9-18.3
			c-5.7-4.5-12.3-7.9-19.2-10.1c-4.6-1.4-9.3-2.4-14.1-3c-2.4-0.3-4.9-0.6-7.3-0.6c-0.1-6,0-11.9,0-17.9c0-4.9-0.1-9.8,0-14.7
			c5.3,0.5,10.6,1.3,15.9,1.1c8.6-0.2,17.1-1.6,25.3-4.4c13.2-4.5,25-12.8,33.4-24c4.5-6,8-12.8,10.3-20c5.2-16.2,4-34.4-3.3-49.8
			c-5.5-11.8-14.6-21.9-25.7-28.7c-6.6-4.1-13.9-7.1-21.5-9c-6.9-1.7-13.9-2.5-21-2.4c-2.6-0.1-5.2,0.2-7.7,0.5
			c-1.9,0.2-3.8,0.3-5.7,0.7C598.5,27.6,598.5,13.9,598.5,0.1L598.5,0.1z"/>
		<path class="st0" d="M152.6,429.7c5.2-0.4,10.5-0.1,15.5,1.4c3.7,1.1,7.1,3,9.8,5.8c3.5,3.7,5.3,8.8,5.5,13.9
			c0.1,0.8-0.8,1.3-1.5,1.2c-4.2,0-8.4,0-12.6,0c-0.8,0.1-1.5-0.6-1.6-1.3c-0.3-1.3-0.6-2.7-1.4-3.8c-1.2-1.7-3.2-2.7-5.2-3.1
			c-2.1-0.5-4.3-0.4-6.5-0.4c-2.2,0.2-4.5,0.7-6.3,2c-1.5,1.1-2.3,3.1-2.3,4.9c-0.1,1.5,0.5,3,1.5,4c1.1,1,2.4,1.5,3.8,2
			c2.8,0.9,5.8,1.2,8.7,1.7c3.8,0.7,7.6,1,11.2,2.2c2.9,1,5.8,2.4,8,4.6c2.7,2.6,4.2,6.2,4.7,9.8c0.5,3.9,0.3,8-1,11.8
			c-1,3-2.9,5.8-5.3,7.9c-2.5,2.1-5.5,3.6-8.7,4.5c-3.9,1.1-8,1.5-12,1.4c-5.9-0.1-11.9-1.1-17-4.1c-3.1-1.8-5.6-4.5-7.3-7.6
			c-1.5-2.8-2.3-5.8-2.7-9c-0.1-0.6,0.1-1.2,0.6-1.5c0.5-0.3,1.2-0.2,1.8-0.2c3.6,0,7.2,0,10.9,0c0.6,0,1.3,0,1.8,0.4
			c0.5,0.5,0.7,1.2,0.9,1.9c0.6,1.9,1.8,3.7,3.6,4.7c2.5,1.5,5.5,1.8,8.4,1.7c2.3,0,4.6-0.3,6.6-1.3c1.7-0.8,3.1-2.3,3.6-4.1
			c0.5-1.9,0.3-4.1-1-5.7c-1-1.3-2.6-2.1-4.1-2.7c-2.7-0.9-5.6-1.1-8.4-1.7c-4-0.7-8.1-1.1-11.9-2.6c-3.4-1.2-6.6-3.2-8.9-6
			c-2.1-2.6-3.2-5.9-3.6-9.2c-0.4-4.1,0.1-8.3,1.9-12c1.7-3.5,4.6-6.3,8.1-8.1C144.2,431,148.4,430,152.6,429.7L152.6,429.7z"/>
		<path class="st0" d="M525.9,429.7c8.2-0.9,16.7,0.9,23.7,5.3c5.4,3.4,9.9,8.5,12.6,14.3c3.8,8,4.4,17.3,2,25.8
			c-1.9,6.8-6,12.9-11.5,17.3c-5.8,4.7-13.2,7.3-20.6,7.7c-8.2,0.5-16.6-1.8-23.2-6.6c-5.5-4-9.8-9.6-12.1-16
			c-2.8-7.8-2.9-16.5-0.4-24.3c2.1-6.4,6.2-12.2,11.6-16.4C513,432.8,519.4,430.4,525.9,429.7 M528,444.4c-3.2,0.3-6.4,1.3-9,3.1
			c-3.3,2.2-5.8,5.6-7.1,9.4c-1.4,4.1-1.7,8.5-0.8,12.7c0.7,3.5,2.2,7,4.6,9.7c2,2.3,4.7,4,7.6,5c4,1.4,8.5,1.4,12.6,0.2
			c4.1-1.2,7.7-3.9,10-7.5c1.8-2.8,2.8-6,3.2-9.2c0.5-4.2,0-8.5-1.7-12.4c-1.6-3.7-4.4-6.9-8-8.8C536,444.8,531.9,444.1,528,444.4
			L528,444.4z"/>
		<path class="st0" d="M825.3,429.7c4.5-0.4,9.1-0.3,13.6,0.7c4,0.9,7.9,2.5,11,5.2c4.2,3.7,6.5,9.3,6.8,14.9
			c0.1,0.7-0.4,1.4-1.2,1.4c-4.2,0-8.4,0-12.6,0c-0.5,0-1,0-1.3-0.3c-0.6-0.5-0.7-1.4-0.9-2.1c-0.3-1.7-1.3-3.3-2.8-4.3
			c-1.7-1.2-3.9-1.6-6-1.9c-2.2-0.1-4.4-0.2-6.5,0.4c-2.2,0.4-4.5,1.6-5.5,3.7c-0.8,1.7-0.9,3.8,0,5.6c0.7,1.4,2.2,2.2,3.6,2.8
			c2,0.8,4.2,1.2,6.4,1.6c2.9,0.5,5.7,0.9,8.6,1.4c3.7,0.5,7.4,1.5,10.7,3.4c2.8,1.6,5.1,4,6.5,6.9c1,2.1,1.5,4.3,1.7,6.5
			c0.4,4.4,0,8.9-2,12.9c-1.6,3.4-4.5,6.2-7.8,8c-3.5,1.9-7.4,2.9-11.3,3.4c-4.4,0.5-8.9,0.4-13.2-0.3c-3.4-0.6-6.7-1.6-9.6-3.4
			c-2.7-1.6-5.1-3.8-6.8-6.5c-1.9-2.9-2.9-6.3-3.4-9.8c0-0.5-0.2-1.2,0.2-1.6c0.4-0.5,1.2-0.6,1.8-0.6c3.5,0,7,0,10.5,0
			c0.7,0,1.5-0.1,2.3,0.2c0.7,0.3,1,1.1,1.1,1.8c0.5,2.1,1.9,3.9,3.7,5c3,1.7,6.7,1.8,10.1,1.6c2.3-0.3,4.6-0.8,6.4-2.3
			c2.7-2.3,3-6.9,0.4-9.4c-1.6-1.6-3.9-2.3-6.2-2.8c-4.1-0.7-8.2-1.3-12.3-2c-4.3-0.9-8.6-2.4-12.1-5.2c-2.7-2.2-4.6-5.3-5.4-8.7
			c-0.8-3.3-0.8-6.7-0.2-10c0.8-4.2,3.2-8.2,6.6-10.9C814.7,431.7,820.1,430.2,825.3,429.7L825.3,429.7z"/>
		<path class="st0" d="M194.8,432c0.1-0.8,0.9-1.3,1.7-1.2c4,0,8.1,0,12.1,0c0.7,0,1.6,0.2,1.9,1c0.2,0.9,0.1,1.8,0.1,2.7
			c0,9.2,0,18.3,0,27.5c1.3,0.1,2.5,0,3.8,0.1c0.7,0,1.4,0.1,2-0.1c5.8-9.7,11.6-19.4,17.4-29.1c0.5-0.8,0.9-1.8,1.9-2
			c1.2-0.2,2.4,0,3.7-0.1c3.8,0,7.5,0,11.3,0c0.6,0,1.3,0,1.7,0.5c0.3,0.5,0,1.1-0.2,1.6c-6.2,10.3-12.3,20.5-18.5,30.8
			c-0.3,0.6-0.7,1.1-0.9,1.7c5.4,2.4,10.1,6.3,13.3,11.2c3.5,5.1,5.5,11.1,6.7,17.2c0.2,1.3,0.6,2.6,0.5,3.9c0,0.8-0.7,1.3-1.5,1.3
			c-4.8,0-9.5,0-14.3,0c-0.9,0.1-1.5-0.7-1.6-1.5c-0.5-3.3-1.3-6.5-2.6-9.6c-1.2-2.7-3-5.2-5.4-7c-2.6-2-5.9-3-9.2-3.4
			c-2.7-0.3-5.5-0.3-8.2-0.2c0,6.7,0,13.3,0,20c0.1,0.9-0.6,1.8-1.5,1.7c-4.3,0-8.6,0-12.8,0c-0.9,0.1-1.6-0.8-1.5-1.7
			c0-20.5,0-41,0-61.4C194.8,434.5,194.7,433.2,194.8,432z"/>
		<path class="st0" d="M265.7,430.8c4.1-0.1,8.2,0,12.3,0c0.8,0,1.8,0.2,2.1,1c0.2,0.8,0.1,1.7,0.1,2.5c0,21,0,41.9,0,62.9
			c0,0.5,0,1-0.5,1.3c-0.4,0.4-1,0.4-1.5,0.4c-4.1,0-8.3,0-12.4,0c-0.6,0-1.2-0.4-1.4-0.9c-0.1-0.7,0-1.4-0.1-2
			c0-21.3,0-42.5,0-63.8C264.4,431.4,265,430.8,265.7,430.8L265.7,430.8z"/>
		<path class="st0" d="M0.4,431.2c0.4-0.5,1-0.4,1.6-0.4c6,0,11.9,0,17.9,0c5,0.1,10-0.3,14.9,0.7c3.7,0.7,7.5,2.1,10.4,4.5
			c2.6,2.1,4.4,5,5.2,8.2c0.6,2.2,0.6,4.5,0.5,6.7c-0.2,3.6-1.6,7.3-4.4,9.9c-1.2,1.2-2.7,2-4.1,2.7c0.1,0,0.2,0.1,0.2,0.2
			c2.9,0.5,5.8,1.7,8,3.7c2.7,2.3,4.2,5.8,4.7,9.2c0.5,4.2,0.1,8.6-1.9,12.4c-1.7,3.1-4.5,5.5-7.6,7c-3.5,1.7-7.4,2.4-11.3,2.8
			c-3.1,0.2-6.2,0.1-9.3,0.1c-7.9,0-15.8,0-23.7,0c-0.9,0.1-1.6-0.8-1.5-1.7c0-21.4,0-42.8,0-64.2C0,432.4,0,431.7,0.4,431.2
			 M15.7,443.9c0,4.6,0,9.2,0,13.9c3,0.1,6,0,8.9,0c2.5-0.1,5.1,0,7.3-1.2c1.3-0.6,2.4-1.8,2.8-3.2c0.5-1.7,0.5-3.5,0-5.1
			c-0.4-1.7-1.9-3.1-3.6-3.7c-2.8-1-5.8-0.7-8.7-0.8C20.2,443.9,17.9,443.7,15.7,443.9 M15.7,470.6c0,5.1,0,10.2,0,15.3
			c2.7,0.1,5.4,0,8.1,0.1c3.1,0,6.3,0.2,9.4-0.3c1.6-0.3,3.2-0.8,4.4-1.9c1.2-1.1,1.8-2.8,1.8-4.4c0.1-1.8,0.1-3.7-0.9-5.3
			c-0.9-1.5-2.5-2.5-4.2-2.9c-2.7-0.7-5.5-0.5-8.2-0.5C22.6,470.6,19.1,470.5,15.7,470.6L15.7,470.6z"/>
		<path class="st0" d="M83.7,432c0.3-0.8,1.1-1.3,1.9-1.2c4.9,0,9.8,0,14.7,0c0.8,0,1.6,0.5,1.8,1.2c8.5,21.6,16.9,43.2,25.4,64.8
			c0.2,0.5,0.4,1.3-0.1,1.7c-0.3,0.4-0.9,0.3-1.4,0.4c-4.3,0-8.7,0-13,0c-0.7,0.1-1.5-0.3-1.7-1.1c-1.3-3.5-2.6-7.1-3.9-10.6
			c-0.7-0.2-1.5-0.1-2.3-0.1c-8.7,0-17.3,0-26,0c-0.3,0-0.5,0-0.8,0.1c-1.4,3.5-2.6,7.2-4,10.8c-0.3,0.7-1.1,1-1.8,1
			c-4.3,0-8.7,0-13,0c-0.6,0-1.3-0.2-1.4-0.9c0-0.9,0.5-1.7,0.8-2.5C67.2,474.3,75.5,453.2,83.7,432 M92.3,449.4
			c-1.7,4.8-3.5,9.6-5.3,14.3c-1.1,3.1-2.4,6.2-3.4,9.4c6.2,0.1,12.4,0,18.6,0c-0.3-1.2-0.8-2.3-1.2-3.4c-2.7-7.2-5.3-14.5-8-21.7
			C92.6,448.3,92.5,448.9,92.3,449.4L92.3,449.4z"/>
		<path class="st0" d="M294.3,431c0.7-0.3,1.5-0.1,2.3-0.2c3.6,0,7.1,0,10.7,0c0.7,0,1.4,0.1,1.9,0.6c0.5,0.5,0.9,1.2,1.4,1.8
			c8.3,11.7,16.6,23.4,24.9,35.1c1.1,1.5,2,3,3.2,4.4c0-12.4,0-24.9,0-37.3c0-1.2-0.1-2.4,0.1-3.6c0.1-0.7,0.8-1,1.5-1
			c3.7,0,7.4,0,11.1,0c0.8,0,1.6-0.1,2.3,0.1c0.7,0.2,0.9,1,0.9,1.7c0,21.3,0,42.7,0,64c0,0.6,0.1,1.4-0.4,1.9
			c-0.4,0.4-1,0.4-1.5,0.4c-3.9,0-7.8,0-11.7,0c-0.6,0-1.2,0-1.7-0.4c-0.6-0.5-1-1.3-1.5-1.9c-9.2-12.9-18.3-25.8-27.5-38.6
			c-0.2-0.2-0.3-0.5-0.6-0.6c0,12.3,0,24.6,0,36.9c0,1.1,0.1,2.3,0,3.4c-0.1,0.7-0.8,1.3-1.5,1.3c-4.1,0-8.3,0-12.4,0
			c-0.5,0-1.1,0-1.5-0.4c-0.4-0.4-0.4-1-0.4-1.5c0-21.5,0-43,0-64.4C293.5,432,293.7,431.3,294.3,431L294.3,431z"/>
		<path class="st0" d="M434.2,431.6c0.3-0.6,1-0.8,1.6-0.8c8.7,0,17.5,0,26.2,0c4.3-0.1,8.7,0.5,12.8,2c3.9,1.4,7.4,3.9,9.9,7.2
			c2.4,3.2,3.6,7,4.1,10.9c0.4,4,0.1,8.1-1.1,11.9c-1.3,3.9-3.8,7.5-7.1,10c-0.8,0.7-1.8,1.1-2.7,1.8c1,0.9,2.1,1.7,3,2.8
			c4.5,4.8,7,11.1,8.3,17.5c0.2,1,0.5,2,0.4,3c-0.1,0.7-0.8,1.1-1.5,1.1c-4.8,0-9.5,0-14.3,0c-0.8,0-1.4-0.7-1.5-1.4
			c-0.8-4-1.8-8.1-3.9-11.7c-1.6-2.9-4.1-5.3-7.2-6.5c-3.6-1.4-7.5-1.3-11.3-1.2c-0.1,5.8,0,11.6,0,17.5c0,0.9,0.1,1.8-0.2,2.6
			c-0.3,0.7-1.1,0.8-1.7,0.8c-4.1,0-8.3,0-12.4,0c-0.8,0.1-1.6-0.6-1.5-1.5c0-21.1,0-42.2,0-63.4C434.1,433.3,434,432.4,434.2,431.6
			 M449.9,445.4c0,6,0,11.9,0,17.9c3.6,0.1,7.2,0,10.9,0c2.1,0,4.2-0.1,6.1-0.7c1.7-0.5,3.4-1.5,4.4-3.1c1.4-2.1,1.6-4.7,1.3-7.1
			c-0.2-1.8-1.1-3.6-2.5-4.8c-1.3-1-2.8-1.7-4.4-2c-2.6-0.5-5.4-0.3-8-0.3C455,445.4,452.4,445.2,449.9,445.4L449.9,445.4z"/>
		<path class="st0" d="M574,431.3c0.4-0.5,1.1-0.5,1.7-0.5c6.2,0,12.4,0,18.6,0c4.8,0,9.7-0.3,14.5,0.7c4.3,0.8,8.5,2.5,11.6,5.7
			c2.6,2.6,4,6.2,4.4,9.9c0.3,3.2,0,6.6-1.4,9.6c-0.9,2.1-2.5,3.9-4.3,5.3c-0.8,0.6-1.8,1-2.7,1.6c0,0.3,0.5,0.2,0.8,0.3
			c3.3,0.6,6.5,2.3,8.7,4.9c2.6,3,3.6,7.1,3.6,11c0.1,4.1-1,8.3-3.6,11.5c-2.2,2.8-5.3,4.7-8.6,5.9c-3.9,1.3-8,1.9-12,1.9
			c-10,0-19.9,0-29.9,0c-0.9,0.1-1.7-0.8-1.5-1.7c0-21.2,0-42.4,0-63.6C573.7,432.9,573.6,432,574,431.3 M589.4,443.9
			c0,4.6,0,9.2,0,13.9c2.9,0.1,5.8,0,8.7,0c2.2-0.1,4.5,0,6.7-0.8c1.6-0.6,3.1-1.8,3.6-3.4c0.6-2,0.6-4.1-0.2-6
			c-0.6-1.5-2-2.5-3.4-3c-2.7-0.9-5.6-0.7-8.3-0.7C594.1,443.9,591.7,443.7,589.4,443.9 M589.4,470.6c0,5.1,0,10.2,0,15.3
			c2.6,0.1,5.2,0,7.9,0.1c3.3-0.1,6.6,0.2,9.9-0.4c1.7-0.3,3.5-1,4.6-2.5c1.3-1.6,1.4-3.8,1.3-5.7c0-1.7-0.6-3.6-2-4.7
			c-1.5-1.4-3.6-1.8-5.6-2c-2-0.2-4-0.1-5.9-0.1C596.2,470.6,592.8,470.5,589.4,470.6L589.4,470.6z"/>
		<path class="st0" d="M639.1,432.4c-0.1-0.8,0.6-1.6,1.4-1.6c6,0,12.1,0,18.1,0c4.7,0.1,9.4-0.3,14.1,0.5c3.6,0.6,7.2,1.7,10.3,3.7
			c2.7,1.8,4.9,4.4,6,7.5c1.1,2.9,1.2,6.2,1,9.3c-0.4,4-2.4,7.9-5.7,10.2c-0.8,0.7-1.9,1-2.8,1.7c3.3,0.6,6.5,1.9,8.8,4.2
			c3,2.9,4.3,7.1,4.4,11.2c0.1,3.8-0.6,7.7-2.7,10.9c-1.9,3-4.9,5.2-8.2,6.5c-4,1.7-8.4,2.3-12.8,2.4c-9.5,0-19.1,0-28.6,0
			c-0.8,0-1.6,0.1-2.3-0.1c-0.7-0.1-1.1-0.8-1-1.4C639.1,475.7,639.1,454.1,639.1,432.4 M654.8,443.9c-0.1,2.1,0,4.1-0.1,6.2
			c0,2.5-0.1,5.1,0.1,7.7c2.7,0.1,5.4,0,8.1,0c2.5,0,5.1,0,7.4-0.9c1.4-0.5,2.6-1.6,3.2-3c0.6-1.4,0.6-3,0.5-4.5
			c-0.2-1.7-1-3.4-2.6-4.3c-2.2-1.3-4.9-1.4-7.5-1.3C660.9,443.9,657.9,443.7,654.8,443.9 M654.8,470.6c-0.1,1.9,0,3.8-0.1,5.7
			c0,3.2-0.1,6.4,0.1,9.6c3,0.1,6,0,9,0.1c3.1,0,6.2,0.2,9.2-0.5c1.6-0.3,3.2-1.1,4.2-2.4c1.1-1.4,1.3-3.3,1.3-5.1
			c0-1.8-0.4-3.8-1.7-5.1c-1.1-1.2-2.6-1.7-4.2-2c-2.6-0.5-5.2-0.3-7.8-0.3C661.5,470.6,658.1,470.5,654.8,470.6z"/>
		<path class="st0" d="M705.2,431c0.7-0.2,1.4-0.1,2.1-0.2c3.8,0,7.7,0,11.5,0c0.7-0.1,1.3,0.5,1.4,1.2c0.1,0.8,0,1.5,0.1,2.3
			c0,21,0,42,0,62.9c0.1,0.7-0.4,1.5-1.1,1.6c-0.8,0.1-1.6,0-2.3,0.1c-3.5,0-7,0-10.5,0c-0.5,0-1.1,0-1.5-0.4
			c-0.4-0.4-0.4-1-0.5-1.5c0-21.3,0-42.7,0-64C704.4,432.3,704.4,431.3,705.2,431z"/>
		<path class="st0" d="M734.2,431.1c0.5-0.4,1.1-0.3,1.7-0.3c3.9,0,7.8,0,11.7,0c0.8-0.1,1.5,0.4,2,1.1c9.2,13,18.5,26,27.7,39
			c0.4,0.5,0.7,1.2,1.3,1.6c0.1-5.1,0-10.3,0-15.4c0-8,0-15.9,0-23.9c0-0.6-0.1-1.4,0.3-1.9c0.3-0.5,1-0.5,1.5-0.5c4,0,8,0,11.9,0
			c0.6,0,1.3,0,1.7,0.5c0.6,0.6,0.3,1.4,0.4,2.1c0,21.3,0,42.6,0,64c0,0.9-0.8,1.6-1.6,1.5c-4.1,0-8.3,0-12.4,0c-0.8,0-1.5-0.4-2-1
			c-9.5-13.3-19-26.7-28.4-40c-0.2-0.2-0.3-0.4-0.5-0.6c-0.1,2.3,0,4.6-0.1,6.8c0,11,0,22,0,33.1c0,0.4,0,0.9-0.4,1.3
			c-0.4,0.5-1.1,0.4-1.7,0.5c-4.1,0-8.3,0-12.4,0c-0.9,0-1.5-0.9-1.3-1.7c0-21.5,0-43.1,0-64.6C733.7,432.1,733.7,431.5,734.2,431.1
			z"/>
		<path class="st0" d="M859.2,430.9c0.8-0.2,1.7-0.1,2.5-0.1c2.5,0,5,0,7.5,0c0.4,0,1,0,1,0.5c0,0.8,0.1,1.6-0.1,2.4
			c-1.2,0.4-2.6,0-3.8,0.2l0,8.3c0,0.8,0.1,1.5-0.1,2.3c-0.5,0.5-1.3,0.2-1.9,0.3c-0.4-0.1-1.2,0.1-1.2-0.5
			c-0.1-3.5,0.1-6.9-0.1-10.4c-1.3-0.1-2.5,0.1-3.8-0.1C859.1,432.8,859.1,431.9,859.2,430.9L859.2,430.9z"/>
		<path class="st0" d="M871.9,431.1c0.2-0.4,0.7-0.3,1.1-0.3c0.8,0,1.7-0.1,2.5,0.2c1.1,1.7,2,3.5,3,5.3c0.4,0.5,0.5,1.3,1.1,1.7
			c1-1.6,1.9-3.4,2.9-5.1c0.4-0.7,0.6-1.5,1.3-2c1.1-0.1,2.2-0.2,3.3,0c0.2,0.7,0.1,1.5,0.1,2.3c0,3.5,0,7,0,10.5
			c-0.1,0.3,0.1,0.8-0.3,1c-0.8,0.1-1.7,0.1-2.5,0c-0.3,0-0.4-0.4-0.4-0.6c0-2.6,0.1-5.1-0.1-7.7c-1.2,1.6-1.9,3.6-3.1,5.2
			c-0.7,0.3-1.6,0.2-2.3,0.1c-1.3-1.6-2-3.6-3.2-5.3c-0.1,2.6,0,5.1,0,7.7c0,0.3-0.1,0.6-0.4,0.6c-0.8,0.1-1.7,0.1-2.5,0
			c-0.4-0.2-0.3-0.7-0.3-1c0-3.4,0-6.8,0-10.2C871.9,432.7,871.8,431.9,871.9,431.1L871.9,431.1z"/>
	</g>
	<g>
		<path class="st1" d="M210.4,0.1c7-0.1,14.1,0,21.1,0h21.8c11,0,22.1,0.3,33.1,1.5c18.7,2,37.4,6,54.9,13.1
			c13.8,5.7,26.9,13.6,37.3,24.3c5.7,5.9,10.6,12.6,14.2,19.9c6,11.9,8.7,25.3,8.6,38.5c0.1,10.4-1.5,21-5.3,30.7
			c-2.5,6.6-6,12.9-10.3,18.5c-4.7,6.2-10.3,11.7-16.4,16.4c-14,10.8-30.5,17.9-47.3,23.1c-0.6,0.2-1.4,0.3-1.9,0.7
			c9.5,1.2,18.9,3,28,5.8c7.8,2.4,15.5,5.5,22.6,9.6c6.4,3.6,12.4,7.9,17.8,13c5.5,5.2,10.3,11.2,14.1,17.7
			c6.9,11.9,10.6,25.5,11.8,39.1c0.8,8.4,0.7,16.9,0,25.3c-1.2,12.7-4.2,25.3-9.9,36.7c-4.8,9.5-11.5,18.1-19.6,25
			c-8.9,7.6-19.3,13.3-30.2,17.4c-13,4.9-26.7,7.8-40.5,9.4c-9,1.1-18,1.7-27,1.8c-4.7,0.2-9.4,0.1-14.2,0.1h-53.5
			c-3,0-6.1,0.1-9.1,0c0.1-2.3,0-4.7,0-7c0-11.3,0.1-22.6,0-33.8c16.4,0.2,32.7-6.1,45-16.9c10.2-8.9,17.7-20.8,21.1-33.9
			c3.6-13.3,2.9-27.6-1.7-40.6c-4.6-13-13.4-24.5-24.6-32.6c-5.6-4-11.8-7.2-18.3-9.4c-6.9-2.3-14.2-3.4-21.5-3.4
			c0.1-5.6,0-11.1,0-16.7c0-5.3,0.1-10.5,0-15.8c8.9,0,17.9-1.8,26.1-5.2c12-5,22.5-13.4,29.9-24.1c4.4-6.3,7.8-13.4,9.9-20.8
			c4.5-16.1,2.8-33.9-4.7-48.9c-6.3-12.6-16.5-23.1-28.9-29.7c-9.9-5.3-21.1-8.1-32.3-8.1c0.1-4.3,0-8.6,0-12.9
			C210.4,18.7,210.5,9.4,210.4,0.1L210.4,0.1z"/>
		<path class="st1" d="M519.5,3c0.9-1.9,3.1-3.1,5.2-3c19.5,0,39.1,0,58.6,0c5,0,10.1-0.1,15.1,0.1c0,13.8,0,27.6,0,41.4
			c0.1,11,0,21.9,0,32.9c0,22.9,0,45.8,0,68.7c0,11.5,0,23,0,34.5c-0.1,4.9,0,9.8,0,14.7c0,6,0,11.9,0,17.9c0.1,16.9,0,33.7,0,50.6
			c0,5.5-0.1,10.9,0.2,16.4c0.2,5.3,0.5,10.6,1.7,15.7c0.9,4,2.2,7.9,4.5,11.3c2,3,4.7,5.5,7.9,7.1c3.2,1.7,6.7,2.4,10.2,2.8
			c3.5,0.4,7.1,0.1,10.6,0.2c2.7,0,5.2,2.4,5.2,5.2c0,21.1,0,42.2,0,63.3c0,2.9-2.8,5.3-5.6,5.1c-64,0-128,0-191.9,0
			c-1.4,0-2.8,0.1-4-0.5c-2-0.8-3.4-2.9-3.3-5.1c0-20.3,0-40.7,0-61c0-1.3-0.1-2.7,0.5-3.9c0.8-1.8,2.6-3.1,4.5-3.2
			c4.6-0.2,9.3,0.3,13.9-0.4c3.8-0.6,7.5-1.9,10.5-4.4c4-3.2,6.3-8,7.7-12.8c1.8-6.6,2.5-13.4,2.7-20.2c0.1-6.4,0.4-12.8,0.5-19.2
			c0.3-6.4,0.1-12.8,0.2-19.2c0.1-7.1-0.1-14.2,0.1-21.3c0-21.3,0-42.7,0-64c0-0.8,0.1-1.7-0.1-2.5c-11.6,0-23.3,0-34.9,0
			c-2.1,0-4.1-1.3-5-3.2c-0.6-1.2-0.5-2.6-0.5-3.9c0-17.6,0-35.1,0-52.7c0-2.1,1.2-4.1,3-5c1.1-0.6,2.3-0.6,3.5-0.7
			c9-0.7,18-2.6,26.4-6.1c11.7-4.8,22.2-12.4,30.7-21.8c8.7-9.7,15.2-21.4,18.6-33.9c1.3-4.9,2.2-9.8,2.6-14.8
			C518.9,6.3,518.6,4.5,519.5,3L519.5,3z"/>
		<path class="st1" d="M391.7,448.5c4.4-0.7,9,0.5,12.5,3.2c2.5,1.9,4.4,4.5,5.4,7.4c1.4,3.8,1.4,8.1-0.1,11.9
			c-1.5,3.8-4.5,7-8.1,8.7c-3.1,1.6-6.6,2-10,1.5c-3.9-0.7-7.6-2.8-10.1-5.9c-2.4-2.9-3.8-6.7-3.7-10.5c-0.1-4,1.5-8.1,4.2-11.1
			C384.4,451,388,449.1,391.7,448.5L391.7,448.5z"/>
	</g>
</g>
</svg>
