<?xml version="1.0" encoding="utf-8"?>
<!-- Generator: Adobe Illustrator 27.6.1, SVG Export Plug-In . SVG Version: 6.00 Build 0)  -->
<svg version="1.1" id="Carl_x27_s_Jr" xmlns="http://www.w3.org/2000/svg" xmlns:xlink="http://www.w3.org/1999/xlink" x="0px"
	 y="0px" viewBox="0 0 1611.8 500" style="enable-background:new 0 0 1611.8 500;" xml:space="preserve">
<style type="text/css">
	.st0{fill:none;}
	.st1{fill-rule:evenodd;clip-rule:evenodd;fill:#D81F33;}
	.st2{fill-rule:evenodd;clip-rule:evenodd;fill:#FFCE34;}
	.st3{fill:#221F1F;}
</style>
<g>
	<rect y="0" class="st0" width="1611.8" height="500"/>
	<g id="g12">
		<g id="g22" transform="translate(384.4814,228.2077)">
			<path id="path24" class="st1" d="M-73.2,87L70.5,37.8c4.2-1.5,7.1-5.4,7.2-9.9L77.9,11c-0.1,3.5-2.1,7-6.1,8.4L-90,74.8
				l2.9,170.4c0.2,8.8-11,12.6-16.3,5.6l-103-136.1l-161.9,55.5c-1.7,0.6-3.4,0.6-4.9,0.3l-1.1-0.3l20.8,7.7
				c4.6,1.7,9.8,1.8,14.5,0.2l132.8-45.5l99,130.7c12.1,16.2,37.1,7.5,36.9-12.7L-73.2,87z"/>
		</g>
		<g id="g26" transform="translate(357.3425,606.2454)">
			<path id="path28" class="st1" d="M-68.1-597l2.9,170.5l15.7,5.1l-2-120.1c-0.2-10.5-2.3-20.8-6.2-30.4l-10.8-28.1
				C-68.2-599-68.1-598.1-68.1-597"/>
		</g>
		<g id="g30" transform="translate(1.649,484.8384)">
			<path id="path32" class="st1" d="M-0.3-377.3c-0.6-0.8-1-1.6-1.3-2.4l7.2,20.4c2.8,8.6,7,16.6,12.5,23.8l79,103.8l6.5-9.2
				L-0.3-377.3z"/>
		</g>
		<g id="g34" transform="translate(563.2027,333.3476)">
			<path id="path36" class="st2" d="M-107.3-103.2l-163.3-50.2l-3-171c-0.2-8.8-11.4-12.3-16.5-5.1l-98,140.1
				c-21.1-6.6-116.3-35.6-163.4-50c-8.4-2.6-15.1,7.3-9.9,14.2l102.8,136.6l-98,140.3c-5,7.2,2.1,16.7,10.4,13.8l161.5-55.8
				l85.3,113.6l17.4,23.2c5.3,7,16.5,3.2,16.3-5.6l-2.9-171.2L-107-85.9C-98.7-88.8-98.9-100.6-107.3-103.2"/>
		</g>
		<g id="g38" transform="translate(357.3425,606.2454)">
			<path id="path40" class="st1" d="M-68.1-597l2.9,170.5l15.7,5.1l-2-120.1c-0.2-10.5-2.3-20.8-6.2-30.4l-10.8-28.1
				c0.1,0.4,0.3,0.9,0.3,1.4C-68.1-598.1-68.1-597.6-68.1-597"/>
		</g>
		<g id="g42" transform="translate(1.6472,484.8419)">
			<path id="path44" class="st1" d="M-0.3-377.4c-0.3-0.4-0.6-0.8-0.8-1.2c-0.2-0.4-0.4-0.8-0.5-1.2l7.2,20.4
				c2.8,8.6,7,16.6,12.5,23.8l79,103.8l6.5-9.2L-0.3-377.4z"/>
		</g>
		<g id="g46" transform="translate(201.4769,394.1326)">
			<path id="path48" class="st3" d="M-38.4-213.2l1.2,0.6l0.7-0.2c8.6-4.5,17.3-6.2,26.5-5.1c2.1,0.3,3.5-1.3,4-2.9
				c0.5-1.7,0.1-4-2-5c-8.3-3.9-22.4-1.2-30.5,10.2L-38.4-213.2z"/>
		</g>
		<g id="g50" transform="translate(346.9333,349.4701)">
			<path id="path52" class="st3" d="M-66.1-132.4l-1.3-0.2l-0.5-0.5c-4.7-8.6-10.9-14.8-19.1-19.1c-1.9-1-2.2-3.1-1.7-4.7
				c0.5-1.7,2.2-3.4,4.5-3c9.1,1.4,19.2,11.6,19.6,25.6L-66.1-132.4z"/>
		</g>
		<g id="g54" transform="translate(231.6208,302.7486)">
			<path id="path56" class="st3" d="M-44.1-47.8c6.5,8.2,9.4,9.7,14.1,11.2c1.9,0.6,3.8,1,5.9,1c3,0,6.6-0.6,11.9-2.3
				c3.2-1,4.9-2.6,4.7-4.2c-0.2-1.3-1.7-2.3-3.8-2.4c-2.6-0.1-4.1-0.2-5.2-0.3c-2.5-0.1-2.5-0.1-7.1-0.5l-0.5,0
				c-1-0.1-2-0.3-3.1-0.6c-1-0.3-2-0.7-2.9-1.3l-0.3-0.2c-4.1-2.3-4.1-2.3-6.2-3.6c-0.9-0.6-2.2-1.4-4.5-2.7C-43-55-44.7-55-45.6-54
				C-46.7-52.7-46.2-50.4-44.1-47.8"/>
		</g>
		<g id="g58" transform="translate(222.3726,372.1744)">
			<path id="path60" class="st3" d="M-42.3-173.5c-7.5-1.6-14.8,0.1-19.6,4.5c-2.7,2.6-3,5.8-2.1,7.7c0.6,1.3,2.7,2,4.5,1.8
				c1.3-0.1,7.9-0.5,13.6,1.2c5.7,1.8,8.5,4.7,9.3,5.4c0.8,0.7,2.9,1.7,4.1,1.7c1.3,0,2.7-0.4,3.9-1.4c2.3-1.8,3.8-5.4,2.4-8.8
				C-28.8-167.3-34.8-171.8-42.3-173.5"/>
		</g>
		<g id="g62" transform="translate(317.384,342.9996)">
			<path id="path64" class="st3" d="M-60.4-120.7c7.1,2.9,12.3,8.4,13.7,14.8c0.8,3.7-0.7,6.5-2.6,7.6c-1.3,0.8-3.3,0.1-4.7-1
				c-1-0.9-6.2-4.8-12-6.6c-5.7-1.8-9.7-0.8-10.7-0.8c-1,0.1-3.3-0.2-4.4-0.9c-1.1-0.7-2-1.9-2.4-3.3c-0.9-2.8-0.2-6.6,2.9-8.7
				C-75.1-123.1-67.6-123.6-60.4-120.7"/>
		</g>
		<g id="g66" transform="translate(317.1324,262.8152)">
			<path id="path68" class="st3" d="M-60.4,24.4c-1.8-3.1-3.5-7.6-6-6.6c-1.6,0.6-1.1,2.2-1.5,4.1c-0.3,1.4-0.8,2.7-3.6,4.3
				c-2.1,1.2-4.1,2.2-5.9,3c-4.8,2.2-10,4-15.5,5.3c-10.3,2.2-20.3,2-31.7-1.6c-11.4-3.5-19.9-8.9-27.2-16.5
				c-3.9-4.1-7.2-8.5-9.9-13.1c-1.1-1.7-2.1-3.7-3.2-5.8c-1.4-2.9-1.2-4.3-0.6-5.6c0.7-1.7,2-2.8,1.1-4.2c-1.6-2.3-5.4,0.5-8.7,2.1
				c-4.8,2.3-7,2.5-6.3,5.5c0.7,2.9,4.2,0.3,5.2,3.5h0c2.5,8.7,10.8,32.7,30.4,45.9c4,2.7,8.5,5,13.6,6.6l0.1,0l0.1,0
				c5.1,1.5,10.1,2.2,14.9,2.2c23.6,0,43.9-15.2,50.8-21c2.6-2.1,4,2,6.2,0C-56,30.4-57.7,29-60.4,24.4"/>
		</g>
		<g id="g70" transform="translate(1348.4509,455.0148)">
			<path id="path72" class="st3" d="M-256.8-323.4c9.1,0,17.4-6.1,24.3-15c7.7-10,9.6-28.8,5.4-36l-28.3,0.1c1.7,3,4.4,12.2,4.4,17
				c0,11.9-8.9,22.4-11.6,24.1c-2,1.3-2,3.3-2,4.1C-264.5-325.3-262-323.4-256.8-323.4"/>
		</g>
		<g id="g74" transform="translate(1916.9323,225.6281)">
			<path id="path76" class="st3" d="M-365.1,91.7c-11.7,0-22,9.4-23.1,21.1c-1.1,11.6,7.4,21.1,19.1,21.1c11.6,0,22-9.4,23.1-21.1
				C-344.9,101.2-353.4,91.7-365.1,91.7"/>
		</g>
		<g id="g78" transform="translate(1582.4143,152.6502)">
			<path id="path80" class="st3" d="M-301.4,223.8c-13.7-0.4-26.1-9.6-26.1-27.6c0-32.5,40.5-47.4,96.7-52.5
				C-248.7,184.5-268,224.7-301.4,223.8 M5.6,11.8C-24.8,11.8-45,42.7-45,42.7l10.3-26.5h-50.5l-23.6,66.2
				c-15.1,16.7-33.4,26.5-54.9,32.7l67.9-176.3h-22.6l-0.1,0h-52.3C-259.6-61.1-326-6.4-326,49.8c0,18.1,9.6,31.1,20.6,38.2
				c7.8,0,20.9,0,32.5,0c-3.4-4.9-7.8-17.5-7.8-29.1c0-52.8,40.9-99.6,107.3-99.6h13.5c0,0-62.4,162.6-62.9,164
				c-116,8.4-151.1,39.3-151.1,73.7c0,36.8,46.2,50,68.3,50c74.8,0,113.8-62.4,133.8-109.5c18.6-3.7,35.4-10,50.3-19.2l-31.4,88.4
				h50.5l45.8-128.5c0,0,13.6-25,34.5-25c14.8,0,19.8,5,19.8,5l31.8-37.9C29.4,20.2,22.7,11.8,5.6,11.8"/>
		</g>
		<g id="g82" transform="translate(1198.9775,404.1177)">
			<path id="path84" class="st3" d="M-228.3-231.3c0,0-6.7-8.4-23.8-8.4c-30.4,0-50.6,30.9-50.6,30.9l10.3-26.5H-343l-27.3,76.8
				c-1.3,2.3-2.5,4.6-3.6,6.6c-28.6,52.8-58.1,82.1-64.5,82.1c-3,0-3.3-3.2-1-9.3c2.3-6.1,15.5-44.1,41.4-112.2h-48.3
				c-8.4,21.5-26.2,72-33.5,91.5c-12.9,16-32.2,29.5-40.2,29.5c-9,0-9-9-9-11.8c0-27.8,32-129.7,93.1-129.7c14.1,0,24.7,2.4,32,4.8
				l9.2-23.5c-11.4-6.5-24.6-9.9-43.9-9.9c-70.1,0-113.9,57.9-130.7,106.8c-5,10-12.4,24-19.7,36c-22.9,37.5-63.9,58.4-90.9,58
				c-31.9-0.5-47.7-18.4-47.7-66.2c0-51.1,57-185,124.4-185c21.1,0,25.7,18.6,25.7,26.4c0,12.5-4.9,20.1-14.7,29.8h47.2
				c8.8-4.9,17.6-17.4,17.6-33.5c0-19.2-18.7-46.2-71.7-46.2c-120.7,0-188.5,134.2-188.6,214.4c-0.1,78.3,57.1,89.3,95,89.3
				c39.9,0,83.7-24.6,106.7-55.7c3.3-4.8,6.5-9.8,9.5-14.6c4.1,35.5,27.7,36.2,38.6,36.2c15.8,0,36.7-10.5,52.2-23.5
				c1.8,16.4,14.3,23.5,32.7,23.5c18.1,0,36.8-14,54.3-33.8l-12,33.7h50.5l45.8-128.5c0,0,13.6-25,34.5-25c14.8,0,19.8,5,19.8,5
				L-228.3-231.3z"/>
		</g>
		<g id="g86" transform="translate(1325.2614,201.755)">
			<path id="path88" class="st3" d="M-252.4,134.9c-13.1,0-27.2-10-27.2-28.4c0-6,3.5-13.2,6-17.7c3.5-4.2,6.7-8.3,9.5-12.3
				c10.9-14.8,21.6-31.5,30.6-44.1c4.2,22.5,16,32.1,16,61.1C-217.5,110.9-230.2,134.9-252.4,134.9 M-192.7-35.4
				c-9.6,2.4-15.5,5.2-22.4,10.7c-5.1,3.9-9.4,9-15.3,17.2c-5.2,7.5-12.6,18.4-19.8,28.6c-28.8,41.1-59.7,83.3-71,93
				c-15.3,13.2-26.1,18.4-30.5,18.4c-3.1,0-3.3-3.2-1-9.4c2.3-6.1,57.1-149.8,83.1-217.9h-48.3c-7.8,19.9-57.1,149.6-72.3,189.7
				c-3.2,9.2-7.7,22.2-9,32.5c-1.2,21.1,12.2,30.1,32.9,30.1c16,0,36.2-10.8,51.7-23.8c1.5-1.3,3.1-2.7,4.7-4.2
				c3.8-4,7.4-7.9,10.8-11.7c2.9,23.5,26.6,39.2,55.2,39.2c37.6,0,72.5-22.7,72.5-64.7c0-41-24.5-61.4-24.5-86.7
				c0-6.7,6-14.4,13.2-15.1c11.5-1.1,20.7,9.1,20.7,9.1l23-26.7C-138.8-26.8-158.2-44-192.7-35.4"/>
		</g>
	</g>
</g>
</svg>
