<?xml version="1.0" encoding="utf-8"?>
<!-- Generator: Adobe Illustrator 27.6.1, SVG Export Plug-In . SVG Version: 6.00 Build 0)  -->
<svg version="1.1" id="Chick-Fil-A" xmlns="http://www.w3.org/2000/svg" xmlns:xlink="http://www.w3.org/1999/xlink" x="0px"
	 y="0px" viewBox="0 0 1110.6 500" style="enable-background:new 0 0 1110.6 500;" xml:space="preserve">
<style type="text/css">
	.st0{fill:#E51636;}
</style>
<g id="layer1" transform="translate(-97.573684,-530.09168)">
	<g id="g3012" transform="matrix(1.25,0,0,-1.25,98.574014,792.20412)">
		<g id="g3014" transform="scale(0.1,0.1)">
			<path id="path3016" class="st0" d="M8524.6-197.5c-48.5,0-87.9,41.8-87.9,93.3c0,51.6,39.4,93.1,87.9,93.1
				c48.6,0,88-41.6,88-93.1C8612.6-155.7,8573.2-197.5,8524.6-197.5 M8524.6,11.5c-60.3,0-109.3-51.6-109.3-115.8
				c0-64,49.1-116,109.3-116c60.4,0,109.6,52.1,109.6,116C8634.2-40.1,8585,11.5,8524.6,11.5"/>
			<path id="path3018" class="st0" d="M8506.2-122.7h6.9l6.9-0.3c4.8-0.3,8.6-0.8,10.9-2c4.1-1.6,7.4-4.7,8.9-8.8
				c1.1-2.8,1.8-7.6,1.8-14.7c0.4-7.3,1.1-12.9,2.2-16.6h30.5l-1.1,3.4c-0.3,1.2-0.7,2.3-0.7,3.5c0,1.1-0.3,2.2-0.3,3.5v10.6
				c0,12.5-3.3,21.4-10.7,26.8c-4,3.4-9.8,5.5-17.5,7.2c8.5,0.8,15.6,3.6,21.3,8.1c5.9,4.4,8.6,11.9,8.6,21.9
				c0,13.3-5.5,22.9-16.4,28.7c-6.3,3.4-14.2,5.7-24.2,6.3c-1.6,0-9.9,0-25,0.2h-34.1v-120.1h32.1L8506.2-122.7L8506.2-122.7z
				 M8536.1-96.6c-4.1-2.9-10.1-4.5-17.6-4.5h-12.4V-66h7.7c8,0,14.1-0.7,18.6-2.4c6.6-2.8,9.8-7.2,9.8-13.8
				C8542.3-89,8540.4-93.6,8536.1-96.6"/>
			<path id="path3020" class="st0" d="M4215.3-620.5c72.6,0,89.8-72.6,86.4-113.3c-14.4-167.8-241.5-304.3-299-311.1
				C4033.5-697.9,4135.2-624.5,4215.3-620.5 M1952.4-657.5c-45.8-69.9-103.7-146.9-174.7-232.4c3.8,35.1,7.6,68.5,11.7,100.7
				c57,457.4,141.2,611,250.9,591.6c35.7-7.5,50.3-46.3,51.2-77.6C2099.5-374.8,2057.4-497.3,1952.4-657.5 M8158.6-1083.9
				c-55.5,83.9-106.4,173.8-150.4,264.9c-73.6-104.4-155.3-209.4-239.4-309.3C7886.1-1125.4,8020.5-1113.4,8158.6-1083.9
				 M8045.1-402.6c45.9,87.1,74.7,162.9,78.5,219.3c4.1,33.5-1.5,91.4-48.9,91.4C7992.8-91.9,7992.8-224.1,8045.1-402.6
				 M6602.9-954.8c199.5,232.7,301.5,581.7,277.9,724.8c-5.1,30-16.4,53-46,49.4C6741.8-192.6,6524.5-614.3,6602.9-954.8
				 M5452.7-1258c-78.5,25.4-143.8,70-182,117.9c-2.9-2.3-5.5-4.4-8.4-6.5c-0.3-3.6-1.1-7.4-2.1-11
				c-2.1-292.5,97.5-562.9,207.9-549.9C5584.4-1687.1,5529.5-1436.3,5452.7-1258 M5277.9-901.2c226.6,225.6,403.1,547,402,719.1
				c0,33.1-7.4,62.3-38.6,62.3C5570.4-119.8,5339.1-357,5277.9-901.2 M4616.6-1124.6c-91.1-8.3-111.1-216.2-292.9-226.2
				c-124.1-6.9-180.9,148.4-180.9,148.4s351.1,162.4,348.5,513C4485.6-589,4435.7-428,4249.9-428c-80.2,0-169-51.9-221.7-109.2
				c17.9,94.8,34.8,216.6,42.7,382.1c5.2,107.7-70,118.1-99.2,116.5c-21.7-1.1-84.7-17.7-93.3-115.1
				c-28.7-325-33.1-373.2-59.1-579.9c-47.7-379.7-311.4-511.7-483.2-501.7c-73.1,4.3-187.4,44-187.4,244.8
				c0,215.4,134.8,374.9,206.4,365.1c50.4-6.8,76.4-60.1,31.7-136.5c-36.2-63.4-74.1-151.5,19.3-187.8
				c110.8-38.5,192.8,124.7,195.8,275.9c0,117.8-72.8,255.3-251.2,264.2c-187.8,9.4-412.2-250.3-412.2-599.5c0-29.1,2-56.3,5.6-82.3
				c-13.6-78.9-80-159.8-146.1-159.8c-71.8,0-132.4,108-124.9,245.8c8,142.1,50.8,236.7,68.9,293.3c37.1,117.5-6.9,141.3-59.2,151.5
				c-41.1,7.8-106.4-3-140.7-119.9c-31.2-106-71.8-250.9-107.2-357.5c-22-66.3-50-141.8-87-193.5c-32.5-37-67.6-61.3-100.5-61.3
				c-116.1-1.1-17.7,237.6-17.7,401.3c-1.1,46.3-35.9,130.7-151.5,107.3c128,193.7,192.7,359.4,188.7,528.7
				C2259.4-69.7,2129-15.8,2030.6-17.7c-263.6-5.7-401.4-311.2-451.5-1025.5c-237.5-236.9-526.8-379.9-802.7-356.4
				c-390.2,33.4-591.4,437.3-565.3,921.7c36.7,679.7,544.5,1499.7,1028.6,1449.3c169.7-17.8,286.7-176,268.6-519
				c-21.1-397.6-292.3-977.4-578.7-960.4C797.5-500.1,756.2-357,766.3-230.5c21.8,273.9,153.4,349.1,162.2,460.1
				c5.1,65.3-58.2,93.8-104.6,78.3C744.1,281,585.4,72.2,566-224.7c-23.7-362.7,202.6-475.9,336.7-483.9
				c396.8-23.6,784,562.7,816.6,1178.5c20.9,398.6-143.3,655.9-454.2,691.3C660.6,1229.7,25.6,392.1-6.9-485.3
				C-26.4-1009.9,213.3-1559,772.3-1600.8c267.1-18.1,546.5,93.1,791,292.6c-0.4-44.7,0-84.5-0.1-114.3
				c2.2-73.5,27.2-136.9,103.6-134.5c73,2.7,92.2,58.4,90.5,125.3c-0.9,38.8-0.6,76.5,0.2,113.2c16,319.5,166.8,365.7,227.9,354.3
				c84.2-18.7,17.1-99.6,25.5-328.8c6-164.3,133.1-208.1,191.5-208.1c138.1,0,258.1,105.4,328.3,262.5l2.5,1.9
				c61-161,164.5-218.6,247.1-218.6c96.9,0,188.7,74.8,246,157.9c78.4-103.5,193.8-149.1,280-153.3c174.6-8.4,323,75.7,434.4,188.6
				c-13-88.9-28.6-208.3-28.6-227.7c0-52.8,23.4-90.1,72.7-95.9c81.2-9.4,140.5,48,165.9,329.6c0,0,114.8-278,369.7-278
				c255.4,0,365.9,258.5,365.9,337.3C4686.4-1174.1,4678.2-1118.8,4616.6-1124.6 M2161.4,362.8c0,82.5-213.7,238.8-364.6,253.5
				c1.8-44.6,1.4-90.4-1-138c-5.9-112.5-22.1-226.1-47.1-337.6C2026,343.9,2161.4,288.1,2161.4,362.8 M8722.3-1535.2
				c-150.4,8.2-306.3,124.7-445,290.9c-245-59-496.1-70.7-671.2-69.3c-145.3-157.9-284.3-289.4-383.6-364.2
				c0,0-133.9-106.8-198.8-16.1c-38,60.9-18.7,126.5,85.8,196.3c65.2,43.8,147.1,114.3,235.8,201.3
				c-149.8,43.2-113,207.7,33.5,188.8c10.6-1.5,59.2-8.7,134-14.4c145.2,159.8,292.8,343.9,406.7,512.5
				c-53.7,147.9-84.9,288.4-84.9,398.6c0,144.6,78.1,308.4,237.2,308.4c154,0,232.8-135.5,232.8-275.6
				c0-119.2-68.8-280.4-173.8-454.3c60.2-135.7,138-276.5,225.5-397c94.3,32.5,187.2,75.1,274.5,130.2
				c117.6,74.4,218.9-68.9,95.3-160.8c-74.3-49.2-156.5-89.3-242.6-121.7c90.6-92.5,186.1-154.6,278-163
				C8918.5-1358.9,8924.9-1552.5,8722.3-1535.2 M7187.9-1104.7c-18.4-76.4-113.3-296.9-355.3-302.7h-5.3
				c-112.2-1.8-222,55.5-302.9,160.9c-113.8-76-223.4-112.6-302.1-100c-170.6,27.4-221.7,169.9-236.4,262.9
				c-97.8-122.4-227.8-180.6-352.9-192.6c44.6-92.2,67.2-203.1,67.2-305c0-159.1-87.2-321.9-245.1-321.9
				c-220.7,0-352.9,328.2-370.1,647.7c-37.7-14.8-100-26.5-128.9,37.4c-34.9,76.8,51.6,147.6,124.7,191.4
				c12.8,636.8,275.9,1087.3,560.5,1087.3c95.7,0,210.9-61.6,210.9-246.7c0-193.9-108.6-442.2-283.8-663.9
				c-23.8-30.1-79.2-88.9-140.8-149.3c248.7-186.4,399.6,14.5,461.7,137.8c14.8,33,27.2,65.7,36.7,94.4
				c35.3,106.3,25.2,81.5,58.4,186.9c47.4,150.1,124.3,143.6,159.1,137.7c123.9-21.8,49.7-167.1,19.3-294.9l-1.4-3.1
				c-46.6-217.8-24.9-390.6,103.5-417.4c41-6.4,111.8,19,184.2,73.5c-169.3,464.3,89.3,1014,356.9,1067
				c89.4,17.7,206.9-17,236.5-184.4c30.7-175.6-31-420.2-159.3-653.1c-29-52.9-112.5-171.7-211.5-262.1c0.6-0.9,1-1.7,1-1.9
				c75-104.3,169.9-101.7,169.9-101.7c140.6,0.8,182.9,114.8,200.2,162c19.9,54.1,60.7,72,103.8,57.5
				C7193.5-1016.9,7196.9-1067.9,7187.9-1104.7 M6191-137.7c-59.6,0-107.9-50.9-107.9-114.2c0-63,48.3-114.1,107.9-114.1
				c59.5,0,107.6,51.1,107.6,114.1C6298.7-188.6,6250.6-137.7,6191-137.7 M7405.7-854.9c137.6,0,191,56.9,191,115.4
				c0,75.1-85.1,111.4-190.8,110.3c-108.2-1.2-185.1-43.6-185.1-111.3C7220.8-795.6,7268.1-854.9,7405.7-854.9 M4786.1-855.3
				c138,0,191.9,57.2,191.9,115.9c0,75.5-85.5,111.8-191.9,110.7c-108.6-1.2-185.6-43.8-185.6-111.7
				C4600.4-795.9,4648-855.3,4786.1-855.3 M2738-251.8c-62.8,0-113.5-53.7-113.5-120.2c0-66.3,50.8-120,113.5-120
				c62.5,0,113.4,53.7,113.4,120C2851.4-305.5,2800.5-251.8,2738-251.8 M364.6,1420.8c-51.5-64.2-35.5-168.6,58-253.1
				c93.5-84.8,223.4-112.3,275.1-48.2c51.7,64.2,5.6,195.9-87.9,280.5C516.4,1484.7,416.6,1484.9,364.6,1420.8 M734.8,1879.7
				c-100.5-48.8-136.2-194.2-62.2-365.2c73.9-171.1,224.9-292.2,325.3-243.6c100.6,48.9,112.7,249.3,38.7,420.4
				C962.6,1862.2,835.3,1928.4,734.8,1879.7 M1500.4,2091.9c-133.6,30.9-270.4-84.2-316.7-310.3c-46.5-226,18.2-463.6,151.9-494.2
				c133.5-30.8,285.6,156.8,331.9,382.8C1713.9,1896.3,1634,2061.4,1500.4,2091.9 M2465.2,1724.4c-102,145.2-322.7,154.1-545.7-21.5
				c-223-175.6-350.2-458.3-248.2-603.9c102-145.2,394.4-98.2,617.6,77.4C2511.8,1352.1,2567.1,1578.8,2465.2,1724.4 M1389.7,598.6
				c-2.5-118-138.4-262-203.3-151.1c-35.4,84.9,53.5,239.4,135.9,242C1388.6,689.5,1390.2,626.7,1389.7,598.6"/>
		</g>
	</g>
</g>
</svg>
