<?xml version="1.0" encoding="utf-8"?>
<!-- Generator: Adobe Illustrator 27.6.1, SVG Export Plug-In . SVG Version: 6.00 Build 0)  -->
<svg version="1.1" id="Dunkin_x27_" xmlns="http://www.w3.org/2000/svg" xmlns:xlink="http://www.w3.org/1999/xlink" x="0px"
	 y="0px" viewBox="0 0 2581 500.2" style="enable-background:new 0 0 2581 500.2;" xml:space="preserve">
<style type="text/css">
	.st0{fill:#EF6A00;}
	.st1{fill:#C63663;}
</style>
<g>
	<path class="st0" d="M181.3,10.6H76.9C32.3,10.6,0,42.9,0,87.4v325.4c0,44.5,32.3,76.9,76.9,76.9h104.4
		c149.3,0,253.6-98.5,253.6-239.6C435,109.1,330.7,10.6,181.3,10.6z M186.5,362.5h-53.4V137.7h53.4c67.9,0,115.3,46.2,115.3,112.4
		C301.8,316.4,254.4,362.5,186.5,362.5z"/>
	<path class="st0" d="M883.1,68.2c0-39.4-28-68-66.5-68c-38.5,0-66.5,28.7-66.5,68v223.3c0,43.1-32.4,76.9-74,76.9
		c-41.4,0-74-33.8-74-76.9V68.2c0-39.4-28-68-66.5-68c-38.5,0-66.5,28.7-66.5,68v229.3c0,119.3,85.1,202.6,207.1,202.6
		c121.9,0,207.1-83.3,207.1-202.6V68.2z"/>
	<path class="st0" d="M1763.7,376l-113.2-128l105.5-123.6c15.3-17.9,23.4-36,23.4-52.5c0-40.2-30.9-71.8-70.2-71.8
		c-20,0-38.5,11-56.8,33.5l-119.2,159.6V68.2c0-40.7-26.8-68-66.5-68c-39.8,0-66.5,27.3-66.5,68V432c0,40.7,26.8,68,66.5,68
		c39.8,0,66.5-27.3,66.5-68V305.9l128,162.7c18.4,22.3,34.3,31.4,54.7,31.4c39.4,0,68.1-30.2,68.1-71.8
		C1783.9,409.6,1776.6,390.6,1763.7,376z"/>
	<path class="st0" d="M1951.1,68.2c0-40.7-26.8-68-66.5-68c-39.8,0-66.5,27.3-66.5,68V432c0,40.7,26.8,68,66.5,68
		c39.8,0,66.5-27.3,66.5-68V68.2z"/>
	<path class="st1" d="M2580.5,72.1c4.3-36.8-23.1-60.2-51.2-63.4c-23.3-2.8-41.2,4.3-53.2,20.9c-9,12.4-14.6,31.1-18,60.4
		c-3.6,30.4-3.2,50.9,1.1,64.3c6,18,19.9,29.1,39,31.3c36.2,4.2,53.3-25,74.1-84C2576.6,89.5,2579.9,77.9,2580.5,72.1z"/>
	<path class="st0" d="M1063.8,246.3v185.8c0,40.7-26.8,68-66.5,68c-39.8,0-66.5-27.3-66.5-68V68.2c0-40.7,26.8-68,66.5-68
		c19.2,0,36.7,7.1,47,17.6c10.2,10.4,177.3,236.3,177.3,236.3V68.2c0-40.7,26.8-68,66.5-68s66.5,27.3,66.5,68V432
		c0,40.7-26.8,68-66.5,68c-19.2,0-36.7-7-47-17.6C1230.6,472,1063.8,246.3,1063.8,246.3z"/>
	<path class="st0" d="M2130.5,246.3v185.8c0,40.7-26.8,68-66.5,68c-39.8,0-66.5-27.3-66.5-68V68.2c0-40.7,26.8-68,66.5-68
		c19.2,0,36.7,7.1,47,17.6c10.2,10.4,177.3,236.3,177.3,236.3V68.2c0-40.7,26.8-68,66.5-68c39.8,0,66.5,27.3,66.5,68V432
		c0,40.7-26.8,68-66.5,68c-19.2,0-36.7-7-47-17.6C2297.5,471.9,2130.5,246.3,2130.5,246.3z"/>
	<path class="st0" d="M2491.8,450.5h-11.1c-2.2,0-3.7,1.4-3.7,3.7v26.6c0,2.2,1.4,3.7,3.5,3.7c2.1,0,3.6-1.6,3.6-3.7V472h4.4l8,10.8
		c0.7,1,1.8,1.6,2.9,1.6c2.2,0,3.6-1.3,3.6-3.6c0-0.9-0.3-1.6-1.3-2.9l-5-6.9l1.6-1.1c2.7-1.9,4.1-5,4.1-8.7
		C2502.6,454.9,2498.1,450.5,2491.8,450.5z M2489.2,466.9h-5.2v-11.3h5.2c3.5,0,6.1,2.3,6.1,5.7S2492.9,466.9,2489.2,466.9z"/>
	<path class="st0" d="M2489.2,434.8c-18.5,0-33.7,14.7-33.7,32.7c0,18,15.1,32.7,33.7,32.7c18.6,0,33.7-14.7,33.7-32.7
		C2522.9,449.5,2507.8,434.8,2489.2,434.8z M2489.2,494.2c-14.8,0-26.9-12-26.9-26.8c0-14.8,12-26.9,26.9-26.9
		c14.8,0,26.9,12,26.9,26.9C2516.1,482.2,2504.1,494.2,2489.2,494.2z"/>
</g>
</svg>
