<?xml version="1.0" encoding="utf-8"?>
<!-- Generator: Adobe Illustrator 27.6.1, SVG Export Plug-In . SVG Version: 6.00 Build 0)  -->
<svg version="1.1" id="Guzman_Y_Gomez" xmlns="http://www.w3.org/2000/svg" xmlns:xlink="http://www.w3.org/1999/xlink" x="0px"
	 y="0px" viewBox="0 0 499.8 500" style="enable-background:new 0 0 499.8 500;" xml:space="preserve">
<style type="text/css">
	.st0{opacity:0.5;fill-rule:evenodd;clip-rule:evenodd;fill:#222222;enable-background:new    ;}
	.st1{fill-rule:evenodd;clip-rule:evenodd;fill:#FBCE20;}
	.st2{fill:#FFD10B;}
	.st3{fill:#FFECB9;}
	.st4{fill:#231F20;}
</style>
<g>
	<g id="Page-1">
		
			<g id="logo-gomex" transform="translate(72.232558, 73.113091) rotate(-7.000000) translate(-72.232558, -73.113091) translate(0.232558, 0.613091)">
			<path id="Fill-32" class="st0" d="M231.3,520.3c-135.2,0-244.7-109.5-244.7-244.7C-13.4,140.4,96.1,31,231.3,31
				c135.2,0,244.7,109.5,244.7,244.7C475.9,410.5,366.5,520.3,231.3,520.3z"/>
			<path id="Fill-1" class="st1" d="M222.3,508.5C87.1,508.5-22.4,399-22.4,263.8c0-135.2,109.5-244.7,244.7-244.7
				s244.7,109.5,244.7,244.7C466.9,399,357.4,508.5,222.3,508.5z"/>
		</g>
	</g>
	<g>
		<g>
			<g>
				<path class="st2" d="M489.7,226.2c10.8,134.5-89.3,252.3-223.8,263.1C131.4,500.4,13.6,400,2.8,265.8
					C-8,131.4,92.1,13.5,226.6,2.8S478.6,92.1,489.7,226.2"/>
				<polygon class="st3" points="242.3,196 257.2,25.4 255.1,196.7 313.8,35.8 267.6,200.9 366,60.5 278.7,207.8 410.1,98 
					287.4,217.5 442.8,145.3 293.3,229.4 462.2,199.5 296.1,241.9 466.8,257.2 295.4,255.1 456.3,313.8 291.6,267.6 431.7,365.9 
					284.3,278.4 394.5,409.7 274.6,287.4 346.9,442.7 263.1,293.3 292.6,461.8 250.2,296.1 235.3,466.7 237,295.4 178.3,456.3 
					224.9,291.2 126.2,431.6 213.8,284.3 82.4,394.1 205.1,274.5 49.7,346.8 199.2,262.7 30.3,292.3 196.4,250.2 25.7,234.9 
					197.1,237 36.2,178.3 200.9,224.5 60.8,126.1 208.2,213.7 98,82.4 217.6,204.7 145.6,49.3 229.4,198.8 199.9,30.2 				"/>
				<path class="st4" d="M148.8,248.5l0.7-0.7l-0.3-0.3h-0.3l-48.7,4.2l-0.3,0.3l0.7,0.7l-0.7,0.7l0.7,0.7l-0.7,0.7l0.7,0.7
					l-0.7,0.7l0.7,0.7l-0.3,0.7l0.7,0.7l-0.7,0.7l0.7,0.7l-0.7,0.7l0.7,0.7l-0.3,0.3l0.7,0.7l-0.7,0.7l0.7,0.7l-0.7,0.7l0.7,0.7
					l-0.7,0.3l0.7,0.7l2.4,29.5c-0.3,0-0.3,0-0.7,0l0,0l0.7,0.7l-0.3,0.7l0,0l0.7,0.3l-0.3,0.3v0.3l0.3,0.3l-0.3,1v0.3l0.3,0.3v0.3
					v0.7l0.3,0.3l-0.3,0.3v0.7l0,0l0,0v1l0,0l0,0l0.3,2.1l0.3,4.5l0.3,0.3h0.3l0.3-0.3l0.3,0.3h0.3l0.3-0.3l0.3,0.3h0.3l0.3-0.3
					l0.3,0.3h0.7l0.3-0.3l0.3,0.3h0.7l0.3-0.3l0.3,0.3h0.7l0.3-0.3l0.3,0.3h0.7l0.3-0.3l0.3,0.3h0.7l0.3-0.3l0.3,0.3h1l0.3-0.3h0.3
					h1l0.3-0.3l0,0h0.7c0,0,0-1.7-0.3-2.1c1.7-0.3,15.3-2.4,17-2.4l0.3,2.4l0.7-0.7l0.7,0.7l0.7-0.7l0.7,0.7l0.7-0.7l0.7,0.7
					l0.7-0.7l0.7,0.7l0.7-0.7l0.7,0.7l0.7-0.7l0.7,0.7l0.7-0.7l0.7,0.7l0.7-0.7l0.7,0.7l0.7-0.7l0.7,0.7l0.7-0.7l0.7,0.7l0.7-0.7
					l0.7,0.3l-0.3-3.5c0.3,0,0.7,0,0.7,0l-2.4-12.2c0,0-0.3-5.9-0.7-7.6c0.3,0,0.7,0,0.7,0l-0.7-14.2l-25.4,1.7l0.7,14.2
					c0,0,9-0.3,10.8-0.7l0.3,5.9c-1.7,0.3-15.3,2.4-17,2.8l-2.4-28.5c1.7,0,29.5-2.4,34.8-3.1l-0.3-0.3l0.7-0.7l-0.7-0.7l0.7-0.7
					l-0.7-0.7l0.3-0.7l-0.7-0.7l0.7-0.7l-1-0.7l0.7-0.7l-0.7-0.7l0.7-0.7l-0.7-0.3l0.7-0.7l-0.7-0.7l0.7-0.7l-0.7-0.7l0.7-0.7
					l-0.7-0.7l0.7-0.7L148.8,248.5z"/>
				<path class="st4" d="M147.4,322.5L147.4,322.5l-1-0.7H146v-0.3l-0.7-0.3h-0.3l-0.3-0.3l-0.7-0.3h-0.3l-0.3-0.3l-0.3-0.3
					l-0.3,0.3l-0.3,0h-0.3h-0.3l-0.3-0.7l0,0l-0.7,0.3l-0.3-0.7l0,0l-0.7,0.3l-0.7-1l-0.7,0.3l-0.3-0.7l-0.7,0.3V318
					c-1.4,3.1-9.7,21.5-10.1,22.2h-2.1c-0.3-0.7-10.8-17.7-12.5-20.2v0.3l-1-0.3l-0.3,1h-0.7l-0.3,0.7h-1l-0.3,0.7l-0.7-0.3
					l-0.3,0.7l-0.7-0.3l0,0l-0.3,0.7l-0.7,0.3l0,0l-0.3,0.7l-0.7-0.3l0,0l-0.3,0.7h-0.7l0,0l-0.3,0.7h-0.7l0,0l-0.3,0.7h-0.7l0,0
					l18.1,29.2c0,0,0.7-0.7,1-0.7c0.3,2.1,1.7,16.3,2.1,19.5l0.3-0.3l0.7,0.7l0.7-0.7l0.7,0.7l0.7-0.7l0.7,0.7l0.7-0.7l0.7,0.7
					l0.7-0.7l0.7,0.7l0.7-0.7l0.7,0.3l0,0l0.7-0.7l0.7,0.3h0.3l0.3-0.3l0.3,0.3h0.3l0.3-0.3l0.3,0.3h0.3l0.3-0.3l0.3,0.3l0,0
					c0,0-1.7-17.7-2.1-20.5l1,0.7l14.2-31.3H147.4L147.4,322.5z"/>
				<path class="st4" d="M198.5,293L198.5,293l0.7,0.7l-0.3,0.3l0.7,0.7l-0.3,0.7l0,0l0.7,0.7l-0.3,0.7c0,0,0,0,0,0.3l0.7,0.7
					l-0.3,0.7c0,0,0,0,0,0.3l0.7,0.7l-0.3,0.7c0,0,0,0,0,0.3l0.7,0.7l-0.3,0.7c0,0,0,0,0,0.3l0.7,0.7l-0.3,0.7c0,0,0,0,0,0.3l0,0
					l43.1-1.7V302l0.7-0.7l-0.7-0.7l0.7-0.7l-0.7-0.7l0.7-0.7l-0.7-0.7l0.7-0.7l-0.7-0.7l0.7-0.7L244,295l0.7-0.7l-2.8-2.1l0.7-0.7
					l-0.7-0.7l0.7-0.7l-0.7-0.7l0.7-0.7l-0.7-0.7l0.7-0.7l-0.3-0.3l-27.5,1.7l22.6-30.6l2.8-0.3c0,0-0.3-2.1-0.3-2.8
					c0.3-0.3,1.4-1.7,1.4-1.7s-1-0.7-1.4-1l-0.3-0.3c0,0,0-0.3,0-0.7l-0.3-0.3l0.3-0.3v-0.3l-0.3-0.3l0.3-0.7v-0.3l-0.7-0.3l0.3-0.7
					c0,0,0,0,0-0.3l-1-0.3l0.3-0.7c0,0,0,0,0-0.3l-0.7-0.3l0.3-0.3h-0.7l-41.7,6.3l-0.3,0.3l0.7,0.7l-0.3,0.7l0.7,0.7l-0.3,0.7
					l0.7,0.7l-0.3,0.7l0.7,0.7l-0.3,0.7l0.7,0.7l-0.3,0.7l0.7,0.7l-0.3,0.7l0,0l0.7,0.7l-1.7,0l0,0l0.7,0.3l-0.3,0.7v0.3l0.7,0.3
					l-0.3,0.7v0.3l0.3,0.3l22.6-3.5l-22.9,31.3C197.1,291.9,198.1,292.6,198.5,293"/>
				<path class="st4" d="M209.9,319.4l0.7-0.7l-0.7-0.7l0.7-0.7l-0.7-0.7l0.7-0.7l-0.7-0.7l0.7-0.7l-0.7-0.7l0.7-0.7l-1,0l0.7-0.7
					l-0.7-0.7l0.7-0.7l-0.7-0.7l0.7-0.7l-0.7-0.7l0.7-0.7l-0.7-0.7l0.7-0.7l-0.3-0.3h-0.7l-49.7,4.9l0.3,0.3l-0.3,0.7v0.3l0.3,0.3
					l-0.3,0.7v0.3l0.3,0.3l-0.3,0.7v0.3l0.3,0.3l-0.3,0.3v0.3l0.3,0.3l-0.3,0.3v0.3l0.3,0.3l-0.3,0.3v0.3l0.3,0.3l-0.3,0.7v0.3
					l0.3,0.3l-0.3,0.3v0.3l0.3,0.3l-0.3,0.3v0.3l0.3,0.3l-0.3,0.3v0.3l0.3,0.3l-0.3,0.3l0,0c0,0,0.3,0,0.7,0l2.4,29.5
					c-0.3,0-0.7,0-0.7,0l1.7,10.4l0.3,4.2l0.7,0.3l0.7-0.7l0.7,0.7l0.7-0.7l0.7,0.7l0.7-0.7l0.7,0.7l0.7-0.7l0.7,0.7l0.7-0.7
					l0.7,0.7l0.7-0.7l0.7,0.7l0.7-0.7l0.7,0.7l0.7-0.7l0.7,0.7l0.7-0.7l0.7,0.7l0.7-0.7l0.7,0.7l0.7-0.7v-1.4
					c1.7-0.3,15.3-2.4,17-2.4l0.3,2.4l0.3,0.3h0.3l0.3-0.7l0.7,0.3l0,0l0.7-0.7l0.7,0.3l0,0l0.7-0.7l0.7,0.3l0,0l0.7-0.7l0.7,0.7
					l0.7-0.7l0.7,0.3l0.7-0.7l0.7,0.7l0.7-0.7l0.7,0.7l0.7-0.7l0.7,0.7l0.7-0.7l0.7,0.3l0.7-0.7l0.7,0.3l0.7-0.7l-0.3-3.1
					c0.3,0,0.7,0,0.7,0l-1.7-11.1c0,0-0.3-5.9-0.7-7.3c0.3,0,0.3,0,0.7,0V342v-0.3l-0.3-0.3l0.3-0.7v-0.3l-0.7-0.3l0.3-0.7l0,0
					l-0.7-0.3l0.3-0.7l0,0l-0.7-0.7l0.7-0.7l-1.4,0.7l0.7-0.7l-0.7-0.3l0.7-0.7l-0.7-0.7l0.7-0.7l-0.7-0.7l0.7-0.7l-0.7-0.7l0.7-0.7
					l-0.7-0.7v-0.3l-0.7-0.7l0.3-0.3l-24.3,1.4l-0.3,0.7v0.3l0.7,0.7l-0.3,0.7l0,0l0.7,0.7l-0.7,0.7l0,0l0.7,0.7l-0.7,0.7l0.7,0.7
					l-0.7,0.7l0.7,0.7l-0.7,0.7l0.7,0.7l-0.7,0.7l0.7,0.7l-0.3-0.3l0.7,0.7l-0.7,0.7l0.7,0.7l-0.7,0.7l0.7,0.7l-0.7,0.7l0.3,0.3
					c2.1,0,8.7-0.3,9.7-0.7l0.3,5.9c-1.7,0.3-15.3,2.4-17,2.8l-2.4-28.5c1.7,0,32-2.8,35.1-3.1l-0.3-0.3l0.7-0.7L209.9,319.4z"/>
				<path class="st4" d="M195.7,296.4l-2.4-44.8l0,0l-0.3,0.7l-0.7-0.3l0,0l-0.7,0.7l-0.7-0.3l0,0l-0.7,0.7l-0.7-0.7l-0.7,0.7
					l-0.7-0.7l-0.7,0.7l-0.7-0.7L186,253l-0.7-0.7l-0.7,0.7l-0.7-0.3l-0.7,0.7l-0.7-0.7l-0.7,0.7l-0.7-0.7l-0.7,0.7l0,0v0.3
					c0,0,2.1,35.8,2.1,37.5c-1.4,0.3-12.9,2.1-14.6,2.1c-0.3-2.1-3.8-38.9-3.8-39.3l0,0h-0.3l-0.3,0.3l-0.7-0.3h-0.3l-0.3,0.3
					l-0.3-0.3h-0.3l-0.3,0.3l-0.3-0.3h-0.3l-0.7,0.7l-0.3-0.3h-0.3l-0.3,0.3l-0.3-0.3h-0.3l-0.3,0.3l-0.3-0.3h-0.3l-0.3,0.3
					l-0.3-0.3h-0.7l-0.3,0.3l-0.3-0.3H154l-0.3,0.3l-0.3-0.3h-0.7l-0.3,0.3l-0.3-0.3h-0.3l4.9,48.3c0,0,1.4,0,1.7-0.3
					c0.3,1,0.7,3.8,0.7,3.8l37.5-5.6L195.7,296.4z"/>
				<path class="st4" d="M244.7,295.4L244.7,295.4L244.7,295.4z"/>
				<path class="st4" d="M379.5,234.2L379.5,234.2l-0.7,0.3l-0.3-0.3h-0.3l-0.3,0.3l-0.3-0.3h-0.3l-0.3,0.3l-0.7-0.3h-0.3l-0.3,0.3
					l-0.3-0.3h-0.3l-0.3,0.3l-0.7-0.3h-0.3l-0.3,0.3l-0.7-0.3h-0.3l-0.3,0.3l-0.7-0.3h-0.3l-0.3,0.7l-0.7-0.3h-0.3l-0.3,0.3
					l-0.7-0.3h-0.3l-0.3,0.7l-0.3-0.3c0,1,1.7,18.1,2.4,25.7c-3.1-7.3-11.1-25.4-11.5-26.4l0,0c0,0,0,0-0.3,0l-0.3,0.7l-0.7-0.3
					c0,0,0,0-0.3,0l-0.3,0.7l-0.7-0.3c0,0,0,0-0.3,0l-0.3,0.7l-0.7-0.3h-0.3l-0.3,0.7l-0.7-0.3h-0.3l-0.3,0.7L351,236h-0.3l-0.3,0.7
					l-0.7-0.3h-0.3l-0.3,0.7l-0.3-0.3h-0.3l-0.3,0.3l-0.3-0.3h-0.3l-0.3,0.3l-0.3-0.3c-1.4,0-5.2,0.3-5.2,0.3s2.4,39.3,2.4,44.5
					c0-0.3-20.9-44.8-21.9-46.9l-0.3,0.7l-0.7-0.3l0,0l-0.3,0.7l-0.7-0.3c0,0,0,0-0.3,0l-0.3,0.7l-0.7-0.3H318l-0.3,0.7L317,236
					h-0.3l-0.3,0.7l-0.3-0.3l-0.7,0.7l-0.3-0.3l-6.3-1.7l-13.6,51.4l1,0.3v-0.3l0.3,0.7h0.3l0.7-0.3l0.3,0.7h0.3l0.7-0.3l0.3,0.7
					l0,0l0.7-0.3l0.3,0.7l0,0l0.7-0.3l0.3,0.7l0,0l0.7-0.3l0.3,0.7l0.7-0.3l0.3,0.7l0.7-0.3l0.3,0.7l0.7-0.3l0.3,0.7l0.7-0.3
					c0.7-2.4,3.1-11.8,3.5-12.9c1.4,0,15.6-0.7,16-0.7c1.7,3.8,5.6,12.2,5.6,12.2s0,0,0.3-0.3v-0.3h0.3c0.3,0,0.3-0.3,0.7-0.3v-0.3
					h0.3c0,0,0.3,0,0.3-0.3l0.3-0.3h0.7h0.3l0.3-0.7l0.7,0.3c0,0,0,0,0.3,0l0.3-0.7l0.7,0.3l0,0l0.3-0.7l0.7,0.3l0.3-0.7l0.7,0.3
					l0.3-0.7l0.7,0.3l0.3-0.7v0.7l1.7-0.7c0,0,0,2.4,0,2.8l0.3-0.3l0.3,0.3h0.7l0.3-0.3l0.3,0.3h0.7l0.3-0.3l0.3,0.3h0.7l0.3-0.3
					l0.3,0.3h0.7l0.3-0.3l0.3,0.3h0.7l0.3-0.3l0.3,0.3h0.7l0.3-0.3l0.3,0.3h0.7l0.3-0.3l0.3,0.3h0.7l0.3-0.3l0.3,0.3h0.7l0.3-0.3
					l0.3,0.3h0.3c0,0-1-16.7-1.4-24c2.8,6.3,10.4,23.6,10.4,23.6h0.3c0.7-0.3,3.1-1.4,4.2-1.7c0,0,0,0.7,0,1l0.3,0.3l0.7-0.7
					l0.7,0.7l0.7-0.7l0.7,0.7l0.7-0.7l0.7,0.7l0.7-0.7l0.7,0.7l0.7-0.7l0.7,0.3l0.7-0.7l0.7,0.7l0.7-0.7l0.7,0.7l0.7-0.7l0.7,0.7
					l0.7-0.7l0.7,0.7l0.3-0.3L379.5,234.2z M316.3,265.8c0.3-1.7,1.7-6.3,2.4-9.4c1.4,2.8,3.5,7.3,4.2,9
					C321.1,265.8,317.7,265.8,316.3,265.8"/>
				<path class="st4" d="M377.8,339.2c1.4-2.8,12.9-26.8,13.6-27.8c0.7,0,2.4-0.3,2.4-0.3s-0.3-3.1-0.7-3.5c0.3-0.3,1-2.1,1-2.1
					s-0.3,0-0.3-0.3l0,0l0,0l0,0l0,0v-0.3l0,0v0.3v-0.3l0,0v0.3v-0.3v0.3l-0.3-0.3l0.3-0.3l0,0c0,0,0-0.3,0-0.7l-0.3-0.3l0.3-0.3
					v-0.3l-0.3-0.3l0.3-0.3v-0.3l-0.3-0.3l0.3-0.7v-0.3l-0.7-0.3l0.3-0.7v-0.3l-0.7-0.3l0.3-0.3h-0.7l-35.8,5.6l0.7,0.3l-0.7,0.7
					l0.7,0.7l-0.7,0.7l0.7,0.7l-0.7,0.7l0.7,0.7l-0.7,0.7l0.7,0.7l-0.7,0.7l0.7,0.7l-0.7,0.7l0.7,0.7l-0.7,0.7l0.7,0.7l-0.7,0.7
					l0.7,0.7l-0.3,0.7l0.7,0.7l-0.3,0.7c3.8-0.7,17-2.4,19.5-3.1c-1.4,3.1-12.2,25-12.5,26.1c-0.7,0-3.1,0-3.1,0s0.3,5.6,0.3,5.9
					c0,0.3-1,2.4-1,2.4s1,0.7,1.4,0.7c0,0.7,0,4.2,0,4.2s7.3-0.3,7.6-0.3c0.3,0.3,2.4,1.4,2.4,1.4s0.7-1,0.7-1.4c1,0,21.9-1,25-1
					l-0.3-0.3l0.7-0.7l-0.7-0.7l0.7-0.7l-0.7-0.7l0.7-0.7l0,0l-0.7-0.7l0.7-0.7l0,0l-0.7-0.7l0.7-0.7l0,0l-0.7-0.7l0.7-0.7l0,0
					l-0.7-0.7l0.3-0.7l0,0l-0.7-0.7l0.3-0.7l0,0l-1.4-0.3l0.3-0.7v-0.3l-0.7-0.7l0.3-0.7v-0.3l-0.3-0.3
					C393.8,338.5,380.6,339.2,377.8,339.2"/>
				<path class="st4" d="M309.7,304.8L309.7,304.8l-0.7,0.7l-0.7-0.3l0,0l-0.7,0.7l-0.7-0.3l0,0l-0.7,0.7l-0.7-0.3l0,0l0,0l-0.7-0.3
					l0,0l-0.7,0.7l-0.7-0.3l0,0l-0.7,0.3l-0.7-0.3l0,0l-0.3,0.3l-0.7-0.3h-0.3l-0.3,0.3l-0.7-0.3h-0.3l-0.3,0.7l-0.3-0.7h-0.3
					l-0.3,0.7l-0.7-0.3l0,0l0.3,2.8l-6.6-1c0,0-3.8,27.1-4.5,32.7c-2.4-5.2-14.2-32.3-14.9-33.7l0,0h-0.3l-0.7,0.3l0,0v0.3h-0.3
					c0,0-0.3,0-0.7,0.3v0.3h-0.7h-0.3l-0.3,0.7l-0.7-0.3l0,0l-0.7,1l-1-0.3l-0.3,0.7l-0.7-0.3l-0.3,0.7h-0.3l-0.3,0.7l-0.7-0.3
					l-0.3,0.7v-0.7l-0.7,0.3l0.3-0.3l-0.7,0.3l0,0c-0.3,0-3.1,0.3-3.1,0.3l2.8,49.3l0.3,0.3h0.3l0.3-0.3l0.7,0.3h0.3l0.3-0.3
					l0.7,0.3h0.3l0.3-0.7l0.7,0.3l0,0l0.7-0.7l0.7,0.3l0,0l0.7-0.7l0.7,0.7l0.7-0.7l0.7,0.7l0.7-0.7l0.7,0.7l0.7-0.7l0.7,0.7
					l0.7-0.7l0.7,0.7l0.7-0.7h0.3c0-2.4-0.7-11.1-1-16.3c2.8,5.9,7.6,17,7.6,17s5.6-2.4,5.9-2.4c0.7,0,9.7,1.4,9.7,1.4
					s2.1-14.9,3.5-24c0.7,8,1.7,20.2,2.1,22.9l0.3,0.3l0.7-0.7l0.7,0.7l0.7-0.7l0.7,0.7l0.7-0.7l0.7,0.7l0.7-0.7l0.7,0.7l0.7-0.7
					l0.7,0.7l0.7-0.7l0.7,0.7l0.7-0.7l0.7,0.7l0.7-0.7l0.7,0.7l0.7-0.7l0.7,0.7l0.7-0.7l0.3,0.3L309.7,304.8L309.7,304.8z"/>
				<path class="st4" d="M292.3,241.2L292.3,241.2h-0.3h-0.7l-0.3,0.3l-0.3-0.3h-0.7l-0.3,0.3l-0.3-0.3h-0.7l-0.3,0.7l-0.3-0.3h-0.7
					l-0.3,0.3l-0.3-0.3H286l-0.3,0.3l-0.3-0.3H285l-0.3,0.3l-0.7-0.3h-0.3l-0.3,0.3l-0.7-0.3h-0.3l-0.3,0.7h-0.7h-0.3l-0.3,0.7
					l-0.7-0.3h-0.3l0,0c0,0,0.3,2.1,0.3,2.8l-1,0.7l-0.7-0.7l-0.3,0.3L277,245l-0.7,0.3l-0.7-0.7l-0.7,0.3l-0.7-0.7l-0.7,0.3
					l-0.3-0.7c-0.3,2.1-4.5,31.6-4.5,31.6l-14.6-32.7l-0.7,0.7v0.3H253c-0.3,0-0.3,0.3-0.7,0.3v0.3H252c-0.3,0-0.3,0.3-0.7,0.3v0.3
					h-0.3c-0.3,0-0.3,0-0.3,0.3v0.3h-0.7c0,0-0.3,0-0.3,0.3v0.3h-0.7h-0.3v0.7l-0.7-0.3c0,0,0,0-0.3,0l-0.7,0h-0.7l0,0l-0.3,0.7
					l-0.3-0.7l-0.3,0.3l0,0c-0.3,0-3.1,0.3-3.1,0.3l2.8,47.6l0.7,0.7l0.7-0.7l0.7,0.7l0.7-0.7l0.7,0.7l0.7-0.7l0.7,0.7l0.7-0.7
					l0.7,0.7l0.7-0.7l0.7,0.7l0,0l0.7-0.7l0.7,0.3l0,0l0.7-0.7l0.7,0.3l0,0l0,0l0,0l0,0l0.3-0.3l0.3,0.3l0,0l0,0l0,0l0,0l0,0l0,0
					l0,0V295h0.3l0.3-0.3l0,0h0.3l0,0l0,0l0,0l0,0v0.3h0.3l-1-16.7l7.3,16.7l0,0l0.7-0.7l0.3,0.3c1.4-0.7,3.5-1.7,4.5-2.1v-0.7
					l0.3,0.7l0,0l0.7-0.3l0.3,0.7l0,0l0.7-0.3l0.3,0.7h0.3l0.7-0.3l0.3,0.3h0.3l0.3-0.3l0.3,0.3c0.3,0,0.3,0,0.7,0l0.3-0.3l0.3,0.3
					c0.3,0,0.3,0,0.7,0l0.3-0.3l0.3,0.3c0.3,0,0.7,0,0.7,0h0.3v0.3c0.3,0,0.7,0,0.7,0l3.1-23.3c0,0,2.1,20.9,2.1,22.6h0.3l0,0
					l0.7-0.7l0.7,0.3l0,0l0.7-0.7l0.7,0.3l0,0l0.7-0.7l0.7,0.3l0,0l0.7-0.7l0.7,0.3l0,0l0.7-0.7l0.7,0.3l0,0l0.7,1l0.7,0.3l0,0
					l0.7-0.7l0.7,0.3l0,0l0.3-0.7l0.7,0.3l0,0l0.3-0.7l0.7,0.3h0.3l0.3-0.7l0,0L292.3,241.2z"/>
				<path class="st4" d="M351.7,310.3L351.7,310.3v-1l-0.3-0.7l0.3-0.7l-0.3-0.7l0.3-0.7l-0.3-0.7l0.3-0.7l-0.3-0.7l0.3-0.7
					l-0.3-0.7l0.3-0.7l-1,0.3l0.3-0.7h-0.7l-27.5,4.2l-8.7,0.3l2.8,49.7c0,0,3.5-0.3,4.5-0.3c0,0.3,0.3,1.7,0.3,1.7l35.1-5.2
					l0.3-0.7l-0.3-0.7l0.3-0.7l-0.3-0.7l0.3-0.7l-0.3-0.7l0.3-0.7l-0.3-0.7l0.3-0.7l-0.3-0.7l0.3-0.7l-0.3-0.7l0.3-0.7l-0.3-0.7
					l0.3-0.7l-0.3-0.7l0.3-0.7l-0.3-0.7l0.3-0.7l-0.3-0.7v-0.3c-3.1,0.3-24,3.8-26.1,3.8c0-1.4-0.3-6.6-0.3-8c1.7,0,19.1-1,22.9-1.4
					l0,0l-0.3-0.7l0.3-0.7l-0.3-0.7l0.3-0.7l-0.3-0.7l0.3-0.7l-0.3-0.7l0.3-0.7l-0.3-0.7l0.3-0.7l-0.3-0.7l0.3-0.7l-0.3-0.7l0.3-0.7
					l-0.3-0.7l0.3-0.7l-2.8,2.1l0.3-0.7l-0.3-0.7l0.3-0.3c-3.8,0.3-21.5,1-22.9,1.4c0-1-0.3-3.1-0.3-4.5c1.4-0.3,17-2.4,22.9-3.5
					l-0.3-0.3l0.3-0.7l-0.3-0.7l0.3-0.7l-0.3-0.7l0.3-0.7l-0.3-0.7l0.7,0.3v-0.7l0.3,0.7v-0.7l0.3,0.7L351.7,310.3l0.3,0.7
					L351.7,310.3v0.7V310.3z"/>
				<path class="st4" d="M253,311.4h-1.4l0,0l0,0l0,0l-0.3-0.3l0.3-0.3c0-0.3,0-0.3,0-0.7l0,0h-0.7c0,0-24,3.5-25.7,3.8
					c0-0.3,0-0.3,0-0.3l-12.2,1.4l-0.3,0.3l0.7,0.7l-1.4,0.7l0.7,0.7L212,318l0.7,0.7l-0.7,0.7l0.7,0.7l-0.7,0.7l0.7,0.7l-0.7,0.7
					l0.7,0.7l-0.7,0.7l0.7,0.7l-0.7,0.7l0.7,0.7l-0.7,0.7l0.7,0.7l-0.7,0.7l0.7,0.7l-0.7,0.7l0,0l0.7,0.7l-0.3,0.7l0,0l0.7,0.3
					l-0.3,0.7l0,0l0.7,0.3h-0.3l3.5,33.4l0,0l0.3-0.3l0.3,0.3l0,0v-0.3l0.3,0.3l0,0l0.3-0.3v0.3l0,0l0.3-0.3l-0.3,0.7l0,0l0.7,0.7
					l-0.3,0.7v0.3l0.3,0.3c2.4-0.3,32-4.9,32-4.9l3.8-0.3l0,0l0,0h1.4l0,0l0,0h1l0,0l0,0h0.3l-2.8-49.7
					C254.1,311.4,253.7,311.4,253,311.4 M243.6,349.6c-1.4,0.3-13.6,2.1-15.3,2.4c-0.3-1.7-2.4-23.3-2.4-25
					c1.7-0.3,14.6-2.1,16.3-2.4C242.3,326.3,243.3,347.9,243.6,349.6"/>
				<path class="st4" d="M295.4,121.3c3.5,1,12.2,0.3,12.2,0.3c3.1-0.7,5.6-1.7,8-3.5c-1-0.3-2.8-0.7-3.8,0
					c-4.5,2.4-6.6,2.1-10.8,2.1c-8.7-1-19.8,0.7-26.8,4.5c4.5-1,8.3-2.4,12.5-3.1C289.5,120.9,293,120.2,295.4,121.3"/>
				<path class="st4" d="M278.4,133.1c5.6-1,11.8-2.1,16.7-0.3c0-0.3,0-1-0.3-1.4c-1-2.8-3.1-5.2-5.9-5.9c-0.3,0,0,0.7,0.3,1
					c-1.4-0.3-2.8-0.7-4.5-1c-0.3,0-1-0.3-1,0.3c0,0.7,1.4,0.3,1.4,1c-1-0.3-2.1-0.3-3.1-0.3c-0.7,0-2.1,0-2.4,0.7
					c-0.3,0.3,1,0.3,1.4,0.7c-1,0-2.1,0-2.8,0c-0.7,0-1.4,0.3-2.4,0.7c-0.3,0-0.7,0.7-0.7,1c-2.1,0-3.1,0.7-4.5,1.4
					c-0.3,0-0.3,0.7-0.3,0.7c-1.4,2.1-3.5,3.5-5.6,4.9c-0.7,1.4-2.1,2.4-2.4,4.2l0.3-0.3l4.2-1.7
					C269.4,135.9,273.5,134.1,278.4,133.1"/>
				<path class="st4" d="M232.2,179c1,0.7,3.1,0.3,3.8-0.7c0.7-0.7-0.3-1.7-0.7-2.1c-1.4-1.7-3.8-2.4-5.2-4.2c-0.7-1-1-2.4,0-3.8
					c0.7-0.7,2.8-0.7,4.5-1c-0.7-0.3-1.4-0.7-1.7-0.7c-2.1-0.3-3.5-2.1-3.5-4.5c-1,0.3-2.1,1-2.8,1.4c-0.3-1.7-0.7-3.1-0.7-4.9
					c-0.3,0.7-1.4,1.7-1.7,2.1c-0.7,1-1.7,2.1-1.4,4.5c1.4,0.7,2.4,3.5,1.4,5.6c-0.3,1-0.3,2.4,0,3.5c0.7,1.4,2.4,1.7,3.8,2.1
					C229.7,176.5,230.8,177.9,232.2,179"/>
				<path class="st4" d="M229.7,187c-0.7,0.7-0.3,1.7,0,2.1c0.3,0.7,1.4,0.7,1.7,0c0.7-0.3,1.4-1,1.7-1.7c0,0,0-0.3,0-0.7
					C232.2,186.6,230.4,186.6,229.7,187"/>
				<path class="st4" d="M240.5,197.4c-1.4-1.4-2.8-2.8-2.4-5.9c1-1.4,2.4-2.8,3.1-4.9c-0.7-2.1-1.7-3.8-2.1-5.6
					c-0.3,0.3-0.7,0.7-0.7,1c0.3,3.1-2.1,4.9-4.9,4.9c0,0.3,0.3,0.3,0.3,0.3c0,0.3-0.3,1.4,0,2.1c0.7,0.3,1.7,0.7,2.1,1.7
					c1.7,5.9,5.6,9.7,9.7,13.2c0.7,0.7,1.7,1,3.1,1.4c0,0,0.7-0.3,0.3-0.3C246.4,202.2,243.3,200.2,240.5,197.4"/>
				<path class="st4" d="M273.2,152.9c4.5-2.1,9.4-3.5,14.9-4.5c2.1-0.3,4.2-0.3,6.3,0c0.3-1,1.7-0.7,2.1-1.4c0.7-1,1-3.1,0.7-4.9
					c-1.7-2.4-3.5-4.2-4.9-7c-0.3-0.3-0.7-0.7-1-0.3c-1,0.7-2.1,1.7-3.1,2.4c-2.1,0-3.5-0.7-5.2-0.7c-5.9,1.4-10.1,4.5-16,5.9
					c-2.1,0.3-3.5,1.4-4.5,2.8c0.3,0,1-0.3,1.7-0.3c0.3,0,0.3,0.3,0.7,0.3c2.1-1,4.5-2.4,7-3.5c3.1-1.4,6.3-2.8,10.4-3.1
					c0.3,0,0.7,0.7,0.7,1.4c-4.5,0.3-7.6,1.7-10.4,3.5c-2.1,2.1-3.8,4.5-8,4.9c-0.3,0-2.1,0-1.4,0.3c0.7,1,1.7,0.3,2.8,0.7
					c-0.7,0.7-2.4,0.7-2.8,2.1c0.7,0,2.4,0,3.1-0.3c1.7-1.4,3.5-3.8,6.6-4.5c5.9-0.3,12.2-1,17.4-2.4c0.3,0,0.7,0.3,0.7,0.7
					c-0.7,0.7-1,1.7-1.7,2.1c-3.5,1.4-7.6,2.1-11.8,3.1c-1.7,1.7-3.8,3.1-6.6,3.1c-0.7,0,0,0.7,0.3,0.7
					C271.4,153.2,272.5,153.2,273.2,152.9 M275.3,144.9c-0.3,0-1,0.3-1.4,0c-0.3-0.7,0.3-1,0.7-1c0.3,0,1.4-0.3,1.4,0.3
					C276,144.2,275.6,144.9,275.3,144.9 M277.7,143.5c0,0.3-0.3,0.3-0.7,0.3c0-0.3-0.3-0.7,0-1C277.4,142.8,277.7,143.2,277.7,143.5
					 M286.7,143.2c-1.4,0-2.4,0.3-3.5,0c-0.3-0.3,0-1.4,1-1.7c1,0,2.1,0,2.8,0.7C287.1,142.8,287.1,143.2,286.7,143.2"/>
				<path class="st4" d="M130,166.5C130,166.1,130,166.1,130,166.5c-0.3,0.3-0.7,0.7-1,1.4C129.3,167.1,129.7,166.8,130,166.5
					 M152.6,158.8c0.3,0,0.7-0.3,0.7-0.7C153.3,158.5,152.9,158.8,152.6,158.8 M193.9,187.3c0,0.3,0.3,0.3,0.3,0.7
					c-1-2.4-3.1-5.2-5.2-7.3c-1.7-2.1-3.1-4.5-5.9-5.2c-0.3,0.3-0.3,0.3-0.7,0.3c-0.7,1.7,0.3,4.5-1.4,5.9c-1.4,1.4-4.5,1.7-6.6,1.4
					c-2.8-0.3-3.5-1.7-5.9,0c-2.4,1.7-3.5,2.1-6.3,1.4c-3.8-1-3.8-3.5-4.2-7.3c-0.3-2.1-1-5.2,0-7.3c0.7-1.4,1.7-1.4,2.4-2.4
					c1-1,0.7-1.7,0.7-3.1c0.7-3.8,0-6.6,0-10.1s-1.4-3.5-4.2-4.5c0-0.3,0-0.7,0-1c0.3,0.3,1,0,1.7,0.3c1-2.8-2.8-4.9-4.5-5.6
					c-3.5-1.7-7.3-4.9-11.5-4.5c-4.2,0.3-8.7,3.8-11.1,7.6h-1.4c-0.3,3.1,0.7,6.3,0,9.7c-0.3,2.4-1,4.5-1.4,7
					c1.4-2.1,3.8-4.2,6.3-5.9c1-4.9,2.8-7.3,7-9.7c3.1-1.7,5.2-0.7,8.7,0c2.8,0.7,2.8,1,4.2,3.5c1.4,2.4,2.1,3.5,1.4,6.6
					c-0.3,2.4-1,4.2-1.7,6.6c-0.7,3.1-1,4.9-2.8,7c-1.7,1.7-3.1,4.2-4.2,6.3c-2.4,4.5-5.2,8.3-7.3,12.9c-1.7,3.8-2.8,13.2,1,16.3
					c-5.9-7.6,4.5-18.4,8.3-24c1.7,2.4-0.7,7.3-1.7,9c-0.7,1.4-2.1,3.5-2.4,4.9c-0.3,1.7-0.3,1.7,1.7,2.4c-0.7,2.4-3.1,3.1-4.2,5.6
					c-0.7,1.7-1,4.2-1,6.6c-1,0.7-2.1,0.3-3.5,0c-0.3-1-0.7-2.1-1-2.8c-1.7-4.2-2.8-9.4-1.4-13.6c0.3-1.4,2.1-2.8,2.1-4.2
					c0.3-1.4-0.3-2.1-0.7-2.8c-1.4-4.5-1.7-8.7-1.4-14.2c0-2.4,1-4.9,1.4-7.6c0-2.1-0.3-3.8,2.4-4.9c2.4-0.7,4.9,1.4,7.3,0.3
					c1.4-0.3,2.8-2.1,4.2-3.1c-1.7,0.7-4.5,0.7-5.9,1.4c-2.4,0.7-4.5,1-5.9-0.7c0.3,0,1-0.7,1.4-0.7l-0.3-0.7
					c4.9-0.3,9.7-2.1,14.6-1.4c-0.7-4.9-5.9-5.9-9.7-4.9c-2.1,0.7-4.2,1-5.9,2.4c-1.4,1-2.4,2.8-3.8,3.5c0,0,0,0,0-0.3
					c-1.4,2.8-2.1,2.8-4.5,4.5c-1.4,1-3.5,2.4-2.1,4.5c1-2.1,1.7-3.8,4.9-2.8c-0.7,1.7-2.4,3.1-3.1,4.9c-1,2.1-1,4.2-1.7,6.6
					c-0.3,2.1-1,4.9-0.7,7c0.3,2.4,1.4,5.2,1.4,7.6c0,3.5,0.7,6.3,1,9.7c0.3,4.2,1.4,3.5,2.8,8c0.7,2.1,1.4,5.9,2.4,7.3
					c0,0.3,0,0.3,0,0.7c1,2.4,5.6,7.6,7.3,10.1c4.5,4.9,9.7,7,15.6,8.3c7.3,1.7,13.2-0.3,20.2-1.7c2.4-0.3,9.7-3.5,9.4-7
					c-2.4,2.4-5.6,2.1-9,2.8c-4.9,0.7-11.8,1.4-16.7,0.3c-4.9-1-11.1-5.6-7.3-10.8c1.7-2.4,4.2-2.4,6.6-2.8c3.5-0.3,5.9-1,9-2.1
					c2.4-0.7,3.5-1,5.9-3.1c1-1,3.1-2.1,3.1-3.8c-4.5,0-8.7,1.4-12.9,1.4s-10.4,0-14.6-1.7c0.3,0,0.7,0,1,0c0.3-0.7,0.3-0.7,0-1
					c1.7-1.4,3.1-2.8,5.9-2.4c3.5,0,6.6,0.3,9.7,0.3c3.8,0,7.3-0.3,10.8-0.3c2.1,0,4.5-1,6.6-0.3c1.7,0.3,2.4,1.7,3.8,2.1
					c0-3.5-4.9-3.8-7-3.8c-4.2-0.3-9-1-12.9,0.3c-2.8,1-4.2,0-7-1c-2.1-0.7-5.2,0.3-7.3-1.4c-2.4-2.1,1-10.1,3.5-10.8
					c5.9-1,3.5,7.6,7,8.7c0.3-2.1,0-5.2,1-7.3c0.7-1.7,3.1-2.4,4.9-3.1c2.1-0.7,4.5,0.3,6.6-0.7c2.4-1,2.1-3.5,3.1-5.6
					c1.4,2.8,4.9,3.8,6.6,6.3c-0.7-0.3-1.4-0.7-1.7-1c1.4,1,2.4,2.1,3.1,3.8c0,0.3-0.3,0.3-0.3,0.3c1,3.1,3.8,5.9,4.9,9
					c0.7,3.1,0,5.6-1.4,8.3c0.7-1.4,1.4-1.7,2.1-3.1c0.3-1.4,0.7-3.5,0.7-4.9C198.1,193.2,194.6,190.8,193.9,187.3 M136.6,157.1
					C136.3,157.4,136.3,157.4,136.6,157.1C136.6,157.4,136.6,157.1,136.6,157.1L136.6,157.1"/>
				<path class="st4" d="M349.3,152.6c-1.4-2.8-1.7-5.9-4.2-7.6c0.3-1.7-1-2.4-1-3.8c0-0.7-1-1.4-1-2.1c0.3-2.1,0.7-3.8,0.3-6.6
					c1-1.7,1.4-4.5,0-6.3c-1-5.9-2.4-11.5-3.8-16.7c-0.3-1.4,0.3-3.1-0.3-5.2c-0.3-1-1-2.4-1.4-3.8c-1.7-3.1-3.5-6.3-5.9-8.7
					c1.7,1,3.1,2.8,4.2,4.2c0-1.7-1-3.1-1.4-4.9c-1.7-1-2.8-2.4-4.2-3.8c0.3,0,0.7,0.3,0.7,0.3c0.3,0,1-0.3,0.7-0.7
					c-1.7-1.7-3.5-3.5-4.5-5.9c1,0,2.1,0,2.8-0.7c-1,0-1.7-0.7-2.8-0.7c-1.4,0-2.8-1-3.8-2.1c0.7-0.3,2.1-0.7,2.4-1
					c0.3-0.3,0-1-0.3-1l-6.6-1.4c0.7-0.3,1.4-0.7,1.7-1.4c-2.8-0.3-5.2-1.7-7.3-2.8c-0.3-1.4-1.4-2.4-3.1-2.1c0-1-0.3-2.1-1.4-2.4
					c-4.2-1.7-9.4-2.4-15.6-2.4c-1.4-0.7-2.4-1.4-3.8-1.7c-4.2,0.7-8,0.7-11.1-0.3c-1.7-1.4-4.9-2.4-8.3-1c-3.8,1.4-7,3.1-10.8,4.9
					c-1.4,0.3-3.5,0.7-4.5,0.3c-3.1,0.3-4.9,2.1-6.6,3.1c-1.4,0-2.4,0-3.5,0c-1,0-0.7,1.4-1,2.1c-0.3,0.7-1,0.7-1.4,0.7
					c-2.8-0.7-4.2,1-4.2,2.8c-1.7,1.7-3.5,3.5-5.6,4.5c-2.1,0.3-3.1,1.4-3.5,2.8c-2.1,1-3.1,2.8-3.8,4.5c0,0.3,0,1,0.7,1.4v-0.3
					c0.7-0.7,1.7-2.4,2.1-2.8c-0.3,1.4-1,2.4-2.1,3.1c-1.4,1-2.8,2.4-4.2,4.2c-2.1,1.7-4.5,6.3-5.6,9.4c-0.7-0.3-1-0.7-1.7-0.7
					c-1.4-0.7-2.1-1.4-3.1-2.4c-0.3-0.3,0-1.4-0.3-1.7c-1-1.4-3.1-1-4.5-2.1c-2.4-2.1-2.1-3.5-5.2-4.5c-1-0.3-4.2-0.7-4.9-1.4
					c-2.1-2.1,0-2.4-2.8-2.8c-2.1-0.3-3.5,0.3-5.2,0.3c-2.1,0-3.5-0.3-5.6-0.3c-2.8,0.3-5.6,0.3-8.3,0c-3.8-0.3-7.6,1.4-11.5,2.4
					c-0.3-0.3-4.9,2.4-6.3,2.8c-1.4,0.7-3.1,0.3-4.2,1c-1.4,0.7-2.1,1.7-3.1,2.8c-0.3,0.3-0.7,0.3-1.7,1
					c-6.3,4.9-11.1,8.3-15.3,14.9c-0.7,1.4-2.1,2.8-3.1,4.2c-0.7,1.4-0.3,2.1-0.7,3.5c-0.3,1.7-2.1,3.1-2.8,4.9
					c-0.3,1.4-0.3,3.1-1,4.5c-1,3.8-2.1,7.6-2.4,12.5c-0.3,5.2,0.3,9.7,0.3,14.6c0,2.4,0.7,5.2,1,7.6c0.7,3.5,3.5,5.9,3.8,9.4v-1.7
					c3.1-2.8,1.7-6.3,2.1-9.7c0.3-4.2,0-8.3,0.3-12.5c0.3-3.5,1-5.6,3.5-8.3c1.7-1.7,8.3-3.1,8.3-5.6c-0.7,0-1.4-0.3-1.7-0.3
					c0-2.1,4.5-7.6,6.6-8.7c0-0.7,0-1.4-0.3-2.4c-3.1,1.4-5.6,1.4-8,3.5c-1.7,1.7-3.8,3.1-5.6,4.2c0.3-2.1,1.4-5.9,2.4-8
					c1.4-2.8,4.2-4.5,6.3-7c1.7-2.1,2.4-5.2,4.9-6.3c0.7-0.3,3.1-0.3,3.8-0.7c2.1-0.3,3.1-1.7,4.9-2.4c1.4-0.3,2.4,0,3.8,0
					c0-0.3,0-0.3,0-0.7c1,0,2.4,0,3.5,0.3c-0.3-1-1.4-2.4-0.7-3.5c1.4,1,3.1,2.8,4.5,2.4c0-0.3,0-1-0.3-1.4c2.1,0.3,2.8,3.1,4.9,0.7
					c0.7-1,0.3-2.8,1-3.8c1.4,0.3,2.4,2.1,3.8,1.7c0.3-1,0-2.1,0.3-2.8c3.8,0.3,6.6,2.8,10.1,3.8c3.5,1,3.1,0,4.9-2.4
					c2.4,0.7,2.8,3.1,4.5,3.8c3.5,1.7,2.8-3.5,3.1-4.5c0.3,1,1.4,1.7,1.7,2.8c0.7,1.4-0.3,3.5,0.7,4.5c0-0.3,0.7-0.7,0.7-1.4
					c2.1,1.4,1,7.3,1,9c1.4-0.3,2.1-1.7,2.1-3.1c0.3,1,1,4.5,1,5.6c0,2.4-1.4,3.1-0.7,5.9c1.4,4.2,4.2,7.3,6.3,11.1
					c1.7,3.1,1.7,5.9,1.4,9.4c-0.3,1.7-0.7,3.1-0.3,4.9c0,1.4,1.4,5.2,2.4,2.8c0,0.7-0.7,0.3-0.3,2.1c0,0,0.3-0.3,1-0.3
					c0,0.3,0,0.3,0.3,0.7l0,0c0,0-0.3,0.3-0.3,0.7c0,0.3-0.3,2.1-0.3,2.8c-0.7,2.1-2.4,3.5-1.4,6.3c0.7,1.7,2.4,2.8,3.5,4.5
					c0.7,1.4,1.7,4.5,3.5,4.5c0.3-2.8-1.4-4.2-2.8-6.3c-1.4-2.4-2.1-4.2-1.4-7c-2.1-1,1-5.2,3.5-6.6c1-0.3,1.7-0.7,2.1-1
					c3.1,0.3,5.9,2.4,8.3,4.5c0.3,0.3,0.3,0.3,0.7,0.7c1.4,1.4,3.8,2.4,5.6,3.8c1,1,1.4,1.7,2.4,2.4l0,0c0,0,0,0,0.3,0
					c-0.7,0-0.7-0.3,0.7,0.7c0-0.7,0.3-1.4,0.3-2.1l0,0c0.3-0.3,0.7-0.7,1-1c0,0,0,0,0.3,0c4.9,1.4,7.6-7.6,11.1-9.4
					c-0.3,0-0.3,0-0.7,0l0.3-0.3c-2.8,0.7-4.9,2.1-6.6,3.8c0.3-1.4,0.7-4.2,1.7-5.9h-0.3v-0.3c-1.7,0.3-3.1,1-4.5,2.1
					c0.7-3.5,1-7,2.1-10.1c0.7-2.4,2.1-4.9,2.8-7.3c0-0.3,0-0.3,0-0.7V131v-0.3c0-0.3,0-1-0.3-1.4c-0.3-1.4-0.7-2.4-0.7-3.8
					c0,0,0,0,0-0.3c0.3-0.3,0.7-0.7,0.7-1.4v-0.3c-0.7,0-1.4,0.3-1.4,0V123c0-0.3,0-0.7-0.3-1c0,0,0,0,0-0.3v-0.3
					c0-1-1.7-2.4-2.8-1.7c-0.7,0.3-1-1-1.4-1.7v-0.3c0-0.3,0-0.7,0-1c0.3-2.1,1.7-4.2,2.4-5.6c0-0.3,0.3-0.3,0.3-0.7l0,0l0,0
					c0.3-0.3,0.3-0.7,0.3-1c0,0,0-0.3,0.3-0.3v-0.3c0.3-2.1,0-4.2,1-6.6c0.3-0.7,0.7-1.4,1-2.1c0-0.3-0.3-1-0.3-1.4
					c-0.3-1-1-2.4-1.4-3.5c1.7,0.7,3.5,1.4,4.9,1.7l-0.7-6.3c0.7,0,1.4,0.3,2.1,0.7c0.7-0.3,1-1.4,0.7-2.1c-0.7-1-1.7-1.7-3.1-2.8
					c0.7,0,1,0,1.7,0c3.8,0.7,7,2.8,10.8,4.2c1.7,0.7,4.2,0.3,5.2-1.4c0.3,0.7-0.3,1.4,0.3,2.1c0.3,0.3,1,0.7,1.7,0.3
					c2.8-0.7,4.9-2.1,7-3.1l1,3.5c0.3-0.3,0.3-0.7,0.7-0.7c1.7-1,4.5-1.4,7.3-2.1c1.4,1.7,3.5,3.5,6.6,3.8c-1-1-1.7-1.4-2.4-2.1
					c-0.3-0.3-0.7-0.7-0.3-1c-0.3-0.3-0.7-0.7-1-1c0,0,0.3-0.3,0.7,0c3.1,2.1,7.6,3.8,13.2,2.4c-1-1-2.4-1.4-3.8-1.7
					c-1-0.3-1.7-0.7-2.4-1.4c0,0-0.7-0.3,0.3-0.3c3.1-0.3,5.6,0.3,7.6,1.7c2.1,1,3.8,2.4,5.6,4.5c0-1.7-0.7-4.2-1.4-5.2
					c1,0,1.4,0.7,2.4,0.7c-0.7-0.3-0.7-1-1-1.4c1,0,1.7,1,2.4,1.7c0-1-0.3-2.1-0.3-3.1c1,0.7,1.7,2.1,2.4,3.1c0.7,1,1,2.4,1,3.8
					c0,0.3,0.7,1.4,1.4,1.7c2.8,0.7,5.9,1.4,8,2.8c0.7,0.3,0.3,1,0.3,1.7c0,0.7,0.3,1,0.7,1.4c1.4,1,0.7,3.1-0.7,3.8l0.7,1.7
					c-0.3,0-1.7,0.3-2.4,0.3c-1,0-3.8,0.3-3.5,1.4c2.1,1,4.5,1.4,7.3,1.7c1,1,2.4,1.4,3.1,2.4c0.3,0.7,0.3,1.7,0,2.4
					c-0.3,0.3-0.7,1.4-2.1,1.7c-1.7,0.7-4.5,0.3-5.2,0.3c-1.7,0.3-3.5,1-5.2,1.7c0,0.7,0.7,0.7,0.7,0.7c2.4-1,11.5-1.4,13.9-0.3
					c1,0.3,0.7,1.4,0,2.1c-0.7,0.7-2.1,0.7-2.4,1.4c-2.8,0-6.3,0.7-8.7,1.4c-0.3,0-0.3,0-0.3-0.3c-0.3,0-0.7,0-0.7,0
					c-1.7,0.7-2.8,1.7-4.2,2.8c0-0.7,0.7-1.4,0.3-2.1c-0.3-0.7-1,0.7-1.4,1c-2.1,0.7-3.1,2.4-3.5,4.9c-2.1,2.4-2.4,6.3-1,10.1
					c1.4,3.5,3.5,6.6,4.5,10.8c0.7,2.4,1.4,4.9,2.8,6.3c2.1,0.7,4.2,1.7,5.2,3.8c0.7,1.4-2.4,4.5-3.5,6.3c-0.7,1.7-2.8,4.2-5.9,3.8
					c-2.1,0-4.2-0.3-5.6-1c-2.8-1.4-7-2.4-10.8-1c-1.4,0-2.4-0.3-3.5-0.7c-2.1-0.7-3.5-3.1-2.8-5.9c1.4-2.4,4.5-4.2,8.3-3.8
					c-1.7-1-3.8-1-6.3-1.4c-0.3,0-1,0.3-1.7,0.3c-3.1,0.7-5.9,1.7-8,3.5c-2.1,3.1-3.5,7-5.2,10.8c-3.1,4.5-5.9,9.4-5.6,17
					c0.7-2.1,1-3.8,2.4-4.9c5.2-4.5,10.4-9.4,13.9-15.3c0.7,0.7,1.7,1.4,2.1,2.1c-1,1-1.7,2.4-1.7,4.5c0,0.7,0.7,0.3,0.7,0
					c0.3-1.4,0.7-2.4,1.4-3.5c0.3-0.3,1.4,0,1,0.3c-0.3,1-1,2.1-0.3,3.5c1.4-0.3,2.4-1.7,2.4-2.8c0-0.3,0.7,0.3,0.7,0.7
					c0,0.3,0.7,0,1,0c0.3,0,0.7,0.3,0.7,0.7c0.3,0,0.7-0.7,1.4-0.3c0.3,0.3,0.3,1,0.3,1.4c0.7,0,1.4,0,2.1,0c0.3,0,0.7-0.3,1-0.7
					c0.3-0.3,1,0.3,1,0.7c0.3,0.7-0.7,2.4-1,2.1c-0.7-0.3-2.1-0.3-3.5,0c-0.3,0-0.3,0.7-1,1c-0.7,0.3-1.4-1-1.4-0.7l-2.8,1.7
					c-0.3,0-1-0.3-1.4-0.7c-0.3,0.3-0.7,0.3-1.4,0.3c-0.7,0-0.3,0.7-0.7,1c-0.7,0.7-0.7-0.7-0.7-1.4c-0.7,0.3-1,1-1.7,1l0.3-2.1
					c-0.3,0-0.7,0-0.7,0.3c0,0,0.3-1,0-0.7c-0.7,0.3-1,2.8-1,4.2c-0.3-0.7,0-2.1-0.3-2.4c-1.4,1-2.4,2.8-3.5,4.2
					c-0.3,0.3-0.3,1.4-1,1.7c-0.7-1-0.3-2.1,0.7-3.1c-2.8,1-4.2,3.1-4.5,6.3c0,1,0.7,2.1,0.7,3.5c0.7,1,2.4,2.1,3.5,2.8
					c1.4-0.3,1.4-2.1,1-3.8c0-0.3-0.7-1-1-1.4c0.3,0,1.4,0,2.1-0.3c4.2-2.1,9.4-4.5,16.3-4.5c2.8,0,5.9,0.3,8,1.4
					c0.3,0,1.4,0.3,0.7,0.7c-2.1,1-4.9,1.7-7.6,1.4c-1,0-2.1,0-3.1,0.3c-0.7,0.3-1.4,0-2.4,0c-0.3,0-0.7,0.7-0.3,0.7
					c2.8,1,6.6,1.4,10.1,0.3c3.8-0.7,7.6-1.7,11.8-1.4c0.3,0,1,0.7,1,0.7c0.7,1,0,2.1-0.3,2.8c-3.8,3.5-10.4,4.9-17.4,5.2
					c-1,0-1.7,0.7-2.4,1c-0.3,0-0.3,0.7,0,0.7c2.4,0.3,5.2,0.3,7.6,0.7c3.8,1,9,1.7,13.2,0c0.3,0,1.7-0.3,2.1-0.7
					c0.7-0.3,1,0.3,0.7,1c-0.7,1-1,1.7-1.4,2.8c0,0.3,0,1.4,0,1.7c0,0.7,1,1.4,1,2.1l0.7,2.8c0.7,3.8-0.3,7-2.4,8.7
					c-1,1-2.8,1.4-3.8,2.1c-4.5,2.1-11.8,1.4-16.7,1c-3.1-1.4-6.3-2.4-9-3.8c-1.4-0.7-2.8-1.7-4.9-2.1c5.2,4.2,10.8,7.6,18.8,8
					c6.3,1,13.9,0,18.1-3.1c0,0.3,0,0.7-0.3,1c-4.9,3.5-10.8,5.9-18.8,6.3c-2.4-0.7-5.9-0.3-9.4,0c-4.2-0.3-8-1-11.5-2.4
					c0,0.3,0.3,0.3,0.3,0.3c8.7,5.9,26.4,8,39.3,2.4c5.6-2.8,8.7-8,11.5-13.9c2.4-2.4,4.5-5.9,6.6-9c1.4-2.1,1.7-5.2,2.1-8.3
					c4.9-8.3,8.3-17.7,7-31.3C351,161.6,351,156,349.3,152.6 M286.4,181.7c0,0.3-0.3,1-0.7,1.4c-0.3,0.3-0.3-0.3-0.3-0.3
					c0-0.3,0.3-1,0.3-1.4c0,0,0-0.7,0.3-0.3C286,181.1,286.4,181.4,286.4,181.7 M307.9,177.9c-0.3,0.3-1-0.3-1-0.7
					c0-0.7,0-1,0.3-1.4c0.3-0.3,0.7,0,0.7,0.3C308.3,176.9,308.3,177.6,307.9,177.9 M337.5,130c0,0-0.3-0.3-0.3-0.7
					c0.3,0,1.4-0.3,1.4,0c1.4,2.8,0.3,5.9-1.4,7.3C337.8,135.2,337.8,132.4,337.5,130 M318,136.2c0.7-1,2.1-2.1,3.5-2.8
					c4.5-0.7,7.3,0.3,10.1,1c1,0.3,1.7,1,2.4,1c-0.7-1.4-2.4-2.1-3.5-3.5c-1,0-2.1-0.3-3.1-0.7c3.5-0.7,6.3,1,7.6,3.1
					c0,0.3,0.3,1,0,1c-3.1,0-6.3,0-9-0.7c-3.1,0.3-5.9,1.4-7.6,2.4C318,137.3,317.7,136.6,318,136.2 M330.9,138
					c-1,0.3-2.1,0.7-2.8,0c-0.3-0.3,0-1,0.3-1.4c0,0,0.3-0.3,0.7-0.3c0.7,0,1.4,0.3,2.1,0.7C331.6,137.6,331.2,138,330.9,138
					 M322.5,138.7c-0.7-0.3-0.3-0.7,0-1c0.3,0,0.3,0,0.7,0.3C323.6,138.3,323.2,138.7,322.5,138.7 M321.1,139.7
					c-0.7,0-1.4,0.3-1.4-0.3c0-0.3,0-1,0.7-1.4c0.3,0,1-0.3,1.4,0.3C321.8,138.7,321.5,139.3,321.1,139.7 M318,141.8
					c1.4-1,3.8-1,5.9-1c0.7,0,1.4-0.3,2.1-0.3c-0.3,0.3-0.7,0.7-1.4,0.7c-1.4,0.3-3.1,0.3-4.5,0.3c0,0.7,0.3,1,1,1
					c2.8,0.7,5.2-0.3,7.3-1.7c1.4-0.3,3.5-1,4.9-1.4c0.3,0,1,0,1.4,0c0.7,0.3,1,1.7,0.7,1.7c-4.2,2.8-12.5,3.5-17,1.4
					C318.4,142.5,318,142.1,318,141.8 M345.1,160.2c-2.8,1.4-4.5,4.2-4.2,8.3c-0.3,2.1,1,2.8,1.7,3.8l0.7,5.9
					c-0.7,2.1-1.7,4.2-3.5,5.6c-3.1,2.4-3.8,7.3-3.1,12.5c0,0.7-0.3,1-0.7,1.4c-0.7-0.3-1.4-1-1-2.1c-0.3-0.3-2.1-1.7-2.4-3.1
					c-0.3-1.7,0.3-4.2,0.3-5.2c-0.3-1.7-0.7-3.8-0.7-5.6c0-0.3,0.3-0.7,0.7-0.7c1,0.3,2.1,1.7,2.1,3.1c0,0.3,0.7-0.3,1-0.3
					c1.4-0.7,1.7-2.1,2.4-3.5c0-0.7,0.3-1.7,0.3-2.8c-1-4.2-3.1-7.6-5.9-10.1c-0.3-3.8-2.8-5.6-4.5-7.6c-1.4-1.7-3.8-2.8-4.5-5.2
					c-0.3-1-0.7-2.4-1-3.5c0-0.7,0.3-1.7,0-2.1c-1.4-1-2.8-2.1-4.5-2.4c0-0.3,0.3-1,0.7-1c4.5,0.3,9.4,0.7,14.2,1c1.4,0,3.8,0,4.5-1
					c-1.7-0.3-3.8,0-5.2-0.7c4.2-1,8.7-0.3,10.8,2.1C347.9,153.6,347.9,157.1,345.1,160.2"/>
				<path class="st4" d="M171.4,142.1c-1.4,2.1-1.4,3.1,0.3,4.2c1.7,1,2.1,3.8,3.8,4.5c1-1.4,0.7-2.1,2.1-3.1
					c1.7-1.4,3.1-2.4,5.6-2.4c1.4,0,3.1,0.7,4.5,0.7c1.7,0.3,3.1,0,5.2,0c2.8,0.3,5.2,2.8,7.6,4.2c1,0.3,3.5,1.4,4.9,1.4
					c2.8-0.3,0-3.1-1-4.2c-2.4-2.8-4.5-6.3-8-8c-1.4-0.7-3.1-0.7-4.2-1.4c-0.3,0.7,0,1.4,1,1.7c-0.3,0-1,0-1.4-0.3
					c0,0.7,1.7,2.4,2.1,3.1c0.7,1.7,2.4,2.8,3.1,4.5c-3.5-1.4-4.5-7.6-8.3-8.3c0,0.7,0.3,1.7,0.7,2.4c-1-0.7-1.4-1.4-2.4-1.7
					c0,0.3,0,0.7,0,0.7c-0.7,0-1.4-0.3-2.1-0.7c0,0.3,0,1,0,1.4c-0.3,0-4.2-2.4-3.1,0c-0.7,0-1-0.3-1.4-0.7c0,0.7-0.3,1.4-0.3,2.1
					c-0.7,0-0.7,0.3-1,0.3s-0.7,0-1-0.3c-0.3,0.7-1,2.8-2.1,2.4c-0.7,0-0.7-0.7-1-0.7c-0.7-0.3-1-0.7-2.4-1c0-0.3,0-0.7,0-1"/>
				<path class="st4" d="M172.7,158.8c0.7-1,3.1-2.4,3.8-3.5c-1,0.3-2.1,1-2.4,1.4C173.4,157.4,173.4,158.1,172.7,158.8
					 M209.9,157.1c0.7,0,1.4,0,2.4,0C211.3,157.1,210.6,157.1,209.9,157.1 M208.5,160.9c0.3,0.3,1,0.3,1.4,0.7
					c1,0.3,2.4-0.3,3.5-0.7C211.7,160.2,209.9,160.9,208.5,160.9 M208.5,157.8c0.3-0.3,0.7-0.3,1.4-0.3c-1.7,0-3.5,0.3-5.2,0
					c-2.4-0.3-3.1-1.4-5.2-2.8c-2.8-1.7-5.9-2.8-9-3.8c-3.5-1.4-7.3-1-10.4,0.7c-1.7,1-2.4,2.1-4.5,2.1c-1.4,0-3.1-0.3-4.5-0.7
					l0.7,0.3c1,0.3,5.9,0,5.6,1.7v0.3c0.7-0.3,1-0.3,1.4-0.3c1.4-0.3,3.8-0.3,5.2,0l0,0c-2.8,0.3-5.6,3.5-7.6,4.5
					c-0.3,1.4,2.1,1.4,2.8,1v-0.3c2.4,0.7,5.2-0.3,7.6-0.3c1.4,0,2.8,0,4.2,0.3c2.4,0.3,5.2,1,7.6,1.4c-3.5-2.4-8.7-2.4-12.9-3.8
					c0-1,0.7-1,1.4-1.7c-0.3-0.3-0.7-0.3-0.7-0.7c0.3,0,0.7,0,1,0c3.5-0.3,7.6-0.3,11.1,0.7c3.1,1,5.9,3.5,8.7,4.5
					c0.7,0.3,1,0.3,1.7,0.3c-0.7-0.3-1.7-1-2.4-1.4C207.2,159.5,207.8,158.1,208.5,157.8"/>
				<path class="st4" d="M208.2,162.6c1,1,2.8,2.1,3.8,3.5c0.3,0.3,0.7,2.4,1.4,1.7c1.7-1-4.2-5.6-5.6-5.9"/>
				<path class="st4" d="M206.5,164c2.4,2.4,6.3,7,5.2,10.8c-1.7-2.8-2.8-6.6-3.8-9.7"/>
				<path class="st4" d="M213.8,179.7c0,2.8,2.1,5.6,2.8,8c0.7,2.4,1,5.6,1.4,8c0.3,4.5-0.3,8.3-2.1,12.2c0.3-2.4,2.8-4.2,4.2-6.3
					c1.4-2.1,2.1-5.2,3.5-7.3c0,1.7-0.3,3.5-1,4.9c-1.4,3.8-2.8,7.3-4.5,10.8c-2.4,4.5-7.3,5.6-10.4,9.4c-1.7,2.4-2.1,4.2-4.9,5.6
					c-1.7,1-3.5,1.7-4.9,2.8c-2.1,1.4-3.8,1.7-6.6,2.4c-1.7,0.3-2.8,0.7-4.5,0.7c-1.7,0-3.5,0-5.2-0.3c0.3,0,0.3,0,0.7,0
					c0.7-1.4,3.8-2.4,4.9-3.1c1-0.7,2.4-1,3.1-1.7c0.7-0.3,1.4-1.7,1.7-2.4c1.4-2.1,2.4-3.5,4.2-4.9c1.4-1,3.1-1.7,3.8-3.1
					c2.8-3.8,3.5-9,5.9-13.2c1-1.7,1.4-2.8,1.4-4.9c0.3-2.1,0-4.5,0.3-6.6c0.3,2.1,1,4.2,1,6.3c0,3.1,0.3,7.3-1,10.1
					c-1.4,3.1-3.8,7-5.9,9.4c-1.4,1.4-2.8,5.9-4.9,5.9c2.8-1,5.2-2.1,7-4.2c2.1-2.1,3.8-4.9,5.6-7.3c1.4-1.7,2.4-3.1,3.1-5.2
					c0.7-1.7,0.7-3.8,1.4-5.6c1-3.1,2.1-6.3,1.4-9.7C214.4,186.6,215.1,182.4,213.8,179.7"/>
				<path class="st4" d="M396.6,300.9l-0.3-3.1l10.1-0.7l0.3,3.1l-3.1,0.3l0.7,8.7l-3.8,0.3l-0.7-8.7H396.6z M419.8,300.6l-2.1,7.6
					l-2.4,0.3l-3.1-7.3l0,0l0.7,7.3l-3.8,0.3l-1-11.8l4.9-0.3l3.1,5.9l2.1-6.6l4.9-0.3l1,11.8l-3.8,0.3L419.8,300.6L419.8,300.6z"/>
				<path class="st4" d="M139.7,393c0-0.7-0.3-1-0.7-1.4c-0.3-0.3-1-0.7-1.7-0.3c-0.7,0-1,0.3-1.4,0.7c-0.3,0.3-0.7,1.4-1.4,2.4
					l-7.6,20.2c-0.3,1-0.7,1.7-0.7,2.4s0.3,1,0.7,1.4c0.3,0.3,1,0.3,1.7,0.3s1-0.3,1.4-0.7c0.3-0.3,0.7-1.4,1-2.4l7.6-20.2
					C139.7,394.1,140.1,393.4,139.7,393 M163.7,384.7c0-0.7-0.3-1.4-1-2.1c-0.7-0.3-1.4-0.7-2.4-0.7c-1,0-2.4,0.3-3.8,1
					c-1.4,0.7-2.4,1.4-3.8,2.4c-1,1-2.1,2.1-2.8,3.1c-0.7,1-1.7,2.8-3.1,4.5c0-1.4-0.7-2.8-1.4-3.8c-0.7-1-1.7-2.1-2.8-3.1
					c-1-0.7-2.4-1.4-3.8-2.1c-1.4-0.3-3.1-0.7-4.5-0.3c-2.1,0.3-4.2,0.7-6.3,1.7c-2.1,1-3.5,2.4-5.2,3.8c-1.4,1.7-2.4,3.5-3.5,5.2
					c-0.7,1.7-1,3.8-1,5.9c0,1.4,0.3,2.8,1,3.8c0.7,1,1.4,2.1,2.4,2.8c1,0.7,1.7,1,2.8,0.7c0.7,0,1-0.3,1.7-0.7
					c0.3-0.3,0.7-1,0.7-1.7c0-0.3-0.3-1-0.7-1.4l-0.7-0.7c-0.7-0.7-1-1-1.4-1.7c-0.3-0.7-0.7-1-0.7-1.7c0-1.4,0-2.8,0.7-4.2
					c0.7-1.4,1.4-2.8,2.4-3.8c1-1,2.4-2.1,3.8-2.8c1.4-0.7,2.8-1,4.2-1.4c2.4-0.3,4.2,0.3,5.6,1.7c1.4,1.4,2.4,3.5,2.4,5.9
					c0.3,3.1-0.7,6.3-2.8,9.4c-0.3,0.7-0.7,1-1,1.7c0,0.3-0.3,0.7-0.3,1s0.3,1,0.7,1c0.3,0.3,0.7,0.3,1.4,0.3c0.7,0,1.7-0.7,2.4-1.7
					s1.7-2.8,3.1-5.2l2.1-4.2c1.7-3.8,3.8-6.6,5.2-8.3c1.4-1.7,3.1-3.1,4.5-3.8l-9.4,25c-0.3,1-0.7,1.7-0.7,2.4s0.3,1,0.7,1.4
					c0.3,0.3,1,0.3,1.7,0.3s1-0.3,1.4-0.7c0.3-0.3,0.7-1.4,1-2.4l9.4-25.4C163.4,386.8,163.7,385.4,163.7,384.7 M203.3,391.6
					c0.7,0,1.4-0.3,2.1-1c0.3-0.7,0.7-1.4,0.7-2.1s-0.3-1.4-0.7-1.7c-0.3-0.3-1-0.7-1.7-0.3c-0.7,0-1.4,0.3-1.7,1s-0.7,1.4-0.7,2.1
					s0.3,1.4,0.7,1.7C201.9,391.6,202.6,391.6,203.3,391.6 M264.5,399.3c-0.3-0.3-0.7-0.3-1.4-0.3c-0.3,0-0.7,0-1,0.3
					c-0.3,0.3-1,0.7-1.7,1.4c-0.7,0.7-1.4,1.4-2.1,1.7c-0.3,0.3-0.7,0.7-1,0.7c-0.3,0-0.7,0.3-0.7,0.3c-0.7,0-0.7-0.3-1-0.7
					c0-0.3,0-1,0.3-1.7l1-2.4l1-2.4c0.7-2.1,1-3.8,1-4.9c0-1-0.3-1.7-1.4-2.4c-0.7-0.7-1.7-0.7-2.8-0.7c-0.7,0-1.7,0.3-2.4,0.7
					c-1,0.3-1.7,1-2.1,1.7v-0.3c0-0.7-0.3-1-0.7-1.4c-0.3-0.3-1-0.3-1.4-0.3c-0.7,0-1,0.3-1.4,0.7c-0.3,0.3-0.7,1-1,2.1l-3.8,10.1
					l-0.3,0.3c-1.4,1-2.4,2.1-2.8,2.4c-0.7,0.3-1,0.7-1.4,0.7c-0.7,0-1-0.3-1-1c0-0.3,0-1,0.3-1.7c0-0.3,0.3-0.7,0.3-0.7
					c0-0.3,0.3-0.7,0.3-0.7l0.7-1.7c0.3-1,0.7-1.7,0.3-2.1c0-0.3-0.3-1-0.7-1c-0.3-0.3-1-0.3-1.4-0.3c-0.7,0-1,0.3-1.4,0.7
					c-0.3,0.3-0.7,1.4-1.4,2.4l-0.7,1.7c0,0-0.3,0.7-0.7,1.7l-0.3,0.7c-1,1.4-1.7,2.1-2.4,2.8c-0.7,0.7-1.4,0.7-2.1,1
					c-0.3,0-0.7,0-1-0.3c-0.3-0.3-0.3-0.7-0.3-1.4c0-1,0.3-2.1,1-3.5c0.7-1.4,1.7-2.4,3.1-3.8c1-1,2.1-1.7,3.5-2.4
					c1-0.7,2.4-1,4.2-1.7c1-0.3,1.7-0.7,2.1-1s0.7-0.7,0.3-1.4c0-1.4-1-1.7-2.4-1.7c-0.7,0-1.7,0.3-2.8,0.7c-1,0.3-2.1,0.7-3.1,1.4
					c-1,0.7-2.1,1-2.8,1.7c-2.4,1.7-4.2,3.5-5.6,5.9c-0.7,1.4-1.4,2.8-1.7,4.2h-0.3l-2.4,1.4c-1.4,0.7-2.8,1.4-4.2,2.1
					c-1.4,0.7-2.4,1-3.5,1c-1.7,0-2.4-0.3-2.4-1.7c0-0.7,0.3-1.7,0.7-2.8c0.7-1,1.4-2.4,2.4-3.5c1-1,2.1-2.1,3.1-2.8
					c-0.3,1-0.7,2.1-0.7,2.8c0,0.3,0.3,1,0.7,1c0.3,0.3,0.7,0.3,1.4,0.3c0.7,0,1.4-0.7,1.7-1.7l0.3-1.4l0.7-2.1c0,0,0-0.3,0.3-1.4
					c0-0.7,0.3-1,0.3-1.4c0-0.7-0.3-1-0.7-1.4c-0.3-0.3-1-0.3-1.7-0.3c-1,0-2.4,0.7-3.8,1.4s-2.8,1.7-4.2,3.1c-1,1-2.1,2.4-3.1,3.5
					c-1,1.4-1.4,2.4-2.1,3.8c-0.3,0.7-0.3,1.4-0.3,1.7c-0.3,0.3-0.3,0.3-0.7,0.7c-2.1,1.7-3.5,2.8-4.2,2.8s-0.7-0.3-1-0.7
					c0-0.3,0-1,0.3-1.7l3.5-9.4c0.3-1,0.7-1.7,0.7-2.1c0-0.7-0.3-1-0.7-1.4c-0.3-0.3-1-0.3-1.4-0.3c-0.7,0-1,0.3-1.4,0.7
					c-0.3,0.3-0.7,1-1,2.4l-3.5,9c0,0.3,0,0.3-0.3,0.7l-0.7,0.7c-1.7,1-2.8,2.1-3.8,2.4c-1,0.7-2.1,1-2.4,1c-0.3,0-0.7,0-1-0.3
					c-0.3-0.3-0.7-1-1-2.1l-1-2.4l4.9-3.8c1.4-1,2.4-2.1,3.1-2.8c0.7-0.7,0.7-1.4,0.7-2.4c0-0.7-0.3-1-0.7-1.7
					c-0.3-0.3-1-0.7-1.7-0.3c-0.7,0-1.4,0.3-1.7,1.4l-0.3,0.7c0,0.3-0.3,0.7-0.7,1c-0.3,0.3-1,0.7-2.1,1.7l-3.1,2.4l-1.4-3.8
					c-0.3-0.7-0.7-1.4-1-1.7c-0.3-0.3-0.7-0.3-1.4-0.3c-0.7,0-1,0.3-1.4,0.7c-0.3,0.3-0.7,1-0.7,1.4c0,0.3,0,1,0.3,1.7l1.7,4.9
					l-4.2,3.1c-0.3,0.3-1,0.7-1.4,1c-1.7,1-3.5,2.1-5.2,3.1c-1.7,0.7-3.1,1.4-4.5,1.4c-1,0-1.4-0.3-1.4-1c0-0.3,0-0.7,0.7-1.4
					c0.3-0.3,1-0.7,2.1-1.4l2.4-1.4c0.7-0.3,1.4-0.7,1.7-1c0.7-0.3,1-0.7,1.4-1c0.3-0.3,0.3-0.7,0.3-1s-0.3-1-0.7-1.4
					c-0.3-0.3-0.7-0.3-1.4-0.3s-1.7,0.7-3.5,1.4c-0.3-0.3-0.3-0.7-0.3-1s0-0.7,0.3-1c0.3-0.3,0.7-0.7,1.7-1l1.7-1
					c1.4-0.7,2.1-1,2.4-1.4c0.3-0.3,0.7-1,0.7-1.4c0-0.7-0.3-1-0.7-1.4c-0.3-0.3-1-0.3-1.4-0.3c-0.3,0-1,0.3-2.1,0.7
					c-1,0.3-1.7,1-2.8,1.4c-3.1,1.7-4.5,3.8-4.2,6.3c0,1,0.3,1.7,1,2.8c-2.8,1.7-3.8,3.5-3.8,5.9c0,1.4,0.7,2.4,1.7,3.1
					c1,0.7,2.4,1,4.2,1c1.4,0,2.8-0.3,4.5-1c0.7-0.3,1.7-0.7,2.4-1l0,0c3.1-1.4,5.2-2.8,5.9-3.1l0,0l0.7-0.3l3.5-2.8l0.7,2.1
					c0.3,1.4,1,2.4,1.4,3.1c0.3,0.7,1,1,1.7,1.4c0.7,0.3,1.4,0.3,2.4,0.3c2.1,0,4.5-1.4,7.3-3.1c0.3,0.7,0.7,1,1,1.4
					c0.7,0.7,1.7,1,3.1,1c2.1,0,4.2-1.4,6.6-3.5l0,0c0.7,0.7,1.4,1.4,2.4,1.7c1,0.3,2.4,0.3,3.8,0.3c1.4,0,2.8-0.3,4.2-1
					c1.4-0.3,3.1-1.4,4.9-2.1c0.7-0.3,1-0.7,1.4-1c0.3,0.7,0.7,1,1,1.7c1,1,2.4,1.4,3.8,1c1,0,1.7-0.3,2.4-0.7
					c0.7-0.3,1.7-1,2.8-2.1c0.3,1.4,1.4,2.1,3.1,2.1c1,0,2.1-0.3,3.1-1c0.3-0.3,0.7-0.3,1.4-0.7c0,0.3,0.3,0.7,0.3,0.7
					c0.3,0.3,1,0.3,1.4,0.3c0.7,0,1-0.3,1.4-0.7c0.3-0.3,0.7-1,1-2.4l3.8-10.1c0.7-1,1.7-1.7,2.8-2.4c1-0.7,1.7-1,2.1-1
					s0.7,0.3,0.7,0.7c0,0.3-0.3,1.4-1,3.1c-1,2.8-1.7,4.5-2.1,5.6c-0.3,1-0.3,2.1-0.3,2.4c0,1.4,0.7,2.1,1.4,2.8
					c0.7,0.7,1.7,1,3.1,1c2.1-0.3,4.5-1.7,7.6-4.2c1.7-1.4,2.4-2.4,2.4-3.5C264.8,400,264.8,399.6,264.5,399.3"/>
				<path class="st4" d="M294,377.4C294,377.1,294,377.1,294,377.4c0-0.3,0-0.3,0.3-0.3c0.7-1.4,0.7-2.8,0.7-3.5
					c0-1-0.3-1.4-1.4-2.1c-0.7-0.3-1.7-0.7-3.1-0.3c-2.4,0.3-4.9,0.7-7.3,2.1c-2.4,1-4.2,2.4-6.3,4.2c-1.7,1.7-3.1,3.5-4.2,5.6
					c-1,2.1-1.4,4.2-1,6.3c0,1.4,0.3,2.4,1,3.5c0.3,1,1,2.1,2.1,2.8c0.7,0.7,1.4,1,2.1,1.4c0.7,0.3,1.4,0.3,1.7,0.3
					c0.7,0,1-0.3,1.7-0.7c0.3-0.3,0.7-1,0.7-1.4c0-0.3,0-0.7-0.3-1c0-0.3-0.7-0.3-1-1c-1.7-1-2.4-2.4-2.8-4.2c0-1.7,0.3-3.8,1.4-5.6
					s2.8-3.5,4.5-4.9c2.1-1.4,4.2-2.4,6.6-2.8h0.3l0,0l-10.1,27.5c-0.3,1-0.7,1.7-0.7,2.4s0.3,1,0.7,1.4c0.3,0.3,1,0.3,1.4,0.3
					c0.7,0,1-0.3,1.4-0.7c0.3-0.3,0.7-1.4,1-2.4L294,377.4L294,377.4"/>
				<path class="st4" d="M299.9,401C299.9,400.7,299.9,400.7,299.9,401l-4.5-11.1l16-15.6c0.7-0.7,1-1.4,1.4-1.7
					c0.3-0.3,0.3-0.7,0.3-1c0-0.7-0.3-1-0.7-1.4c-0.3-0.3-1-0.7-1.7-0.3c-0.3,0-0.7,0-1,0.3c-0.3,0.3-1,0.7-1.7,1.7l-16.3,16
					c-0.3,0.3-0.7,0.7-1,1c0,0.3-0.3,0.7-0.3,1c0,0.3,0.3,0.7,0.7,1.7l4.9,11.8c0.3,1,1,1.7,1.4,2.1c0.3,0.3,1,0.7,1.4,0.3
					c0.7,0,1-0.3,1.4-0.7c0.3-0.3,0.3-1,0.3-1.4c0-0.3-0.3-1-0.7-1.7C300.3,401.4,300.3,401,299.9,401"/>
				<path class="st4" d="M309.7,380.2c-0.3,0.7-0.7,1.4-0.7,2.1s0.3,1.4,0.7,1.7c0.3,0.3,1,0.7,1.7,0.7s1.4-0.3,1.7-1
					c0.3-0.7,0.7-1.4,0.7-2.1s-0.3-1-0.7-1.7c-0.3-0.3-1-0.7-1.7-0.3C310.7,379.5,310,379.5,309.7,380.2"/>
				<path class="st4" d="M397.6,389.6c-0.3-0.3-0.7-0.3-1.4-0.3c-0.3,0-0.7,0-1,0.3c-0.3,0.3-1,0.7-1.7,1.4
					c-0.7,0.7-1.4,1.4-2.1,1.7c-0.3,0.3-0.7,0.7-1,0.7c-0.3,0-0.7,0.3-0.7,0.3c-0.7,0-0.7-0.3-0.7-0.7c0-0.3,0-1,0.3-1.7l1-2.1
					l1-2.4c0.7-2.1,1-3.5,1-4.9c0-1-0.3-1.7-1-2.4s-1.7-0.7-2.8-0.7c-0.7,0-1.4,0.3-2.4,0.7c-1,0.3-1.7,1-2.1,1.4v-0.3
					c0-0.7-0.3-1-0.7-1.4c-0.3-0.3-0.7-0.3-1.4-0.3c-0.7,0-1,0.3-1.4,0.7c-0.3,0.3-0.7,1-1,2.1l-3.5,9.7c0,0,0,0-0.3,0
					c-1.7,1-3.5,2.1-4.9,2.8c-1.7,0.7-3.1,1.4-4.2,1.4s-1.4-0.3-1.4-0.7c0-0.3,0-0.7,0.7-1.4c0.3-0.3,1-0.7,2.1-1.4l2.1-1
					c0.3,0,0.7-0.3,1.4-0.7c0.7-0.3,1-0.7,1.4-1c0.3-0.3,0.3-0.7,0.3-1c0-0.3-0.3-1-0.7-1.4c-0.3-0.3-0.7-0.3-1.4-0.3
					c-0.7,0-1.7,0.7-3.5,1.4c-0.3-0.3-0.3-0.7-0.3-1s0-0.7,0.3-1c0.3-0.3,0.7-0.7,1.4-1l1.7-1c1.4-0.7,2.1-1,2.4-1.4
					c0.3-0.3,0.7-1,0.7-1.4c0-0.7-0.3-1-0.7-1.4c-0.3-0.3-1-0.3-1.4-0.3c-0.3,0-1,0.3-1.7,0.7c-1,0.3-2.1,1-2.8,1.4
					c-2.8,1.7-4.2,3.8-4.2,5.9c0,1,0.3,1.7,1,2.4c-1,0.7-2.1,1.4-2.4,2.1c-0.3,0.3-0.7,0.7-1,1c-0.7,0.7-1.4,1.4-2.1,1.7
					c-0.3,0.3-0.7,0.7-1,0.7c-0.3,0-0.7,0.3-0.7,0.3c-0.7,0-0.7-0.3-0.7-0.7c0-0.3,0-0.7,0.3-1.7l1-2.1l1-2.4c0.7-2.1,1-3.5,1-4.9
					c0-1-0.3-1.7-1-2.4c-0.7-0.7-1.4-0.7-2.8-0.7s-2.8,0.7-4.2,2.1l3.1-8.3c0.3-1,0.7-1.7,0.7-2.1c0-0.7-0.3-1-0.7-1.4
					c-0.3-0.3-1-0.3-1.4-0.3c-0.7,0-1,0.3-1.4,0.7c-0.3,0.3-0.7,1-1,2.1l-7.3,19.8c0,0-0.3,0-0.3,0.3l-2.4,1.4
					c-1,0.7-2.4,1.4-3.8,1.7c-1.4,0.7-2.4,1-3.5,1c-1.4,0-2.4-0.3-2.4-1.7c0-0.7,0.3-1.7,0.7-2.8c0.7-1,1.4-2.4,2.4-3.5
					c1-1,2.1-2.1,3.1-2.8c-0.3,1-0.7,2.1-0.7,2.4c0,0.3,0.3,0.7,0.7,1c0.3,0.3,0.7,0.3,1.4,0.3c0.7,0,1.4-0.7,1.7-1.7l0.3-1l0.7-2.1
					c0-0.3,0.3-0.7,0.3-1.4c0-0.7,0.3-1,0.3-1.4c0-0.7-0.3-1-0.7-1.4c-0.3-0.3-1-0.3-1.7-0.3c-1,0-2.4,0.3-3.8,1.4
					c-1.4,0.7-2.8,1.7-4.2,3.1c-1,1-2.1,2.1-3.1,3.5c-1,1.4-1.4,2.4-1.7,3.8c0,0.3,0,0.3,0,0.7c-0.3,0-1,0.3-1.4,0.7l-1.4,1
					c-1,0.7-2.1,1.4-3.1,2.1c-0.7,0.7-1.4,0.7-2.1,0.7c-0.3,0-0.7,0-0.7-0.7c0-0.3,0.3-1.4,0.7-2.4l2.8-8l3.1-0.3
					c1,0,1.7-0.3,2.4-0.3c0.7-0.3,1-1,1-2.1c0-0.7-0.3-1-0.7-1.4c-0.3-0.3-1.4-0.3-2.4-0.3h-1.7l-0.7,0c0.3-1,0.7-1.7,0.3-2.1
					c0-0.7-0.3-1-0.7-1.4c-0.3-0.3-1-0.3-1.4-0.3c-0.7,0-1,0.3-1.4,0.7c-0.3,0.3-0.7,1-1,2.1l-1.4,3.5h-1.7c-1,0-2.1,0.3-2.4,0.3
					c-0.3,0.3-0.7,0.3-0.7,0.7c-0.3,0.3-0.3,0.7-0.3,1c0,0.7,0.3,1,1,1.4c0.3,0.3,1,0.3,2.1,0h0.3l-2.8,7.3c0,0,0,0,0,0.3
					c-0.3,0.3-0.7,0.7-1.4,1.4c-1.7,1.7-3.1,2.8-3.8,2.8s-0.7-0.3-0.7-0.7c0-0.3,0-0.7,0.3-1.7l3.1-9c0.3-1,0.7-1.7,0.7-2.1
					c0-0.7-0.3-1-0.7-1.4c-0.3-0.3-1-0.3-1.4-0.3c-0.7,0-1,0.3-1.4,0.7c-0.3,0.3-0.7,1-1,2.1l-3.1,8.7c-0.3,1-0.7,1.7-0.7,2.4
					s-0.3,1.4-0.3,2.1c0,1,0.7,2.1,1.4,2.8c0.7,0.7,1.7,1,3.1,0.7c1.7,0,3.8-1,5.9-2.8c0.3,0.3,0.7,1,1,1.4c0.7,0.7,1.7,0.7,3.1,0.7
					c1.7,0,4.2-1.4,7.3-3.5c0.7-0.3,1-0.7,1.4-1c0,0.3,0.3,0.7,0.7,1c0.7,0.7,1.4,1.4,2.4,1.7c1,0.3,2.1,0.3,3.5,0.3s2.8-0.3,4.2-1
					c1.4-0.3,2.4-1,3.8-1.7l0,0c0,0.7,0.3,1,0.7,1.4c0.3,0.3,1,0.3,1.4,0.3l0,0c0.3,0,0.7-0.3,0.7-0.3c0.3-0.3,0.7-0.3,0.7-0.7
					c0.3-0.3,0.3-1,0.7-1.7l3.8-10.1c0.7-0.7,1.7-1.7,2.4-2.1c1-0.7,1.7-1,2.1-1c0.3,0,0.7,0.3,0.7,0.7c0,0.3-0.3,1.4-1,2.8
					c-1,2.4-1.7,4.5-2.1,5.2c-0.3,1-0.3,1.7-0.3,2.4c0,1,0.7,2.1,1.4,2.8c0.7,0.7,1.7,1,3.1,0.7c0.7,0,1.7-0.3,2.4-0.7
					c0.7-0.3,1.7-1,2.8-1.7l0.3-0.3c0.3,0.3,0.7,0.7,1,1c1,0.7,2.4,1,4.2,0.7c1.4,0,2.8-0.3,4.2-1c1-0.3,2.1-1,3.5-1.4l0,0
					c0,0.7,0.3,1,0.7,1.4c0.3,0.3,0.7,0.3,1.4,0.3c0.7,0,1-0.3,1.4-0.7c0.3-0.3,0.7-1,1-2.1l3.8-10.1c0.7-1,1.7-1.7,2.4-2.1
					c0.7-0.7,1.4-1,2.1-1c0.3,0,0.7,0.3,0.7,0.7c0,0.3-0.3,1.4-1,2.8c-1,2.4-1.7,4.2-2.1,5.2c-0.3,1-0.3,1.7-0.3,2.4
					c0,1,0.7,2.1,1.4,2.8c0.7,0.7,1.7,1,3.1,0.7c2.1,0,4.5-1.4,7.3-4.2c1.4-1.4,2.4-2.4,2.1-3.5
					C397.9,390.3,397.9,389.9,397.6,389.6"/>
			</g>
		</g>
	</g>
</g>
</svg>
