<?xml version="1.0" encoding="utf-8"?>
<!-- Generator: Adobe Illustrator 27.6.1, SVG Export Plug-In . SVG Version: 6.00 Build 0)  -->
<svg version="1.1" id="Hungry_Jack_x27_s" xmlns="http://www.w3.org/2000/svg" xmlns:xlink="http://www.w3.org/1999/xlink" x="0px"
	 y="0px" viewBox="0 0 509.1 500" style="enable-background:new 0 0 509.1 500;" xml:space="preserve">
<style type="text/css">
	.st0{fill-rule:evenodd;clip-rule:evenodd;fill:#D8232A;}
	.st1{fill-rule:evenodd;clip-rule:evenodd;fill:#FFFFFE;}
	.st2{fill-rule:evenodd;clip-rule:evenodd;fill:#F6BC25;}
</style>
<g id="Home">
	<g id="Home-L" transform="translate(-905.000000, -74.000000)">
		<g id="Nav" transform="translate(228.000000, 74.000000)">
			
				<g id="HJLogo" transform="translate(731.000000, 53.000000) rotate(-360.000000) translate(-731.000000, -53.000000) translate(677.000000, 0.000000)">
				<g>
					<g id="Group-3">
						<path id="Fill-1_00000049189025224034951190000000706306079897380251_" class="st0" d="M509.1,440.2c0,33-27.2,59.8-60.9,59.8
							H60.8C27.2,500,0,473.2,0,440.2V59.8C0,26.8,27.2,0,60.8,0h387.4c33.6,0,60.9,26.8,60.9,59.8V440.2"/>
					</g>
					<path id="Fill-4" class="st1" d="M52.3,403.4c-6.3-10.6-6.9-23.6-6.9-23.6s0-226.5-0.1-229.4v-11.3c0.1-2,0.2-3.8,0.4-5.3
						c6-47.8,76.4-95.2,206.7-95.2S453.2,86,459.2,133.8c0.9,7.1,0.3,21.5,0.3,21.5v224.6c0,0-0.6,13-6.9,23.6
						c-22.6,38.4-87.2,56.7-200.1,56.7C139.5,460.1,75,441.8,52.3,403.4z"/>
					<path id="Fill-5" class="st1" d="M431.2,442c1.7,0,3.1-0.1,3.1-2.1c0-1.6-1.5-1.9-2.8-1.9h-2.7v4.1H431.2z M428.8,449.4h-2
						v-13.1h4.9c3.1,0,4.6,1.1,4.6,3.7c0,2.3-1.5,3.4-3.4,3.6l3.7,5.8h-2.2l-3.4-5.7h-2.3V449.4z M431.3,452.5c5.1,0,9.1-4,9.1-9.5
						c0-5.4-4-9.5-9.1-9.5c-5.1,0-9.1,4.1-9.1,9.5C422.2,448.5,426.2,452.5,431.3,452.5z M419.9,443c0-6.5,5.2-11.4,11.4-11.4
						c6.1,0,11.3,4.8,11.3,11.4c0,6.6-5.2,11.4-11.3,11.4C425.2,454.4,419.9,449.6,419.9,443L419.9,443z"/>
					<path id="Fill-6" class="st2" d="M249.7,448.7c120.6,0,181.7-22,192.6-64c1.8-7.7-4.2-10-10.2-10c-6,0-182.4,0-182.4,0
						s-176.4,0-182.4,0c-6,0-12,2.3-10.2,10C68,426.7,129.1,448.7,249.7,448.7"/>
					<path id="Fill-7" class="st2" d="M249.7,50C129.1,50,64.8,91.8,57.1,133.9c-1.8,9.7,4.2,13,10.2,13c6,0,182.4,0,182.4,0
						s176.4,0,182.4,0c6,0,12-3.3,10.2-13C434.6,91.8,370.3,50,249.7,50"/>
					<path id="Fill-8" class="st0" d="M408.4,188.8l-7.6-12.1c-2.2-4.2-9.4-4.9-13.1-3.6c-4.9,1.8-7.3,7.2-5.1,11.4l15,24.5
						c1.1,1.9,1.6,3.1,1.6,5v17.7c0,5,6,7.3,10.2,7.3c4.1,0,10.2-2.4,10.2-7.3V214c0-2,0.1-2.8,1.6-5l15-24.5
						c2.2-4.2-0.3-9.4-5.1-11.4c-3.7-1.5-10.9-0.6-13.1,3.6l-7.6,12C409.7,189.8,409,189.8,408.4,188.8z M360.3,271.2
						c-3,1.8-0.1,5.6,2.4,5.5c2.7-0.2,13.7-9.6,9.4-18.9c-1.1-2.4-3.6-4.2-6.6-4.2c-3.9,0-7,2.9-7,6.6c0.1,4.5,2.8,5.8,3.7,6.1
						c0.9,0.3,0.6,1,0.6,1.4C362.2,269.2,361.8,269.8,360.3,271.2z M403,351.9c-12.9,0-20.5-2.4-26.9-8.4c-5-5-2.9-11.1-1-14.2
						c1.9-3,6.3-7.8,14.1-3.7c7,3.6,7.9,2.8,11.2,2.8c4.9,0,7.1-3.8,7.1-7.9c0-4.1-3.5-5.5-6.2-6.1l-5.7-1.2
						c-11.2-2.3-22.3-10.9-22.3-23.9c0-21.4,13-35.7,34.1-35.7v0c11.5,0,16.9,1.8,23.5,8.4c5,5,2.9,11,0.9,14
						c-1.9,3-6.3,7.9-14.1,3.7c-5.8-3.1-6.8-2.7-9.5-2.7c-4.2,0-6.4,3-6.4,6.7c0,3.3,3.7,5,5.9,5.6l6.5,1.7
						c12.1,3.1,22.6,11.9,22.8,27.2C437.1,337.7,426.4,351.9,403,351.9z M355.5,273.8l-19.2,23.6c0,0-4,4.1-0.9,8.2
						c3.4,4.6,18.7,22.6,18.7,22.6s10.2,9.8-0.3,19c-10.5,9.2-16.4,1.3-16.4,1.3l-24.9-30.3c0,0-2.5-2.5-2.5,2l0-0.3v21
						c0,7.4-8,10.9-13.5,10.9c-5.5,0-13.5-3.5-13.5-10.9v-76.7c0-7.4,8-10.9,13.5-10.9c5.5,0,13.5,3.5,13.5,10.9v20.8l0-0.3
						c0,2.6,1.6,2.7,2.7,1.2l22.4-27.1c5-6.5,12.5-6.6,18.6-1.4C359,262.2,360.1,268,355.5,273.8z M95.9,351.9
						c21.2,0,27.3-13.3,27.3-27.5l0.1-1.5v-58.6c0-7.3-8.2-10.8-13.8-10.8c-5.6,0-13.8,3.5-13.8,10.8v55.2c0.6,8.8-5.2,11-7.4,4.5
						c-3.2-7.8-11.2-6.1-14.2-4.5c-3.1,1.5-7.4,5.5-5.6,13.1C71.8,344,80.1,351.8,95.9,351.9z M168.1,314.3c0,0-7.9,0-8.7,0
						c-0.8,0-1.5-0.6-1.1-1.6l4.3-14.1c0.4-2.1,2.2-2.3,2.8,0l4.3,14.2C170,314,169.6,314.3,168.1,314.3z M178.4,338.1l1.3,4.4
						c1.5,6.4,10,10.1,14.9,9.2c5.5-1,11.8-7.2,9.5-14.3l-22.8-74.2c-2.1-7.4-10.7-9.5-15.9-9.7c-5.2,0.2-13.9,2.4-15.9,9.7
						l-22.8,74.2c-2.3,7.1,4,13.3,9.5,14.3c4.9,0.9,13.4-2.8,14.9-9.2l1.3-4.4c0.3-1.4,1-1.7,2.1-1.7c1.2,0,21.9,0,21.9,0
						C178,336.5,178.1,337.1,178.4,338.1z M229.1,302.8c0,13,4.9,24.6,19,24.6c3.8,0,4.3-0.5,9-2.7c8.4-3.9,12.9,0.7,14.9,3.8
						c2.1,3.1,4.3,9.5-1,14.7c-5.3,5.5-12.8,8.7-24.3,8.7c-26.6,0-45-20.1-45-49.2c0-29,18.4-49.2,45-49.2c11.2,0,18.4,2.6,24.3,8.7
						c5.3,5.2,3,11.5,1,14.6c-2.1,3.1-6.6,7.8-14.9,3.8c-4.3-2-5.1-2.7-9-2.7C234,277.9,229,289.8,229.1,302.8L229.1,302.8z
						 M90.7,214.5c-1.3,0-2.4,0.4-2.4,2.1v15.1c0,5-6,7.3-10.1,7.3c-4.1,0-10.1-2.4-10.1-7.3v-51.9c0-5,6-7.4,10.1-7.4
						c4.1,0,10.1,2.4,10.1,7.4v13.9c0,1.5,1.1,2.1,2.2,2.1h10.3c1.3,0,2.2-0.6,2.2-2.1v-13.9c0-5,6-7.4,10.1-7.4
						c4.1,0,10.1,2.4,10.1,7.4v51.9c0,5-6,7.3-10.1,7.3c-4.1,0-10.1-2.4-10.1-7.3v-15.1c0-1.6-1.1-2.1-2.3-2.1H90.7z M297.6,213.9
						c-7.5,0-8.8-5.1-8.8-8.9c0-3.8,1.6-8.6,8.9-8.6h14.7c5.2,0,8.4,2,8.4,7v18.9c0,10.8-13.8,16.7-28.9,16.7
						c-19.6,0-35-10.9-35-34.9c0-20.4,14.4-34.5,35.2-34.5c10.6,0,18.7,2.3,24.3,7.2c4.1,3.6,2.4,8.5,0.8,10.7
						c-1.6,2.2-5.2,5.6-11.7,2.7c-6.5-2.9-8.4-3-12.3-3c-11,0-14.8,8.1-14.8,17.3c0,9.1,4.7,16.6,13,16.6c6.8,0,9.2-2.1,8.9-5.6
						C300.2,214.1,299.6,213.9,297.6,213.9z M351,198.5c4.1,0,7.5-2.7,7.5-7.2c0-4.5-1.4-7.3-7.9-7.3c-2.4,0-3,0.5-3.7,1.4v11.8
						C346.9,198.6,348.4,198.5,351,198.5z M369.7,209.9c-1,0.7-0.8,1.2-0.4,1.9l11.2,14.4c2.9,3.7,0.1,9-3.7,11.3
						c-3.4,2.1-10.8,2.4-13.7-1.3l-14.4-18.3c-0.8-1-2-0.6-2,0.7v13.5c0,4.8-6,6.8-10.1,6.8c-4.1,0-10.1-2.1-10.1-6.8v-52.3
						c0-4.8,5.2-7.3,10.1-7.3h19.1c17,0,22.8,12.9,22.8,19.6C378.6,198.2,376.7,205.1,369.7,209.9z M158.1,236.2
						c12.2,0,26.1-7.8,26.1-19v-40.7c0-4.8-5.9-6.9-10-6.9c-4.1,0-10,2.1-10,6.9v36.7c0,2.7-3.3,4.2-6.2,4.2c-2.9,0-6.2-1.5-6.2-4.2
						v-36.7c0-4.8-5.9-6.9-10-6.9c-4.1,0-10,2.1-10,6.9v40.7C132,228.3,146,236.2,158.1,236.2z M210.5,211.4v20
						c0,4.6-6.1,7.7-10.2,7.7c-4.2,0-10.2-2.5-10.2-7.7v-53.7c0-5.2,6.1-8.1,10.2-8.1c5.3,0,8.4,3,10.9,6.3l16.3,21.1
						c1.3,1.7,3.1,1.9,3.1,0.5v-19.8c0-5.2,6.1-8.1,10.2-8.1c4.2,0,10.2,2.9,10.2,8.1v53.7c0,5.2-6.1,7.7-10.2,7.7
						c-3.6,0-6-0.1-10.3-5.5c-4.3-5.5-17.3-22.1-17.3-22.1C212.5,210.2,210.5,209.9,210.5,211.4L210.5,211.4z"/>
				</g>
			</g>
		</g>
	</g>
</g>
</svg>
