<svg width="210" height="60" viewBox="0 0 210 60" fill="none" xmlns="http://www.w3.org/2000/svg">
<g id="Logo">
<path id="Vector" d="M70.1447 38.1817V14.8472H66.3184V38.1817H70.1447Z" fill="#9B9B9B"/>
<path id="Vector_2" d="M72.4863 30.4036C72.4863 35.1708 75.6854 38.5581 80.5468 38.5581C85.4082 38.5581 88.6072 35.1708 88.6072 30.4036C88.6072 25.6363 85.4082 22.249 80.5468 22.249C75.6854 22.249 72.4863 25.6363 72.4863 30.4036ZM76.3441 30.4036C76.3441 27.6122 78.0063 25.6677 80.5468 25.6677C83.0872 25.6677 84.7495 27.6122 84.7495 30.4036C84.7495 33.1636 83.0872 35.1395 80.5468 35.1395C78.0063 35.1395 76.3441 33.1636 76.3441 30.4036Z" fill="#9B9B9B"/>
<path id="Vector_3" d="M89.8945 30.0902C89.8945 34.6065 92.8113 37.8683 97.1709 37.8683C99.4291 37.8683 101.374 36.9588 102.346 35.4533V38.0879C102.346 40.6283 100.746 42.322 98.0804 42.322C95.6968 42.322 94.0659 41.1615 93.8463 39.1229H89.9886C90.4904 43.1688 93.5954 45.8033 97.8609 45.8033C102.879 45.8033 106.078 42.5102 106.078 37.3979V22.6883H102.691L102.471 24.7897C101.53 23.1588 99.5859 22.1865 97.2963 22.1865C92.8741 22.1865 89.8945 25.5424 89.8945 30.0902ZM93.7836 29.9961C93.7836 27.4242 95.4145 25.5424 97.8295 25.5424C100.464 25.5424 102.22 27.4556 102.22 29.9961C102.22 32.5679 100.464 34.5438 97.8295 34.5438C95.4459 34.5438 93.7836 32.5992 93.7836 29.9961Z" fill="#9B9B9B"/>
<path id="Vector_4" d="M107.971 30.4036C107.971 35.1708 111.17 38.5581 116.031 38.5581C120.893 38.5581 124.092 35.1708 124.092 30.4036C124.092 25.6363 120.893 22.249 116.031 22.249C111.17 22.249 107.971 25.6363 107.971 30.4036ZM111.828 30.4036C111.828 27.6122 113.491 25.6677 116.031 25.6677C118.572 25.6677 120.234 27.6122 120.234 30.4036C120.234 33.1636 118.572 35.1395 116.031 35.1395C113.491 35.1395 111.828 33.1636 111.828 30.4036Z" fill="#9B9B9B"/>
<path id="Vector_5" d="M128.233 19.5204C129.487 19.5204 130.522 18.5167 130.522 17.2308C130.522 15.9763 129.487 14.9727 128.233 14.9727C126.947 14.9727 125.975 15.9763 125.975 17.2308C125.975 18.5167 126.947 19.5204 128.233 19.5204ZM126.32 38.1817H130.146V22.6881H126.32V38.1817Z" fill="#9B9B9B"/>
<path id="Vector_6" d="M133.498 45.3641H137.231V36.0491C138.203 37.6487 140.304 38.5896 142.625 38.5896C147.204 38.5896 149.933 35.0769 149.87 30.2469C149.776 25.3855 146.985 22.2178 142.594 22.2178C140.241 22.2178 138.109 23.2528 137.168 25.0405L136.948 22.6882H133.498V45.3641ZM137.387 30.435C137.387 27.6437 139.081 25.6991 141.747 25.6991C144.413 25.6991 146.012 27.675 146.012 30.435C146.012 33.195 144.413 35.1396 141.747 35.1396C139.081 35.1396 137.387 33.2264 137.387 30.435Z" fill="#9B9B9B"/>
<path id="Vector_7" d="M150.842 33.54C150.967 36.6137 153.351 38.5896 157.052 38.5896C160.69 38.5896 163.168 36.645 163.168 33.6341C163.168 31.4073 161.788 29.9019 159.247 29.2746L156.519 28.616C155.358 28.3023 154.574 27.8946 154.574 26.891C154.574 25.8246 155.421 25.0719 156.801 25.0719C158.244 25.0719 159.185 25.8873 159.185 27.236H162.666C162.54 24.1623 160.251 22.2178 156.895 22.2178C153.57 22.2178 151.093 24.1623 151.093 27.1105C151.093 29.1178 152.253 30.78 155.233 31.5641L157.93 32.2541C158.934 32.5364 159.561 33.0069 159.561 33.885C159.561 35.1082 158.4 35.6728 156.989 35.6728C155.295 35.6728 154.323 34.8887 154.323 33.54H150.842Z" fill="#9B9B9B"/>
<path id="Vector_8" d="M171.105 38.5894C173.206 38.5894 175.213 37.6171 176.123 36.1744L176.374 38.1816H179.949V22.688H176.123V30.8112C176.123 33.6025 175.056 35.1707 172.547 35.1707C170.603 35.1707 169.254 34.2298 169.254 31.0307V22.688H165.428V32.3794C165.428 36.0803 167.435 38.5894 171.105 38.5894Z" fill="#9B9B9B"/>
<path id="Vector_9" d="M187.153 38.1819V29.2746C187.153 26.7655 188.627 25.5737 190.446 25.5737C192.265 25.5737 193.457 26.7341 193.457 28.9296V38.1819H197.189V29.306C197.189 26.7655 198.632 25.5737 200.451 25.5737C202.301 25.5737 203.493 26.7341 203.493 28.9296V38.1819H207.194V28.0514C207.194 24.476 205.218 22.2178 201.454 22.2178C199.102 22.2178 197.252 23.3469 196.499 25.166C195.652 23.3469 193.958 22.2178 191.387 22.2178C189.568 22.2178 187.937 23.0646 187.027 24.4446L186.839 22.6882H183.326V38.1819H187.153Z" fill="#9B9B9B"/>
<path id="Vector_10" fill-rule="evenodd" clip-rule="evenodd" d="M2.72656 30.5939L2.72919 30.3206L2.73462 30.0472L2.74286 29.7738L2.75389 29.5004L2.76774 29.2269L2.78439 28.9535L2.80387 28.6803L2.82614 28.407L2.85123 28.1339L2.87913 27.8607L2.90984 27.588L2.94334 27.3153L2.97967 27.0428L3.0188 26.7706L3.06074 26.4987L3.10548 26.2272L3.15303 25.9559L3.20336 25.685L3.2565 25.4145L3.31244 25.1444L3.37117 24.8746L3.43267 24.6054L3.49698 24.3368L3.56404 24.0686L3.6339 23.801L3.70651 23.5339L3.78191 23.2674L3.86006 23.0017L3.94096 22.7366L4.02461 22.4722L4.11101 22.2084L4.20015 21.9454L4.29202 21.6832L4.3866 21.4218L4.48391 21.1612L4.58392 20.9014L4.68664 20.6426L4.79205 20.3846L4.90014 20.1277L5.01091 19.8716L5.12435 19.6164L5.24045 19.3624L5.3592 19.1094L5.48059 18.8574L5.60461 18.6065L5.73125 18.3569L5.8605 18.1083L5.99235 17.8608L6.12678 17.6146L6.26378 17.3696L6.40336 17.1258L6.54548 16.8833L6.69015 16.6421L6.83734 16.4022L6.98705 16.1637L7.13926 15.9266L7.29397 15.6909L7.45115 15.4565L7.61079 15.2238L7.77289 14.9924L7.93741 14.7624L8.10435 14.5342L8.2737 14.3073L8.44544 14.0821L8.61956 13.8585L8.79603 13.6364L8.97484 13.416L9.15599 13.1973L9.33944 12.9803L9.52519 12.765L9.71322 12.5515L9.9035 12.3397L10.096 12.1297L10.2908 11.9215L10.4878 11.7151L10.6869 11.5106L10.8883 11.3079L11.0917 11.1072L11.2974 10.9083L11.5051 10.7115L11.7149 10.5165L11.9268 10.3236L12.1408 10.1326L12.3568 9.94373L12.5749 9.75684L12.7949 9.57204L13.0169 9.38933L13.2408 9.20871L13.4667 9.03023L13.6946 8.85388L13.9242 8.67972L14.1559 8.50772L14.3893 8.33795L14.6246 8.1704L14.8616 8.00508L15.1005 7.84203L15.341 7.68125L15.5833 7.52278L15.8274 7.36662L16.0733 7.2128L16.3207 7.06133L16.5698 6.91221L16.8204 6.7655L17.0727 6.62118L17.3266 6.47928L17.582 6.33983L17.8389 6.20281L18.0973 6.06827L18.3572 5.9362L18.6187 5.80664L18.8814 5.67959L19.1457 5.55507L19.4112 5.43309L19.6782 5.31368L19.9464 5.19683L20.216 5.08257L20.4868 4.97091L20.7589 4.86186L21.0322 4.75543L21.3067 4.65166L21.5822 4.55052L21.8591 4.45206L22.137 4.35627L22.416 4.26316L22.6959 4.17276L22.977 4.08507L23.2591 4.0001L23.5422 3.91787L23.8261 3.83838L24.1111 3.76164L24.3969 3.68766L24.6836 3.61647L24.971 3.54807L25.2594 3.48243L25.5485 3.41963L25.8383 3.35961L26.1289 3.30242L26.4202 3.24807L26.7121 3.19653L27.0047 3.14785L27.2979 3.10202L27.5917 3.05904L27.8859 3.01893L28.1807 2.98169L28.4761 2.94733L28.7719 2.91583L29.0681 2.88725L29.3647 2.86154L29.6617 2.83873L29.9589 2.81883L31.5577 2.72754L31.6489 10.4303L31.7011 10.4297L31.9219 10.4294L32.1427 10.4312L32.3634 10.4352L32.5845 10.4414L32.8054 10.4498L33.0264 10.4603L33.2475 10.4731L33.4685 10.488L33.6894 10.505L33.9105 10.5243L34.1312 10.5457L34.352 10.5693L34.5725 10.5951L34.793 10.6231L35.0132 10.6532L35.2333 10.6856L35.4532 10.7201L35.6728 10.7568L35.8921 10.7956L36.1112 10.8366L36.33 10.8798L36.5483 10.9252L36.7665 10.9728L36.9841 11.0225L37.2013 11.0743L37.4183 11.1283L37.6347 11.1845L37.8506 11.2429L38.066 11.3034L38.2811 11.366L38.4954 11.4308L38.7092 11.4977L38.9225 11.5667L39.1352 11.6379L39.3473 11.7112L39.5587 11.7866L39.7695 11.8642L39.9795 11.9438L40.1888 12.0255L40.3974 12.1094L40.6052 12.1953L40.8122 12.2833L41.0186 12.3734L41.2241 12.4656L41.4286 12.5598L41.6323 12.6561L41.8352 12.7544L42.0372 12.8548L42.2382 12.9572L42.4382 13.0617L42.6373 13.1681L42.8355 13.2766L43.0325 13.387L43.2286 13.4995L43.4236 13.6139L43.6175 13.7303L43.8103 13.8487L44.0021 13.9689L44.1926 14.0913L44.382 14.2154L44.5702 14.3415L44.7572 14.4695L44.943 14.5994L45.1276 14.7312L45.3109 14.8649L45.4928 15.0004L45.6736 15.1379L45.8529 15.2771L46.031 15.4182L46.2076 15.561L46.383 15.7057L46.5568 15.8523L46.7293 16.0005L46.9005 16.1505L47.0701 16.3023L47.2381 16.4558L47.4047 16.6111L47.5699 16.7681L47.7335 16.9267L47.8955 17.087L48.056 17.249L48.2149 17.4128L48.3722 17.5781L48.5278 17.745L48.6819 17.9135L48.8342 18.0837L48.9849 18.2554L49.134 18.4287L49.2812 18.6035L49.4269 18.7799L49.5707 18.9578L49.7128 19.1371L49.8532 19.3179L49.9917 19.5003L50.1285 19.6841L50.2633 19.8693L50.3964 20.0559L50.5276 20.244L50.657 20.4333L50.7845 20.624L50.9101 20.8162L51.0338 21.0097L51.1554 21.2044L51.2753 21.4004L51.3931 21.5977L51.509 21.7962L51.6229 21.996L51.7348 22.197L51.8447 22.3992L51.9526 22.6025L52.0584 22.8071L52.1622 23.0127L52.2639 23.2194L52.3636 23.4274L52.4612 23.6363L52.5567 23.8463L52.6501 24.0574L52.7413 24.2694L52.8304 24.4826L52.9174 24.6965L53.0022 24.9116L53.0848 25.1274L53.1653 25.3444L53.2436 25.562L53.3197 25.7808L53.3936 26.0002L53.4653 26.2205L53.5347 26.4416L53.6019 26.6634L53.6668 26.8861L53.7296 27.1095L53.79 27.3337L53.8482 27.5585L53.904 27.7839L53.9577 28.0102L54.009 28.2369L54.0579 28.4644L54.1047 28.6923L54.149 28.9209L54.191 29.15L54.2308 29.3797L54.2682 29.6097L54.3032 29.8403L54.336 30.0714L54.3662 30.3029L54.3942 30.5348L54.4198 30.767L54.443 30.9997L54.4639 31.2326L54.4824 31.4659L54.4985 31.6995L54.5122 31.9334L54.5235 32.1674L54.5325 32.4018L54.5389 32.6362L54.5431 32.8709L54.5447 33.1057L54.5441 33.3406L54.5409 33.5757L54.5353 33.8109L54.5274 34.046L54.5171 34.2813L54.5044 34.5165L54.4891 34.7517L54.4715 34.9869L54.4515 35.222L54.429 35.4571L54.4042 35.6921L54.3767 35.9268L54.347 36.1614L54.315 36.3959L54.2803 36.6301L54.2434 36.8641L54.204 37.0979L54.1621 37.3313L54.1179 37.5645L54.0713 37.7974L54.0222 38.0299L53.9707 38.262L53.9168 38.4938L53.8606 38.7251L53.8018 38.9559L53.7407 39.1863L53.6773 39.4162L53.6115 39.6455L53.5433 39.8744L53.4727 40.1028L53.3996 40.3304L53.3243 40.5575L53.2466 40.7839L53.1664 41.0097L53.084 41.2349L52.9992 41.4592L52.9121 41.6828L52.8226 41.9058L52.7308 42.1279L52.6367 42.3492L52.5403 42.5699L52.4416 42.7894L52.3406 43.0083L52.2372 43.2262L52.1317 43.4431L52.0237 43.6593L51.9136 43.8743L51.8011 44.0885L51.6866 44.3015L51.5696 44.5137L51.4505 44.7247L51.3292 44.9347L51.2056 45.1436L51.0799 45.3513L50.952 45.558L50.8217 45.7634L50.6895 45.9676L50.5552 46.1707L50.4185 46.3725L50.2798 46.5731L50.139 46.7724L49.9961 46.9704L49.851 47.1672L49.7038 47.3626L49.5547 47.5567L49.4034 47.7492L49.2502 47.9405L49.0948 48.1304L48.9375 48.3187L48.7781 48.5056L48.6167 48.6911L48.4534 48.875L48.2881 49.0575L48.1209 49.2384L47.9518 49.4178L47.7807 49.5956L47.6078 49.7716L47.4328 49.9462L47.2561 50.1191L47.0776 50.2904L46.8972 50.46L46.715 50.6279L46.5309 50.7941L46.3451 50.9584L46.1576 51.1211L45.9682 51.2821L45.7771 51.4413L45.5843 51.5985L45.3898 51.7541L45.1936 51.9078L44.9957 52.0595L44.7962 52.2094L44.5951 52.3575L44.3925 52.5037L44.1881 52.6478L43.9822 52.7902L43.7747 52.9305L43.5658 53.0688L43.3553 53.2051L43.1434 53.3396L42.93 53.4719L42.7151 53.6022L42.4987 53.7304L42.2809 53.8567L42.0619 53.9808L41.8412 54.1027L41.6195 54.2227L41.3963 54.3404L41.1718 54.456L40.946 54.5696L40.719 54.6809L40.4907 54.7899L40.2612 54.897L40.0305 55.0017L39.7987 55.1043L39.5656 55.2045L39.3315 55.3025L39.0962 55.3984L38.8599 55.4919L38.6225 55.5832L38.384 55.6722L38.1446 55.7588L37.904 55.8432L37.6627 55.9252L37.4203 56.0049L37.1769 56.0823L36.9327 56.1573L36.6877 56.2299L36.4418 56.3002L36.195 56.3681L35.9475 56.4337L35.699 56.4967L35.45 56.5574L35.2002 56.6157L34.9496 56.6715L34.6984 56.7249L34.4465 56.7759L34.194 56.8245L33.9409 56.8706L33.6872 56.9141L33.4329 56.9553L33.1782 56.994L32.9228 57.0301L32.6671 57.0638L32.4109 57.095L32.1541 57.1237L31.8971 57.1499L31.6396 57.1736L31.3819 57.1947L31.1237 57.2134L30.8653 57.2295L30.6065 57.2431L30.3476 57.2542L30.0885 57.2626L29.829 57.2686L29.5695 57.272L29.3097 57.273L29.0499 57.2714L28.79 57.2671L28.53 57.2604L28.2699 57.251L28.0099 57.2392L27.7498 57.2249L27.4899 57.2078L27.2299 57.1883L26.9701 57.1662L26.7103 57.1415L26.4507 57.1144L26.1913 57.0847L25.9321 57.0524L25.673 57.0174L25.4143 56.9799L25.1558 56.94L24.8977 56.8974L24.6398 56.8524L24.3822 56.8047L24.1252 56.7545L23.8684 56.7019L23.6122 56.6465L23.3562 56.5887L23.1009 56.5284L22.8461 56.4656L22.5917 56.4001L22.338 56.3322L22.0849 56.2619L21.8323 56.1889L21.5803 56.1135L21.3292 56.0355L21.0787 55.955L20.8288 55.8721L20.5797 55.7866L20.3314 55.6987L20.0839 55.6084L19.8372 55.5155L19.5913 55.4202L19.3464 55.3224L19.1023 55.2222L18.8592 55.1195L18.617 55.0145L18.3758 54.9071L18.1355 54.7972L17.8963 54.6848L17.6582 54.5701L17.4212 54.453L17.1852 54.3335L16.9504 54.2118L16.7168 54.0875L16.4842 53.9611L16.2529 53.8323L16.0228 53.7011L15.794 53.5676L15.5664 53.4318L15.3402 53.2938L15.1152 53.1533L14.8916 53.0108L14.6694 52.8659L14.4485 52.7189L14.2291 52.5694L14.0112 52.4179L13.7947 52.2642L13.5796 52.1082L13.3661 51.9502L13.1541 51.7898L12.9437 51.6274L12.7348 51.4629L12.5276 51.2962L12.322 51.1275L12.118 50.9566L11.9156 50.7837L11.715 50.6088L11.5161 50.4316L11.3189 50.2526L11.1235 50.0716L10.9298 49.8885L10.738 49.7036L10.5479 49.5165L10.3597 49.3276L10.1734 49.1369L9.98894 48.944L9.80637 48.7494L9.62573 48.5529L9.44704 48.3545L9.2703 48.1544L9.09554 47.9524L8.92278 47.7485L8.75204 47.543L8.58334 47.3356L8.41669 47.1266L8.25213 46.9158L8.08965 46.7033L7.92929 46.4891L7.77105 46.2732L7.61497 46.0557L7.46104 45.8366L7.30931 45.6159L7.15977 45.3937L7.01246 45.1698L6.86738 44.9445L6.72454 44.7176L6.58398 44.4892L6.4457 44.2594L6.30972 44.028L6.17607 43.7954L6.04474 43.5612L5.91575 43.3257L5.78914 43.0887L5.66489 42.8505L5.54304 42.611L5.42359 42.3702L5.30658 42.1282L5.19199 41.8848L5.07984 41.6403L4.97017 41.3944L4.86296 41.1476L4.75824 40.8994L4.65604 40.6503L4.55633 40.3999L4.45916 40.1484L4.36454 39.896L4.27245 39.6425L4.18293 39.3881L4.09597 39.1327L4.0116 38.8762L3.92984 38.6189L3.85066 38.3606L3.77412 38.1015L3.7002 37.8414L3.62891 37.5806L3.56026 37.319L3.49428 37.0567L3.43095 36.7935L3.37031 36.5296L3.31234 36.2649L3.25706 35.9997L3.20448 35.7338L3.15459 35.4674L3.10743 35.2002L3.06299 34.9325L3.02126 34.6643L2.98227 34.3955L2.94603 34.1262L2.91254 33.8565L2.88179 33.5864L2.85379 33.3158L2.82856 33.045L2.8061 32.7736L2.78641 32.502L2.7695 32.2301L2.75538 31.9579L2.74403 31.6854L2.73547 31.4129L2.7297 31.14L2.72674 30.867L2.72656 30.5939ZM29.1512 10.5916L29.0891 5.34134L29.03 5.34704L28.7589 5.3759L28.4885 5.40737L28.2182 5.44152L27.9491 5.4782L27.6802 5.51755L27.4115 5.55954L27.1437 5.6041L26.8762 5.65133L26.61 5.701L26.3434 5.75346L26.0787 5.80828L25.8136 5.86587L25.5499 5.92589L25.2864 5.98859L25.0242 6.05369L24.7627 6.12141L24.5018 6.19165L24.2417 6.26443L23.9829 6.33965L23.7245 6.41746L23.4675 6.49768L23.2111 6.58045L22.9561 6.66552L22.7015 6.75327L22.4483 6.84336L22.1963 6.93584L21.945 7.03085L21.695 7.12817L21.4464 7.22784L21.1985 7.33007L20.9518 7.43462L20.7064 7.54156L20.4623 7.65074L20.2194 7.7623L19.9779 7.87611L19.7372 7.99243L19.4983 8.11088L19.2607 8.23163L19.0243 8.35465L18.7894 8.47996L18.5561 8.6074L18.3237 8.73721L18.0928 8.86926L17.864 9.0032L17.6359 9.13975L17.4099 9.27812L17.1855 9.41864L16.9621 9.56147L16.7405 9.70638L16.5206 9.85341L16.3027 10.0022L16.0856 10.1536L15.8707 10.3066L15.6574 10.4617L15.4456 10.619L15.2357 10.7781L15.0278 10.9391L14.8211 11.1024L14.6167 11.2673L14.4137 11.4343L14.2127 11.6031L14.0135 11.7739L13.8163 11.9463L13.6206 12.1209L13.4272 12.2971L13.2353 12.4753L13.0457 12.655L12.8579 12.8367L12.6721 13.02L12.4882 13.2051L12.3061 13.3921L12.1264 13.5804L11.9487 13.7703L11.7726 13.9624L11.5989 14.1558L11.4274 14.3505L11.2576 14.5473L11.0902 14.7453L10.9248 14.945L10.7615 15.1462L10.6004 15.3489L10.4414 15.5531L10.2848 15.7586L10.1302 15.9656L9.9777 16.1742L9.82767 16.3838L9.67965 16.5952L9.53398 16.8076L9.39057 17.0214L9.24931 17.2366L9.11044 17.453L8.97384 17.6705L8.83954 17.8894L8.70764 18.1094L8.5779 18.3307L8.45049 18.5532L8.3256 18.7766L8.20294 19.0012L8.08263 19.227L7.96475 19.4538L7.8492 19.6816L7.73613 19.9103L7.62541 20.1401L7.51714 20.3708L7.41123 20.6026L7.30782 20.8351L7.20676 21.0687L7.10817 21.3031L7.0121 21.5382L6.91844 21.7743L6.82722 22.0111L6.73852 22.2487L6.65227 22.487L6.56857 22.7259L6.48728 22.9658L6.40852 23.2062L6.33228 23.4473L6.25856 23.6888L6.18729 23.9313L6.11861 24.174L6.05243 24.4174L5.98876 24.6612L5.92763 24.9057L5.86905 25.1505L5.813 25.3958L5.75949 25.6415L5.70854 25.8877L5.66013 26.1341L5.61425 26.3809L5.57094 26.628L5.53019 26.8755L5.49199 27.1231L5.45634 27.371L5.42326 27.6192L5.39273 27.8675L5.36476 28.116L5.33936 28.3647L5.31652 28.6134L5.29623 28.8622L5.2785 29.1112L5.26334 29.3602L5.25072 29.609L5.24067 29.858L5.23317 30.1069L5.22824 30.3558L5.22584 30.6045L5.226 30.8532L5.2287 31.1017L5.23395 31.3501L5.24174 31.5983L5.25206 31.8462L5.26493 32.094L5.28031 32.3414L5.29823 32.5886L5.31867 32.8354L5.34164 33.0819L5.36709 33.3282L5.39508 33.5739L5.42555 33.8194L5.45853 34.0643L5.49399 34.3088L5.53196 34.5529L5.57238 34.7963L5.61529 35.0393L5.66066 35.2818L5.70848 35.5235L5.75876 35.7649L5.81148 36.0054L5.86664 36.2454L5.92422 36.4848L5.98422 36.7234L6.04665 36.9614L6.11145 37.1984L6.17868 37.4348L6.24828 37.6704L6.32025 37.9053L6.39459 38.1393L6.47127 38.3723L6.55031 38.6045L6.63169 38.8358L6.71539 39.0663L6.80138 39.2956L6.88973 39.5242L6.98032 39.7516L7.07319 39.9781L7.16836 40.2035L7.26577 40.4279L7.36544 40.6512L7.46733 40.8735L7.57144 41.0945L7.67775 41.3145L7.78627 41.5332L7.89695 41.7509L8.00982 41.9673L8.12483 42.1824L8.24199 42.3964L8.36127 42.609L8.48266 42.8204L8.60615 43.0305L8.73174 43.2391L8.85934 43.4465L8.98908 43.6526L9.12079 43.8571L9.25456 44.0604L9.39034 44.2623L9.52808 44.4626L9.6678 44.6615L9.80952 44.859L9.95314 45.0549L10.0987 45.2494L10.2462 45.4422L10.3956 45.6335L10.5468 45.8232L10.6999 46.0114L10.8549 46.1981L11.0116 46.383L11.1702 46.5663L11.3305 46.7479L11.4927 46.9279L11.6566 47.1061L11.8222 47.2827L11.9895 47.4575L12.1586 47.6307L12.3293 47.8021L12.5017 47.9716L12.6757 48.1395L12.8513 48.3054L13.0286 48.4698L13.2074 48.6322L13.3878 48.7927L13.5697 48.9513L13.7532 49.1081L13.9382 49.263L14.1245 49.416L14.3126 49.5672L14.5018 49.7163L14.6926 49.8635L14.8847 50.0089L15.0784 50.1522L15.2732 50.2935L15.4695 50.4329L15.6669 50.5702L15.8659 50.7056L16.0659 50.8388L16.2675 50.9701L16.47 51.0994L16.6738 51.2265L16.8789 51.3517L17.085 51.4747L17.2924 51.5956L17.5007 51.7144L17.7103 51.8311L17.9209 51.9457L18.1327 52.0582L18.3452 52.1685L18.5589 52.2768L18.7737 52.3827L18.9894 52.4866L19.206 52.5884L19.4235 52.6879L19.6418 52.7851L19.8612 52.8803L20.0813 52.9732L20.3023 53.064L20.5241 53.1525L20.7466 53.2387L20.97 53.3228L21.1939 53.4046L21.4186 53.4841L21.6442 53.5614L21.8702 53.6366L22.097 53.7094L22.3242 53.7799L22.5523 53.8482L22.7807 53.9142L23.0098 53.9779L23.2395 54.0394L23.4695 54.0986L23.7001 54.1554L23.931 54.21L24.1625 54.2624L24.3943 54.3123L24.6264 54.36L24.8591 54.4054L25.092 54.4485L25.3252 54.4893L25.5586 54.5277L25.7923 54.5639L26.0263 54.5977L26.2606 54.6292L26.4949 54.6585L26.7294 54.6854L26.9641 54.7099L27.1989 54.7323L27.4339 54.7522L27.6688 54.7699L27.9038 54.7852L28.1389 54.7983L28.3738 54.8089L28.6088 54.8174L28.8437 54.8235L29.0787 54.8272L29.3134 54.8287L29.5481 54.8279L29.7826 54.8247L30.0169 54.8194L30.251 54.8116L30.485 54.8017L30.7187 54.7894L30.9521 54.7748L31.1852 54.758L31.4182 54.7389L31.6507 54.7175L31.8827 54.6938L32.1146 54.6679L32.3458 54.6398L32.5768 54.6094L32.8073 54.5767L33.0373 54.5418L33.2668 54.5047L33.4959 54.4653L33.7245 54.4237L33.9523 54.3799L34.1797 54.3339L34.4064 54.2857L34.6325 54.2354L34.8579 54.1827L35.0828 54.1279L35.3068 54.071L35.5302 54.0119L35.7527 53.9506L35.9747 53.8872L36.1958 53.8216L36.4162 53.754L36.6356 53.6843L36.8543 53.6123L37.0721 53.5384L37.2887 53.4623L37.5049 53.384L37.7199 53.3039L37.934 53.2215L38.1472 53.1372L38.3592 53.0509L38.5703 52.9624L38.7804 52.872L38.9895 52.7795L39.1973 52.6852L39.4043 52.5888L39.6101 52.4903L39.8146 52.3901L40.0182 52.2877L40.2204 52.1835L40.4216 52.0774L40.6216 51.9693L40.8202 51.8594L41.0176 51.7475L41.2137 51.6339L41.4088 51.5183L41.6022 51.401L41.7947 51.2817L41.9855 51.1608L42.1751 51.0379L42.3634 50.9133L42.5503 50.7867L42.7355 50.6588L42.9195 50.5289L43.1021 50.3973L43.2832 50.264L43.4629 50.1289L43.6408 49.9924L43.8177 49.8539L43.9927 49.7139L44.1661 49.5724L44.3383 49.4291L44.5088 49.2841L44.6775 49.1378L44.8448 48.9897L45.0103 48.8403L45.1744 48.6892L45.3368 48.5366L45.4973 48.3826L45.6564 48.2269L45.8138 48.0698L45.9694 47.9114L46.1233 47.7514L46.2754 47.5902L46.4257 47.4277L46.5746 47.2632L46.7213 47.0979L46.8665 46.931L47.0097 46.763L47.1512 46.5935L47.2909 46.4229L47.4286 46.251L47.5647 46.0777L47.6987 45.9034L47.8312 45.7276L47.9614 45.5509L48.09 45.3728L48.2168 45.1935L48.3412 45.0135L48.464 44.832L48.5847 44.6497L48.7036 44.466L48.8207 44.2812L48.9356 44.0958L49.0485 43.9092L49.1596 43.7212L49.2684 43.5329L49.3755 43.3432L49.4806 43.1525L49.5834 42.9614L49.6845 42.7688L49.7835 42.5754L49.8802 42.3819L49.9751 42.1868L50.0679 41.991L50.1586 41.7946L50.2472 41.5974L50.3338 41.3994L50.4182 41.2009L50.5007 41.0013L50.5811 40.8011L50.6592 40.6008L50.7353 40.3989L50.8092 40.1971L50.8812 39.9944L50.951 39.7912L51.0187 39.5873L51.084 39.3834L51.1475 39.1781L51.2086 38.973L51.2677 38.7672L51.3247 38.5612L51.3795 38.3543L51.432 38.1474L51.4826 37.9399L51.5308 37.7319L51.5771 37.5239L51.6211 37.3152L51.6628 37.1067L51.7025 36.8973L51.74 36.6884L51.7753 36.4786L51.8085 36.2688L51.8394 36.0589L51.8683 35.8486L51.8949 35.6386L51.9195 35.4277L51.9417 35.2175L51.9619 35.0067L51.9797 34.7963L51.9956 34.5852L52.0092 34.3749L52.0207 34.164L52.0299 33.9529L52.037 33.7424L52.0421 33.5322L52.0448 33.3213L52.0455 33.1107L52.044 32.9004L52.0403 32.6903L52.0344 32.4802L52.0264 32.2709L52.0163 32.0607L52.004 31.8515L51.9896 31.6424L51.9731 31.4339L51.9544 31.2249L51.9337 31.017L51.9107 30.8089L51.8857 30.6015L51.8585 30.3942L51.8293 30.1876L51.7978 29.9809L51.7644 29.7751L51.729 29.57L51.6913 29.3648L51.6515 29.1603L51.6098 28.9565L51.5659 28.7527L51.5202 28.5503L51.4721 28.3477L51.4223 28.1464L51.3701 27.9449L51.3161 27.7448L51.26 27.545L51.2019 27.3457L51.1419 27.1475L51.0799 26.9501L51.0157 26.7528L50.9498 26.5569L50.8816 26.3613L50.8118 26.1668L50.7398 25.9728L50.666 25.7801L50.5901 25.5877L50.5123 25.3964L50.4328 25.2063L50.3514 25.017L50.2677 24.828L50.1827 24.6408L50.0953 24.4537L50.0064 24.2684L49.9156 24.0837L49.8227 23.8998L49.7284 23.7173L49.632 23.5357L49.5337 23.3549L49.4341 23.1758L49.3322 22.9972L49.2289 22.82L49.1235 22.6437L49.0168 22.4692L48.9079 22.295L48.7977 22.1225L48.6855 21.9509L48.5717 21.7807L48.4565 21.612L48.3392 21.444L48.2205 21.2775L48.1002 21.1122L47.9782 20.9484L47.8546 20.7856L47.7294 20.6244L47.6027 20.4644L47.4744 20.3058L47.3446 20.1485L47.2132 19.9925L47.0802 19.838L46.9459 19.6849L46.8102 19.5333L46.6729 19.383L46.5338 19.2339L46.394 19.0869L46.2519 18.9408L46.1092 18.7966L45.9647 18.6536L45.8191 18.5123L45.6716 18.3721L45.5235 18.2341L45.3735 18.0972L45.2222 17.9619L45.0702 17.8284L44.9167 17.6964L44.7613 17.5657L44.6052 17.4368L44.448 17.3096L44.2894 17.184L44.1296 17.0599L43.9689 16.9379L43.8065 16.8168L43.6436 16.698L43.4792 16.5807L43.3137 16.4649L43.1475 16.3511L42.9795 16.2386L42.8115 16.1284L42.6416 16.0194L42.4711 15.9124L42.2993 15.807L42.1268 15.7034L41.9533 15.6016L41.7792 15.5018L41.6034 15.4032L41.4277 15.3069L41.2504 15.2122L41.0724 15.1193L40.8938 15.0284L40.7141 14.939L40.5337 14.8515L40.3526 14.766L40.1705 14.6821L39.9881 14.6003L39.8047 14.5201L39.6147 14.4394L39.4361 14.3656L39.2502 14.2909L39.0646 14.2185L38.8775 14.1474L38.6904 14.0787L38.5025 14.0116L38.3142 13.9466L38.1251 13.8832L37.9358 13.8219L37.7457 13.7625L37.5552 13.7049L37.3646 13.6494L37.1731 13.5957L36.981 13.5437L36.7891 13.4939L36.5968 13.446L36.4033 13.3998L36.2105 13.3558L36.0167 13.3135L35.823 13.2733L35.6285 13.2349L35.4343 13.1985L35.2396 13.164L35.045 13.1315L34.8495 13.1009L34.6545 13.0722L34.4591 13.0455L34.2634 13.0206L34.0677 12.9977L33.872 12.9768L33.6762 12.9578L33.4802 12.9407L33.2842 12.9256L33.0879 12.9124L32.8922 12.9011L32.6964 12.8918L32.4999 12.8843L32.3045 12.8788L32.1087 12.8753L31.913 12.8736L31.7171 12.8739L31.6778 12.8744L31.7396 18.0864L31.8507 18.0859L31.9937 18.0867L32.1368 18.0889L32.28 18.0926L32.4233 18.0976L32.5666 18.1042L32.7099 18.1121L32.8534 18.1214L32.9968 18.1321L33.1403 18.1443L33.2837 18.1579L33.4271 18.1729L33.5705 18.1894L33.7138 18.2073L33.857 18.2265L34.0002 18.2474L34.1432 18.2694L34.2862 18.293L34.4291 18.3181L34.5717 18.3446L34.7142 18.3725L34.8566 18.4019L34.9988 18.4325L35.1407 18.4647L35.2824 18.4984L35.424 18.5334L35.5651 18.5699L35.7061 18.6078L35.8468 18.647L35.9873 18.6878L36.1275 18.7299L36.2672 18.7734L36.4066 18.8184L36.5457 18.8648L36.6845 18.9127L36.8228 18.9619L36.9608 19.0125L37.0982 19.0644L37.2354 19.1179L37.3721 19.1727L37.5083 19.2289L37.644 19.2866L37.7792 19.3455L37.914 19.4059L38.0482 19.4675L38.1818 19.5307L38.315 19.5952L38.4476 19.661L38.5796 19.7283L38.711 19.7969L38.8418 19.8667L38.972 19.938L39.1016 20.0105L39.2304 20.0844L39.3587 20.1597L39.4864 20.2364L39.6132 20.3142L39.7393 20.3934L39.8648 20.474L39.9896 20.5559L40.1135 20.6389L40.2368 20.7233L40.3592 20.8091L40.4809 20.8959L40.6017 20.9842L40.7217 21.0738L40.841 21.1644L40.9592 21.2565L41.0768 21.3498L41.1934 21.4441L41.3092 21.5399L41.424 21.6368L41.538 21.7349L41.651 21.8341L41.7631 21.9346L41.8742 22.0364L41.9843 22.1392L42.0935 22.2432L42.2017 22.3484L42.3088 22.4547L42.4151 22.5622L42.5202 22.6709L42.6244 22.7805L42.7273 22.8914L42.8293 23.0033L42.9302 23.1164L43.0301 23.2304L43.1288 23.3456L43.2264 23.4618L43.323 23.579L43.4183 23.6974L43.5125 23.8167L43.6055 23.9371L43.6974 24.0585L43.7881 24.1809L43.8776 24.3042L43.9659 24.4286L44.0529 24.5539L44.1388 24.6802L44.2234 24.8074L44.3067 24.9354L44.3888 25.0646L44.4697 25.1945L44.5493 25.3253L44.6276 25.457L44.7045 25.5897L44.7802 25.7231L44.8545 25.8574L44.9274 25.9925L44.9992 26.1285L45.0695 26.2653L45.1384 26.4029L45.206 26.5413L45.2723 26.6804L45.3371 26.8201L45.4005 26.9609L45.4625 27.1021L45.5232 27.2442L45.5824 27.387L45.6402 27.5304L45.6965 27.6746L45.7513 27.8193L45.8048 27.9648L45.8567 28.1108L45.9073 28.2575L45.9564 28.4048L46.0039 28.5528L46.05 28.7011L46.0946 28.8502L46.1377 28.9998L46.1792 29.1499L46.2192 29.3006L46.2578 29.4517L46.2947 29.6033L46.3302 29.7554L46.3642 29.9079L46.3965 30.0609L46.4273 30.2144L46.4565 30.3682L46.4842 30.5225L46.5103 30.6772L46.5349 30.8321L46.5578 30.9875L46.5792 31.1431L46.599 31.2991L46.6172 31.4555L46.6337 31.6122L46.6487 31.769L46.6622 31.9263L46.674 32.0836L46.6842 32.2413L46.6927 32.399L46.6996 32.5571L46.7049 32.7154L46.7086 32.8737L46.7107 33.0323L46.7111 33.191L46.7098 33.3498L46.707 33.5086L46.7025 33.6676L46.6963 33.8268L46.6886 33.9858L46.6792 34.1449L46.6681 34.3042L46.6554 34.4633L46.641 34.6224L46.625 34.7816L46.6073 34.9406L46.5881 35.0997L46.5671 35.2586L46.5444 35.4174L46.5202 35.5762L46.4942 35.7348L46.4667 35.8932L46.4374 36.0515L46.4066 36.2097L46.374 36.3676L46.3397 36.5254L46.304 36.6829L46.2665 36.8401L46.2274 36.9971L46.1866 37.1539L46.1442 37.3103L46.1002 37.4664L46.0545 37.6222L46.0072 37.7776L45.9582 37.9328L45.9075 38.0876L45.8552 38.2418L45.8014 38.3958L45.746 38.5493L45.6889 38.7023L45.6301 38.8549L45.5698 39.0071L45.5079 39.1587L45.4444 39.3099L45.3792 39.4605L45.3125 39.6106L45.2442 39.7602L45.1742 39.9091L45.1028 40.0575L45.0297 40.2053L44.955 40.3524L44.8787 40.499L44.801 40.6448L44.7217 40.79L44.6408 40.9346L44.5584 41.0784L44.4744 41.2215L44.3889 41.364L44.3019 41.5055L44.2134 41.6465L44.1233 41.7866L44.0318 41.9259L43.9387 42.0644L43.8442 42.2021L43.7482 42.339L43.6507 42.4749L43.5517 42.6101L43.4513 42.7444L43.3494 42.8778L43.2461 43.0102L43.1413 43.1416L43.0351 43.2723L42.9275 43.4018L42.8186 43.5305L42.7081 43.6582L42.5963 43.7849L42.4831 43.9104L42.3686 44.0351L42.2527 44.1586L42.1355 44.2812L42.0169 44.4026L41.897 44.523L41.7757 44.6422L41.6532 44.7604L41.5292 44.8774L41.4042 44.9932L41.2778 45.108L41.15 45.2214L41.0212 45.3338L40.8909 45.4451L40.7596 45.555L40.6269 45.6638L40.4932 45.7713L40.358 45.8775L40.2218 45.9825L40.0845 46.0863L39.9459 46.1887L39.8062 46.2899L39.6654 46.3898L39.5235 46.4883L39.3804 46.5855L39.2362 46.6814L39.0909 46.7759L38.9446 46.869L38.7973 46.9608L38.6488 47.051L38.4995 47.1401L38.349 47.2276L38.1976 47.3137L38.0452 47.3984L37.8917 47.4817L37.7374 47.5635L37.5821 47.6438L37.4258 47.7226L37.2687 47.7999L37.1107 47.8759L36.9517 47.9502L36.7918 48.023L36.6312 48.0944L36.4697 48.1642L36.3073 48.2324L36.1442 48.299L35.9803 48.3642L35.8156 48.4278L35.6502 48.4898L35.484 48.5502L35.3171 48.609L35.1493 48.6661L34.9811 48.7218L34.812 48.7756L34.6423 48.828L34.472 48.8787L34.301 48.9277L34.1295 48.9751L33.9572 49.0208L33.7845 49.0649L33.6112 49.1073L33.4373 49.148L33.2627 49.187L33.0879 49.2244L32.9124 49.26L32.7365 49.2939L32.5602 49.3263L32.3833 49.3568L32.2061 49.3856L32.0285 49.4126L31.8504 49.4379L31.6719 49.4615L31.4932 49.4835L31.3141 49.5035L31.1347 49.5219L30.9549 49.5386L30.7749 49.5534L30.5947 49.5665L30.4141 49.5779L30.2333 49.5874L30.0523 49.5952L29.8711 49.6012L29.6897 49.6054L29.5082 49.6079L29.3265 49.6085L29.1447 49.6074L28.9629 49.6044L28.7809 49.5998L28.5988 49.5933L28.4168 49.5849L28.2346 49.5749L28.0526 49.563L27.8704 49.5494L27.6883 49.5338L27.5063 49.5165L27.3242 49.4974L27.1423 49.4765L26.9606 49.4539L26.7788 49.4294L26.5973 49.403L26.4159 49.3749L26.2347 49.3451L26.0536 49.3133L25.8728 49.2799L25.6922 49.2446L25.512 49.2074L25.3318 49.1685L25.1521 49.1279L24.9727 49.0853L24.7935 49.041L24.6147 48.9949L24.4362 48.947L24.2581 48.8974L24.0806 48.846L23.9033 48.7928L23.7264 48.7379L23.5501 48.681L23.3743 48.6225L23.1988 48.5622L23.024 48.5002L22.8497 48.4364L22.6759 48.3708L22.5027 48.3034L22.3301 48.2344L22.158 48.1635L21.9866 48.0909L21.8158 48.0168L21.6458 47.9407L21.4763 47.8629L21.3076 47.7836L21.1396 47.7024L20.9723 47.6195L20.8057 47.535L20.64 47.4488L20.475 47.3609L20.3108 47.2713L20.1474 47.18L19.9849 47.087L19.8232 46.9925L19.6624 46.8963L19.5024 46.7984L19.3434 46.6989L19.1854 46.5978L19.0283 46.4951L18.8722 46.3906L18.717 46.2847L18.5627 46.1772L18.4096 46.0681L18.2574 45.9574L18.1063 45.8452L17.9562 45.7313L17.8073 45.6159L17.6595 45.4991L17.5127 45.3806L17.3671 45.2607L17.2226 45.1392L17.0792 45.0164L16.9372 44.8919L16.7962 44.766L16.6564 44.6386L16.518 44.5099L16.3807 44.3797L16.2446 44.2479L16.1098 44.1149L15.9765 43.9804L15.8443 43.8444L15.7134 43.7073L15.5839 43.5686L15.4558 43.4287L15.329 43.2873L15.2036 43.1446L15.0796 43.0006L14.9569 42.8554L14.8358 42.7088L14.7159 42.5609L14.5977 42.4118L14.4808 42.2614L14.3655 42.1098L14.2516 41.9569L14.1391 41.8029L14.0282 41.6476L13.919 41.4912L13.8112 41.3336L13.7049 41.1749L13.6003 41.015L13.4972 40.854L13.3957 40.6919L13.2958 40.5286L13.1976 40.3643L13.1009 40.199L13.006 40.0325L12.9126 39.8652L12.8209 39.6967L12.731 39.5273L12.6427 39.3569L12.556 39.1854L12.4712 39.0131L12.388 38.8398L12.3066 38.6656L12.2269 38.4904L12.1489 38.3145L12.0727 38.1376L11.9983 37.9598L11.9257 37.7813L11.8549 37.602L11.7859 37.4217L11.7187 37.2408L11.6533 37.0591L11.5897 36.8765L11.528 36.6934L11.4681 36.5094L11.4101 36.3248L11.3539 36.1396L11.2996 35.9536L11.2472 35.7671L11.1967 35.5799L11.1481 35.3919L11.1014 35.2036L11.0566 35.0146L11.0137 34.8251L10.9727 34.635L10.9337 34.4445L10.8966 34.2534L10.8614 34.0619L10.8282 33.8699L10.7969 33.6774L10.7676 33.4846L10.7403 33.2914L10.7149 33.0978L10.6915 32.9037L10.6701 32.7094L10.6507 32.5148L10.6332 32.3198L10.6178 32.1245L10.6044 31.9291L10.5929 31.7333L10.5835 31.5374L10.576 31.3413L10.5706 31.1449L10.5672 30.9484L10.5658 30.7516L10.5665 30.5549L10.5691 30.3579L10.5738 30.161L10.5805 29.964L10.5892 29.7668L10.6 29.5698L10.6128 29.3726L10.6276 29.1755L10.6445 28.9784L10.6634 28.7814L10.6843 28.5844L10.7073 28.3876L10.7323 28.1909L10.7593 27.9942L10.7884 27.7977L10.8195 27.6015L10.8527 27.4054L10.8879 27.2096L10.9251 27.0139L10.9643 26.8185L11.0056 26.6235L11.0489 26.4286L11.0942 26.2342L11.1416 26.04L11.1909 25.8462L11.2423 25.6529L11.2957 25.4598L11.3511 25.2672L11.4086 25.0751L11.468 24.8834L11.5294 24.692L11.5929 24.5014L11.6583 24.3112L11.7257 24.1215L11.7952 23.9324L11.8665 23.7438L11.9399 23.5559L12.0152 23.3685L12.0925 23.1818L12.1718 22.9958L12.253 22.8104L12.3362 22.6257L12.4213 22.4418L12.5084 22.2585L12.5974 22.076L12.6883 21.8944L12.7811 21.7134L12.8758 21.5334L12.9724 21.3541L13.071 21.1758L13.1714 20.9982L13.2737 20.8215L13.3779 20.6459L13.4839 20.471L13.5918 20.2972L13.7015 20.1243L13.8131 19.9523L13.9265 19.7814L14.0416 19.6115L14.1587 19.4427L14.2775 19.2749L14.3981 19.1081L14.5205 18.9425L14.6446 18.7779L14.7706 18.6146L14.8982 18.4523L15.0277 18.2913L15.1587 18.1314L15.2915 17.9727L15.4261 17.8152L15.5623 17.6589L15.7002 17.504L15.8398 17.3504L15.981 17.1979L16.1239 17.0468L16.2684 16.8969L16.4145 16.7486L16.5622 16.6014L16.7115 16.4557L16.8624 16.3114L17.0149 16.1684L17.1688 16.0269L17.3244 15.8868L17.4815 15.7482L17.64 15.611L17.8001 15.4754L17.9617 15.3412L18.1246 15.2085L18.2891 15.0773L18.455 14.9478L18.6223 14.8197L18.791 14.6933L18.9612 14.5684L19.1326 14.4451L19.3054 14.3235L19.4797 14.2035L19.6552 14.0851L19.8319 13.9685L20.0101 13.8534L20.1894 13.7401L20.3701 13.6285L20.552 13.5186L20.7352 13.4104L20.9194 13.3039L21.105 13.1992L21.2917 13.0963L21.4794 12.9952L21.6684 12.8958L21.8585 12.7983L22.0497 12.7025L22.242 12.6086L22.4353 12.5165L22.6298 12.4263L22.8252 12.3379L23.0217 12.2514L23.2192 12.1668L23.4176 12.0841L23.6169 12.0033L23.8171 11.9244L24.0184 11.8475L24.2205 11.7725L24.4235 11.6994L24.6274 11.6283L24.8321 11.5591L25.0376 11.4919L25.2437 11.4267L25.4509 11.3635L25.6587 11.3023L25.8673 11.2431L26.0765 11.1859L26.2865 11.1307L26.4972 11.0776L26.7086 11.0265L26.9205 10.9775L27.1331 10.9305L27.3462 10.8856L27.5599 10.8427L27.7742 10.802L27.989 10.7633L28.2043 10.7267L28.4202 10.6922L28.6365 10.6598L28.8532 10.6295L29.0702 10.6013L29.1512 10.5916ZM29.2429 18.3222L29.1804 13.0528L29.0025 13.0777L28.8112 13.1064L28.6197 13.137L28.4295 13.1693L28.239 13.2036L28.0494 13.2397L27.8603 13.2776L27.6718 13.3173L27.4838 13.3589L27.2962 13.4023L27.1091 13.4475L26.9228 13.4945L26.7367 13.5434L26.5579 13.5922L26.3674 13.6463L26.1834 13.7004L26.0003 13.7564L25.8181 13.8139L25.6363 13.8734L25.4552 13.9346L25.275 13.9974L25.0957 14.0619L24.917 14.1284L24.7392 14.1963L24.5621 14.2661L24.3863 14.3374L24.2105 14.4106L24.0361 14.4854L23.8625 14.5617L23.6902 14.6397L23.5182 14.7195L23.3472 14.8009L23.1777 14.8837L23.0085 14.9684L22.841 15.0544L22.6738 15.1424L22.5083 15.2314L22.343 15.3226L22.1794 15.4148L22.0168 15.5088L21.8551 15.6044L21.6946 15.7013L21.5349 15.8L21.3769 15.8999L21.2195 16.0014L21.0637 16.1044L20.9089 16.2087L20.7552 16.3147L20.6025 16.4221L20.4515 16.5305L20.3014 16.6409L20.1525 16.7524L20.0049 16.8653L19.8587 16.9794L19.7135 17.0952L19.5699 17.2121L19.4276 17.3303L19.2863 17.4502L19.1468 17.5709L19.0082 17.6932L18.8711 17.8167L18.7354 17.9414L18.6012 18.0672L18.468 18.1946L18.3367 18.3228L18.2066 18.4523L18.0777 18.5832L17.9505 18.7151L17.8246 18.8483L17.7002 18.9825L17.5774 19.1178L17.4559 19.2543L17.3357 19.392L17.2177 19.5304L17.1007 19.6702L16.9852 19.811L16.8713 19.9527L16.7591 20.0954L16.6481 20.2394L16.5388 20.384L16.4311 20.5298L16.325 20.6765L16.2204 20.8242L16.1176 20.9726L16.0163 21.122L15.9165 21.2724L15.8183 21.4237L15.7219 21.5756L15.6271 21.7284L15.5338 21.8824L15.4422 22.0368L15.3523 22.1921L15.264 22.3482L15.1775 22.5048L15.0926 22.6624L15.0091 22.8209L14.9277 22.9796L14.8478 23.1394L14.7697 23.2998L14.6932 23.4605L14.6184 23.6223L14.5453 23.7844L14.474 23.9472L14.4043 24.1106L14.3366 24.2745L14.2704 24.4389L14.2059 24.6041L14.1432 24.7696L14.0824 24.9356L14.0231 25.1022L13.9658 25.269L13.91 25.4364L13.8562 25.6043L13.8039 25.7726L13.7536 25.9411L13.7049 26.1101L13.6582 26.2793L13.613 26.4491L13.5697 26.619L13.5282 26.7893L13.4885 26.9599L13.4505 27.1306L13.4143 27.3018L13.3799 27.473L13.3473 27.6444L13.3164 27.8163L13.2874 27.9881L13.2601 28.1602L13.2346 28.3321L13.2109 28.5045L13.189 28.6769L13.1689 28.8494L13.1506 29.0219L13.134 29.1945L13.1192 29.3671L13.1063 29.5396L13.0951 29.7124L13.0856 29.885L13.078 30.0575L13.0721 30.23L13.068 30.4024L13.0657 30.5748L13.0651 30.7471L13.0663 30.9192L13.0693 31.0912L13.0741 31.263L13.0806 31.4345L13.0888 31.6061L13.0988 31.7774L13.1106 31.9482L13.1241 32.1191L13.1393 32.2895L13.1563 32.4597L13.1751 32.6296L13.1955 32.7993L13.2177 32.9686L13.2416 33.1374L13.2672 33.3061L13.2945 33.4741L13.3235 33.642L13.3543 33.8094L13.3867 33.9762L13.4208 34.1429L13.4566 34.3088L13.4941 34.4745L13.5332 34.6394L13.574 34.8039L13.6165 34.968L13.6606 35.1315L13.7063 35.2943L13.7537 35.4567L13.8027 35.6184L13.8534 35.7796L13.9057 35.9403L13.9595 36.1001L14.015 36.2592L14.072 36.4178L14.1307 36.5757L14.1909 36.7329L14.2527 36.8894L14.316 37.0451L14.3809 37.2001L14.4473 37.3544L14.5153 37.5078L14.5847 37.6605L14.6558 37.8123L14.7283 37.9634L14.8022 38.1136L14.8778 38.2629L14.9547 38.4116L15.0331 38.5593L15.113 38.706L15.1943 38.8519L15.2771 38.9969L15.3612 39.1409L15.4468 39.2839L15.5338 39.4261L15.6222 39.5673L15.7119 39.7074L15.8032 39.8468L15.8955 39.9848L15.9894 40.1221L16.0845 40.2582L16.181 40.3934L16.2788 40.5274L16.3779 40.6604L16.4783 40.7922L16.58 40.9231L16.6828 41.0528L16.787 41.1814L16.8924 41.3089L16.9991 41.4353L17.1069 41.5604L17.216 41.6846L17.3262 41.8073L17.4376 41.9291L17.5501 42.0495L17.6638 42.1688L17.7787 42.2869L17.8947 42.4038L18.0117 42.5194L18.1299 42.6338L18.2492 42.747L18.3694 42.8588L18.4909 42.9695L18.6132 43.0788L18.7366 43.1868L18.8611 43.2935L18.9866 43.3989L19.113 43.5031L19.2403 43.6058L19.3687 43.7073L19.4979 43.8074L19.6282 43.9062L19.7593 44.0036L19.8912 44.0996L20.024 44.1942L20.1578 44.2875L20.2924 44.3794L20.4279 44.4699L20.5642 44.559L20.7012 44.6467L20.8391 44.733L20.9776 44.8178L21.117 44.9013L21.2572 44.9832L21.3979 45.0637L21.5396 45.1428L21.6817 45.2204L21.8247 45.2966L21.9683 45.3713L22.1124 45.4444L22.2574 45.5163L22.403 45.5865L22.5491 45.6554L22.6957 45.7226L22.8431 45.7884L22.9907 45.8527L23.1391 45.9154L23.288 45.9768L23.4375 46.0365L23.5872 46.0947L23.7376 46.1514L23.8884 46.2067L24.0397 46.2604L24.1913 46.3125L24.3435 46.3632L24.4959 46.4122L24.6488 46.4598L24.8021 46.5057L24.9556 46.5502L25.1094 46.5931L25.2637 46.6344L25.4182 46.6744L25.5729 46.7126L25.728 46.7493L25.8833 46.7844L26.0389 46.8181L26.1946 46.8502L26.3505 46.8806L26.5067 46.9095L26.6629 46.9369L26.8194 46.9628L26.976 46.9869L27.1327 47.0097L27.2895 47.0309L27.4463 47.0505L27.6032 47.0685L27.7602 47.085L27.9173 47.0999L28.0744 47.1132L28.2315 47.1249L28.3886 47.1353L28.5455 47.1439L28.7025 47.1511L28.8596 47.1567L29.0164 47.1608L29.1731 47.1633L29.3297 47.1642L29.4863 47.1637L29.6427 47.1615L29.799 47.1579L29.955 47.1528L30.111 47.1461L30.2666 47.1378L30.422 47.1281L30.5772 47.1168L30.7322 47.1039L30.8869 47.0896L31.0414 47.0738L31.1956 47.0565L31.3494 47.0377L31.503 47.0174L31.6561 46.9957L31.809 46.9724L31.9614 46.9475L32.1133 46.9214L32.2651 46.8935L32.4163 46.8644L32.5672 46.8338L32.7177 46.8016L32.8674 46.7681L33.0169 46.7332L33.1658 46.6966L33.3143 46.6589L33.4622 46.6196L33.6097 46.5788L33.7565 46.5367L33.9028 46.4932L34.0485 46.4483L34.1936 46.4019L34.3382 46.3542L34.4821 46.3051L34.6254 46.2547L34.7681 46.2029L34.91 46.1497L35.0513 46.0951L35.1919 46.0392L35.3319 45.9819L35.4712 45.9234L35.6096 45.8636L35.7474 45.8025L35.8843 45.74L36.0207 45.6762L36.1562 45.6112L36.2907 45.545L36.4249 45.4773L36.5578 45.4085L36.6902 45.3383L36.8214 45.2671L36.9521 45.1946L37.0819 45.1208L37.2106 45.0458L37.3387 44.9696L37.4657 44.8923L37.5917 44.8137L37.7172 44.7339L37.8413 44.6532L37.9647 44.5711L38.0873 44.4878L38.2087 44.4035L38.3289 44.3183L38.4487 44.2316L38.567 44.1442L38.6846 44.0554L38.8012 43.9655L38.9162 43.8749L39.0309 43.7828L39.1444 43.6898L39.2563 43.596L39.3679 43.5007L39.4779 43.4048L39.5869 43.308L39.6952 43.2097L39.8018 43.1109L39.9076 43.011L40.0123 42.9101L40.1157 42.8084L40.2181 42.7055L40.3194 42.6019L40.4195 42.4973L40.5182 42.3919L40.616 42.2855L40.7127 42.1784L40.8079 42.0705L40.9022 41.9614L40.9951 41.8518L41.0867 41.7413L41.1774 41.6298L41.2666 41.5179L41.3547 41.4049L41.4416 41.2913L41.5272 41.1768L41.6115 41.0617L41.6944 40.946L41.7763 40.8292L41.8568 40.712L41.936 40.5941L42.0142 40.4753L42.0905 40.3563L42.1661 40.2363L42.2401 40.1156L42.3129 39.9945L42.3842 39.8727L42.4546 39.7501L42.5232 39.6275L42.5908 39.5037L42.657 39.3798L42.7216 39.2553L42.7853 39.1298L42.8472 39.0046L42.9082 38.8781L42.9673 38.7519L43.0257 38.6244L43.0822 38.4972L43.1377 38.3689L43.1917 38.2407L43.2442 38.112L43.2954 37.9827L43.3453 37.853L43.3936 37.7234L43.4409 37.5929L43.4865 37.4622L43.5308 37.3313L43.5737 37.2L43.6153 37.0683L43.6556 36.9364L43.6943 36.8044L43.7317 36.6719L43.7675 36.5393L43.8022 36.4064L43.8353 36.2733L43.8671 36.1402L43.8975 36.0064L43.9264 35.8728L43.9541 35.739L43.9801 35.6052L44.0049 35.4712L44.0282 35.3366L44.0502 35.2025L44.0708 35.0681L44.0899 34.9335L44.1076 34.7992L44.124 34.6646L44.139 34.5296L44.1525 34.3955L44.1647 34.2604L44.1755 34.1258L44.1848 33.9915L44.1928 33.8568L44.1994 33.7223L44.2046 33.588L44.2084 33.4533L44.2107 33.3194L44.2118 33.1849L44.2114 33.0509L44.2097 32.9168L44.2066 32.7833L44.2021 32.6495L44.1962 32.516L44.189 32.3831L44.1804 32.2497L44.1705 32.1168L44.1593 31.9845L44.1466 31.8518L44.1326 31.7199L44.1172 31.5878L44.1005 31.4564L44.0825 31.325L44.0632 31.1939L44.0424 31.0632L44.0205 30.933L43.9972 30.803L43.9725 30.6735L43.9464 30.5438L43.9192 30.4151L43.8907 30.2868L43.8608 30.1586L43.8296 30.0307L43.7972 29.9039L43.7634 29.7766L43.7285 29.6505L43.6922 29.5245L43.6547 29.3993L43.616 29.2743L43.5759 29.1498L43.5347 29.0261L43.4923 28.9028L43.4484 28.7797L43.4037 28.6576L43.3575 28.5359L43.3102 28.4149L43.2616 28.2942L43.2118 28.1741L43.161 28.055L43.1087 27.9361L43.0556 27.8182L43.0012 27.7009L42.9455 27.5839L42.8887 27.4676L42.831 27.3524L42.7718 27.2374L42.7118 27.1235L42.6506 27.0104L42.5881 26.8973L42.5248 26.7856L42.4602 26.6744L42.3946 26.564L42.3278 26.4541L42.2603 26.3454L42.1913 26.237L42.1216 26.1299L42.0507 26.0234L41.9788 25.9177L41.9057 25.8125L41.8318 25.7085L41.7571 25.6054L41.681 25.5027L41.6042 25.4013L41.5262 25.3005L41.4477 25.2008L41.3678 25.1017L41.2871 25.0036L41.2054 24.9064L41.1229 24.81L41.0396 24.7148L40.955 24.6202L40.8699 24.5268L40.7837 24.434L40.697 24.3427L40.6089 24.2517L40.5204 24.1621L40.4307 24.0731L40.3404 23.9854L40.2495 23.8987L40.1576 23.8128L40.0647 23.7278L39.9712 23.6441L39.8769 23.5613L39.7816 23.4792L39.6863 23.3988L39.5896 23.3187L39.4924 23.24L39.3945 23.1624L39.2957 23.0855L39.1965 23.01L39.0968 22.9357L38.9959 22.862L38.8943 22.7894L38.7927 22.7183L38.6897 22.6478L38.5869 22.5789L38.4832 22.5108L38.3787 22.4437L38.2736 22.3777L38.1683 22.313L38.0619 22.2492L37.9554 22.1868L37.848 22.1251L37.7407 22.065L37.6324 22.0058L37.5236 21.9476L37.4143 21.8906L37.3048 21.8349L37.1947 21.7801L37.0839 21.7265L36.9731 21.6742L36.8619 21.623L36.7496 21.5727L36.6377 21.5239L36.5251 21.4762L36.4119 21.4294L36.2986 21.384L36.1852 21.3398L36.0712 21.2967L35.9565 21.2546L35.8421 21.2139L35.727 21.1743L35.6116 21.1358L35.4964 21.0986L35.3806 21.0626L35.2648 21.0277L35.1481 20.9939L35.0318 20.9614L34.9152 20.93L34.7983 20.8999L34.6813 20.8709L34.5638 20.843L34.4465 20.8164L34.3292 20.7911L34.2114 20.7668L34.0933 20.7436L33.9759 20.7219L33.8577 20.7012L33.7397 20.6817L33.6212 20.6633L33.5034 20.6463L33.3847 20.6302L33.2667 20.6156L33.1483 20.6019L33.03 20.5895L32.9117 20.5784L32.7932 20.5683L32.6753 20.5594L32.5567 20.5518L32.4386 20.5452L32.3207 20.5399L32.2021 20.5357L32.0844 20.5327L31.9666 20.5309L31.8489 20.5302L31.7685 20.5305L31.8294 25.6788L31.8658 25.6789L31.9335 25.6799L32.0012 25.6815L32.0692 25.6837L32.1371 25.6868L32.2051 25.6905L32.2732 25.6949L32.3413 25.7L32.4095 25.7059L32.4778 25.7124L32.5462 25.7197L32.6145 25.7276L32.6829 25.7363L32.7512 25.7457L32.8197 25.7558L32.8882 25.7667L32.9566 25.7783L33.0249 25.7906L33.0934 25.8037L33.1617 25.8173L33.23 25.8319L33.2983 25.847L33.3667 25.863L33.4347 25.8796L33.5029 25.8969L33.5709 25.9151L33.6388 25.9339L33.7067 25.9534L33.7745 25.9737L33.8422 25.9947L33.9097 26.0165L33.9772 26.039L34.0444 26.0622L34.1116 26.0861L34.1786 26.1108L34.2454 26.1361L34.3121 26.1622L34.3786 26.189L34.4449 26.2166L34.511 26.2448L34.577 26.2739L34.6427 26.3036L34.7083 26.334L34.7737 26.3652L34.8387 26.397L34.9036 26.4296L34.9681 26.463L35.0325 26.4969L35.0966 26.5317L35.1604 26.5672L35.2239 26.6033L35.2872 26.6401L35.3501 26.6776L35.4128 26.7159L35.4751 26.7549L35.5372 26.7946L35.5988 26.8349L35.6602 26.8759L35.7212 26.9178L35.7819 26.9602L35.8422 27.0033L35.9022 27.047L35.9618 27.0915L36.021 27.1366L36.0797 27.1824L36.1382 27.2289L36.1962 27.2761L36.2537 27.3239L36.311 27.3724L36.3677 27.4215L36.4241 27.4713L36.48 27.5217L36.5353 27.5729L36.5903 27.6245L36.6447 27.6769L36.6988 27.7299L36.7523 27.7835L36.8053 27.8378L36.858 27.8926L36.9099 27.9481L36.9615 28.0043L37.0125 28.061L37.0631 28.1183L37.113 28.1763L37.1623 28.2348L37.2113 28.2938L37.2596 28.3535L37.3073 28.4138L37.3545 28.4746L37.4011 28.5361L37.4472 28.598L37.4926 28.6606L37.5373 28.7236L37.5817 28.7873L37.6253 28.8515L37.6682 28.9163L37.7107 28.9815L37.7525 29.0474L37.7936 29.1136L37.8341 29.1804L37.8739 29.2478L37.913 29.3156L37.9516 29.3839L37.9894 29.4528L38.0266 29.522L38.0632 29.5919L38.0989 29.6621L38.1341 29.7327L38.1684 29.8039L38.2021 29.8756L38.2351 29.9476L38.2674 30.0202L38.2991 30.0931L38.3299 30.1665L38.36 30.2403L38.3893 30.3144L38.418 30.389L38.4459 30.464L38.4731 30.5394L38.4994 30.6153L38.525 30.6914L38.5498 30.7679L38.5738 30.8448L38.5972 30.9219L38.6197 30.9995L38.6413 31.0775L38.6623 31.1557L38.6825 31.2342L38.7017 31.3132L38.7203 31.3924L38.738 31.4718L38.7549 31.5517L38.771 31.6317L38.7862 31.7119L38.8006 31.7926L38.8142 31.8735L38.8271 31.9545L38.8389 32.0359L38.85 32.1174L38.8602 32.1993L38.8696 32.2814L38.8782 32.3636L38.8858 32.4459L38.8927 32.5286L38.8987 32.6115L38.9037 32.6944L38.9079 32.7776L38.9112 32.8609L38.9138 32.9444L38.9153 33.0279L38.9161 33.1117L38.9158 33.1954L38.9149 33.2794L38.913 33.3635L38.9101 33.4477L38.9064 33.5319L38.9018 33.6162L38.8963 33.7006L38.8899 33.785L38.8826 33.8696L38.8744 33.9541L38.8654 34.0387L38.8553 34.1232L38.8444 34.2079L38.8327 34.2926L38.82 34.3771L38.8063 34.4617L38.7917 34.5462L38.7763 34.6308L38.76 34.7153L38.7428 34.7997L38.7245 34.8841L38.7054 34.9684L38.6855 35.0527L38.6645 35.1368L38.6427 35.2209L38.6201 35.3048L38.5963 35.3887L38.5718 35.4723L38.5463 35.5559L38.52 35.6393L38.4927 35.7225L38.4645 35.8057L38.4354 35.8886L38.4053 35.9712L38.3743 36.0539L38.3426 36.1361L38.3098 36.2183L38.2762 36.3001L38.2417 36.3818L38.2062 36.4632L38.1698 36.5445L38.1326 36.6254L38.0944 36.7059L38.0552 36.7864L38.0154 36.8664L37.9745 36.9462L37.9328 37.0257L37.8901 37.1048L37.8466 37.1836L37.8023 37.2622L37.757 37.3403L37.7108 37.4182L37.6639 37.4955L37.6159 37.5727L37.5672 37.6493L37.5176 37.7255L37.467 37.8015L37.4157 37.8769L37.3635 37.952L37.3104 38.0266L37.2564 38.1008L37.2017 38.1746L37.1461 38.2478L37.0897 38.3206L37.0324 38.393L36.9743 38.4649L36.9154 38.5362L36.8557 38.6071L36.7951 38.6775L36.7336 38.7473L36.6714 38.8166L36.6084 38.8854L36.5446 38.9536L36.4801 39.0213L36.4147 39.0885L36.3485 39.155L36.2816 39.2209L36.2139 39.2864L36.1453 39.3511L36.0761 39.4152L36.0061 39.4788L35.9353 39.5418L35.8639 39.6041L35.7916 39.6657L35.7187 39.7267L35.6449 39.7871L35.5704 39.8468L35.4953 39.9057L35.4195 39.9641L35.343 40.0218L35.2657 40.0788L35.1878 40.1349L35.1091 40.1904L35.0299 40.2454L34.9498 40.2994L34.8692 40.3529L34.788 40.4054L34.706 40.4573L34.6234 40.5084L34.5402 40.5588L34.4563 40.6083L34.3719 40.6571L34.2868 40.7051L34.2011 40.7523L34.1149 40.7988L34.028 40.8443L33.9406 40.8892L33.8525 40.9331L33.764 40.9763L33.6748 41.0186L33.5851 41.06L33.495 41.1007L33.4042 41.1404L33.3129 41.1794L33.2212 41.2174L33.1288 41.2545L33.036 41.2908L32.9427 41.3262L32.8489 41.3607L32.7547 41.3944L32.66 41.4271L32.5648 41.4589L32.4692 41.4899L32.3732 41.5197L32.2768 41.5488L32.1799 41.577L32.0827 41.6041L31.985 41.6304L31.887 41.6557L31.7885 41.6801L31.6897 41.7034L31.5905 41.7259L31.491 41.7473L31.3912 41.7679L31.2909 41.7874L31.1904 41.8059L31.0897 41.8235L30.9885 41.8402L30.8872 41.8557L30.7854 41.8703L30.6836 41.8839L30.5813 41.8966L30.4789 41.9082L30.3762 41.9187L30.2732 41.9284L30.1702 41.9369L30.0668 41.9445L29.9632 41.9509L29.8595 41.9565L29.7556 41.961L29.6516 41.9644L29.5472 41.9667L29.4429 41.9681L29.3385 41.9685L29.2339 41.9678L29.1292 41.966L29.0243 41.9632L28.9194 41.9594L28.8144 41.9544L28.7093 41.9484L28.6042 41.9415L28.499 41.9334L28.3939 41.9243L28.2886 41.9141L28.1835 41.9029L28.0782 41.8905L27.9731 41.8771L27.8678 41.8627L27.7627 41.8473L27.6575 41.8306L27.5525 41.813L27.4475 41.7944L27.3427 41.7746L27.2378 41.7539L27.1331 41.7319L27.0285 41.709L26.924 41.6849L26.8197 41.6598L26.7154 41.6337L26.6113 41.6064L26.5076 41.5781L26.4038 41.5488L26.3004 41.5184L26.1971 41.4869L26.094 41.4543L25.9912 41.4207L25.8885 41.3861L25.7862 41.3504L25.6841 41.3135L25.5822 41.2756L25.4807 41.2368L25.3794 41.1968L25.2785 41.1558L25.1779 41.1138L25.0777 41.0707L24.9777 41.0265L24.878 40.9814L24.7789 40.9351L24.6799 40.8878L24.5814 40.8395L24.4834 40.7902L24.3857 40.7399L24.2885 40.6884L24.1917 40.6361L24.0953 40.5826L23.9994 40.5282L23.9038 40.4727L23.8089 40.4163L23.7144 40.3589L23.6205 40.3004L23.5269 40.2409L23.4339 40.1805L23.3415 40.119L23.2496 40.0565L23.1583 39.9931L23.0675 39.9288L22.9772 39.8634L22.8877 39.797L22.7986 39.7298L22.7102 39.6616L22.6224 39.5924L22.5353 39.5223L22.4487 39.4512L22.3628 39.3792L22.2776 39.3063L22.193 39.2324L22.1092 39.1576L22.026 39.0819L21.9435 39.0053L21.8617 38.9279L21.7807 38.8494L21.7002 38.7702L21.6207 38.69L21.5419 38.609L21.4637 38.5271L21.3864 38.4444L21.3099 38.3607L21.2342 38.2763L21.1592 38.1911L21.0852 38.1049L21.0118 38.018L20.9393 37.9302L20.8677 37.8416L20.7969 37.7523L20.727 37.6621L20.6578 37.5712L20.5897 37.4794L20.5224 37.3869L20.456 37.2937L20.3904 37.1996L20.3258 37.1048L20.2621 37.0094L20.1994 36.9131L20.1376 36.8161L20.0767 36.7185L20.0168 36.6202L19.9577 36.521L19.8998 36.4214L19.8428 36.3209L19.7867 36.2198L19.7317 36.1181L19.6777 36.0157L19.6246 35.9126L19.5725 35.8089L19.5215 35.7048L19.4716 35.5998L19.4227 35.4944L19.3748 35.3883L19.328 35.2816L19.2822 35.1743L19.2375 35.0666L19.1938 34.9582L19.1513 34.8494L19.1098 34.7399L19.0696 34.6299L19.0303 34.5195L18.9922 34.4086L18.9551 34.2972L18.9192 34.1853L18.8844 34.0729L18.8507 33.9601L18.8182 33.8468L18.7868 33.7331L18.7567 33.6189L18.7275 33.5044L18.6997 33.3894L18.6729 33.2742L18.6473 33.1584L18.6229 33.0424L18.5997 32.9259L18.5776 32.8092L18.5567 32.6921L18.5371 32.5747L18.5187 32.457L18.5014 32.3389L18.4853 32.2207L18.4706 32.102L18.4569 31.9833L18.4445 31.8641L18.4333 31.7448L18.4234 31.6252L18.4147 31.5054L18.4072 31.3854L18.4009 31.2653L18.3958 31.145L18.392 31.0245L18.3896 30.9038L18.3883 30.7831L18.3882 30.6622L18.3894 30.5411L18.392 30.42L18.3957 30.2988L18.4007 30.1774L18.407 30.056L18.4145 29.9347L18.4232 29.8132L18.4333 29.6917L18.4447 29.5702L18.4572 29.4487L18.4711 29.3272L18.4862 29.2057L18.5026 29.0843L18.5203 28.9629L18.5393 28.8416L18.5596 28.7204L18.581 28.5991L18.6038 28.478L18.6279 28.3571L18.6533 28.2363L18.6799 28.1156L18.7077 27.995L18.7369 27.8748L18.7673 27.7545L18.7991 27.6345L18.8321 27.5148L18.8663 27.3952L18.9017 27.2757L18.9386 27.1567L18.9766 27.0378L19.0159 26.9191L19.0565 26.8009L19.0984 26.6828L19.1415 26.5651L19.1858 26.4477L19.2315 26.3307L19.2784 26.214L19.3265 26.0975L19.3759 25.9816L19.4265 25.866L19.4784 25.7508L19.5315 25.6359L19.5859 25.5215L19.6414 25.4077L19.6982 25.2941L19.7562 25.181L19.8155 25.0685L19.8759 24.9564L19.9377 24.8449L20.0006 24.7338L20.0647 24.6232L20.13 24.5133L20.1965 24.4038L20.2642 24.2948L20.3332 24.1865L20.4032 24.0787L20.4744 23.9715L20.5468 23.865L20.6205 23.759L20.6952 23.6538L20.7712 23.5492L20.8482 23.4451L20.9263 23.3418L21.0057 23.2392L21.0862 23.1372L21.1678 23.036L21.2506 22.9354L21.3343 22.8357L21.4193 22.7366L21.5053 22.6383L21.5925 22.5408L21.6807 22.4439L21.77 22.3481L21.8604 22.2529L21.9519 22.1585L22.0444 22.065L22.1379 21.9723L22.2326 21.8804L22.3282 21.7894L22.4248 21.6993L22.5225 21.6099L22.6211 21.5216L22.7207 21.434L22.8215 21.3476L22.9231 21.2618L23.0258 21.1771L23.1293 21.0934L23.2339 21.0105L23.3393 20.9287L23.4458 20.8478L23.5531 20.7679L23.6614 20.6889L23.7706 20.6111L23.8807 20.5342L23.9917 20.4582L24.1036 20.3834L24.2162 20.3096L24.3298 20.2369L24.4444 20.1652L24.5596 20.0945L24.6758 20.025L24.7927 19.9565L24.9105 19.8892L25.029 19.8229L25.1483 19.7577L25.2684 19.6938L25.3892 19.6309L25.5109 19.5691L25.6332 19.5086L25.7563 19.4491L25.8802 19.3909L26.0047 19.3338L26.1298 19.2779L26.2557 19.2232L26.3824 19.1696L26.5096 19.1172L26.6374 19.0662L26.766 19.0163L26.8951 18.9676L27.0248 18.9202L27.1552 18.8741L27.2862 18.8291L27.4177 18.7854L27.5498 18.743L27.6823 18.7019L27.8156 18.662L27.9492 18.6234L28.0834 18.5862L28.2181 18.5502L28.3532 18.5154L28.4889 18.482L28.625 18.45L28.7617 18.4193L28.8986 18.3899L29.036 18.3618L29.1737 18.335L29.2429 18.3222ZM30.9364 28.2226L29.3647 28.5982L29.2723 20.8125L29.1983 20.8291L29.0867 20.8554L28.9753 20.8829L28.8647 20.9112L28.7543 20.9407L28.6445 20.9712L28.5347 21.003L28.4261 21.0354L28.3171 21.0693L28.2095 21.1038L28.1017 21.1396L27.9945 21.1764L27.8878 21.2142L27.7816 21.2529L27.6763 21.2926L27.5712 21.3335L27.4666 21.3753L27.3627 21.4179L27.2589 21.4619L27.1565 21.5063L27.0541 21.5521L26.9527 21.5986L26.8513 21.6464L26.751 21.6948L26.6509 21.7443L26.5519 21.7946L26.4533 21.8459L26.3554 21.8981L26.2582 21.9511L26.1615 22.0051L26.0655 22.0601L25.9706 22.1157L25.8755 22.1726L25.7817 22.23L25.6887 22.2884L25.5962 22.3475L25.5043 22.4077L25.4134 22.4686L25.3231 22.5304L25.2335 22.5929L25.1449 22.6561L25.0567 22.7204L24.9694 22.7854L24.8829 22.8511L24.7972 22.9177L24.7123 22.9848L24.6283 23.0528L24.5449 23.1217L24.4622 23.1914L24.3807 23.2614L24.2998 23.3325L24.2198 23.4041L24.1406 23.4765L24.0622 23.5497L23.9847 23.6235L23.9081 23.6978L23.8321 23.7731L23.7572 23.8488L23.6832 23.9253L23.6101 24.0022L23.5376 24.0802L23.4662 24.1583L23.3957 24.2373L23.3261 24.3169L23.2575 24.3968L23.1896 24.4777L23.1229 24.5587L23.0567 24.6408L22.9918 24.723L22.9276 24.806L22.8645 24.8896L22.8023 24.9735L22.7409 25.0579L22.6807 25.1429L22.6212 25.2285L22.5627 25.3144L22.5053 25.401L22.4488 25.4877L22.3933 25.575L22.3387 25.6629L22.2852 25.751L22.2324 25.8399L22.1809 25.9287L22.1302 26.0183L22.0804 26.1082L22.0318 26.1983L21.9841 26.2889L21.9375 26.3798L21.8917 26.4713L21.8471 26.5627L21.8033 26.6549L21.7606 26.747L21.719 26.8396L21.6782 26.9325L21.6386 27.0258L21.6 27.119L21.5623 27.2129L21.5258 27.3068L21.4901 27.401L21.4556 27.4953L21.422 27.59L21.3894 27.6849L21.3579 27.78L21.3274 27.8752L21.2979 27.9708L21.2694 28.0664L21.2422 28.1619L21.2157 28.2579L21.1902 28.3541L21.1659 28.4502L21.1426 28.5465L21.1202 28.6429L21.099 28.7394L21.0788 28.8361L21.0596 28.9327L21.0413 29.0294L21.0241 29.1263L21.008 29.223L20.9929 29.3198L20.9787 29.4169L20.9656 29.5136L20.9536 29.6107L20.9426 29.7074L20.9325 29.8043L20.9235 29.9014L20.9154 29.9981L20.9085 30.0949L20.9025 30.1917L20.8974 30.2883L20.8935 30.3848L20.8905 30.4812L20.8886 30.5778L20.8875 30.674L20.8876 30.7702L20.8886 30.8662L20.8906 30.9622L20.8936 31.0579L20.8976 31.1535L20.9025 31.2489L20.9085 31.3441L20.9154 31.4392L20.9233 31.5341L20.9322 31.6287L20.942 31.7234L20.9528 31.8173L20.9645 31.9115L20.9772 32.0051L20.991 32.0988L21.0056 32.1919L21.0211 32.2849L21.0376 32.3778L21.0551 32.4701L21.0735 32.5623L21.0927 32.6539L21.113 32.7455L21.1342 32.8366L21.1562 32.9276L21.1792 33.0179L21.2032 33.1083L21.2278 33.1979L21.2535 33.2874L21.2801 33.3764L21.3075 33.4651L21.3358 33.5534L21.365 33.641L21.3952 33.7287L21.4261 33.8157L21.4579 33.9022L21.4905 33.9885L21.524 34.0743L21.5584 34.1595L21.5936 34.2443L21.6294 34.3286L21.6664 34.4126L21.704 34.496L21.7425 34.5789L21.7817 34.6613L21.8217 34.7431L21.8627 34.8248L21.9042 34.9055L21.9466 34.9859L21.9898 35.0658L22.0339 35.145L22.0786 35.2238L22.124 35.3021L22.1702 35.3795L22.2173 35.4567L22.2649 35.5332L22.3133 35.609L22.3625 35.6844L22.4123 35.7592L22.4629 35.8335L22.514 35.9067L22.566 35.9798L22.6186 36.0521L22.6718 36.1237L22.7259 36.1949L22.7805 36.2652L22.8357 36.3349L22.8916 36.404L22.9482 36.4726L23.0052 36.5403L23.0632 36.6075L23.1215 36.674L23.1804 36.7398L23.2403 36.8049L23.3003 36.8692L23.3611 36.9331L23.4225 36.9961L23.4842 37.0584L23.5468 37.1201L23.6098 37.181L23.6734 37.2413L23.7375 37.3008L23.8021 37.3595L23.8673 37.4176L23.9329 37.4749L23.999 37.5315L24.0656 37.5874L24.1327 37.6425L24.2003 37.6969L24.2685 37.7505L24.3368 37.8033L24.4058 37.8554L24.4752 37.9068L24.545 37.9574L24.6152 38.0071L24.6859 38.0562L24.7569 38.1045L24.8284 38.1519L24.9001 38.1986L24.9722 38.2445L25.0451 38.2898L25.1179 38.334L25.1911 38.3776L25.2649 38.4204L25.3387 38.4623L25.4128 38.5035L25.4877 38.544L25.5626 38.5835L25.6377 38.6223L25.7131 38.6602L25.7891 38.6974L25.8649 38.7337L25.9414 38.7693L26.0179 38.804L26.0945 38.8379L26.1717 38.871L26.249 38.9033L26.3263 38.9348L26.4041 38.9655L26.4819 38.9952L26.5602 39.0243L26.6382 39.0525L26.7169 39.0799L26.7953 39.1064L26.874 39.1321L26.9529 39.1571L27.032 39.1812L27.1111 39.2044L27.1903 39.2269L27.2698 39.2484L27.3493 39.2693L27.4288 39.2892L27.5085 39.3084L27.5881 39.3267L27.6679 39.3442L27.7478 39.3609L27.8277 39.3768L27.9076 39.3919L27.9875 39.4061L28.0676 39.4196L28.1476 39.4321L28.2277 39.444L28.3074 39.4549L28.3875 39.465L28.4674 39.4744L28.5474 39.483L28.6273 39.4906L28.7072 39.4976L28.787 39.5037L28.8667 39.509L28.9464 39.5135L29.0259 39.5172L29.1053 39.5202L29.1849 39.5223L29.264 39.5236L29.3431 39.5242L29.4222 39.5239L29.501 39.5229L29.58 39.521L29.6587 39.5184L29.7369 39.5152L29.8152 39.5109L29.8936 39.506L29.9713 39.5003L30.0492 39.4939L30.1267 39.4867L30.2041 39.4788L30.2813 39.4699L30.3581 39.4605L30.435 39.4503L30.5113 39.4392L30.5874 39.4275L30.6637 39.4151L30.7393 39.4019L30.8147 39.3879L30.89 39.3732L30.965 39.3578L31.0395 39.3417L31.1137 39.3249L31.1878 39.3074L31.2616 39.2891L31.335 39.2703L31.4081 39.2506L31.4807 39.2303L31.5534 39.2092L31.6254 39.1875L31.6969 39.1651L31.7686 39.1419L31.8395 39.1182L31.9102 39.0939L31.9804 39.0689L32.0502 39.0431L32.1199 39.0166L32.189 38.9896L32.2576 38.9619L32.3259 38.9337L32.3938 38.9047L32.4615 38.8751L32.5283 38.8449L32.5951 38.8141L32.6612 38.7828L32.7268 38.7507L32.7923 38.7181L32.8569 38.685L32.9214 38.6512L32.9854 38.6167L33.0488 38.5818L33.1117 38.5463L33.1742 38.5102L33.2363 38.4735L33.2977 38.4363L33.3586 38.3985L33.4192 38.3602L33.4792 38.3214L33.5387 38.282L33.5977 38.2422L33.6562 38.2017L33.7141 38.1608L33.7714 38.1195L33.8282 38.0775L33.8846 38.0351L33.9403 37.9921L33.9956 37.9488L34.0504 37.9049L34.1044 37.8607L34.158 37.8159L34.2109 37.7707L34.2632 37.725L34.3152 37.6789L34.3665 37.6323L34.4172 37.5854L34.4671 37.538L34.5167 37.4902L34.5657 37.4419L34.6141 37.3934L34.6618 37.3444L34.7089 37.2949L34.7554 37.2453L34.8015 37.1949L34.8466 37.1446L34.8915 37.0936L34.9355 37.0424L34.9789 36.9909L35.022 36.9389L35.064 36.8868L35.1057 36.8341L35.1467 36.7814L35.187 36.7282L35.2268 36.6746L35.2658 36.621L35.3042 36.5667L35.3422 36.5123L35.3792 36.4579L35.4158 36.4028L35.4518 36.3477L35.4868 36.2924L35.5215 36.2367L35.5554 36.1808L35.5887 36.1246L35.6214 36.0683L35.6533 36.0117L35.6847 35.955L35.7154 35.8979L35.7454 35.8409L35.7747 35.7834L35.8035 35.7259L35.8316 35.6682L35.859 35.6101L35.8857 35.5522L35.9117 35.4939L35.9371 35.4357L35.9619 35.3771L35.9859 35.3186L36.0095 35.2595L36.0322 35.201L36.0544 35.1416L36.0757 35.0831L36.0965 35.0236L36.1167 34.9642L36.1361 34.905L36.1549 34.8455L36.173 34.7862L36.1906 34.7262L36.2072 34.667L36.2236 34.6069L36.239 34.5477L36.2539 34.4877L36.2681 34.4277L36.2816 34.3681L36.2944 34.3087L36.3067 34.2484L36.3182 34.1888L36.3292 34.1287L36.3394 34.0692L36.3491 34.0095L36.3581 33.9496L36.3664 33.8898L36.374 33.83L36.3811 33.7706L36.3875 33.7113L36.3932 33.6514L36.3984 33.5921L36.4029 33.5326L36.4067 33.4733L36.41 33.4141L36.4126 33.3551L36.4145 33.2963L36.4159 33.2371L36.4167 33.1781L36.4168 33.1196L36.4163 33.0611L36.4152 33.0027L36.4134 32.9445L36.4111 32.886L36.4081 32.8286L36.4046 32.7699L36.4005 32.7128L36.3957 32.6554L36.3904 32.5976L36.3844 32.5404L36.378 32.4839L36.3707 32.4264L36.3631 32.3703L36.3548 32.3137L36.3461 32.2579L36.3365 32.2016L36.3266 32.1457L36.3161 32.0903L36.305 32.0351L36.2933 31.9797L36.281 31.925L36.2683 31.8704L36.255 31.8161L36.2412 31.7622L36.2266 31.7079L36.2119 31.6548L36.1963 31.601L36.1804 31.5483L36.1639 31.4955L36.1468 31.4431L36.1292 31.3909L36.1111 31.3388L36.0927 31.2875L36.0736 31.2364L36.054 31.1851L36.0339 31.1347L36.0133 31.0839L35.9925 31.0344L35.9708 30.9844L35.949 30.9352L35.9265 30.8864L35.9036 30.8375L35.8802 30.7893L35.8564 30.7413L35.8321 30.6935L35.8074 30.6464L35.7822 30.5994L35.7567 30.5529L35.7307 30.5067L35.7041 30.4609L35.6773 30.4155L35.6501 30.3705L35.6222 30.3256L35.5942 30.2816L35.5657 30.2377L35.5367 30.1942L35.5074 30.1509L35.4778 30.1084L35.4477 30.066L35.4173 30.0241L35.3865 29.9827L35.3552 29.9416L35.3239 29.901L35.2918 29.8606L35.2597 29.8209L35.2271 29.7815L35.1942 29.7425L35.1609 29.7039L35.1275 29.6659L35.0936 29.6283L35.0593 29.591L35.0248 29.5541L34.9901 29.5178L34.9549 29.4819L34.9194 29.4464L34.8838 29.4114L34.8478 29.3769L34.8117 29.3429L34.7749 29.309L34.7383 29.2759L34.7012 29.243L34.664 29.2109L34.6264 29.1789L34.5886 29.1477L34.5506 29.1168L34.5124 29.0864L34.4739 29.0564L34.4352 29.0268L34.3963 28.9979L34.3572 28.9692L34.3178 28.9411L34.2784 28.9136L34.2387 28.8863L34.1989 28.8597L34.1588 28.8335L34.1184 28.8078L34.0782 28.7825L34.0374 28.7577L33.9968 28.7334L33.956 28.7097L33.915 28.6864L33.8737 28.6635L33.8325 28.6411L33.7912 28.6192L33.7496 28.5978L33.7081 28.5769L33.6661 28.5563L33.6244 28.5364L33.5824 28.517L33.5404 28.4979L33.4982 28.4794L33.4558 28.4613L33.4138 28.4438L33.3713 28.4268L33.3287 28.4101L33.2863 28.394L33.2438 28.3784L33.2012 28.3632L33.1586 28.3485L33.1159 28.3342L33.0733 28.3205L33.0305 28.3072L32.9877 28.2944L32.9452 28.2821L32.9021 28.2702L32.8595 28.2589L32.8167 28.248L32.7739 28.2375L32.7311 28.2275L32.6884 28.218L32.6456 28.209L32.6029 28.2004L32.5603 28.1922L32.5178 28.1846L32.475 28.1774L32.4327 28.1707L32.3899 28.1644L32.3477 28.1585L32.3052 28.1531L32.2629 28.1482L32.2209 28.1437L32.1787 28.1397L32.1367 28.136L32.0947 28.1329L32.0528 28.1302L32.0109 28.1279L31.9692 28.1261L31.9279 28.1247L31.8863 28.1236L31.845 28.1231L31.8037 28.1229L31.7626 28.1234L31.7216 28.124L31.6808 28.1251L31.64 28.1268L31.5997 28.1287L31.559 28.1311L31.5189 28.1339L31.4788 28.137L31.4389 28.1407L31.3992 28.1446L31.3594 28.149L31.3201 28.1538L31.2808 28.1589L31.2418 28.1645L31.2028 28.1705L31.1642 28.1768L31.1257 28.1835L31.0876 28.1906L31.0493 28.1981L31.0115 28.2059L30.9737 28.214L30.9364 28.2226Z" fill="#9B9B9B"/>
</g>
</svg>
