<svg width="233" height="60" viewBox="0 0 233 60" fill="none" xmlns="http://www.w3.org/2000/svg">
<g id="Logo">
<path id="Vector" d="M69.1309 18.8812H74.7559V41.6249H69.1309V18.8812ZM76.9871 33.0374C76.9871 27.4124 80.4371 24.0562 85.7621 24.0562C91.0871 24.0562 94.5371 27.4124 94.5371 33.0374C94.5371 38.6624 91.1621 42.0374 85.7621 42.0374C80.3621 42.0374 76.9871 38.7562 76.9871 33.0374ZM88.8934 33.0374C88.8934 29.9437 87.6746 28.1249 85.7621 28.1249C83.8496 28.1249 82.6496 29.9999 82.6496 33.0374C82.6496 36.0749 83.8309 37.9124 85.7621 37.9124C87.6934 37.9124 88.8934 36.1874 88.8934 33.0562V33.0374ZM96.6559 42.7312H102.056C102.313 43.3021 102.747 43.7748 103.295 44.0789C103.842 44.3829 104.473 44.5021 105.093 44.4187C107.231 44.4187 108.356 43.2562 108.356 41.5687V38.4187H108.243C107.795 39.3841 107.068 40.193 106.156 40.7412C105.243 41.2893 104.187 41.5514 103.125 41.4937C99.0184 41.4937 96.2996 38.3624 96.2996 32.9812C96.2996 27.5999 98.8871 24.2062 103.2 24.2062C104.296 24.1632 105.379 24.4563 106.304 25.046C107.229 25.6359 107.951 26.4942 108.375 27.5062V24.3749H114V41.4374C114 45.5437 110.381 48.0937 105.037 48.0937C100.068 48.0937 96.9746 45.8624 96.6559 42.7499V42.7312ZM108.375 33.0187C108.375 30.2812 107.118 28.5562 105.131 28.5562C103.143 28.5562 101.925 30.2624 101.925 33.0187C101.925 35.7749 103.125 37.3312 105.131 37.3312C107.137 37.3312 108.375 35.8124 108.375 33.0374V33.0187ZM116.118 33.0187C116.118 27.3937 119.568 24.0374 124.893 24.0374C130.218 24.0374 133.687 27.3937 133.687 33.0187C133.687 38.6437 130.312 42.0187 124.893 42.0187C119.475 42.0187 116.118 38.7562 116.118 33.0374V33.0187ZM128.025 33.0187C128.025 29.9249 126.806 28.1062 124.893 28.1062C122.981 28.1062 121.875 29.9999 121.875 33.0562C121.875 36.1124 123.056 37.9312 124.968 37.9312C126.881 37.9312 128.025 36.1874 128.025 33.0562V33.0187ZM135.825 20.2874C135.81 19.7195 135.964 19.16 136.268 18.6798C136.571 18.1996 137.011 17.8204 137.53 17.5902C138.049 17.3601 138.625 17.2893 139.185 17.3869C139.745 17.4845 140.263 17.7461 140.674 18.1385C141.085 18.5309 141.37 19.0364 141.493 19.591C141.616 20.1457 141.572 20.7243 141.366 21.2538C141.16 21.7831 140.801 22.2395 140.335 22.5648C139.87 22.8901 139.318 23.0699 138.75 23.0812C138.373 23.107 137.995 23.0547 137.64 22.9276C137.284 22.8005 136.959 22.6014 136.685 22.3424C136.41 22.0837 136.192 21.7707 136.044 21.4235C135.896 21.0764 135.821 20.7024 135.825 20.3249V20.2874ZM135.825 24.4124H141.45V41.6249H135.825V24.4124ZM161.868 33.0187C161.868 38.6437 159.375 41.8499 155.1 41.8499C154.003 41.9202 152.912 41.6523 151.973 41.0823C151.034 40.5121 150.293 39.6674 149.85 38.6624H149.737V47.1374H144.112V24.3749H149.737V27.4499H149.85C150.272 26.4282 150.999 25.5616 151.932 24.9678C152.865 24.374 153.958 24.0819 155.062 24.1312C159.375 24.2062 161.943 27.4312 161.943 33.0562L161.868 33.0187ZM156.243 33.0187C156.243 30.2812 154.987 28.5374 153.018 28.5374C151.05 28.5374 149.793 30.2999 149.775 33.0187C149.756 35.7374 151.05 37.4812 153.018 37.4812C154.987 37.4812 156.243 35.7749 156.243 33.0562V33.0187ZM171.525 24.0187C176.193 24.0187 179.025 26.2312 179.156 29.7749H174.037C174.037 28.5562 173.025 27.7874 171.468 27.7874C169.912 27.7874 169.218 28.3874 169.218 29.2687C169.218 30.1499 169.837 30.4312 171.093 30.6937L174.693 31.4249C178.125 32.1562 179.587 33.5437 179.587 36.1499C179.587 39.7124 176.343 41.9999 171.562 41.9999C166.781 41.9999 163.65 39.7124 163.406 36.2062H168.825C168.993 37.4812 170.006 38.2312 171.656 38.2312C173.306 38.2312 174.056 37.6874 174.056 36.7874C174.056 35.8874 173.531 35.6999 172.181 35.4187L168.937 34.7249C165.581 34.0312 163.818 32.2499 163.818 29.6249C163.856 26.2499 166.875 24.0562 171.525 24.0562V24.0187ZM198.356 41.5874H192.937V38.3812H192.825C192.526 39.4576 191.87 40.3998 190.963 41.0514C190.055 41.7027 188.953 42.0243 187.837 41.9624C186.982 42.011 186.127 41.8756 185.33 41.5653C184.532 41.255 183.81 40.7772 183.213 40.1639C182.616 39.5508 182.157 38.8164 181.868 38.0107C181.579 37.205 181.466 36.3466 181.537 35.4937V24.3749H187.162V34.1999C187.162 36.2437 188.212 37.3312 189.956 37.3312C190.365 37.3319 190.77 37.2455 191.143 37.0773C191.514 36.9091 191.848 36.6631 192.118 36.356C192.386 36.0487 192.588 35.6874 192.706 35.2962C192.825 34.9049 192.86 34.4928 192.806 34.0874V24.3749H198.431L198.356 41.5874ZM201.075 24.3749H206.512V27.6937H206.625C206.923 26.6315 207.566 25.6981 208.451 25.04C209.336 24.3819 210.416 24.0357 211.518 24.0562C212.641 23.9664 213.755 24.3022 214.642 24.997C215.527 25.6919 216.12 26.6947 216.3 27.8062H216.412C216.751 26.6829 217.456 25.7049 218.415 25.0259C219.371 24.347 220.528 24.0057 221.7 24.0562C222.465 24.0305 223.226 24.166 223.935 24.454C224.645 24.7419 225.285 25.1759 225.815 25.7275C226.346 26.2794 226.755 26.9365 227.015 27.6564C227.274 28.3762 227.381 29.1429 227.325 29.9062V41.6249H221.7V31.4062C221.7 29.5312 220.856 28.6687 219.281 28.6687C218.93 28.6657 218.581 28.738 218.261 28.8809C217.94 29.0238 217.653 29.2338 217.421 29.4969C217.188 29.7599 217.014 30.0697 216.911 30.4055C216.808 30.7415 216.78 31.0955 216.825 31.4437V41.6249H211.481V31.3312C211.481 29.6062 210.637 28.6687 209.1 28.6687C208.745 28.6689 208.393 28.7442 208.07 28.8899C207.746 29.0358 207.455 29.2486 207.221 29.5143C206.985 29.78 206.808 30.0927 206.701 30.4319C206.596 30.7709 206.563 31.1285 206.606 31.4812V41.6249H200.981L201.075 24.3749Z" fill="#9B9B9B"/>
<path id="Vector_2" d="M53.3995 19.9127C52.4453 17.7308 51.1825 15.6975 49.6495 13.8752C47.3836 11.1008 44.5557 8.83777 41.3521 7.23504C38.1484 5.63233 34.6416 4.72623 31.0626 4.5764C27.4836 4.42657 23.9134 5.0364 20.587 6.36577C17.2607 7.69513 14.2536 9.71388 11.7636 12.2892C9.27367 14.8644 7.35733 17.9378 6.14073 21.3071C4.92414 24.6763 4.43486 28.265 4.70512 31.8369C4.9754 35.409 5.99906 38.8832 7.70876 42.0309C9.41846 45.1789 11.7754 47.9289 14.6245 50.1002C16.4527 51.5212 18.4727 52.6764 20.6245 53.5314C23.6414 54.7678 26.8703 55.4045 30.1308 55.4064C36.8609 55.3916 43.3105 52.7089 48.0661 47.9464C52.8214 43.1839 55.4946 36.7303 55.4995 30.0002C55.5044 26.5286 54.7894 23.0938 53.3995 19.9127ZM30.112 9.7314C33.04 9.7311 35.9326 10.371 38.587 11.6064C37.9398 11.8861 37.2591 12.0814 36.562 12.1877C34.2681 12.5197 32.1432 13.5847 30.5043 15.2236C28.8653 16.8625 27.8003 18.9875 27.4683 21.2814C27.3226 22.5679 26.7374 23.7647 25.8117 24.6699C24.886 25.5752 23.6764 26.1332 22.387 26.2502C20.0931 26.5822 17.9681 27.6472 16.3292 29.2862C14.6903 30.9251 13.6253 33.05 13.2933 35.3439C13.1809 36.5672 12.6589 37.7167 11.812 38.6064C10.3507 35.5189 9.69431 32.1116 9.90378 28.7021C10.1133 25.2926 11.1818 21.9915 13.0101 19.1059C14.8383 16.2204 17.3668 13.8442 20.3603 12.1986C23.3538 10.553 26.7149 9.69136 30.1308 9.6939L30.112 9.7314ZM14.6058 43.1252C14.8308 42.9189 15.0558 42.7314 15.2808 42.5064C16.9489 40.8892 18.0196 38.7544 18.3183 36.4502C18.4394 35.1549 19.0176 33.9452 19.9495 33.0377C20.8463 32.1043 22.0533 31.5307 23.3433 31.4252C25.6371 31.0931 27.7621 30.0281 29.401 28.3892C31.0399 26.7502 32.1049 24.6253 32.437 22.3314C32.5182 20.9767 33.0994 19.7004 34.0683 18.7502C34.9872 17.8349 36.2056 17.2822 37.4995 17.1939C39.6068 16.904 41.5722 15.9671 43.1245 14.5127C44.8921 15.979 46.3894 17.7431 47.5495 19.7252C47.4783 19.8214 47.3965 19.9095 47.3058 19.9877C46.4108 20.9293 45.2054 21.5154 43.912 21.6377C41.6157 21.9639 39.4876 23.027 37.8475 24.6669C36.2076 26.307 35.1445 28.4351 34.8183 30.7314C34.6861 32.0222 34.1118 33.2276 33.1926 34.1434C32.2733 35.0593 31.0658 35.6291 29.7745 35.7564C27.4739 36.0859 25.3411 37.1488 23.6926 38.787C22.0443 40.4254 20.9682 42.5516 20.6245 44.8502C20.5236 45.7665 20.2088 46.6464 19.7058 47.4189C17.782 46.2767 16.0591 44.8262 14.6058 43.1252ZM30.112 50.3627C28.2094 50.3647 26.3159 50.0996 24.487 49.5752C25.1127 48.4089 25.5194 47.1379 25.687 45.8252C25.8184 44.5372 26.3901 43.334 27.3055 42.4187C28.2209 41.5033 29.4241 40.9316 30.712 40.8002C33.0093 40.4719 35.1385 39.4085 36.7812 37.7692C38.4237 36.1301 39.4915 34.0029 39.8245 31.7064C39.9559 30.4185 40.5276 29.2153 41.443 28.2999C42.3584 27.3845 43.5616 26.8129 44.8495 26.6814C46.5783 26.4566 48.226 25.8129 49.6495 24.8064C50.44 27.8025 50.5336 30.9397 49.9233 33.9776C49.3129 37.0155 48.0147 39.8734 46.1284 42.3317C44.2422 44.7898 41.818 46.7835 39.0415 48.1594C36.2652 49.5352 33.2106 50.2569 30.112 50.2689V50.3627Z" fill="#9B9B9B"/>
</g>
</svg>
