<svg width="198" height="60" viewBox="0 0 198 60" fill="none" xmlns="http://www.w3.org/2000/svg">
<g id="Logo">
<path id="Vector" d="M34.8457 17.0851H37.8457V37.9651H46.8457V40.9651H34.8457V17.0851ZM56.1907 17.0851C57.9708 17.0851 59.7108 17.613 61.1908 18.6019C62.6709 19.5909 63.8245 20.9964 64.5057 22.641C65.1868 24.2856 65.365 26.0952 65.0178 27.8409C64.6705 29.5867 63.8134 31.1904 62.5546 32.449C61.296 33.7078 59.6923 34.5649 57.9465 34.9122C56.2008 35.2594 54.3912 35.0812 52.7466 34.4001C51.102 33.7188 49.6965 32.5653 48.7075 31.0852C47.7186 29.6052 47.1907 27.8652 47.1907 26.0851C47.1907 24.9033 47.4235 23.7328 47.8758 22.641C48.328 21.549 48.991 20.5569 49.8268 19.7212C50.6625 18.8854 51.6546 18.2224 52.7466 17.7702C53.8384 17.3179 55.0089 17.0851 56.1907 17.0851ZM56.1907 32.0851C57.3774 32.0851 58.5375 31.7332 59.5242 31.074C60.5109 30.4146 61.2799 29.4775 61.734 28.3812C62.1882 27.2848 62.307 26.0785 62.0754 24.9145C61.8439 23.7507 61.2724 22.6816 60.4333 21.8425C59.5942 21.0034 58.5252 20.4319 57.3613 20.2005C56.1973 19.9689 54.991 20.0877 53.8947 20.5419C52.7983 20.9959 51.8611 21.765 51.2019 22.7517C50.5426 23.7384 50.1907 24.8985 50.1907 26.0851C50.1987 27.6712 50.8342 29.1897 51.9586 30.3084C53.083 31.4271 54.6046 32.0551 56.1907 32.0551V32.0851ZM50.1907 37.9951H62.1907V40.9951H50.1907V37.9951ZM88.5907 40.9951H85.5907V38.8501C83.656 40.2043 81.3523 40.9321 78.9907 40.9351C76.977 40.9486 74.9922 40.4551 73.2193 39.5001C71.4463 38.5449 69.9423 37.159 68.8458 35.47C67.7491 33.781 67.0951 31.8432 66.9442 29.835C66.7932 27.8269 67.15 25.813 67.9818 23.9791C68.8135 22.1451 70.0935 20.5498 71.7036 19.3405C73.3138 18.1311 75.2025 17.3463 77.1955 17.0586C79.1887 16.7707 81.2223 16.9893 83.1087 17.6938C84.9952 18.3984 86.6742 19.5663 87.9907 21.0901L85.7857 23.0551C84.7843 21.9355 83.5188 21.0844 82.1041 20.5794C80.6896 20.0742 79.1712 19.9311 77.6872 20.1631C76.2031 20.3952 74.8009 20.995 73.608 21.9078C72.4152 22.8207 71.4697 24.0174 70.858 25.3893C70.2462 26.761 69.9874 28.264 70.1053 29.7615C70.2232 31.2589 70.7139 32.703 71.5329 33.9621C72.3519 35.2212 73.4728 36.2554 74.7939 36.9703C76.1148 37.6852 77.5938 38.0581 79.0957 38.0551C80.3422 38.0577 81.5746 37.791 82.7086 37.2732C83.8425 36.7554 84.8512 35.9988 85.6657 35.0551H77.5657V32.0551H88.6207L88.5907 40.9951ZM99.6307 17.1451C101.411 17.1451 103.151 17.673 104.631 18.6619C106.111 19.6509 107.265 21.0564 107.946 22.701C108.627 24.3456 108.805 26.1552 108.458 27.9009C108.111 29.6467 107.253 31.2504 105.995 32.509C104.736 33.7678 103.132 34.6249 101.386 34.9722C99.6408 35.3194 97.8312 35.1412 96.1866 34.4601C94.542 33.7788 93.1365 32.6253 92.1475 31.1452C91.1586 29.6652 90.6307 27.9252 90.6307 26.1451C90.6228 24.9556 90.8508 23.7765 91.3014 22.6756C91.752 21.5748 92.4163 20.5741 93.256 19.7317C94.0957 18.8892 95.0941 18.2215 96.1935 17.7672C97.2928 17.313 98.4712 17.0811 99.6607 17.0851L99.6307 17.1451ZM99.6307 32.1451C100.817 32.1451 101.977 31.7932 102.964 31.134C103.951 30.4746 104.72 29.5375 105.174 28.4412C105.628 27.3448 105.747 26.1385 105.515 24.9745C105.284 23.8107 104.712 22.7416 103.873 21.9025C103.034 21.0634 101.965 20.4919 100.801 20.2605C99.6373 20.0289 98.431 20.1477 97.3347 20.6019C96.2383 21.0559 95.3011 21.825 94.6419 22.8117C93.9826 23.7984 93.6307 24.9585 93.6307 26.1451C93.6544 27.726 94.3011 29.2336 95.4303 30.3403C96.5593 31.4469 98.0797 32.0632 99.6607 32.0551L99.6307 32.1451ZM93.6307 38.0551H105.631V41.0551H93.6307V38.0551ZM111.826 17.0851H114.826V40.9351H111.826V17.0851ZM118.981 17.0851H121.981C122.135 17.0688 122.291 17.0688 122.446 17.0851C123.702 16.9488 124.973 17.0787 126.176 17.4661C127.379 17.8537 128.487 18.4902 129.427 19.3342C130.368 20.1783 131.12 21.211 131.635 22.3651C132.15 23.5192 132.416 24.7689 132.416 26.0326C132.416 27.2964 132.15 28.546 131.635 29.7001C131.12 30.8542 130.368 31.887 129.427 32.731C128.487 33.5751 127.379 34.2115 126.176 34.5991C124.973 34.9866 123.702 35.1165 122.446 34.9801H121.981V40.9801H118.981V17.0851ZM121.981 20.0851V31.9501H122.446C123.293 32.0629 124.155 31.9935 124.973 31.7461C125.791 31.4989 126.547 31.0797 127.19 30.5166C127.834 29.9535 128.349 29.2594 128.702 28.4809C129.055 27.7024 129.238 26.8575 129.238 26.0026C129.238 25.1478 129.055 24.3028 128.702 23.5243C128.349 22.7458 127.834 22.0518 127.19 21.4887C126.547 20.9254 125.791 20.5063 124.973 20.259C124.155 20.0118 123.293 19.9423 122.446 20.0551C122.282 20.0721 122.121 20.1073 121.966 20.1601L121.981 20.0851ZM143.596 18.8101L141.376 20.5651C140.993 20.1649 140.503 19.8823 139.965 19.7506C139.427 19.6189 138.863 19.6435 138.338 19.8216C137.814 19.9995 137.351 20.3235 137.004 20.7555C136.657 21.1875 136.441 21.7095 136.381 22.2601V22.5001C136.381 23.8201 137.296 24.7051 139.081 24.8251C145.951 25.2451 149.101 28.4701 149.101 32.7301V33.0001C148.923 34.6861 148.265 36.2857 147.205 37.6087C146.145 38.9317 144.727 39.9222 143.12 40.4626C141.513 41.0029 139.785 41.0704 138.141 40.6569C136.497 40.2435 135.006 39.3664 133.846 38.1301L136.141 36.3601C136.675 36.9327 137.327 37.3821 138.052 37.6774C138.778 37.9726 139.558 38.1067 140.341 38.0701C141.786 38.1463 143.204 37.6614 144.299 36.7165C145.395 35.7718 146.083 34.4403 146.221 33.0001V32.7901C146.221 28.7851 142.291 28.0501 138.886 27.7201C135.736 27.4201 133.471 25.4551 133.471 22.6201V22.5001C133.582 21.0241 134.255 19.6471 135.352 18.6535C136.449 17.6598 137.886 17.1252 139.366 17.1601C140.15 17.137 140.93 17.2785 141.656 17.5756C142.382 17.8728 143.038 18.3189 143.581 18.8851L143.596 18.8101ZM160.846 37.8901C164.581 37.8901 167.536 33.8551 167.536 28.8901V16.8901H170.536V28.8901C170.536 35.4901 166.216 40.8151 160.906 40.8151C155.596 40.8151 151.276 35.4901 151.276 28.8901V16.8901H154.276V28.8901C154.156 33.9301 157.111 37.9651 160.831 37.9651L160.846 37.8901ZM193.561 40.8901H190.561V26.0401L183.646 35.0401L176.731 26.0401V40.9351H173.731V17.0851L183.631 30.1201L193.531 17.0851L193.561 40.8901Z" fill="#9B9B9B"/>
<path id="Vector_2" d="M20.445 13.4998C20.445 11.3357 19.5854 9.26014 18.0551 7.72985C16.5248 6.19955 14.4492 5.33984 12.285 5.33984C10.1208 5.33984 8.04531 6.19955 6.51501 7.72985C4.98471 9.26014 4.125 11.3357 4.125 13.4998V38.1748L10.845 42.9898V54.7198H13.725V42.9898L20.445 38.1748V13.4998ZM17.565 27.2998L13.725 31.1398V27.5398L17.565 23.6998V27.2998ZM7.065 23.6998L10.905 27.5398V31.1398L7.065 27.2998V23.6998ZM17.565 19.6198L12.285 24.8998L7.005 19.4998V15.8998L12.285 21.1798L17.565 15.8998V19.6198ZM12.285 8.21984C13.4462 8.22497 14.5737 8.61064 15.4948 9.31774C16.416 10.0248 17.0799 11.0144 17.385 12.1348L12.285 17.2198L7.185 12.1348C7.47891 11.0032 8.13806 10.0003 9.0602 9.28156C9.98234 8.56283 11.1159 8.16853 12.285 8.15983V8.21984ZM7.005 36.7198V31.3198L10.845 35.1598V39.4498L7.005 36.7198ZM13.725 39.4648V35.1598L17.565 31.3198V36.7048L13.725 39.4648Z" fill="#9B9B9B"/>
</g>
</svg>
