<svg width="280" height="60" viewBox="0 0 280 60" fill="none" xmlns="http://www.w3.org/2000/svg">
<path d="M44.8381 26.742C44.0801 27.5046 43.4997 28.425 43.1381 29.4374C42.7765 30.45 42.6427 31.5298 42.7461 32.6L42.7101 32.564C42.8165 33.8238 42.6465 35.0914 42.2123 36.2788C41.7781 37.466 41.0901 38.5442 40.1963 39.4382C39.3023 40.332 38.2241 41.0202 37.0367 41.4542C35.8495 41.8884 34.5817 42.0584 33.3221 41.952L33.3581 41.988C31.8513 41.8478 30.3379 42.1756 29.0241 42.927C27.7105 43.6784 26.6605 44.8166 26.0175 46.1866C25.3745 47.5566 25.1695 49.0914 25.4307 50.5822C25.6921 52.0728 26.4067 53.4466 27.4773 54.5162C28.5479 55.5858 29.9223 56.2992 31.4131 56.559C32.9041 56.819 34.4387 56.6126 35.8081 55.9684C37.1775 55.324 38.3147 54.2732 39.0649 52.9588C39.8151 51.6444 40.1417 50.1308 40.0001 48.624L40.0381 48.66C39.9317 47.4004 40.1015 46.1326 40.5357 44.9452C40.9699 43.758 41.6581 42.6798 42.5519 41.7858C43.4459 40.892 44.5241 40.2038 45.7113 39.7698C46.8987 39.3356 48.1663 39.1656 49.4261 39.272L49.3881 39.236C50.6189 39.3466 51.8579 39.1448 52.9901 38.6492C54.1221 38.1536 55.1109 37.3802 55.8645 36.4008C56.6181 35.4214 57.1125 34.2674 57.3013 33.0462C57.4903 31.8248 57.3679 30.5756 56.9455 29.414C56.5231 28.2526 55.8143 27.2166 54.8849 26.402C53.9555 25.5874 52.8355 25.0206 51.6287 24.7542C50.4219 24.4878 49.1673 24.5302 47.9813 24.8776C46.7953 25.2252 45.7163 25.8664 44.8441 26.742H44.8381Z" fill="#9B9B9B"/>
<path d="M30.0843 37.272L30.0463 37.236C31.1169 37.3438 32.1981 37.2124 33.2119 36.8512C34.2255 36.49 35.1463 35.9082 35.9075 35.1476C36.6685 34.387 37.2513 33.4666 37.6131 32.4532C37.9751 31.4398 38.1073 30.3588 38.0003 29.288L38.0383 29.324C37.9319 28.0642 38.1019 26.7966 38.5359 25.6092C38.9701 24.422 39.6583 23.3438 40.5521 22.4498C41.4461 21.556 42.5243 20.8678 43.7115 20.4338C44.8989 19.9995 46.1665 19.8297 47.4263 19.936L47.3883 19.9C48.8953 20.0416 50.4091 19.7147 51.7235 18.9642C53.0381 18.2137 54.0889 17.0759 54.7329 15.7062C55.3769 14.3365 55.5827 12.8014 55.3223 11.3104C55.0619 9.81937 54.3479 8.44501 53.2775 7.37473C52.2073 6.30447 50.8329 5.59039 49.3419 5.32995C47.8509 5.06949 46.3159 5.27531 44.9461 5.91935C43.5763 6.56337 42.4387 7.61427 41.6881 8.92869C40.9375 10.2431 40.6107 11.757 40.7523 13.264L40.7163 13.226C40.8229 14.4858 40.6533 15.7537 40.2193 16.9411C39.7853 18.1285 39.0971 19.2069 38.2033 20.101C37.3093 20.9948 36.2309 21.683 35.0435 22.117C33.8559 22.551 32.5881 22.7206 31.3283 22.614L31.3643 22.652C30.2937 22.5442 29.2123 22.6756 28.1987 23.0368C27.1851 23.3978 26.2643 23.9798 25.5031 24.7404C24.7419 25.501 24.1593 26.4214 23.7973 27.4348C23.4355 28.4482 23.3033 29.5292 23.4103 30.6L23.3743 30.564C23.4803 31.8236 23.3101 33.0912 22.8759 34.2784C22.4415 35.4654 21.7535 36.5436 20.8597 37.4374C19.9658 38.3312 18.8877 39.0192 17.7006 39.4536C16.5135 39.8878 15.2459 40.058 13.9863 39.952L14.0223 39.988C12.5153 39.8464 11.0014 40.1732 9.68699 40.9238C8.37259 41.6744 7.32169 42.812 6.67767 44.1818C6.03363 45.5516 5.82779 47.0866 6.08825 48.5776C6.34871 50.0686 7.06279 51.443 8.13305 52.5132C9.20333 53.5836 10.5777 54.2976 12.0687 54.558C13.5597 54.8184 15.0948 54.6126 16.4645 53.9686C17.8342 53.3246 18.972 52.2738 19.7225 50.9594C20.4731 49.6448 20.7999 48.131 20.6583 46.624L20.6963 46.66C20.5899 45.4002 20.7599 44.1326 21.1941 42.9452C21.6281 41.758 22.3163 40.6798 23.2101 39.7858C24.1041 38.892 25.1823 38.2038 26.3695 37.7698C27.5569 37.3356 28.8245 37.1656 30.0843 37.272Z" fill="#9B9B9B"/>
<path d="M16.6804 33.2579C17.4385 32.4955 18.0188 31.5751 18.3801 30.5625C18.7414 29.5499 18.8747 28.4699 18.7704 27.3999L18.8084 27.4359C18.702 26.1759 18.8719 24.9077 19.3063 23.7201C19.7408 22.5325 20.4292 21.4541 21.3236 20.5601C22.218 19.6661 23.2966 18.9781 24.4844 18.5442C25.6722 18.1103 26.9404 17.9409 28.2004 18.0479L28.1624 18.0119C29.6688 18.153 31.1822 17.826 32.496 17.0756C33.8098 16.3251 34.86 15.1876 35.5038 13.8183C36.1474 12.449 36.353 10.9145 36.0926 9.42406C35.8322 7.9336 35.1182 6.55976 34.0484 5.48988C32.9786 4.42 31.6046 3.70616 30.1142 3.44572C28.6238 3.18526 27.0892 3.3909 25.72 4.03454C24.3506 4.67818 23.2132 5.72852 22.4628 7.04232C21.7122 8.35612 21.3852 9.86944 21.5264 11.3759L21.4904 11.3399C21.5968 12.5996 21.4268 13.8673 20.9926 15.0546C20.5584 16.2419 19.8705 17.3201 18.9765 18.214C18.0826 19.1079 17.0044 19.796 15.8171 20.2301C14.6298 20.6643 13.3621 20.8343 12.1024 20.7279L12.1384 20.7639C10.9076 20.6535 9.66874 20.8557 8.53678 21.3515C7.40482 21.8473 6.41632 22.6209 5.6629 23.6005C4.90948 24.5799 4.41552 25.7339 4.22676 26.9551C4.03802 28.1765 4.1606 29.4257 4.58314 30.5869C5.00568 31.7483 5.71454 32.7841 6.644 33.5985C7.57346 34.4131 8.69346 34.9797 9.90022 35.2461C11.107 35.5123 12.3614 35.4697 13.5474 35.1223C14.7333 34.7747 15.8123 34.1335 16.6844 33.2579H16.6804Z" fill="#9B9B9B"/>
<path d="M78.6348 13.3101H84.5748V42.2161H78.6348V13.3101Z" fill="#9B9B9B"/>
<path d="M87.9378 32.3182C87.9296 30.241 88.538 28.2078 89.686 26.4766C90.834 24.7454 92.47 23.3938 94.3868 22.5932C96.3036 21.7924 98.4148 21.5786 100.453 21.9788C102.492 22.379 104.365 23.375 105.837 24.841C107.309 26.3068 108.313 28.1766 108.721 30.2134C109.129 32.2502 108.924 34.3624 108.131 36.2824C107.338 38.2022 105.993 39.8438 104.266 40.9986C102.54 42.1536 100.509 42.7702 98.4318 42.7702C97.053 42.786 95.6848 42.5266 94.4072 42.0074C93.1296 41.4882 91.9684 40.7196 90.9914 39.7466C90.0142 38.7734 89.241 37.6152 88.7168 36.3398C88.1924 35.0644 87.9276 33.6972 87.9378 32.3182ZM102.986 32.3182C102.961 31.4228 102.673 30.5546 102.157 29.822C101.642 29.0896 100.922 28.5252 100.087 28.1998C99.2528 27.8742 98.341 27.8018 97.4656 27.9918C96.5902 28.1818 95.7902 28.6254 95.1656 29.2676C94.5412 29.9096 94.1196 30.7216 93.9542 31.602C93.7886 32.4822 93.886 33.3918 94.2346 34.217C94.5832 35.0422 95.1672 35.7462 95.9136 36.2412C96.6602 36.7362 97.5362 37.0002 98.4318 37.0002C99.0452 37.0166 99.6554 36.9056 100.224 36.6744C100.792 36.4432 101.307 36.0968 101.735 35.657C102.162 35.217 102.495 34.6932 102.71 34.1186C102.925 33.544 103.019 32.931 102.986 32.3182Z" fill="#9B9B9B"/>
<path d="M132.6 22.4181V41.2181C132.6 47.8701 127.412 50.6821 122.146 50.6821C120.292 50.8209 118.435 50.4463 116.78 49.5997C115.125 48.7529 113.734 47.4667 112.762 45.8821L117.83 42.9521C118.239 43.7781 118.89 44.4595 119.697 44.9053C120.503 45.3509 121.427 45.5397 122.344 45.4461C122.93 45.5273 123.527 45.4757 124.09 45.2951C124.653 45.1145 125.169 44.8095 125.598 44.4029C126.028 43.9961 126.361 43.4981 126.572 42.9453C126.783 42.3927 126.867 41.7997 126.818 41.2101V39.4001C126.122 40.2511 125.237 40.9273 124.233 41.3743C123.229 41.8213 122.134 42.0267 121.036 41.9741C118.423 41.8917 115.946 40.7961 114.127 38.9189C112.308 37.0419 111.291 34.5307 111.291 31.9171C111.291 29.3035 112.308 26.7923 114.127 24.9153C115.946 23.0381 118.423 21.9425 121.036 21.8601C122.134 21.8075 123.229 22.0129 124.233 22.4599C125.237 22.9069 126.122 23.5831 126.818 24.4341V22.4141L132.6 22.4181ZM126.82 31.9201C126.86 30.9629 126.612 30.0155 126.109 29.2001C125.606 28.3845 124.871 27.7383 123.997 27.3445C123.124 26.9505 122.153 26.8271 121.208 26.9899C120.264 27.1527 119.39 27.5943 118.699 28.2581C118.008 28.9217 117.532 29.7769 117.331 30.7137C117.13 31.6505 117.214 32.6261 117.572 33.5147C117.93 34.4033 118.546 35.1645 119.341 35.7001C120.135 36.2357 121.072 36.5213 122.03 36.5201C122.654 36.5637 123.28 36.4761 123.868 36.2629C124.457 36.0497 124.994 35.7155 125.445 35.2823C125.896 34.8489 126.252 34.3259 126.488 33.7467C126.725 33.1677 126.838 32.5455 126.82 31.9201Z" fill="#9B9B9B"/>
<path d="M135.963 32.3182C135.955 30.241 136.563 28.2078 137.711 26.4766C138.859 24.7454 140.495 23.3938 142.412 22.5932C144.329 21.7924 146.44 21.5786 148.479 21.9788C150.517 22.379 152.391 23.375 153.863 24.841C155.334 26.3068 156.338 28.1766 156.746 30.2134C157.155 32.2502 156.949 34.3624 156.156 36.2824C155.363 38.2022 154.018 39.8438 152.292 40.9986C150.565 42.1536 148.535 42.7702 146.457 42.7702C145.078 42.786 143.71 42.5266 142.433 42.0074C141.155 41.4882 139.994 40.7196 139.017 39.7466C138.04 38.7734 137.266 37.6152 136.742 36.3398C136.218 35.0644 135.953 33.6972 135.963 32.3182ZM151.011 32.3182C150.986 31.4228 150.698 30.5546 150.183 29.822C149.667 29.0896 148.947 28.5252 148.113 28.1998C147.278 27.8742 146.366 27.8018 145.491 27.9918C144.616 28.1818 143.816 28.6254 143.191 29.2676C142.567 29.9096 142.145 30.7216 141.979 31.602C141.814 32.4822 141.911 33.3918 142.26 34.217C142.609 35.0422 143.193 35.7462 143.939 36.2412C144.686 36.7362 145.561 37.0002 146.457 37.0002C147.071 37.0166 147.681 36.9056 148.249 36.6744C148.818 36.4432 149.332 36.0968 149.76 35.657C150.188 35.217 150.52 34.6932 150.735 34.1186C150.951 33.544 151.045 32.931 151.011 32.3182Z" fill="#9B9B9B"/>
<path d="M159.723 17.1119C159.723 16.407 159.932 15.7179 160.323 15.1318C160.715 14.5457 161.272 14.0889 161.923 13.8192C162.574 13.5494 163.291 13.4788 163.982 13.6163C164.673 13.7539 165.308 14.0933 165.807 14.5917C166.305 15.0902 166.645 15.7252 166.782 16.4166C166.92 17.1079 166.849 17.8245 166.579 18.4757C166.31 19.127 165.853 19.6836 165.267 20.0753C164.681 20.4669 163.992 20.6759 163.287 20.6759C162.344 20.6665 161.443 20.2881 160.777 19.6216C160.111 18.9553 159.732 18.0542 159.723 17.1119ZM160.323 22.4179H166.265V42.2179H160.315L160.323 22.4179Z" fill="#9B9B9B"/>
<path d="M191.911 32.3181C191.98 33.6267 191.789 34.9359 191.35 36.1705C190.911 37.4051 190.232 38.5407 189.353 39.5121C188.473 40.4833 187.41 41.2713 186.225 41.8305C185.04 42.3895 183.756 42.7089 182.447 42.7701C181.347 42.8301 180.246 42.6445 179.226 42.2267C178.206 41.8087 177.292 41.1691 176.549 40.3541V50.1361H170.609V22.4181H176.549V24.2781C177.292 23.4637 178.207 22.8245 179.227 22.4071C180.247 21.9895 181.347 21.8041 182.447 21.8641C183.757 21.9251 185.041 22.2443 186.226 22.8035C187.412 23.3627 188.475 24.1507 189.354 25.1223C190.234 26.0939 190.913 27.2299 191.351 28.4649C191.79 29.6997 191.981 31.0093 191.911 32.3181ZM185.971 32.3181C185.948 31.3915 185.652 30.4923 185.12 29.7329C184.589 28.9737 183.845 28.3881 182.982 28.0497C182.119 27.7111 181.175 27.6345 180.269 27.8297C179.363 28.0247 178.535 28.4827 177.887 29.1463C177.24 29.8101 176.803 30.6497 176.631 31.5607C176.459 32.4715 176.559 33.4127 176.919 34.2669C177.279 35.1211 177.883 35.8499 178.656 36.3625C179.428 36.8749 180.334 37.1483 181.261 37.1481C181.898 37.1765 182.533 37.0699 183.125 36.8355C183.718 36.6013 184.254 36.2443 184.698 35.7883C185.143 35.3321 185.486 34.7873 185.706 34.1893C185.925 33.5913 186.016 32.9535 185.971 32.3181Z" fill="#9B9B9B"/>
<path d="M210.242 36.2762C210.242 40.8302 206.284 42.7702 202.008 42.7702C200.28 42.9266 198.546 42.5614 197.028 41.7212C195.51 40.8812 194.279 39.6052 193.494 38.0582L198.64 35.1282C198.848 35.8432 199.296 36.4654 199.907 36.8904C200.518 37.3156 201.258 37.5182 202 37.4642C203.424 37.4642 204.138 37.0282 204.138 36.2382C204.138 34.0582 194.396 35.2082 194.396 28.3582C194.396 24.0402 198.04 21.8642 202.158 21.8642C203.706 21.8152 205.238 22.1824 206.596 22.9274C207.954 23.6726 209.088 24.7682 209.878 26.1002L204.81 28.8322C204.588 28.3136 204.218 27.8718 203.746 27.562C203.274 27.2522 202.722 27.0882 202.158 27.0902C201.128 27.0902 200.494 27.4902 200.494 28.1982C200.502 30.4562 210.242 28.9502 210.242 36.2762Z" fill="#9B9B9B"/>
<path d="M231.939 22.418V42.218H225.999V40.356C225.313 41.1776 224.443 41.825 223.459 42.245C222.475 42.665 221.407 42.8456 220.339 42.772C216.339 42.772 212.939 39.922 212.939 34.572V22.418H218.879V33.702C218.829 34.1736 218.883 34.6504 219.037 35.099C219.189 35.5478 219.439 35.9578 219.767 36.3004C220.095 36.643 220.493 36.91 220.935 37.083C221.375 37.256 221.849 37.3308 222.323 37.302C224.501 37.302 226.005 36.036 226.005 33.224V22.424L231.939 22.418Z" fill="#9B9B9B"/>
<path d="M266.001 30.06V42.216H260.061V30.574C260.061 28.594 259.111 27.328 257.211 27.328C255.231 27.328 254.121 28.714 254.121 31.05V42.216H248.183V30.574C248.183 28.594 247.233 27.328 245.331 27.328C243.351 27.328 242.243 28.714 242.243 31.05V42.216H236.303V22.416H242.243V24.236C242.859 23.4286 243.667 22.7882 244.593 22.3736C245.521 21.9588 246.537 21.783 247.549 21.862C248.565 21.8122 249.577 22.0268 250.487 22.4846C251.395 22.9422 252.169 23.6278 252.735 24.474C253.393 23.5886 254.265 22.8846 255.269 22.4278C256.273 21.971 257.377 21.7764 258.477 21.862C263.023 21.864 266.001 25.11 266.001 30.06Z" fill="#9B9B9B"/>
<path d="M271.023 22.296C273.457 22.296 275.431 20.3224 275.431 17.888C275.431 15.4535 273.457 13.48 271.023 13.48C268.589 13.48 266.615 15.4535 266.615 17.888C266.615 20.3224 268.589 22.296 271.023 22.296Z" fill="#9B9B9B"/>
</svg>
