<?xml version="1.0" encoding="utf-8"?>
<!-- Generator: Adobe Illustrator 27.6.1, SVG Export Plug-In . SVG Version: 6.00 Build 0)  -->
<svg version="1.1" id="McDonald_x27_s" xmlns="http://www.w3.org/2000/svg" xmlns:xlink="http://www.w3.org/1999/xlink" x="0px"
	 y="0px" viewBox="0 0 624.9 499.9" style="enable-background:new 0 0 624.9 499.9;" xml:space="preserve">
<style type="text/css">
	.st0{fill:#FFC300;}
</style>
<g>
	<path class="st0" d="M410.6,35.7c49.3,0,89.3,207.8,89.3,464.2h71.4C571.3,223.8,499.4,0,410.6,0c-50.5,0-95.5,67.3-125,172.4
		C256.2,67.3,211.2,0,160.7,0C72,0,0,223.8,0,499.9h71.4c0-256.4,40-464.2,89.3-464.2c49.3,0,89.3,191.8,89.3,428.5h71.4
		C321.4,227.5,361.3,35.7,410.6,35.7"/>
	<path class="st0" d="M607.1,464.2c9.7,0,17.8,7.7,17.8,17.8c0,10.3-8.1,17.9-17.8,17.9c-9.7,0-17.9-7.7-17.9-17.9
		C589.2,471.9,597.3,464.2,607.1,464.2 M607.1,497.3c8.2,0,14.6-6.6,14.6-15.3c0-8.6-6.4-15.2-14.6-15.2c-8.3,0-14.7,6.6-14.7,15.2
		C592.4,490.7,598.8,497.3,607.1,497.3z M600.1,471.6h8c4.9,0,7.2,2,7.2,6c0,3.8-2.4,5.3-5.4,5.7l5.9,9.2h-3.5l-5.6-9h-3.4v9h-3.2
		L600.1,471.6L600.1,471.6z M603.4,480.8h3.4c2.8,0,5.5-0.1,5.5-3.4c0-2.8-2.4-3.2-4.6-3.2h-4.3L603.4,480.8L603.4,480.8z"/>
</g>
</svg>
