<svg width="498" height="500" viewBox="0 0 498 500" fill="none" xmlns="http://www.w3.org/2000/svg">
<g clip-path="url(#clip0_1_2)">
<path d="M497.4 250C497.4 388.1 386 500 248.7 500C111.4 500 0 388.1 0 250C0 111.9 111.4 0 248.7 0C386 0 497.4 111.9 497.4 250Z" fill="white"/>
<path d="M246.6 88.9C255.4 93.9 264.6 100.4 271.7 107.3L268.9 110.1C254.9 108.6 240.3 110.5 227 110.7C225.5 109.2 222.6 107 225.3 105.1L246.6 88.9ZM493.3 262.2C493.5 268.5 494.1 273.9 491.6 280.4C466.1 287.6 449.4 260.7 424.6 264.7L427.4 278.7C450.3 279.5 464.6 301.4 488.2 300.4C484.8 307.1 489.7 324.8 474.8 317.7C459.4 314 448.2 300.4 431.3 300.4C429.3 304.1 430.6 309.3 430.2 313.8C448.1 316.6 460.9 331.7 478.7 334.5C477 340.6 475.4 347.5 470.3 351.2C455.8 347.7 444.4 334.6 429 335L426.2 347.8C440.9 348.2 450.4 361.2 463.6 365.1C464 370.5 459.1 375.4 456.3 380.2C444.6 376.7 435.6 366.6 422.2 367.4C422 362.4 425 356.6 423.9 351.2C408.9 355.7 398.8 341.7 387.6 333.3C387.3 305.9 358.4 287.9 356.9 262.2C356.6 257.1 357.4 251.6 359.7 245.7C369.2 223.8 366.2 195.3 355.8 174.8C352.6 169.4 347 165.2 341.8 162C349.4 178.2 358.8 197.3 354.1 217.2C353.6 232.6 344.5 247.3 344.4 262.1C344.4 267.4 345.5 272.7 348.5 278C360.6 299.8 382.4 320.4 374.2 347.8C371.9 356.2 365.2 362.7 363.6 371.2C377.8 382.9 391.1 396.1 409.9 396.9C416.6 392.6 412.9 373.7 426.6 382.4L446.7 392.5C445.2 397.9 440.7 402.7 436.6 406.4C429 402.7 421.5 398.2 412 398.6C409.2 401.6 406.8 404.9 407 409.2C413.7 410.3 419.8 413.1 425.4 417C422.8 422.6 417.7 426.1 413.1 430.4L397.5 424.8C394.9 428.5 389.5 432.4 391.4 436.5C394.9 438 398.8 440 401.4 442.7C394.5 450.1 385.8 454.9 377.4 460C370.2 436.4 346.3 419.8 348.4 392.5L347.3 391.4C341.7 397.7 343.6 407.8 343.9 415.9C351 433 367 446.2 369.4 465C366.6 469.8 360.3 470.8 355.4 472.8C356 439 304.6 413.3 337.5 379C348.5 362.2 366.9 346.2 360.4 323.2C353.7 300.9 330 287.1 330.2 262.1V260.2C335.6 234.1 352 206.4 338.6 178.7C334.9 167.6 326.5 154.9 315.2 150.2C332.1 169.6 338.8 201.2 329.1 227.2C324.2 237.6 317.5 249.9 316.8 262.1C316.4 268.5 317.7 274.8 321.8 280.8C334.6 301.6 357 324.5 344.1 351.7C329.6 373.5 304.3 395.6 318.4 424.2C328.6 441.3 344.5 458.4 340.2 479.4L323.5 485C334.7 445.8 280 422.7 302.9 383.4C317 362.4 342.3 342.7 328 314.8C319.4 297.5 301.8 287.3 302.3 265.7L302.9 262.1C308.7 231.5 332 202.5 315.7 169.7C311.4 160 302.9 150.2 293.4 144.6L292.8 145.2C311.8 163.6 317.6 193.9 307.3 218.3C302.5 232.6 292 246.8 289.9 262.1C288.9 269.3 289.7 276.8 293.9 284.7C306 303.8 327.2 324.2 314 348.9C300.1 369.3 276.8 389.2 286.1 415.8C296.3 439.1 317.7 461.2 306.2 490.1L288.9 494C302.7 465.9 282 438 269.9 413.6C255.2 378.6 301.5 361.9 302.2 329.9C302 309.3 280.1 297.5 275.4 278.6C265.9 270.6 256.1 281.8 244.7 279.7C236.3 281.4 223.4 268.2 218.4 282.5C212.4 303.5 185.3 319 197.2 343.9C208.6 366 235.9 382.2 226.7 410.9C218.5 437.7 191.5 463.2 208.3 494C201.4 491.8 188.6 496 188.8 485.1C178.2 447.7 223.4 425.9 209.4 388.6C202.9 365.7 173.3 353.1 179.8 325.5C184.6 302.8 210 287 206.5 262.2C206.2 260.1 205.7 258 205 255.8C195.5 229 176.1 202.2 187.7 171C190.9 162.1 197.2 154.4 202.8 146.5C184.4 156.4 175.1 177.2 175.5 198.4C174.7 221.5 191.7 241.2 194.2 262.3C195.2 270.8 193.8 279.5 187.8 288.8C175.7 305.2 159.9 322.5 167.2 344.1C174.1 365.9 201.2 379.1 199.6 404.4C199.4 434.3 164.6 453 174.5 486.5L157.2 480.9C150.3 451.1 181.9 435.9 182.3 408.4C186.8 376.7 146.4 365 148.8 334.1C148.6 310.7 169.3 295.8 178.4 276.1C180 271.3 180.5 266.8 180.3 262.4C179.2 240.6 159.5 223.5 162.8 199C163.9 181 170 165.1 181.8 151.6C165.6 158.1 158.9 176.7 154.5 192.3C146.7 217.4 165.3 239.9 167.1 262.4C167.9 272.3 165.5 282.2 156.2 292.3C142.8 308.1 129.2 328 138.9 349.2C149.1 372.6 181.3 390.8 167.4 420.1C159.8 438.5 141.5 452.5 142.3 474.2C137.5 472.2 132.5 470.1 128.3 466.4C128.3 438.7 167.7 421.4 148.9 392.2C147.2 398 146.9 405.8 145.6 412.3C139.1 429.2 125.1 442.8 119.9 460.3C111.2 456.9 102 449.9 94.8 442.4L104.9 436.2C103.8 432.5 100.8 429.3 98.2 426.2C91.7 425.3 87.4 429.6 82 431.2C77.3 427.1 72.9 423.4 69.2 418.4C72.5 408.9 98.6 416.8 85.4 401.1C76.5 395.5 67.5 403.5 59.7 407.2L49.1 393.8C58.2 388.2 67.3 380.4 78.6 382.6C81.4 387.6 81.6 395 87 397.7C106.2 397.3 119.7 382.8 134.4 371.5C124.2 356.3 115.8 335.2 124.9 316.8C132.2 298.3 151.2 282.8 152 262.4C152.2 257.8 151.5 252.9 149.4 247.6C139.4 221.7 135.8 186.8 155 163.9C144.6 166.7 138.4 179.7 134.9 189.5C123.4 214.8 138 238.1 138.5 262.3C138.6 266.7 138.2 271 137.2 275.4C127.3 295.3 111.4 312.8 108.8 335.7C97.4 342.9 88.1 355.6 72 351.3C71.4 355.6 72.7 362.1 74.2 366.9C61.4 366.4 52.6 375.8 41.8 380.3C36 378.5 34.6 371 32.3 365.8C44.9 361.5 54.1 348.9 68.6 349.1C70.3 344.4 67.7 340.1 66.9 335.7C48.8 327.7 20.2 375.3 17.8 334C35.8 332.9 47.4 316.1 65.2 314.5L65.7 301.1C45.4 299.1 32.4 319.9 12.1 317.8L7.60001 300C31 301.5 45 280.5 67.3 279.3C70.3 275.4 70.6 269.6 71.2 264.2C47 261 30.3 288 4.40001 279.8C4.40001 279.8 3.50001 268.6 3.00001 262.2C2.80001 259.7 2.70001 258 2.70001 258C25.8 266.9 46 250.4 65.8 241.8C70.8 240.3 78.6 242.9 80.9 237.3C80.7 233 88.5 228 82 225C53.2 221.1 34 255.9 4.40001 240.1L2.20001 235.6C8.40001 151.6 55.8 70.3 134.5 30.3C166.4 12.1 206 2.80001 245.9 2.50001C294.1 2.10001 342.8 14.7 379 40.4C414.2 62 447.8 97.5 466.1 133.6C483.6 165.2 491.6 200.7 494 238.5C463.5 261.6 443 216.8 411.9 226.8C413.6 231.6 414.5 236.7 418.1 240.8C445.6 240.6 464.6 269.4 493.4 258.1L493.3 262.2ZM142.8 158.6C123.5 145.9 98.9 157.9 80.9 164.8C79.2 147.9 72.3 132.4 58 121.3C56.6 120.6 54.7 119.2 53 119C52 118.9 51 119.4 50.2 120.7C56.7 160.7 30.7 188.6 12.3 218.9C18.4 223.9 28.3 223.2 35.7 221.7C55.2 213.9 73.8 200.3 97.1 205C104 193.3 115.5 181.9 125 172.6C130.8 167.6 138.7 164.4 142.8 158.6ZM202 183.8C201.6 186.2 202.2 190.5 205.9 188.8C211.7 180.8 221.9 187.1 228.2 187.7V185.4C224.7 180 217.6 177.2 210.4 177.5C208.7 177.6 207 177.8 205.4 178.2C202.9 178.8 201.2 181 202 183.8ZM292.9 159.8C287.7 148.3 275.8 143.6 265 140.8C259.7 140.1 254.2 139.7 248.8 139.7C247.8 139.7 246.8 139.7 245.7 139.7C230.5 140 215.9 143.9 207 156.5C205.7 160 200.1 165 205.3 168.2C217 167.5 230.4 166 238.2 176C238.2 184.9 244 196.8 234.3 201.1C226.3 193.7 216.8 204.3 208.1 198.3C204 195.9 201.4 198.7 199.7 202.2C197.3 225.3 209.4 250.7 230.9 263.5C239.6 266.7 251.4 269.7 260.5 265.2C282.4 255 291.5 231.6 295.6 210C295.1 205.9 295.2 197.9 289.5 197.7C283 201.8 273.5 199.4 266.6 197.7C262.5 199 262.3 205 257.7 206.1L254.9 203.8C252.5 193.6 251 179.1 260.5 172C271.1 167.7 283.6 165.9 294.6 169.2C296.7 165.7 293.5 163 292.9 159.8ZM281.7 178.1C281 178.1 280.2 178.2 279.5 178.2C275.6 180.8 264.2 178.9 268.3 187.7C275.4 182.1 285.2 186 292.3 188.8C294.9 187.5 294.3 184.9 294.5 182.7C292.4 178.4 286.9 178 281.7 178.1ZM362.7 99.5C348.9 98.8 337.4 106.6 324.7 110.1C323.6 99.3 331.8 88 333.6 77.2C313.1 78.5 296.9 90.8 280 100.7C276.1 91.2 272.2 81.7 268.3 72.2L290.6 51L291.2 48.2L261 46.5C255.8 37.4 253.8 26.4 247.6 18.1C242.6 27.6 239.2 37.6 234.2 47.1L204.1 48.8V51L227 71.6C224.2 82.2 221.6 93.7 214.7 101.8C201.3 93.8 188.1 85 173.4 79.5C169.9 78.4 164.8 76.5 161.7 78.9C166.3 89.1 172.8 100.1 171.8 111.3C165.7 110.2 160.8 106.2 155.1 104.6C148.2 102.7 140 99 133.3 101.3C144.5 116.9 153.6 133.3 156.7 152.1C193.7 134.2 236.9 124.4 281.8 132C302.8 135.3 322.1 143.9 340.9 151C341.7 131.1 354.2 115.3 362.7 99.5ZM426.3 206.6C445.3 211.6 464.3 232.3 484.4 218.9C466.9 189.9 440.9 163.1 448.1 125.1C448.9 122.5 447.2 119.9 444.8 119.5C433.5 124.1 424.7 135.3 420.2 146.3C418.4 152.8 417.3 159.7 414.7 165.8C401.1 158.7 386.6 151.9 370.1 153.5C364.1 154.2 355.6 154.6 354.5 160.8C373.3 170.8 388.7 187.6 400.3 205.4C408.1 204.2 418 205.4 426.3 206.6ZM227.7 232.9L228.2 236.3C235.5 241.1 237.7 249.4 247.8 248.6C256.7 249.1 263.4 240.8 267.9 234.1C255.8 232.3 241.1 234.9 227.7 232.9ZM237.7 217.8C238.1 219.3 236.8 221.5 238.8 222.3C244.8 221 255.5 225.5 258.9 218.4C256.6 215.8 252.8 214.6 248.8 214.6C244.8 214.6 240.7 215.8 237.7 217.8Z" fill="#007042"/>
<path opacity="0.99" d="M227.7 211.4H268.5V228.2H227.7V211.4Z" fill="white"/>
<path d="M235.2 220.3C240.5 221.5 241.8 223.4 245.9 223.9C250.3 223.8 249.7 222.9 257.4 220.3C257.9 220.1 258.6 219 257.7 218.1C252.9 213.3 249.6 216.7 246.6 216.8C242.6 216.8 238.9 213.4 235 217.9C234.4 218.9 234.1 219.8 235.2 220.3Z" fill="#007042"/>
<path d="M427.9 495.3V471.4H419.4V466.5H442.2V471.4H433.7V495.3H427.9Z" fill="#007042"/>
<path d="M445.9 495.3V466.6H454.6L459.8 486.2L465 466.6H473.7V495.3H468.3V472.7L462.6 495.3H457L451.3 472.7V495.3H445.9Z" fill="#007042"/>
</g>
<defs>
<clipPath id="clip0_1_2">
<rect width="497.4" height="500" fill="white"/>
</clipPath>
</defs>
</svg>
